<svg width="137" height="137" viewBox="0 0 137 137" fill="none" xmlns="http://www.w3.org/2000/svg">
<path d="M19.2656 126.297L21.4062 14.9844H107.031L111.312 64.2188V126.297H19.2656Z" fill="#5DB5A5"/>
<path d="M40.6719 87.7656V51.375H85.625V87.7656H40.6719Z" fill="#B56F5D"/>
<path d="M85.8768 69.2519C83.0949 69.2519 80.84 67.0058 80.84 64.2349V56.7093H49.3603V83.2996H71.2702C74.052 83.2996 76.3069 85.5458 76.3069 88.3167C76.3069 91.0876 74.052 93.3337 71.2702 93.3337H48.9286C47.8913 96.2564 45.0944 98.3508 41.8051 98.3508C37.6324 98.3508 34.25 94.9816 34.25 90.8252C34.25 87.5488 36.3526 84.7629 39.2867 83.7296V56.4359C36.485 55.3352 34.5018 52.6164 34.5018 49.4346C34.5018 45.2785 37.8842 41.9091 42.0569 41.9091C45.2513 41.9091 47.9804 43.8848 49.0857 46.6752H79.4236C80.3864 43.6221 83.2496 41.4074 86.6325 41.4074C90.8052 41.4074 94.1876 44.7765 94.1876 48.9329C94.1876 51.5056 92.8909 53.7756 90.9138 55.1327V64.2349C90.9135 67.0058 88.6586 69.2519 85.8768 69.2519ZM119.325 109.764L111.867 111.755L118.608 125.498C119.829 127.987 118.793 130.992 116.294 132.208C115.582 132.554 114.829 132.719 114.086 132.719C112.222 132.719 110.431 131.684 109.557 129.903L102.805 116.139L96.9962 121.496C95.7312 122.663 94.2166 123.185 92.7325 123.185C89.4826 123.185 86.3807 120.677 86.3807 116.932V84.0018C86.3807 80.1585 89.5677 77.53 92.9443 77.53C94.3428 77.53 95.7737 77.9808 97.0244 78.983L121.815 98.8479C125.875 102.102 124.405 108.548 119.325 109.764ZM98.726 106.855L107.535 102.615L109.484 101.845L96.4539 91.4042V108.33C97.1407 107.738 97.905 107.242 98.726 106.855ZM73.7885 122.683H32.9908C27.4362 122.683 22.9173 118.182 22.9173 112.649V24.3494C22.9173 18.8166 27.4362 14.3153 32.9908 14.3153H94.915C100.469 14.3153 104.988 18.8166 104.988 24.3494V69.8791C104.988 72.65 107.243 74.8961 110.025 74.8961C112.807 74.8961 115.062 72.65 115.062 69.8791V24.3494C115.062 13.2838 106.024 4.28125 94.915 4.28125H32.9908C21.8817 4.28125 12.8438 13.2838 12.8438 24.3494V112.649C12.8438 123.715 21.8817 132.717 32.9908 132.717H73.7885C76.5703 132.717 78.8253 130.471 78.8253 127.7C78.8253 124.93 76.5703 122.683 73.7885 122.683Z" fill="white"/>
<path d="M85.8768 69.2519C83.0949 69.2519 80.84 67.0058 80.84 64.2349V56.7093H49.3603V83.2996H71.2702C74.052 83.2996 76.3069 85.5458 76.3069 88.3167C76.3069 91.0876 74.052 93.3337 71.2702 93.3337H48.9286C47.8913 96.2564 45.0944 98.3508 41.8051 98.3508C37.6324 98.3508 34.25 94.9816 34.25 90.8252C34.25 87.5488 36.3526 84.7629 39.2867 83.7296V56.4359C36.485 55.3352 34.5018 52.6164 34.5018 49.4346C34.5018 45.2785 37.8842 41.9091 42.0569 41.9091C45.2513 41.9091 47.9804 43.8848 49.0857 46.6752H79.4236C80.3864 43.6221 83.2496 41.4074 86.6325 41.4074C90.8052 41.4074 94.1876 44.7765 94.1876 48.9329C94.1876 51.5056 92.8909 53.7756 90.9138 55.1327V64.2349C90.9135 67.0058 88.6586 69.2519 85.8768 69.2519ZM119.325 109.764L111.867 111.755L118.608 125.498C119.829 127.987 118.793 130.992 116.294 132.208C115.582 132.554 114.829 132.719 114.086 132.719C112.222 132.719 110.431 131.684 109.557 129.903L102.805 116.139L96.9962 121.496C95.7312 122.663 94.2166 123.185 92.7325 123.185C89.4826 123.185 86.3807 120.677 86.3807 116.932V84.0018C86.3807 80.1585 89.5677 77.53 92.9443 77.53C94.3428 77.53 95.7737 77.9808 97.0244 78.983L121.815 98.8479C125.875 102.102 124.405 108.548 119.325 109.764ZM98.726 106.855L107.535 102.615L109.484 101.845L96.4539 91.4042V108.33C97.1407 107.738 97.905 107.242 98.726 106.855ZM73.7885 122.683H32.9908C27.4362 122.683 22.9173 118.182 22.9173 112.649V24.3494C22.9173 18.8166 27.4362 14.3153 32.9908 14.3153H94.915C100.469 14.3153 104.988 18.8166 104.988 24.3494V69.8791C104.988 72.65 107.243 74.8961 110.025 74.8961C112.807 74.8961 115.062 72.65 115.062 69.8791V24.3494C115.062 13.2838 106.024 4.28125 94.915 4.28125H32.9908C21.8817 4.28125 12.8438 13.2838 12.8438 24.3494V112.649C12.8438 123.715 21.8817 132.717 32.9908 132.717H73.7885C76.5703 132.717 78.8253 130.471 78.8253 127.7C78.8253 124.93 76.5703 122.683 73.7885 122.683Z" stroke="white"/>
</svg>
