<svg width="16" height="17" viewBox="0 0 16 17" fill="none" xmlns="http://www.w3.org/2000/svg">
<path d="M15.5 8.36145C15.5 12.7243 12.1215 16.2229 8 16.2229C3.87846 16.2229 0.5 12.7243 0.5 8.36145C0.5 3.99864 3.87846 0.5 8 0.5C12.1215 0.5 15.5 3.99864 15.5 8.36145Z" fill="#FFC700" stroke="#EE892D"/>
<path d="M2.52599 6.66129C2.4895 6.65051 2.45023 6.66228 2.42508 6.69153C2.39993 6.72078 2.39339 6.7623 2.40826 6.79822C3.10306 8.38387 4.3286 10.0866 5.87258 11.0392C4.89003 11.0247 3.91865 11.2549 3.0413 11.71C3.0017 11.7377 2.978 11.7837 2.978 11.833C2.978 11.8823 3.0017 11.9283 3.0413 11.956C4.04296 12.4621 5.25113 12.7499 6.37438 12.5712C6.1266 12.977 5.9563 13.4276 5.87258 13.8989C5.86766 13.9363 5.88258 13.9735 5.91169 13.9965C5.9408 14.0194 5.97963 14.0246 6.01347 14.01C6.73336 13.7778 7.46675 13.2936 7.80064 12.5712V14.016C7.80064 14.1256 7.88705 14.2144 7.99364 14.2144C8.10023 14.2144 8.18663 14.1256 8.18663 14.016V12.5712C8.52052 13.2916 9.25392 13.7778 9.9738 14.01C10.0076 14.0246 10.0465 14.0194 10.0756 13.9965C10.1047 13.9735 10.1196 13.9363 10.1147 13.8989C10.0316 13.4277 9.86192 12.9771 9.61482 12.5712C10.7361 12.7518 11.9443 12.4621 12.9479 11.956C12.9875 11.9283 13.0112 11.8823 13.0112 11.833C13.0112 11.7837 12.9875 11.7377 12.9479 11.71C12.0711 11.2552 11.1005 11.0251 10.1185 11.0392C11.6471 10.0926 12.8842 8.39181 13.5925 6.79822C13.6074 6.7623 13.6009 6.72078 13.5757 6.69153C13.5506 6.66228 13.5113 6.65051 13.4748 6.66129C11.7976 7.2249 9.97959 8.34021 8.8988 9.85838H8.88915C9.49709 7.51663 9.02232 4.73033 8.09207 2.56718C8.07712 2.53152 8.04298 2.50842 8.00522 2.50842C7.96745 2.50842 7.93331 2.53152 7.91837 2.56718C6.98618 4.75018 6.51527 7.52853 7.12128 9.85838H7.11163C6.03084 8.3541 4.21859 7.22887 2.52599 6.66129V6.66129Z" fill="#CF6300"/>
</svg>
