<svg width="28" height="20" viewBox="0 0 28 20" fill="none" xmlns="http://www.w3.org/2000/svg">
<path d="M26.4516 7.54361C25.7658 3.23297 22.043 0 17.7324 0H9.79689C5.38829 0 1.66547 3.23297 0.979689 7.54361C0.293907 12.1481 0 14.2055 0 14.9892C0 19.7897 6.56392 21.3572 8.71923 17.0466L10.3847 13.7157H17.0466L18.7121 17.0466C20.8674 21.3572 27.4313 19.7897 27.4313 14.9892C27.4313 14.3035 27.4313 15.1852 26.4516 7.54361ZM25.4719 14.9892C25.4719 17.7324 21.6511 18.7121 20.4755 16.1649L18.5161 12.2461C18.3202 11.9522 18.0263 11.7563 17.6344 11.7563H9.79689C9.40502 11.7563 9.11111 11.9522 8.91517 12.3441L6.95579 16.2628C5.78017 18.7121 1.95938 17.7324 1.95938 14.9892L2.93907 7.83751C3.42891 4.50657 6.36798 1.95938 9.69892 1.95938H17.6344C21.0633 1.95938 23.9044 4.50657 24.3943 7.83751C24.4922 7.93548 25.5699 15.4791 25.4719 14.9892Z" fill="black"/>
<path d="M11.7563 6.85783C11.7563 7.44564 11.3644 7.83752 10.7766 7.83752H9.79693V8.81721C9.79693 9.40502 9.40506 9.7969 8.81724 9.7969C8.22943 9.7969 7.83755 9.40502 7.83755 8.81721V7.83752H6.85786C6.27005 7.83752 5.87817 7.44564 5.87817 6.85783C5.87817 6.27002 6.27005 5.87814 6.85786 5.87814H7.83755V4.89845C7.83755 4.31064 8.22943 3.91876 8.81724 3.91876C9.40506 3.91876 9.79693 4.31064 9.79693 4.89845V5.87814H10.7766C11.3644 5.87814 11.7563 6.27002 11.7563 6.85783Z" fill="black"/>
<path d="M17.6344 6.8578C17.6344 7.44562 17.2426 7.83749 16.6547 7.83749C16.0669 7.83749 15.675 7.44562 15.675 6.8578C15.675 6.26999 16.0669 5.87811 16.6547 5.87811C17.2426 5.87811 17.6344 6.26999 17.6344 6.8578Z" fill="black"/>
<path d="M19.5938 8.81721C19.5938 9.40503 19.2019 9.7969 18.6141 9.7969C18.0263 9.7969 17.6344 9.40503 17.6344 8.81721C17.6344 8.2294 18.0263 7.83752 18.6141 7.83752C19.2019 7.83752 19.5938 8.2294 19.5938 8.81721Z" fill="black"/>
<path d="M21.5531 6.8578C21.5531 7.44562 21.1613 7.83749 20.5734 7.83749C19.9856 7.83749 19.5938 7.44562 19.5938 6.8578C19.5938 6.26999 19.9856 5.87811 20.5734 5.87811C21.1613 5.87811 21.5531 6.26999 21.5531 6.8578Z" fill="black"/>
<path d="M17.6344 4.89845C17.6344 4.31064 18.0263 3.91876 18.6141 3.91876C19.2019 3.91876 19.5938 4.31064 19.5938 4.89845C19.5938 5.48627 19.2019 5.87814 18.6141 5.87814C18.0263 5.87814 17.6344 5.48627 17.6344 4.89845Z" fill="black"/>
</svg>
