<svg width="29" height="28" viewBox="0 0 29 28" fill="none" xmlns="http://www.w3.org/2000/svg">
<mask id="path-1-inside-1_84_21" fill="white">
<path d="M28.8553 14.1239L26.4936 12.0764C26.8846 11.531 27.1859 10.9405 27.1859 10.4154C27.1859 8.92886 25.9763 7.71927 24.4897 7.71927C23.6983 7.71927 22.9855 8.06221 22.4918 8.60715L16.8853 3.74646C17.074 3.38892 17.1962 3.02939 17.1962 2.69618C17.1962 1.20959 15.9866 0 14.5 0C13.0134 0 11.8038 1.20959 11.8038 2.69618C11.8038 3.03116 11.9275 3.3929 12.1178 3.75244L6.5234 8.62485C6.02934 8.06973 5.31005 7.71927 4.51023 7.71927C3.02363 7.71927 1.81405 8.92886 1.81405 10.4154C1.81405 10.9498 2.12623 11.552 2.52736 12.1054L0.144035 14.1812C-0.0480117 14.3482 -0.0480117 14.6562 0.144035 14.8232L14.2203 27.0835C14.379 27.2215 14.6221 27.2213 14.7803 27.0828L22.541 20.2921C22.718 20.1375 22.7359 19.8685 22.581 19.6914C22.4261 19.5147 22.1571 19.4967 21.9803 19.6514L20.6802 20.7891L15.8339 15.2505V12.4824L21.8237 9.15453L22.0237 9.32799C21.8763 9.66076 21.7938 10.0287 21.7938 10.4154C21.7938 11.8259 23.9667 13.7088 24.2145 13.9188C24.3714 14.0517 24.6083 14.0517 24.765 13.9188C24.8811 13.8203 25.4206 13.3541 25.9609 12.7413L27.9284 14.4469L23.5543 18.2741C23.3912 18.4168 23.3625 18.6673 23.489 18.8432C23.6335 19.0441 23.9284 19.0781 24.1149 18.9149L28.8568 14.7657C29.0484 14.5982 29.0475 14.2905 28.8553 14.1239V14.1239ZM14.5 0.851379C15.5171 0.851379 16.3446 1.67886 16.3446 2.69618C16.3446 3.38273 15.3058 4.56598 14.5 5.30629C13.9991 4.84609 13.4083 4.21486 13.0326 3.63783C13.0245 3.62323 13.0154 3.60907 13.0054 3.59513C12.7926 3.25993 12.6552 2.94531 12.6552 2.69596C12.6552 1.67886 13.4827 0.851379 14.5 0.851379ZM14.2247 6.19927C14.3816 6.33246 14.6186 6.33246 14.7752 6.19927C14.9243 6.07293 15.7702 5.34081 16.4205 4.4704L21.1389 8.56091L15.4733 11.7087L10.0931 6.64487L12.5835 4.47593C13.2333 5.34391 14.0758 6.07337 14.2247 6.19927V6.19927ZM4.51023 8.57087C5.52732 8.57087 6.35481 9.39835 6.35481 10.4154C6.35481 11.1022 5.31603 12.2855 4.51023 13.0258C3.70443 12.2853 2.66543 11.102 2.66543 10.4154C2.66543 9.39835 3.49291 8.57087 4.51023 8.57087ZM3.06302 12.7678C3.59513 13.3674 4.12038 13.8216 4.23499 13.9188C4.39164 14.0517 4.6286 14.0517 4.78546 13.9188C5.03327 13.7088 7.20619 11.8259 7.20619 10.4154C7.20619 10.0373 7.12764 9.67735 6.98648 9.35056L9.44769 7.20685L14.9823 12.4158V14.9848H10.8672C10.775 14.9848 10.6854 15.0146 10.6117 15.0697L5.83575 18.6518L1.07152 14.5022L3.06302 12.7678ZM14.4993 26.1974L6.49243 19.2235L11.0093 15.8359H15.2151L20.0395 21.3497L14.4993 26.1974ZM24.4897 13.0258C23.6839 12.2853 22.6449 11.102 22.6449 10.4154C22.6449 9.39835 23.4726 8.57087 24.4897 8.57087C25.5068 8.57087 26.3345 9.39835 26.3345 10.4154C26.3345 11.102 25.2955 12.2855 24.4897 13.0258Z"/>
</mask>
<path d="M28.8553 14.1239L26.4936 12.0764C26.8846 11.531 27.1859 10.9405 27.1859 10.4154C27.1859 8.92886 25.9763 7.71927 24.4897 7.71927C23.6983 7.71927 22.9855 8.06221 22.4918 8.60715L16.8853 3.74646C17.074 3.38892 17.1962 3.02939 17.1962 2.69618C17.1962 1.20959 15.9866 0 14.5 0C13.0134 0 11.8038 1.20959 11.8038 2.69618C11.8038 3.03116 11.9275 3.3929 12.1178 3.75244L6.5234 8.62485C6.02934 8.06973 5.31005 7.71927 4.51023 7.71927C3.02363 7.71927 1.81405 8.92886 1.81405 10.4154C1.81405 10.9498 2.12623 11.552 2.52736 12.1054L0.144035 14.1812C-0.0480117 14.3482 -0.0480117 14.6562 0.144035 14.8232L14.2203 27.0835C14.379 27.2215 14.6221 27.2213 14.7803 27.0828L22.541 20.2921C22.718 20.1375 22.7359 19.8685 22.581 19.6914C22.4261 19.5147 22.1571 19.4967 21.9803 19.6514L20.6802 20.7891L15.8339 15.2505V12.4824L21.8237 9.15453L22.0237 9.32799C21.8763 9.66076 21.7938 10.0287 21.7938 10.4154C21.7938 11.8259 23.9667 13.7088 24.2145 13.9188C24.3714 14.0517 24.6083 14.0517 24.765 13.9188C24.8811 13.8203 25.4206 13.3541 25.9609 12.7413L27.9284 14.4469L23.5543 18.2741C23.3912 18.4168 23.3625 18.6673 23.489 18.8432C23.6335 19.0441 23.9284 19.0781 24.1149 18.9149L28.8568 14.7657C29.0484 14.5982 29.0475 14.2905 28.8553 14.1239V14.1239ZM14.5 0.851379C15.5171 0.851379 16.3446 1.67886 16.3446 2.69618C16.3446 3.38273 15.3058 4.56598 14.5 5.30629C13.9991 4.84609 13.4083 4.21486 13.0326 3.63783C13.0245 3.62323 13.0154 3.60907 13.0054 3.59513C12.7926 3.25993 12.6552 2.94531 12.6552 2.69596C12.6552 1.67886 13.4827 0.851379 14.5 0.851379ZM14.2247 6.19927C14.3816 6.33246 14.6186 6.33246 14.7752 6.19927C14.9243 6.07293 15.7702 5.34081 16.4205 4.4704L21.1389 8.56091L15.4733 11.7087L10.0931 6.64487L12.5835 4.47593C13.2333 5.34391 14.0758 6.07337 14.2247 6.19927V6.19927ZM4.51023 8.57087C5.52732 8.57087 6.35481 9.39835 6.35481 10.4154C6.35481 11.1022 5.31603 12.2855 4.51023 13.0258C3.70443 12.2853 2.66543 11.102 2.66543 10.4154C2.66543 9.39835 3.49291 8.57087 4.51023 8.57087ZM3.06302 12.7678C3.59513 13.3674 4.12038 13.8216 4.23499 13.9188C4.39164 14.0517 4.6286 14.0517 4.78546 13.9188C5.03327 13.7088 7.20619 11.8259 7.20619 10.4154C7.20619 10.0373 7.12764 9.67735 6.98648 9.35056L9.44769 7.20685L14.9823 12.4158V14.9848H10.8672C10.775 14.9848 10.6854 15.0146 10.6117 15.0697L5.83575 18.6518L1.07152 14.5022L3.06302 12.7678ZM14.4993 26.1974L6.49243 19.2235L11.0093 15.8359H15.2151L20.0395 21.3497L14.4993 26.1974ZM24.4897 13.0258C23.6839 12.2853 22.6449 11.102 22.6449 10.4154C22.6449 9.39835 23.4726 8.57087 24.4897 8.57087C25.5068 8.57087 26.3345 9.39835 26.3345 10.4154C26.3345 11.102 25.2955 12.2855 24.4897 13.0258Z" fill="black"/>
<path d="M26.4936 12.0764L25.6809 11.4938L25.1497 12.2348L25.8386 12.832L26.4936 12.0764ZM22.4918 8.60715L21.8368 9.36273L22.5761 10.0037L23.233 9.27849L22.4918 8.60715ZM16.8853 3.74646L16.0009 3.27966L15.6303 3.98189L16.2302 4.50204L16.8853 3.74646ZM12.1178 3.75244L12.7745 4.50653L13.3726 3.98565L13.0016 3.28468L12.1178 3.75244ZM6.5234 8.62485L5.7764 9.28968L6.43413 10.0287L7.18017 9.37894L6.5234 8.62485ZM2.52736 12.1054L3.18414 12.8595L3.87373 12.2589L3.33701 11.5185L2.52736 12.1054ZM0.144035 14.1812L0.800322 14.9357L0.800813 14.9352L0.144035 14.1812ZM0.144035 14.8232L0.800824 14.0692L0.800322 14.0687L0.144035 14.8232ZM14.2203 27.0835L13.5635 27.8376L13.5638 27.8378L14.2203 27.0835ZM14.7803 27.0828L14.1218 26.3303L14.1216 26.3304L14.7803 27.0828ZM22.541 20.2921L21.883 19.5391L21.8824 19.5396L22.541 20.2921ZM22.581 19.6914L23.3336 19.0329L23.3332 19.0325L22.581 19.6914ZM21.9803 19.6514L21.3219 18.8988L21.3218 18.8989L21.9803 19.6514ZM20.6802 20.7891L19.9277 21.4476L20.5862 22.2002L21.3388 21.5416L20.6802 20.7891ZM15.8339 15.2505H14.8339V15.6262L15.0813 15.909L15.8339 15.2505ZM15.8339 12.4824L15.3482 11.6082L14.8339 11.894V12.4824H15.8339ZM21.8237 9.15453L22.4788 8.39906L21.95 7.94038L21.338 8.28039L21.8237 9.15453ZM22.0237 9.32799L22.938 9.73289L23.2374 9.0569L22.6789 8.57253L22.0237 9.32799ZM24.2145 13.9188L24.8611 13.1559L24.861 13.1558L24.2145 13.9188ZM24.765 13.9188L24.1184 13.1559L24.1178 13.1564L24.765 13.9188ZM25.9609 12.7413L26.6159 11.9856L25.8665 11.3361L25.2107 12.08L25.9609 12.7413ZM27.9284 14.4469L28.5869 15.1995L29.4511 14.4434L28.5835 13.6913L27.9284 14.4469ZM23.5543 18.2741L22.8958 17.5215L22.8957 17.5216L23.5543 18.2741ZM23.489 18.8432L24.3009 18.2593L24.3008 18.2591L23.489 18.8432ZM24.1149 18.9149L23.4564 18.1623L23.4563 18.1624L24.1149 18.9149ZM28.8568 14.7657L28.1987 14.0128L28.1983 14.0131L28.8568 14.7657ZM14.5 5.30629L13.8234 6.04269L14.5 6.66425L15.1765 6.04269L14.5 5.30629ZM13.0326 3.63783L12.1604 4.12684L12.1765 4.15571L12.1946 4.18345L13.0326 3.63783ZM13.0054 3.59513L12.1612 4.13117L12.1759 4.15418L12.1917 4.17636L13.0054 3.59513ZM14.7752 6.19927L14.1288 5.43627L14.1275 5.43743L14.7752 6.19927ZM16.4205 4.4704L17.0755 3.71481L16.2629 3.01039L15.6193 3.8719L16.4205 4.4704ZM21.1389 8.56091L21.6245 9.43506L22.8734 8.74118L21.7939 7.80532L21.1389 8.56091ZM15.4733 11.7087L14.7879 12.4369L15.3201 12.9378L15.9589 12.5828L15.4733 11.7087ZM10.0931 6.64487L9.43633 5.89077L8.60347 6.61611L9.40771 7.37306L10.0931 6.64487ZM12.5835 4.47593L13.384 3.87662L12.7387 3.01468L11.9267 3.72183L12.5835 4.47593ZM4.51023 13.0258L3.83357 13.7621L4.51013 14.3838L5.18678 13.7622L4.51023 13.0258ZM3.06302 12.7678L3.81096 12.104L3.15336 11.363L2.40626 12.0137L3.06302 12.7678ZM4.23499 13.9188L4.88214 13.1564L4.88153 13.1559L4.23499 13.9188ZM4.78546 13.9188L4.139 13.1558L4.13885 13.1559L4.78546 13.9188ZM6.98648 9.35056L6.32969 8.59649L5.77874 9.07637L6.06847 9.74711L6.98648 9.35056ZM9.44769 7.20685L10.133 6.47864L9.47368 5.85807L8.7909 6.45278L9.44769 7.20685ZM14.9823 12.4158H15.9823V11.9837L15.6677 11.6876L14.9823 12.4158ZM14.9823 14.9848V15.9848H15.9823V14.9848H14.9823ZM10.6117 15.0697L10.0129 14.2688L10.0117 14.2697L10.6117 15.0697ZM5.83575 18.6518L5.17896 19.4059L5.78879 19.937L6.43576 19.4518L5.83575 18.6518ZM1.07152 14.5022L0.414772 13.7481L-0.451075 14.5022L0.414735 15.2563L1.07152 14.5022ZM14.4993 26.1974L13.8425 26.9514L14.5008 27.5248L15.1578 26.9499L14.4993 26.1974ZM6.49243 19.2235L5.89243 18.4235L4.90318 19.1654L5.83564 19.9776L6.49243 19.2235ZM11.0093 15.8359V14.8359H10.676L10.4093 15.0359L11.0093 15.8359ZM15.2151 15.8359L15.9677 15.1774L15.6689 14.8359H15.2151V15.8359ZM20.0395 21.3497L20.698 22.1023L21.4505 21.4438L20.7921 20.6912L20.0395 21.3497ZM24.4897 13.0258L23.8131 13.7621L24.4896 14.3838L25.1663 13.7622L24.4897 13.0258ZM29.5103 13.3683L27.1487 11.3208L25.8386 12.832L28.2002 14.8794L29.5103 13.3683ZM27.3064 12.659C27.72 12.082 28.1859 11.2719 28.1859 10.4154H26.1859C26.1859 10.609 26.0492 10.98 25.6809 11.4938L27.3064 12.659ZM28.1859 10.4154C28.1859 8.37657 26.5286 6.71927 24.4897 6.71927V8.71927C25.4241 8.71927 26.1859 9.48114 26.1859 10.4154H28.1859ZM24.4897 6.71927C23.4032 6.71927 22.4251 7.19122 21.7507 7.93582L23.233 9.27849C23.5458 8.9332 23.9934 8.71927 24.4897 8.71927V6.71927ZM23.1469 7.85158L17.5404 2.99089L16.2302 4.50204L21.8368 9.36273L23.1469 7.85158ZM17.7697 4.21327C17.9951 3.78625 18.1962 3.25936 18.1962 2.69618H16.1962C16.1962 2.79941 16.153 2.99159 16.0009 3.27966L17.7697 4.21327ZM18.1962 2.69618C18.1962 0.657301 16.5389 -1 14.5 -1V1C15.4343 1 16.1962 1.76187 16.1962 2.69618H18.1962ZM14.5 -1C12.4611 -1 10.8038 0.657301 10.8038 2.69618H12.8038C12.8038 1.76187 13.5657 1 14.5 1V-1ZM10.8038 2.69618C10.8038 3.26241 11.0074 3.79214 11.2339 4.2202L13.0016 3.28468C12.8476 2.99367 12.8038 2.7999 12.8038 2.69618H10.8038ZM11.461 2.99835L5.86663 7.87077L7.18017 9.37894L12.7745 4.50653L11.461 2.99835ZM7.2704 7.96003C6.59552 7.20174 5.60864 6.71927 4.51023 6.71927V8.71927C5.01146 8.71927 5.46317 8.93773 5.7764 9.28968L7.2704 7.96003ZM4.51023 6.71927C2.47135 6.71927 0.814047 8.37657 0.814047 10.4154H2.81405C2.81405 9.48114 3.57592 8.71927 4.51023 8.71927V6.71927ZM0.814047 10.4154C0.814047 11.2856 1.29529 12.1096 1.71772 12.6923L3.33701 11.5185C2.95718 10.9945 2.81405 10.6139 2.81405 10.4154H0.814047ZM1.87059 11.3513L-0.512743 13.4271L0.800813 14.9352L3.18414 12.8595L1.87059 11.3513ZM-0.512251 13.4267C-1.16258 13.9923 -1.16258 15.0121 -0.512251 15.5777L0.800322 14.0687C1.06656 14.3003 1.06656 14.7041 0.800321 14.9357L-0.512251 13.4267ZM-0.512753 15.5773L13.5635 27.8376L14.8771 26.3294L0.800824 14.0692L-0.512753 15.5773ZM13.5638 27.8378C14.0992 28.3037 14.9041 28.3036 15.439 27.8352L14.1216 26.3304C14.3401 26.1391 14.6587 26.1394 14.8768 26.3292L13.5638 27.8378ZM15.4388 27.8354L23.1995 21.0447L21.8824 19.5396L14.1218 26.3303L15.4388 27.8354ZM23.1989 21.0452C23.7926 20.5265 23.8519 19.6253 23.3336 19.0329L21.8284 20.35C21.6199 20.1116 21.6434 19.7485 21.883 19.5391L23.1989 21.0452ZM23.3332 19.0325C22.8148 18.4408 21.9145 18.3803 21.3219 18.8988L22.6387 20.404C22.3997 20.6132 22.0374 20.5885 21.8288 20.3504L23.3332 19.0325ZM21.3218 18.8989L20.0217 20.0365L21.3388 21.5416L22.6388 20.4039L21.3218 18.8989ZM21.4328 20.1306L16.5865 14.592L15.0813 15.909L19.9277 21.4476L21.4328 20.1306ZM16.8339 15.2505V12.4824H14.8339V15.2505H16.8339ZM16.3196 13.3565L22.3093 10.0287L21.338 8.28039L15.3482 11.6082L16.3196 13.3565ZM21.1685 9.91L21.3685 10.0835L22.6789 8.57253L22.4788 8.39906L21.1685 9.91ZM21.1093 8.9231C20.9072 9.3796 20.7938 9.88516 20.7938 10.4154H22.7938C22.7938 10.1722 22.8455 9.94192 22.938 9.73289L21.1093 8.9231ZM20.7938 10.4154C20.7938 11.0083 21.0157 11.5635 21.2606 12.0096C21.5125 12.4685 21.8381 12.9 22.1504 13.2662C22.7753 13.999 23.427 14.5622 23.568 14.6817L24.861 13.1558C24.7542 13.0654 24.1955 12.5821 23.6721 11.9684C23.4102 11.6613 23.177 11.3445 23.0138 11.0472C22.8435 10.7369 22.7938 10.5278 22.7938 10.4154H20.7938ZM23.5679 14.6816C24.0976 15.1306 24.882 15.1312 25.4121 14.6811L24.1178 13.1564C24.3347 12.9723 24.6452 12.9729 24.8611 13.1559L23.5679 14.6816ZM25.4116 14.6816C25.5448 14.5687 26.1251 14.0671 26.711 13.4026L25.2107 12.08C24.716 12.6412 24.2175 13.0719 24.1184 13.1559L25.4116 14.6816ZM25.3058 13.4969L27.2734 15.2025L28.5835 13.6913L26.6159 11.9856L25.3058 13.4969ZM27.27 13.6943L22.8958 17.5215L24.2128 19.0267L28.5869 15.1995L27.27 13.6943ZM22.8957 17.5216C22.345 18.0036 22.2495 18.8327 22.6773 19.4272L24.3008 18.2591C24.4754 18.5019 24.4375 18.83 24.2129 19.0266L22.8957 17.5216ZM22.6772 19.427C23.1659 20.1066 24.1429 20.2195 24.7736 19.6673L23.4563 18.1624C23.714 17.9368 24.1011 17.9816 24.3009 18.2593L22.6772 19.427ZM24.7734 19.6674L29.5153 15.5183L28.1983 14.0131L23.4564 18.1623L24.7734 19.6674ZM29.515 15.5186C30.1643 14.951 30.1607 13.9318 29.5101 13.3681L28.2004 14.8796C27.9344 14.6491 27.9326 14.2454 28.1987 14.0128L29.515 15.5186ZM14.5 1.85138C14.9647 1.85138 15.3446 2.23107 15.3446 2.69618H17.3446C17.3446 1.12666 16.0694 -0.148621 14.5 -0.148621V1.85138ZM15.3446 2.69618C15.3446 2.64028 15.3576 2.67836 15.276 2.84084C15.2029 2.98634 15.0863 3.16806 14.9283 3.37594C14.6129 3.79091 14.1954 4.22819 13.8234 4.56989L15.1765 6.04269C15.6104 5.64408 16.1152 5.11958 16.5206 4.58621C16.723 4.31992 16.9164 4.03083 17.0634 3.73824C17.2017 3.46263 17.3446 3.09535 17.3446 2.69618H15.3446ZM15.1765 4.56989C14.7069 4.13846 14.1827 3.57148 13.8707 3.09221L12.1946 4.18345C12.6339 4.85823 13.2912 5.55372 13.8234 6.04269L15.1765 4.56989ZM13.9049 3.14882C13.8774 3.09971 13.8484 3.05483 13.8192 3.01389L12.1917 4.17636C12.1824 4.1633 12.1715 4.14674 12.1604 4.12684L13.9049 3.14882ZM13.8496 3.05908C13.7646 2.9252 13.7097 2.81855 13.6784 2.74056C13.6445 2.65607 13.6552 2.64732 13.6552 2.69596H11.6552C11.6552 3.24914 11.9329 3.77153 12.1612 4.13117L13.8496 3.05908ZM13.6552 2.69596C13.6552 2.23122 14.0349 1.85138 14.5 1.85138V-0.148621C12.9305 -0.148621 11.6552 1.1265 11.6552 2.69596H13.6552ZM13.5775 6.96155C14.1074 7.41148 14.8926 7.41207 15.423 6.9611L14.1275 5.43743C14.3445 5.25285 14.6558 5.25345 14.872 5.43698L13.5775 6.96155ZM15.4216 6.96227C15.5847 6.82407 16.5014 6.03288 17.2216 5.0689L15.6193 3.8719C15.039 4.64874 14.264 5.32179 14.1288 5.43627L15.4216 6.96227ZM15.7654 5.22599L20.4838 9.31651L21.7939 7.80532L17.0755 3.71481L15.7654 5.22599ZM20.6532 7.68677L14.9876 10.8345L15.9589 12.5828L21.6245 9.43506L20.6532 7.68677ZM16.1586 10.9805L10.7785 5.91667L9.40771 7.37306L14.7879 12.4369L16.1586 10.9805ZM10.7498 7.39897L13.2403 5.23003L11.9267 3.72183L9.43633 5.89077L10.7498 7.39897ZM11.783 5.07525C12.5024 6.03612 13.4151 6.82425 13.5791 6.96291L14.8704 5.43562C14.7366 5.3225 13.9643 4.65169 13.384 3.87662L11.783 5.07525ZM4.51023 9.57087C4.97504 9.57087 5.35481 9.95064 5.35481 10.4154H7.35481C7.35481 8.84607 6.07961 7.57087 4.51023 7.57087V9.57087ZM5.35481 10.4154C5.35481 10.3597 5.36777 10.3978 5.2862 10.5603C5.21315 10.7058 5.09656 10.8875 4.93855 11.0954C4.62314 11.5104 4.20561 11.9477 3.83368 12.2894L5.18678 13.7622C5.62065 13.3636 6.1254 12.8391 6.53083 12.3057C6.73325 12.0393 6.92671 11.7502 7.07362 11.4576C7.212 11.1819 7.35481 10.8146 7.35481 10.4154H5.35481ZM5.18688 12.2895C4.81487 11.9476 4.39724 11.5102 4.08175 11.0952C3.9237 10.8873 3.80708 10.7056 3.73401 10.5601C3.65241 10.3976 3.66543 10.3595 3.66543 10.4154H1.66543C1.66543 10.8147 1.80831 11.182 1.94671 11.4576C2.09363 11.7502 2.28713 12.0393 2.48956 12.3055C2.89502 12.8389 3.39979 13.3634 3.83357 13.7621L5.18688 12.2895ZM3.66543 10.4154C3.66543 9.95072 4.04512 9.57087 4.51023 9.57087V7.57087C2.9407 7.57087 1.66543 8.84599 1.66543 10.4154H3.66543ZM2.31507 13.4316C2.89151 14.0811 3.45647 14.5698 3.58845 14.6816L4.88153 13.1559C4.78429 13.0735 4.29874 12.6537 3.81096 12.104L2.31507 13.4316ZM3.58784 14.6811C4.11801 15.1312 4.9024 15.1306 5.43208 14.6816L4.13885 13.1559C4.35479 12.9729 4.66526 12.9723 4.88214 13.1564L3.58784 14.6811ZM5.43193 14.6817C5.57298 14.5622 6.22465 13.999 6.84962 13.2662C7.1619 12.9 7.48745 12.4685 7.7394 12.0096C7.98426 11.5635 8.20619 11.0083 8.20619 10.4154H6.20619C6.20619 10.5278 6.1565 10.7369 5.98619 11.0472C5.82297 11.3445 5.58981 11.6613 5.32789 11.9684C4.80444 12.5821 4.24576 13.0654 4.139 13.1558L5.43193 14.6817ZM8.20619 10.4154C8.20619 9.89761 8.0984 9.40292 7.9045 8.95402L6.06847 9.74711C6.15688 9.95179 6.20619 10.1771 6.20619 10.4154H8.20619ZM7.64328 10.1046L10.1045 7.96092L8.7909 6.45278L6.32969 8.59649L7.64328 10.1046ZM8.76234 7.93506L14.297 13.144L15.6677 11.6876L10.133 6.47864L8.76234 7.93506ZM13.9823 12.4158V14.9848H15.9823V12.4158H13.9823ZM14.9823 13.9848H10.8672V15.9848H14.9823V13.9848ZM10.8672 13.9848C10.5589 13.9848 10.2593 14.0846 10.0129 14.2688L11.2105 15.8706C11.1115 15.9446 10.9911 15.9848 10.8672 15.9848V13.9848ZM10.0117 14.2697L5.23574 17.8518L6.43576 19.4518L11.2117 15.8697L10.0117 14.2697ZM6.49254 17.8977L1.72831 13.7481L0.414735 15.2563L5.17896 19.4059L6.49254 17.8977ZM1.72828 15.2563L3.71977 13.5219L2.40626 12.0137L0.414772 13.7481L1.72828 15.2563ZM15.1561 25.4433L7.14921 18.4694L5.83564 19.9776L13.8425 26.9514L15.1561 25.4433ZM7.09242 20.0235L11.6093 16.6359L10.4093 15.0359L5.89243 18.4235L7.09242 20.0235ZM11.0093 16.8359H15.2151V14.8359H11.0093V16.8359ZM14.4625 16.4944L19.2869 22.0082L20.7921 20.6912L15.9677 15.1774L14.4625 16.4944ZM19.381 20.5972L13.8408 25.4448L15.1578 26.9499L20.698 22.1023L19.381 20.5972ZM25.1664 12.2895C24.7944 11.9476 24.3768 11.5102 24.0613 11.0952C23.9032 10.8873 23.7866 10.7056 23.7135 10.5601C23.6319 10.3976 23.6449 10.3595 23.6449 10.4154H21.6449C21.6449 10.8147 21.7878 11.182 21.9262 11.4576C22.0732 11.7502 22.2666 12.0393 22.4691 12.3055C22.8745 12.8389 23.3793 13.3634 23.8131 13.7621L25.1664 12.2895ZM23.6449 10.4154C23.6449 9.95079 24.0248 9.57087 24.4897 9.57087V7.57087C22.9205 7.57087 21.6449 8.84591 21.6449 10.4154H23.6449ZM24.4897 9.57087C24.9547 9.57087 25.3345 9.95079 25.3345 10.4154H27.3345C27.3345 8.84591 26.059 7.57087 24.4897 7.57087V9.57087ZM25.3345 10.4154C25.3345 10.3595 25.3476 10.3976 25.2659 10.5601C25.1929 10.7056 25.0763 10.8874 24.9182 11.0953C24.6027 11.5103 24.1851 11.9477 23.8132 12.2894L25.1663 13.7622C25.6002 13.3636 26.105 12.839 26.5104 12.3056C26.7129 12.0393 26.9064 11.7502 27.0533 11.4576C27.1917 11.182 27.3345 10.8147 27.3345 10.4154H25.3345Z" fill="black" mask="url(#path-1-inside-1_84_21)"/>
<mask id="path-3-inside-2_84_21" fill="white">
<path d="M14.4999 4.02988C15.2354 4.02988 15.8339 3.43162 15.8339 2.69617C15.8339 1.96051 15.2354 1.36224 14.4999 1.36224C13.7645 1.36224 13.166 1.96051 13.166 2.69617C13.166 3.43162 13.7645 4.02988 14.4999 4.02988ZM14.4999 2.21362C14.7659 2.21362 14.9825 2.43001 14.9825 2.69617C14.9825 2.96212 14.7659 3.1785 14.4999 3.1785C14.234 3.1785 14.0174 2.96212 14.0174 2.69617C14.0174 2.43001 14.234 2.21362 14.4999 2.21362Z"/>
</mask>
<path d="M14.4999 4.02988C15.2354 4.02988 15.8339 3.43162 15.8339 2.69617C15.8339 1.96051 15.2354 1.36224 14.4999 1.36224C13.7645 1.36224 13.166 1.96051 13.166 2.69617C13.166 3.43162 13.7645 4.02988 14.4999 4.02988ZM14.4999 2.21362C14.7659 2.21362 14.9825 2.43001 14.9825 2.69617C14.9825 2.96212 14.7659 3.1785 14.4999 3.1785C14.234 3.1785 14.0174 2.96212 14.0174 2.69617C14.0174 2.43001 14.234 2.21362 14.4999 2.21362Z" fill="black"/>
<path d="M14.4999 5.02988C15.7875 5.02988 16.8339 3.98412 16.8339 2.69617H14.8339C14.8339 2.87912 14.6833 3.02988 14.4999 3.02988V5.02988ZM16.8339 2.69617C16.8339 1.40812 15.7876 0.362244 14.4999 0.362244V2.36224C14.6832 2.36224 14.8339 2.5129 14.8339 2.69617H16.8339ZM14.4999 0.362244C13.2123 0.362244 12.166 1.40812 12.166 2.69617H14.166C14.166 2.5129 14.3167 2.36224 14.4999 2.36224V0.362244ZM12.166 2.69617C12.166 3.98412 13.2124 5.02988 14.4999 5.02988V3.02988C14.3166 3.02988 14.166 2.87912 14.166 2.69617H12.166ZM14.4999 3.21362C14.2139 3.21362 13.9825 2.98259 13.9825 2.69617H15.9825C15.9825 1.87742 15.3179 1.21362 14.4999 1.21362V3.21362ZM13.9825 2.69617C13.9825 2.40924 14.2142 2.1785 14.4999 2.1785V4.1785C15.3176 4.1785 15.9825 3.515 15.9825 2.69617H13.9825ZM14.4999 2.1785C14.7857 2.1785 15.0174 2.40924 15.0174 2.69617H13.0174C13.0174 3.515 13.6823 4.1785 14.4999 4.1785V2.1785ZM15.0174 2.69617C15.0174 2.98259 14.786 3.21362 14.4999 3.21362V1.21362C13.682 1.21362 13.0174 1.87742 13.0174 2.69617H15.0174Z" fill="black" mask="url(#path-3-inside-2_84_21)"/>
<mask id="path-5-inside-3_84_21" fill="white">
<path d="M24.4897 9.08148C23.7542 9.08148 23.1558 9.67997 23.1558 10.4154C23.1558 11.1509 23.7542 11.7493 24.4897 11.7493C25.2251 11.7493 25.8236 11.1509 25.8236 10.4154C25.8236 9.67997 25.2251 9.08148 24.4897 9.08148V9.08148ZM24.4897 10.898C24.2237 10.898 24.0071 10.6816 24.0071 10.4154C24.0071 10.1495 24.2237 9.93308 24.4897 9.93308C24.7556 9.93308 24.9722 10.1495 24.9722 10.4154C24.9722 10.6816 24.7556 10.898 24.4897 10.898V10.898Z"/>
</mask>
<path d="M24.4897 9.08148C23.7542 9.08148 23.1558 9.67997 23.1558 10.4154C23.1558 11.1509 23.7542 11.7493 24.4897 11.7493C25.2251 11.7493 25.8236 11.1509 25.8236 10.4154C25.8236 9.67997 25.2251 9.08148 24.4897 9.08148V9.08148ZM24.4897 10.898C24.2237 10.898 24.0071 10.6816 24.0071 10.4154C24.0071 10.1495 24.2237 9.93308 24.4897 9.93308C24.7556 9.93308 24.9722 10.1495 24.9722 10.4154C24.9722 10.6816 24.7556 10.898 24.4897 10.898V10.898Z" fill="black"/>
<path d="M24.4897 8.08148C23.202 8.08148 22.1558 9.12768 22.1558 10.4154H24.1558C24.1558 10.2323 24.3065 10.0815 24.4897 10.0815V8.08148ZM22.1558 10.4154C22.1558 11.7031 23.202 12.7493 24.4897 12.7493V10.7493C24.3065 10.7493 24.1558 10.5986 24.1558 10.4154H22.1558ZM24.4897 12.7493C25.7774 12.7493 26.8236 11.7031 26.8236 10.4154H24.8236C24.8236 10.5986 24.6728 10.7493 24.4897 10.7493V12.7493ZM26.8236 10.4154C26.8236 9.12768 25.7774 8.08148 24.4897 8.08148V10.0815C24.6728 10.0815 24.8236 10.2323 24.8236 10.4154H26.8236ZM24.4897 9.89796C24.7757 9.89796 25.0071 10.129 25.0071 10.4154H23.0071C23.0071 11.2342 23.6718 11.898 24.4897 11.898V9.89796ZM25.0071 10.4154C25.0071 10.7023 24.7754 10.9331 24.4897 10.9331V8.93308C23.6721 8.93308 23.0071 9.59658 23.0071 10.4154H25.0071ZM24.4897 10.9331C24.2039 10.9331 23.9722 10.7023 23.9722 10.4154H25.9722C25.9722 9.59658 25.3073 8.93308 24.4897 8.93308V10.9331ZM23.9722 10.4154C23.9722 10.129 24.2037 9.89796 24.4897 9.89796V11.898C25.3076 11.898 25.9722 11.2342 25.9722 10.4154H23.9722Z" fill="black" mask="url(#path-5-inside-3_84_21)"/>
<mask id="path-7-inside-4_84_21" fill="white">
<path d="M11.8038 20.8594C11.8038 22.2697 13.977 24.1526 14.2248 24.3625C14.304 24.43 14.402 24.4636 14.5 24.4636C14.598 24.4636 14.6958 24.43 14.7753 24.3625C15.0231 24.1526 17.1962 22.2697 17.1962 20.8594C17.1962 19.3726 15.9866 18.1633 14.5 18.1633C13.0134 18.1633 11.8038 19.3726 11.8038 20.8594V20.8594ZM16.3446 20.8594C16.3446 21.546 15.3058 22.7293 14.5 23.4696C13.6942 22.7293 12.6552 21.5458 12.6552 20.8594C12.6552 19.8421 13.4827 19.0146 14.5 19.0146C15.5171 19.0146 16.3446 19.8421 16.3446 20.8594V20.8594Z"/>
</mask>
<path d="M11.8038 20.8594C11.8038 22.2697 13.977 24.1526 14.2248 24.3625C14.304 24.43 14.402 24.4636 14.5 24.4636C14.598 24.4636 14.6958 24.43 14.7753 24.3625C15.0231 24.1526 17.1962 22.2697 17.1962 20.8594C17.1962 19.3726 15.9866 18.1633 14.5 18.1633C13.0134 18.1633 11.8038 19.3726 11.8038 20.8594V20.8594ZM16.3446 20.8594C16.3446 21.546 15.3058 22.7293 14.5 23.4696C13.6942 22.7293 12.6552 21.5458 12.6552 20.8594C12.6552 19.8421 13.4827 19.0146 14.5 19.0146C15.5171 19.0146 16.3446 19.8421 16.3446 20.8594V20.8594Z" fill="black"/>
<path d="M14.2248 24.3625L14.8733 23.6013L14.8712 23.5996L14.2248 24.3625ZM14.7753 24.3625L14.1288 23.5996L14.1278 23.6004L14.7753 24.3625ZM14.5 23.4696L13.8235 24.206L14.5 24.8275L15.1766 24.206L14.5 23.4696ZM10.8038 20.8594C10.8038 21.4523 11.0258 22.0075 11.2707 22.4535C11.5227 22.9124 11.8483 23.3439 12.1606 23.7101C12.7856 24.4428 13.4373 25.006 13.5783 25.1255L14.8712 23.5996C14.7644 23.5091 14.2057 23.0259 13.6822 22.4121C13.4202 22.105 13.1871 21.7883 13.0238 21.491C12.8535 21.1807 12.8038 20.9717 12.8038 20.8594H10.8038ZM13.5763 25.1237C13.8432 25.3512 14.1735 25.4636 14.5 25.4636V23.4636C14.6305 23.4636 14.7647 23.5088 14.8733 23.6013L13.5763 25.1237ZM14.5 25.4636C14.8274 25.4636 15.1566 25.3507 15.4227 25.1246L14.1278 23.6004C14.235 23.5093 14.3687 23.4636 14.5 23.4636V25.4636ZM15.4217 25.1255C15.5627 25.006 16.2145 24.4428 16.8395 23.7101C17.1518 23.3439 17.4774 22.9124 17.7293 22.4535C17.9742 22.0075 18.1962 21.4523 18.1962 20.8594H16.1962C16.1962 20.9717 16.1465 21.1807 15.9762 21.491C15.813 21.7883 15.5798 22.105 15.3178 22.4121C14.7943 23.0259 14.2356 23.5091 14.1288 23.5996L15.4217 25.1255ZM18.1962 20.8594C18.1962 18.8203 16.5388 17.1633 14.5 17.1633V19.1633C15.4344 19.1633 16.1962 19.925 16.1962 20.8594H18.1962ZM14.5 17.1633C12.4612 17.1633 10.8038 18.8203 10.8038 20.8594H12.8038C12.8038 19.925 13.5657 19.1633 14.5 19.1633V17.1633ZM15.3446 20.8594C15.3446 20.8036 15.3576 20.8416 15.276 21.0041C15.203 21.1496 15.0864 21.3313 14.9284 21.5392C14.6129 21.9542 14.1954 22.3915 13.8235 22.7332L15.1766 24.206C15.6104 23.8074 16.1152 23.2829 16.5206 22.7495C16.723 22.4832 16.9165 22.1941 17.0634 21.9015C17.2017 21.6259 17.3446 21.2586 17.3446 20.8594H15.3446ZM15.1766 22.7332C14.8046 22.3915 14.387 21.9541 14.0715 21.5391C13.9135 21.3312 13.7969 21.1494 13.7238 21.0039C13.6422 20.8414 13.6552 20.8034 13.6552 20.8594H11.6552C11.6552 21.2586 11.7981 21.626 11.9365 21.9015C12.0834 22.1941 12.2769 22.4831 12.4793 22.7494C12.8848 23.2828 13.3896 23.8073 13.8235 24.206L15.1766 22.7332ZM13.6552 20.8594C13.6552 20.3944 14.035 20.0146 14.5 20.0146V18.0146C12.9304 18.0146 11.6552 19.2898 11.6552 20.8594H13.6552ZM14.5 20.0146C14.9647 20.0146 15.3446 20.3943 15.3446 20.8594H17.3446C17.3446 19.2899 16.0695 18.0146 14.5 18.0146V20.0146Z" fill="black" mask="url(#path-7-inside-4_84_21)"/>
<mask id="path-9-inside-5_84_21" fill="white">
<path d="M13.166 20.8594C13.166 21.5949 13.7645 22.1932 14.4999 22.1932C15.2354 22.1932 15.8339 21.5949 15.8339 20.8594C15.8339 20.1238 15.2354 19.5255 14.4999 19.5255C13.7645 19.5255 13.166 20.1238 13.166 20.8594ZM14.9825 20.8594C14.9825 21.1254 14.7659 21.3418 14.4999 21.3418C14.234 21.3418 14.0174 21.1254 14.0174 20.8594C14.0174 20.5933 14.234 20.3769 14.4999 20.3769C14.7659 20.3769 14.9825 20.5933 14.9825 20.8594Z"/>
</mask>
<path d="M13.166 20.8594C13.166 21.5949 13.7645 22.1932 14.4999 22.1932C15.2354 22.1932 15.8339 21.5949 15.8339 20.8594C15.8339 20.1238 15.2354 19.5255 14.4999 19.5255C13.7645 19.5255 13.166 20.1238 13.166 20.8594ZM14.9825 20.8594C14.9825 21.1254 14.7659 21.3418 14.4999 21.3418C14.234 21.3418 14.0174 21.1254 14.0174 20.8594C14.0174 20.5933 14.234 20.3769 14.4999 20.3769C14.7659 20.3769 14.9825 20.5933 14.9825 20.8594Z" fill="black"/>
<path d="M12.166 20.8594C12.166 22.1474 13.2124 23.1932 14.4999 23.1932V21.1932C14.3166 21.1932 14.166 21.0424 14.166 20.8594H12.166ZM14.4999 23.1932C15.7875 23.1932 16.8339 22.1474 16.8339 20.8594H14.8339C14.8339 21.0424 14.6833 21.1932 14.4999 21.1932V23.1932ZM16.8339 20.8594C16.8339 19.5714 15.7876 18.5255 14.4999 18.5255V20.5255C14.6832 20.5255 14.8339 20.6762 14.8339 20.8594H16.8339ZM14.4999 18.5255C13.2123 18.5255 12.166 19.5714 12.166 20.8594H14.166C14.166 20.6762 14.3167 20.5255 14.4999 20.5255V18.5255ZM13.9825 20.8594C13.9825 20.5725 14.2142 20.3418 14.4999 20.3418V22.3418C15.3176 22.3418 15.9825 21.6783 15.9825 20.8594H13.9825ZM14.4999 20.3418C14.7857 20.3418 15.0174 20.5725 15.0174 20.8594H13.0174C13.0174 21.6783 13.6823 22.3418 14.4999 22.3418V20.3418ZM15.0174 20.8594C15.0174 21.1459 14.786 21.3769 14.4999 21.3769V19.3769C13.682 19.3769 13.0174 20.0407 13.0174 20.8594H15.0174ZM14.4999 21.3769C14.2139 21.3769 13.9825 21.1459 13.9825 20.8594H15.9825C15.9825 20.0407 15.3179 19.3769 14.4999 19.3769V21.3769Z" fill="black" mask="url(#path-9-inside-5_84_21)"/>
<mask id="path-11-inside-6_84_21" fill="white">
<path d="M5.84413 10.4154C5.84413 9.67997 5.24564 9.08148 4.5102 9.08148C3.77476 9.08148 3.17627 9.67997 3.17627 10.4154C3.17627 11.1509 3.77476 11.7493 4.5102 11.7493C5.24564 11.7493 5.84413 11.1509 5.84413 10.4154ZM4.02765 10.4154C4.02765 10.1495 4.24403 9.93308 4.5102 9.93308C4.77614 9.93308 4.99253 10.1495 4.99253 10.4154C4.99253 10.6816 4.77614 10.898 4.5102 10.898C4.24403 10.898 4.02765 10.6814 4.02765 10.4154Z"/>
</mask>
<path d="M5.84413 10.4154C5.84413 9.67997 5.24564 9.08148 4.5102 9.08148C3.77476 9.08148 3.17627 9.67997 3.17627 10.4154C3.17627 11.1509 3.77476 11.7493 4.5102 11.7493C5.24564 11.7493 5.84413 11.1509 5.84413 10.4154ZM4.02765 10.4154C4.02765 10.1495 4.24403 9.93308 4.5102 9.93308C4.77614 9.93308 4.99253 10.1495 4.99253 10.4154C4.99253 10.6816 4.77614 10.898 4.5102 10.898C4.24403 10.898 4.02765 10.6814 4.02765 10.4154Z" fill="black"/>
<path d="M6.84413 10.4154C6.84413 9.12768 5.79793 8.08148 4.5102 8.08148V10.0815C4.69336 10.0815 4.84413 10.2323 4.84413 10.4154H6.84413ZM4.5102 8.08148C3.22247 8.08148 2.17627 9.12768 2.17627 10.4154H4.17627C4.17627 10.2323 4.32704 10.0815 4.5102 10.0815V8.08148ZM2.17627 10.4154C2.17627 11.7031 3.22247 12.7493 4.5102 12.7493V10.7493C4.32704 10.7493 4.17627 10.5986 4.17627 10.4154H2.17627ZM4.5102 12.7493C5.79793 12.7493 6.84413 11.7031 6.84413 10.4154H4.84413C4.84413 10.5986 4.69336 10.7493 4.5102 10.7493V12.7493ZM5.02765 10.4154C5.02765 10.702 4.79602 10.9331 4.5102 10.9331V8.93308C3.69205 8.93308 3.02765 9.59688 3.02765 10.4154H5.02765ZM4.5102 10.9331C4.22386 10.9331 3.99253 10.7018 3.99253 10.4154H5.99253C5.99253 9.59718 5.32843 8.93308 4.5102 8.93308V10.9331ZM3.99253 10.4154C3.99253 10.1296 4.22356 9.89796 4.5102 9.89796V11.898C5.32873 11.898 5.99253 11.2336 5.99253 10.4154H3.99253ZM4.5102 9.89796C4.79662 9.89796 5.02765 10.1294 5.02765 10.4154H3.02765C3.02765 11.2333 3.69145 11.898 4.5102 11.898V9.89796Z" fill="black" mask="url(#path-11-inside-6_84_21)"/>
</svg>
