<svg width="15" height="15" viewBox="0 0 15 15" fill="none" xmlns="http://www.w3.org/2000/svg">
<path d="M10.1538 7.03853L0.923069 0.115512C0.749994 -0.0160249 0.514611 -0.036794 0.319613 0.0612821C0.123461 0.159358 0 0.358972 0 0.577047V14.4231C0 14.6412 0.123461 14.8408 0.318459 14.9389C0.400381 14.9792 0.489227 15 0.576918 15C0.699225 15 0.821532 14.9608 0.923069 14.8846L10.1538 7.9616C10.2991 7.85314 10.3845 7.68122 10.3845 7.50007C10.3845 7.31891 10.2991 7.14699 10.1538 7.03853Z" fill="black"/>
<path d="M14.4236 9.15527e-05H13.2698C12.9513 9.15527e-05 12.6929 0.258551 12.6929 0.57701V14.423C12.6929 14.7415 12.9513 15 13.2698 15H14.4236C14.7421 15 15.0005 14.7415 15.0005 14.423V0.57701C15.0005 0.258551 14.7421 9.15527e-05 14.4236 9.15527e-05Z" fill="black"/>
</svg>
