<svg width="38" height="38" viewBox="0 0 38 38" fill="none" xmlns="http://www.w3.org/2000/svg">
<path d="M14.9055 28.2887C14.9134 28.2402 14.917 28.1912 14.9164 28.1422L14.9164 12.6278L15.0011 12.8098C15.0853 12.9878 15.1999 13.1497 15.3398 13.2883L17.6811 15.6296C17.9755 15.938 18.449 15.9898 18.8031 15.7524C19.1804 15.4761 19.2623 14.9462 18.986 14.5689C18.9637 14.5384 18.9394 14.5094 18.9132 14.4822L14.6793 10.2483C14.3488 9.91747 13.8126 9.91718 13.4818 10.2477C13.4816 10.2479 13.4813 10.2481 13.4811 10.2483L9.24724 14.4822C8.91703 14.8134 8.91777 15.3495 9.24891 15.6797C9.27498 15.7057 9.30271 15.73 9.33192 15.7524C9.68601 15.9898 10.1595 15.938 10.4539 15.6296L12.7995 13.2925C12.9238 13.1683 13.0281 13.0254 13.1085 12.8691L13.2228 12.6151L13.2228 28.0956C13.2068 28.5282 13.5089 28.9077 13.9341 28.9889C14.3958 29.0638 14.8307 28.7503 14.9055 28.2887Z" fill="white"/>
<circle cx="19" cy="19" r="18.5" fill="#5DB5A5" stroke="#E7E7E7"/>
<path d="M14.9055 28.2887C14.9134 28.2402 14.917 28.1912 14.9164 28.1422L14.9164 12.6278L15.0011 12.8098C15.0853 12.9878 15.1999 13.1497 15.3398 13.2883L17.6811 15.6296C17.9755 15.938 18.449 15.9898 18.8031 15.7524C19.1804 15.4761 19.2623 14.9462 18.986 14.5689C18.9637 14.5384 18.9394 14.5094 18.9132 14.4822L14.6793 10.2483C14.3488 9.91747 13.8126 9.91718 13.4818 10.2477C13.4816 10.2479 13.4813 10.2481 13.4811 10.2483L9.24724 14.4822C8.91703 14.8134 8.91777 15.3495 9.24891 15.6797C9.27498 15.7057 9.30271 15.73 9.33192 15.7524C9.68601 15.9898 10.1595 15.938 10.4539 15.6296L12.7995 13.2925C12.9238 13.1683 13.0281 13.0254 13.1085 12.8691L13.2228 12.6151L13.2228 28.0956C13.2068 28.5282 13.5089 28.9077 13.9341 28.9889C14.3958 29.0638 14.8307 28.7503 14.9055 28.2887Z" fill="white"/>
<path d="M24.3886 10.7113C24.3808 10.7598 24.3772 10.8088 24.3778 10.8578L24.3778 26.3722L24.2931 26.1902C24.2089 26.0122 24.0943 25.8503 23.9544 25.7117L21.6131 23.3704C21.3187 23.062 20.8452 23.0102 20.4911 23.2476C20.1138 23.5239 20.0319 24.0538 20.3082 24.4311C20.3305 24.4616 20.3548 24.4906 20.381 24.5178L24.6149 28.7517C24.9454 29.0825 25.4815 29.0828 25.8124 28.7523C25.8126 28.7521 25.8129 28.7519 25.8131 28.7517L30.0469 24.5178C30.3772 24.1866 30.3764 23.6505 30.0453 23.3203C30.0192 23.2943 29.9915 23.27 29.9623 23.2476C29.6082 23.0102 29.1347 23.062 28.8403 23.3704L26.4947 25.7075C26.3704 25.8317 26.2661 25.9746 26.1857 26.1309L26.0713 26.3849L26.0713 10.9044C26.0874 10.4718 25.7852 10.0923 25.3601 10.0111C24.8984 9.93619 24.4635 10.2497 24.3886 10.7113Z" fill="white"/>
</svg>
