<svg width="20" height="23" viewBox="0 0 20 23" fill="none" xmlns="http://www.w3.org/2000/svg">
<path d="M9.91986 12.8954C8.76343 12.8967 7.64228 12.5292 6.74732 11.8554C5.85236 11.1816 5.23894 10.2432 5.01151 9.20011C4.99338 9.09023 5.00144 8.97803 5.03512 8.8713C5.0688 8.76457 5.1273 8.66585 5.20657 8.58199C5.28584 8.49812 5.38398 8.43111 5.49419 8.38561C5.6044 8.3401 5.72405 8.31718 5.84485 8.31844C6.04337 8.31578 6.23641 8.37843 6.38919 8.49509C6.54197 8.61175 6.64445 8.77476 6.67818 8.95477C6.83513 9.64394 7.24508 10.2624 7.83917 10.7064C8.43327 11.1503 9.17532 11.3926 9.94069 11.3926C10.7061 11.3926 11.4481 11.1503 12.0422 10.7064C12.6363 10.2624 13.0463 9.64394 13.2032 8.95477C13.2369 8.77476 13.3394 8.61175 13.4922 8.49509C13.645 8.37843 13.838 8.31578 14.0365 8.31844C14.1573 8.31718 14.277 8.3401 14.3872 8.38561C14.4974 8.43111 14.5955 8.49812 14.6748 8.58199C14.7541 8.66585 14.8126 8.76457 14.8463 8.8713C14.8799 8.97803 14.888 9.09023 14.8699 9.20011C14.6411 10.2497 14.0215 11.1931 13.118 11.8676C12.2144 12.5421 11.0834 12.9056 9.91986 12.8954Z" fill="black"/>
<path d="M17.3365 22.9999H2.50313C2.16404 23.0003 1.8284 22.9372 1.51664 22.8145C1.20488 22.6918 0.923514 22.512 0.689656 22.2861C0.455798 22.0602 0.274338 21.7929 0.156315 21.5004C0.0382919 21.208 -0.0138278 20.8965 0.00312719 20.5849L0.678128 7.36757C0.706064 6.77501 0.981739 6.21529 1.44759 5.80528C1.91343 5.39527 2.53344 5.16668 3.17813 5.16724H16.6615C17.3062 5.16668 17.9262 5.39527 18.392 5.80528C18.8579 6.21529 19.1335 6.77501 19.1615 7.36757L19.8365 20.5849C19.8534 20.8965 19.8013 21.208 19.6833 21.5004C19.5653 21.7929 19.3838 22.0602 19.1499 22.2861C18.9161 22.512 18.6347 22.6918 18.323 22.8145C18.0112 22.9372 17.6756 23.0003 17.3365 22.9999ZM3.17813 6.70824C2.95712 6.70824 2.74515 6.78901 2.58887 6.93279C2.43259 7.07657 2.3448 7.27157 2.3448 7.4749L1.66979 20.6616C1.66414 20.7654 1.68152 20.8693 1.72086 20.9667C1.7602 21.0642 1.82069 21.1533 1.89864 21.2286C1.97659 21.3039 2.07038 21.3639 2.1743 21.4048C2.27822 21.4457 2.3901 21.4667 2.50313 21.4666H17.3365C17.4495 21.4667 17.5614 21.4457 17.6653 21.4048C17.7692 21.3639 17.863 21.3039 17.941 21.2286C18.0189 21.1533 18.0794 21.0642 18.1187 20.9667C18.1581 20.8693 18.1755 20.7654 18.1698 20.6616L17.4948 7.44424C17.4948 7.24091 17.407 7.0459 17.2507 6.90212C17.0944 6.75834 16.8825 6.67757 16.6615 6.67757L3.17813 6.70824Z" fill="black"/>
<path d="M14.9198 5.9417H13.2531V4.60002C13.2531 3.78669 12.9019 3.00667 12.2768 2.43155C11.6517 1.85644 10.8039 1.53334 9.9198 1.53334C9.03574 1.53334 8.1879 1.85644 7.56278 2.43155C6.93766 3.00667 6.58647 3.78669 6.58647 4.60002V5.9417H4.9198V4.60002C4.9198 3.38002 5.44658 2.20999 6.38427 1.34732C7.32195 0.484644 8.59372 0 9.9198 0C11.2459 0 12.5177 0.484644 13.4553 1.34732C14.393 2.20999 14.9198 3.38002 14.9198 4.60002V5.9417Z" fill="black"/>
</svg>
