<svg width="60" height="60" viewBox="0 0 60 60" fill="none" xmlns="http://www.w3.org/2000/svg">
<path d="M52.3612 3.46863C52.8365 3.46863 53.2217 3.07512 53.2217 2.58973V0.878906C53.2217 0.393516 52.8365 0 52.3612 0H15.6951C15.2198 0 14.8347 0.393516 14.8347 0.878906V21.3701C14.8347 21.8555 15.2198 22.249 15.6951 22.249H19.2153V23.2684C19.2153 23.7538 19.6004 24.1473 20.0758 24.1473H30.6758V30.1102H29.3293C25.8047 30.1102 22.3996 31.4085 19.7412 33.7661C18.9706 34.4495 17.9606 34.826 16.8971 34.826H15.5194V34.1577C15.5194 33.6723 15.1342 33.2788 14.6589 33.2788H7.63877C7.16346 33.2788 6.77832 33.6723 6.77832 34.1577V55.9525C6.77832 56.4379 7.16346 56.8314 7.63877 56.8314H14.6589C15.1342 56.8314 15.5194 56.4379 15.5194 55.9525V55.2841H16.8974C17.9608 55.2841 18.9707 55.6607 19.7412 56.3441C22.3993 58.7017 25.8045 60 29.3292 60H40.532C42.5251 60 44.1466 58.3437 44.1466 56.3079C44.1466 55.5933 43.9469 54.9255 43.6013 54.3596C45.4474 54.1961 46.9008 52.6089 46.9008 50.6815C46.9008 49.7282 46.5451 48.858 45.9624 48.2023C46.9973 47.5521 47.6887 46.3845 47.6887 45.0551C47.6887 43.6683 46.9362 42.4575 45.8265 41.8266C46.3675 41.181 46.6946 40.3431 46.6946 39.4287C46.6946 37.3928 45.0731 35.7366 43.08 35.7366H40.2488V33.8023C40.2488 31.8255 38.72 30.2067 36.8069 30.1144V24.1473H47.9806C48.4559 24.1473 48.841 23.7538 48.841 23.2684V22.249H52.3612C52.8365 22.249 53.2217 21.8555 53.2217 21.3701V6.69129C53.2217 6.2059 52.8365 5.81238 52.3612 5.81238C51.8859 5.81238 51.5008 6.2059 51.5008 6.69129V20.4912H48.841V19.0683C48.841 18.5829 48.4559 18.1894 47.9806 18.1894H27.1129C26.6376 18.1894 26.2524 18.5829 26.2524 19.0683C26.2524 19.5537 26.6376 19.9472 27.1129 19.9472H47.1201V22.3894C43.1847 22.3894 24.3976 22.3894 20.9361 22.3894V19.9472H23.0974C23.5728 19.9472 23.9579 19.5537 23.9579 19.0683C23.9579 18.5829 23.5728 18.1894 23.0974 18.1894H20.0756C19.6003 18.1894 19.2152 18.5829 19.2152 19.0683V20.4912H16.5555V1.75781H51.5006V2.58973C51.5008 3.07512 51.8859 3.46863 52.3612 3.46863V3.46863ZM43.08 37.4944C44.1243 37.4944 44.9737 38.362 44.9737 39.4287C44.9737 40.4953 44.1243 41.363 43.08 41.363C43.0785 41.363 37.4828 41.363 37.4828 41.363C37.0075 41.363 36.6224 41.7565 36.6224 42.2419C36.6224 42.7273 37.0075 43.1208 37.4828 43.1208H44.0741C45.1184 43.1208 45.9678 43.9886 45.9678 45.0551C45.9678 46.1216 45.1184 46.9894 44.0741 46.9894C42.4475 46.9894 39.2275 46.9894 37.4828 46.9894C37.0075 46.9894 36.6224 47.3829 36.6224 47.8683C36.6224 48.3537 37.0075 48.7472 37.4828 48.7472H43.2862C44.3304 48.7472 45.1799 49.6148 45.1799 50.6815C45.1799 51.7481 44.3304 52.6158 43.2862 52.6158C41.4185 52.6158 39.2761 52.6158 37.4828 52.6158C37.0075 52.6158 36.6224 53.0093 36.6224 53.4947C36.6224 53.9801 37.0075 54.3736 37.4828 54.3736H40.532C41.5763 54.3736 42.4257 55.2414 42.4257 56.3079C42.4257 57.3744 41.5763 58.2422 40.532 58.2422H29.3292C26.2192 58.2422 23.2146 57.0967 20.8693 55.0168C19.7858 54.0558 18.3752 53.5264 16.8975 53.5264H15.5193V51.4529C15.5193 50.9675 15.1341 50.574 14.6588 50.574C14.1835 50.574 13.7984 50.9675 13.7984 51.4529V55.0737H8.49911V35.0366H13.7984V47.3512C13.7984 47.8366 14.1835 48.2302 14.6588 48.2302C15.1341 48.2302 15.5193 47.8366 15.5193 47.3512V36.5838H16.8972C18.3752 36.5838 19.7858 36.0544 20.8693 35.0934C23.2146 33.0135 26.2192 31.8681 29.3292 31.8681H30.6757V35.7367H29.2145C28.7391 35.7367 28.354 36.1302 28.354 36.6156C28.354 37.101 28.7391 37.4945 29.2145 37.4945C37.7429 37.4944 34.603 37.4944 43.08 37.4944V37.4944ZM38.5279 33.8023V35.7366H36.8069V31.8759C37.7705 31.9654 38.5279 32.7952 38.5279 33.8023V33.8023ZM35.0861 24.1473V35.7366H32.3968V24.1473H35.0861Z" fill="white"/>
<path d="M30.5482 7.61038C30.5482 6.09865 29.344 4.86865 27.864 4.86865H24.4972C24.0219 4.86865 23.6367 5.26217 23.6367 5.74756V14.4701C23.6367 14.9555 24.0219 15.349 24.4972 15.349H27.864C29.344 15.349 30.5482 14.119 30.5482 12.6073V11.9716C30.5482 11.253 30.2762 10.5982 29.8317 10.1088C30.2762 9.61944 30.5482 8.9646 30.5482 8.246V7.61038ZM25.3576 6.62647H27.864C28.3952 6.62647 28.8273 7.06791 28.8273 7.61038V8.246C28.8273 8.78846 28.3951 9.22991 27.864 9.22991H25.3576V6.62647ZM28.8273 12.6073C28.8273 13.1497 28.3951 13.5912 27.864 13.5912H25.3576V10.9877H27.864C28.3952 10.9877 28.8273 11.4292 28.8273 11.9716V12.6073Z" fill="white"/>
<path d="M38.3687 4.86865C37.8934 4.86865 37.5082 5.26217 37.5082 5.74756V14.4701C37.5082 14.9555 37.8934 15.349 38.3687 15.349H41.4243C43.0759 15.349 44.4195 13.9765 44.4195 12.2894V7.92819C44.4195 6.24115 43.0759 4.86865 41.4243 4.86865H38.3687ZM42.6986 7.92819V12.2894C42.6986 13.0072 42.127 13.5912 41.4243 13.5912H39.2291V6.62647H41.4243C42.127 6.62647 42.6986 7.21041 42.6986 7.92819V7.92819Z" fill="white"/>
<path d="M33.1673 5.74756V14.4701C33.1673 14.9555 33.5524 15.349 34.0277 15.349C34.503 15.349 34.8882 14.9555 34.8882 14.4701V5.74756C34.8882 5.26217 34.503 4.86865 34.0277 4.86865C33.5524 4.86865 33.1673 5.26217 33.1673 5.74756V5.74756Z" fill="white"/>
</svg>
