<svg width="60" height="60" viewBox="0 0 60 60" fill="none" xmlns="http://www.w3.org/2000/svg">
<path d="M56.3801 19.2463C56.368 19.0875 56.3111 18.9325 56.2162 18.8047L49.9967 10.4755V2.20036C49.9967 1.73699 49.6228 1.36133 49.1614 1.36133H40.6021C40.1406 1.36133 39.7667 1.73699 39.7667 2.20036C39.7667 2.66372 40.1406 3.03939 40.6021 3.03939H48.3261V9.91495H11.674V3.03939H36.9622C37.4236 3.03939 37.7976 2.66372 37.7976 2.20036C37.7976 1.73699 37.4236 1.36133 36.9622 1.36133H10.8386C10.3772 1.36133 10.0033 1.73699 10.0033 2.20036V10.4755L3.78389 18.8047C3.67719 18.9484 3.61682 19.1289 3.61682 19.3082V22.5157C3.61682 25.6768 7.37158 27.7101 10.0033 25.7934V52.6836H6.58113C6.1197 52.6836 5.7458 53.0593 5.7458 53.5226V57.7994C5.7458 58.2628 6.1197 58.6385 6.58113 58.6385H53.4188C53.8803 58.6385 54.2542 58.2628 54.2542 57.7994V53.5226C54.2542 53.0593 53.8803 52.6836 53.4188 52.6836H49.9966V42.5207C49.9966 42.0574 49.6227 41.6817 49.1613 41.6817C48.6999 41.6817 48.326 42.0574 48.326 42.5207V52.6837H28.7068V30.1982C28.7068 29.7348 28.3329 29.3592 27.8715 29.3592H21.3704C20.909 29.3592 20.5351 29.7348 20.5351 30.1982C20.5351 30.6616 20.909 31.0372 21.3704 31.0372H27.0362V52.6837H15.9319V31.0372H17.7296C18.191 31.0372 18.5649 30.6616 18.5649 30.1982C18.5649 29.7348 18.191 29.3592 17.7296 29.3592H15.0966C14.6352 29.3592 14.2613 29.7348 14.2613 30.1982V52.6837H11.674V25.7927C13.3867 27.041 15.9592 26.6319 17.2261 24.9786C18.8185 27.0567 22.0207 27.0567 23.6131 24.9786C25.2055 27.0567 28.4077 27.0567 30 24.9786C31.5924 27.0567 34.7946 27.0567 36.387 24.9788C37.9794 27.0567 41.1815 27.0567 42.7739 24.9786C44.0407 26.6319 46.6132 27.041 48.3261 25.7927V38.8637C48.3261 39.327 48.7 39.7027 49.1614 39.7027C49.6228 39.7027 49.9967 39.327 49.9967 38.8637V25.7934C52.6013 27.6903 56.3832 25.6775 56.3832 22.5157V19.3082C56.3832 19.2872 56.3816 19.2668 56.3801 19.2463ZM52.5835 56.9605H7.41646V54.3618H52.5835V56.9605ZM37.0801 18.4686L35.7968 11.5935H39.0016L41.5684 18.4686H37.0801ZM18.4317 18.4686L20.9985 11.5935H24.2033L22.9199 18.4686H18.4317ZM24.6197 18.4686L25.903 11.5935H29.1646V18.4686H24.6197ZM30.8354 18.4686V11.5935H34.0969L35.3802 18.4686H30.8354ZM19.2142 11.5935L16.6474 18.4686H12.2677L16.1179 11.5935H19.2142ZM43.3526 18.4686L40.7858 11.5935H43.882L47.7322 18.4686H43.3526ZM49.6495 18.4691L45.799 11.5936H48.7433L53.8774 18.4691H49.6495ZM11.2569 11.5935H14.2011L10.3507 18.469H6.12281L11.2569 11.5935ZM7.64568 24.8843C6.34535 24.8843 5.28748 23.8218 5.28748 22.5157V20.1472H10.0033V22.5266C9.99741 23.8276 8.94234 24.8843 7.64568 24.8843ZM16.3907 22.5157C16.3907 23.8218 15.3328 24.8843 14.0325 24.8843C12.7323 24.8843 11.6744 23.8218 11.6744 22.5157V20.1472H16.3907V22.5157ZM22.7778 22.5157C22.7778 23.8218 21.7199 24.8843 20.4196 24.8843C19.1192 24.8843 18.0614 23.8218 18.0614 22.5157V20.1472H22.7778V22.5157ZM29.1647 22.5157C29.1647 23.8218 28.1068 24.8843 26.8065 24.8843C25.5063 24.8843 24.4484 23.8218 24.4484 22.5157V20.1472H29.1647V22.5157ZM33.1936 24.8843C31.8932 24.8843 30.8354 23.8218 30.8354 22.5157V20.1472H35.5516V22.5157V22.5172C35.5509 23.8226 34.4933 24.8843 33.1936 24.8843ZM41.9386 22.5157C41.9386 23.8218 40.8807 24.8843 39.5804 24.8843C38.2806 24.8843 37.2231 23.8226 37.2223 22.5172C37.2223 22.5167 37.2223 22.5163 37.2223 22.5157V20.1472H41.9386V22.5157ZM48.3255 22.5157C48.3255 23.8218 47.2677 24.8843 45.9674 24.8843C44.6671 24.8843 43.6092 23.8218 43.6092 22.5157V20.1472H48.3255V22.5157ZM54.7126 22.5157C54.7126 23.8218 53.6547 24.8843 52.3544 24.8843C51.0577 24.8843 50.0026 23.8276 49.9967 22.5266V20.1472H54.7126V22.5157Z" fill="white"/>
<path d="M32.1291 29.3589C31.6677 29.3589 31.2938 29.7345 31.2938 30.1979V44.9687C31.2938 45.4321 31.6677 45.8078 32.1291 45.8078H44.903C45.3644 45.8078 45.7383 45.4321 45.7383 44.9687V30.1979C45.7383 29.7345 45.3644 29.3589 44.903 29.3589H32.1291ZM32.9644 31.0369H44.0677V40.0015H32.9644V31.0369ZM44.0677 44.1297H32.9644V41.6795H44.0677V44.1297Z" fill="white"/>
<path d="M18.5198 42.8307V47.1075C18.5198 47.5708 18.8935 47.9465 19.3546 47.9465C19.8158 47.9465 20.1895 47.5708 20.1895 47.1075V42.8307C20.1895 42.3674 19.8158 41.9917 19.3546 41.9917C18.8935 41.9917 18.5198 42.3674 18.5198 42.8307Z" fill="white"/>
</svg>
