<svg width="35" height="35" viewBox="0 0 35 35" fill="none" xmlns="http://www.w3.org/2000/svg">
<path d="M34.3587 3.49734C33.9551 3.19697 33.4335 3.10533 32.9518 3.2499L23.0189 6.22974L18.3219 3.41101C18.3207 3.41027 18.3198 3.40942 18.3186 3.40878L13.0156 0.225933C13.008 0.221372 13.0001 0.217554 12.9925 0.213099C12.9902 0.21172 12.9877 0.210553 12.9855 0.209175C12.8797 0.148931 12.769 0.101521 12.6551 0.0672621C12.653 0.0666258 12.651 0.0658833 12.6489 0.0652469C12.5935 0.0489132 12.5373 0.0358674 12.4806 0.0255793C12.4752 0.0245187 12.4698 0.0235641 12.4645 0.0227156C12.4086 0.0131699 12.3523 0.00659402 12.2959 0.00298788C12.2909 0.00266969 12.286 0.00256362 12.281 0.00224544C12.1625 -0.00401229 12.0434 0.00277575 11.9259 0.0230338C11.924 0.0234581 11.9222 0.0235641 11.9203 0.0238823C11.8625 0.0341704 11.8053 0.0479586 11.7485 0.0647166C11.7456 0.0655651 11.7427 0.0659894 11.7397 0.0668379L1.13368 3.2481C0.460832 3.44993 0 4.06934 0 4.7719V30.2271C0 30.7299 0.237787 31.2033 0.64124 31.5034C0.919012 31.7101 1.25278 31.818 1.59101 31.818C1.74406 31.818 1.89795 31.7959 2.04802 31.7509L11.981 28.7709L21.9844 34.7731C22.0053 34.7856 22.0267 34.7969 22.0481 34.8085C22.0574 34.8134 22.0664 34.819 22.0757 34.8237C22.111 34.8419 22.1469 34.8586 22.183 34.874C22.1917 34.8777 22.2006 34.8807 22.2093 34.8842C22.2374 34.8955 22.2657 34.9063 22.2942 34.916C22.3072 34.9203 22.3204 34.9242 22.3334 34.9282C22.3582 34.9358 22.3833 34.9431 22.4084 34.9495C22.4225 34.9531 22.4368 34.9564 22.4509 34.9598C22.4758 34.9654 22.5008 34.9704 22.5257 34.9749C22.5398 34.9773 22.5539 34.9798 22.5679 34.982C22.5948 34.9859 22.6217 34.989 22.6486 34.9916C22.6609 34.9929 22.673 34.9944 22.6854 34.9953C22.7246 34.9982 22.7637 35 22.803 35C22.8031 35 22.8031 35 22.8031 35C22.8034 35 22.8036 35 22.8038 35C22.8398 35 22.8756 34.9985 22.9115 34.9961C22.9235 34.9952 22.9355 34.9937 22.9477 34.9927C22.9718 34.9905 22.9959 34.988 23.02 34.9848C23.0341 34.9829 23.048 34.9804 23.0619 34.9782C23.0841 34.9744 23.1064 34.9705 23.1285 34.966C23.1428 34.963 23.1569 34.9596 23.1711 34.9562C23.1932 34.951 23.2151 34.9452 23.237 34.939C23.2447 34.9368 23.2524 34.9353 23.2602 34.933L33.8662 31.7511C34.5392 31.5492 35 30.9298 35 30.2273V4.77371C34.9999 4.27086 34.7621 3.7975 34.3587 3.49734ZM3.18181 5.95567L10.606 3.72877V25.8615L3.18181 28.0888V5.95567ZM13.7878 4.40068L21.2121 8.85629V30.599L13.7878 26.1444V4.40068ZM31.8181 29.0434L24.3939 31.2707V9.13927L31.8181 6.91194V29.0434Z" fill="black"/>
</svg>
