<svg width="110" height="103" viewBox="0 0 110 103" fill="none" xmlns="http://www.w3.org/2000/svg">
<g filter="url(#filter0_d_105_3106)">
<path d="M98.2188 4L60.76 31.8212L67.6871 15.4071L98.2188 4Z" fill="#E2761B" stroke="#E2761B" stroke-linecap="round" stroke-linejoin="round"/>
<path d="M11.7434 4L48.9011 32.0847L42.3128 15.4071L11.7434 4Z" fill="#E4761B" stroke="#E4761B" stroke-linecap="round" stroke-linejoin="round"/>
<path d="M84.7411 68.4894L74.7646 83.7741L96.1105 89.647L102.247 68.8282L84.7411 68.4894Z" fill="#E4761B" stroke="#E4761B" stroke-linecap="round" stroke-linejoin="round"/>
<path d="M7.79053 68.8282L13.8893 89.647L35.2352 83.7741L25.2588 68.4894L7.79053 68.8282Z" fill="#E4761B" stroke="#E4761B" stroke-linecap="round" stroke-linejoin="round"/>
<path d="M34.0305 42.6635L28.0823 51.6611L49.2776 52.6023L48.5246 29.8258L34.0305 42.6635Z" fill="#E4761B" stroke="#E4761B" stroke-linecap="round" stroke-linejoin="round"/>
<path d="M75.9317 42.6634L61.2494 29.5623L60.7599 52.6023L81.9176 51.6611L75.9317 42.6634Z" fill="#E4761B" stroke="#E4761B" stroke-linecap="round" stroke-linejoin="round"/>
<path d="M35.2352 83.774L47.9599 77.5623L36.967 68.9788L35.2352 83.774Z" fill="#E4761B" stroke="#E4761B" stroke-linecap="round" stroke-linejoin="round"/>
<path d="M62.0023 77.5623L74.7647 83.774L72.9953 68.9788L62.0023 77.5623Z" fill="#E4761B" stroke="#E4761B" stroke-linecap="round" stroke-linejoin="round"/>
<path d="M74.7648 83.7741L62.0024 77.5624L63.0189 85.8824L62.906 89.3836L74.7648 83.7741Z" fill="#D7C1B3" stroke="#D7C1B3" stroke-linecap="round" stroke-linejoin="round"/>
<path d="M35.2354 83.7741L47.0942 89.3836L47.0189 85.8824L47.9601 77.5624L35.2354 83.7741Z" fill="#D7C1B3" stroke="#D7C1B3" stroke-linecap="round" stroke-linejoin="round"/>
<path d="M47.2824 63.4823L36.6659 60.3576L44.1577 56.9318L47.2824 63.4823Z" fill="#233447" stroke="#233447" stroke-linecap="round" stroke-linejoin="round"/>
<path d="M62.68 63.4823L65.8047 56.9318L73.3341 60.3576L62.68 63.4823Z" fill="#233447" stroke="#233447" stroke-linecap="round" stroke-linejoin="round"/>
<path d="M35.2353 83.7741L37.0423 68.4894L25.2588 68.8282L35.2353 83.7741Z" fill="#CD6116" stroke="#CD6116" stroke-linecap="round" stroke-linejoin="round"/>
<path d="M72.9576 68.4894L74.7647 83.7741L84.7412 68.8282L72.9576 68.4894Z" fill="#CD6116" stroke="#CD6116" stroke-linecap="round" stroke-linejoin="round"/>
<path d="M81.9176 51.6611L60.7599 52.6023L62.7176 63.4823L65.8423 56.9317L73.3717 60.3576L81.9176 51.6611Z" fill="#CD6116" stroke="#CD6116" stroke-linecap="round" stroke-linejoin="round"/>
<path d="M36.6658 60.3576L44.1952 56.9317L47.2823 63.4823L49.2776 52.6023L28.0823 51.6611L36.6658 60.3576Z" fill="#CD6116" stroke="#CD6116" stroke-linecap="round" stroke-linejoin="round"/>
<path d="M28.0824 51.6611L36.9671 68.9788L36.6659 60.3576L28.0824 51.6611Z" fill="#E4751F" stroke="#E4751F" stroke-linecap="round" stroke-linejoin="round"/>
<path d="M73.3718 60.3576L72.9953 68.9788L81.9176 51.6611L73.3718 60.3576Z" fill="#E4751F" stroke="#E4751F" stroke-linecap="round" stroke-linejoin="round"/>
<path d="M49.2777 52.6023L47.2824 63.4823L49.7671 76.3199L50.3318 59.4164L49.2777 52.6023Z" fill="#E4751F" stroke="#E4751F" stroke-linecap="round" stroke-linejoin="round"/>
<path d="M60.76 52.6023L59.7435 59.3788L60.1953 76.3199L62.7177 63.4823L60.76 52.6023Z" fill="#E4751F" stroke="#E4751F" stroke-linecap="round" stroke-linejoin="round"/>
<path d="M62.7177 63.4824L60.1953 76.32L62.0024 77.5624L72.9953 68.9788L73.3718 60.3577L62.7177 63.4824Z" fill="#F6851B" stroke="#F6851B" stroke-linecap="round" stroke-linejoin="round"/>
<path d="M36.6659 60.3577L36.9671 68.9788L47.96 77.5624L49.7671 76.32L47.2824 63.4824L36.6659 60.3577Z" fill="#F6851B" stroke="#F6851B" stroke-linecap="round" stroke-linejoin="round"/>
<path d="M62.9059 89.3836L63.0189 85.8824L62.0777 85.0542H47.8848L47.0189 85.8824L47.0942 89.3836L35.2354 83.7742L39.3765 87.1624L47.7718 92.9977H62.1906L70.6236 87.1624L74.7648 83.7742L62.9059 89.3836Z" fill="#C0AD9E" stroke="#C0AD9E" stroke-linecap="round" stroke-linejoin="round"/>
<path d="M62.0024 77.5624L60.1953 76.3201H49.7671L47.96 77.5624L47.0189 85.8824L47.8847 85.0542H62.0777L63.0189 85.8824L62.0024 77.5624Z" fill="#161616" stroke="#161616" stroke-linecap="round" stroke-linejoin="round"/>
<path d="M99.8 33.6282L103 18.2682L98.2189 4L62.0024 30.88L75.9318 42.6635L95.6212 48.4235L99.9883 43.3412L98.1059 41.9859L101.118 39.2377L98.7836 37.4306L101.795 35.1341L99.8 33.6282Z" fill="#763D16" stroke="#763D16" stroke-linecap="round" stroke-linejoin="round"/>
<path d="M7 18.2682L10.2 33.6282L8.16706 35.1341L11.1788 37.4306L8.88235 39.2377L11.8941 41.9859L10.0118 43.3412L14.3412 48.4235L34.0306 42.6635L47.96 30.88L11.7435 4L7 18.2682Z" fill="#763D16" stroke="#763D16" stroke-linecap="round" stroke-linejoin="round"/>
<path d="M95.6212 48.4236L75.9318 42.6636L81.9177 51.6612L72.9953 68.9789L84.7412 68.8283H102.247L95.6212 48.4236Z" fill="#F6851B" stroke="#F6851B" stroke-linecap="round" stroke-linejoin="round"/>
<path d="M34.0305 42.6636L14.3411 48.4236L7.79053 68.8283H25.2588L36.967 68.9789L28.0823 51.6612L34.0305 42.6636Z" fill="#F6851B" stroke="#F6851B" stroke-linecap="round" stroke-linejoin="round"/>
<path d="M60.76 52.6024L62.0023 30.88L67.7247 15.4071H42.3129L47.96 30.88L49.2776 52.6024L49.7294 59.4542L49.767 76.32H60.1953L60.2706 59.4542L60.76 52.6024Z" fill="#F6851B" stroke="#F6851B" stroke-linecap="round" stroke-linejoin="round"/>
</g>
<defs>
<filter id="filter0_d_105_3106" x="0.5" y="0.499878" width="109" height="101.998" filterUnits="userSpaceOnUse" color-interpolation-filters="sRGB">
<feFlood flood-opacity="0" result="BackgroundImageFix"/>
<feColorMatrix in="SourceAlpha" type="matrix" values="0 0 0 0 0 0 0 0 0 0 0 0 0 0 0 0 0 0 127 0" result="hardAlpha"/>
<feOffset dy="3"/>
<feGaussianBlur stdDeviation="3"/>
<feComposite in2="hardAlpha" operator="out"/>
<feColorMatrix type="matrix" values="0 0 0 0 0 0 0 0 0 0 0 0 0 0 0 0 0 0 0.35 0"/>
<feBlend mode="normal" in2="BackgroundImageFix" result="effect1_dropShadow_105_3106"/>
<feBlend mode="normal" in="SourceGraphic" in2="effect1_dropShadow_105_3106" result="shape"/>
</filter>
</defs>
</svg>
