<svg width="39" height="39" viewBox="0 0 39 39" fill="none" xmlns="http://www.w3.org/2000/svg">
<circle cx="19.5" cy="19.5" r="19.5" fill="#293835"/>
<path d="M25.7013 18.6312L17.3691 10.2991C17.1763 10.1063 16.9191 10 16.6448 10C16.3705 10 16.1132 10.1063 15.9205 10.2991L15.3069 10.9126C14.9076 11.3123 14.9076 11.962 15.3069 12.3611L22.3037 19.358L15.2991 26.3625C15.1064 26.5554 15 26.8125 15 27.0867C15 27.3611 15.1064 27.6182 15.2991 27.8113L15.9127 28.4246C16.1056 28.6174 16.3627 28.7237 16.637 28.7237C16.9113 28.7237 17.1686 28.6174 17.3613 28.4246L25.7013 20.0848C25.8945 19.8914 26.0006 19.633 26 19.3584C26.0006 19.0827 25.8945 18.8246 25.7013 18.6312Z" fill="white"/>
</svg>
