<svg width="60" height="60" viewBox="0 0 60 60" fill="none" xmlns="http://www.w3.org/2000/svg">
<path d="M59.7915 27.6084C59.1953 25.6791 57.3767 24.3909 55.3662 24.4719L54.9374 24.4895C53.6795 24.541 52.4962 25.0619 51.61 25.952L44.9805 32.541C44.8234 32.3 44.6432 32.0709 44.4381 31.8572C43.5666 30.9475 42.3456 30.4263 41.0888 30.4263H31.7376C29.9732 30.4263 28.2527 30.1964 26.6231 29.7436C22.3787 28.5636 18.3288 29.4155 14.911 32.207C13.4692 33.3851 12.4328 34.6707 11.7971 35.5792C11.0771 35.0764 10.2205 34.8127 9.3321 34.8278C8.20527 34.8473 7.15425 35.3063 6.37312 36.1218L0.328815 42.4238C-0.117595 42.8891 -0.10844 43.6288 0.350056 44.0831L5.21077 48.8987C5.67256 49.356 6.41707 49.3512 6.873 48.887C7.3282 48.4228 7.32344 47.6757 6.86128 47.2178L2.82747 43.2217L8.06575 37.7594C8.41035 37.4 8.87434 37.197 9.37129 37.1889C9.873 37.1797 10.3384 37.3673 10.6955 37.7149L20.0416 46.8245C20.3979 47.1721 20.5982 47.6378 20.6052 48.1366C20.6121 48.6357 20.425 49.1069 20.0782 49.4645L14.9307 54.7693L13.6061 53.5021C13.1359 53.0523 12.3922 53.0707 11.9443 53.543C11.4971 54.0153 11.5154 54.7623 11.9857 55.2114L14.1511 57.2834C14.3788 57.5008 14.6704 57.609 14.9615 57.609C15.2676 57.609 15.5731 57.4894 15.8034 57.2525L21.7617 51.112C22.5472 50.3028 22.9709 49.2342 22.9555 48.1042C22.9482 47.5874 22.8486 47.0861 22.6662 46.6189L24.7649 46.3736C25.7387 46.2599 26.7293 46.2018 27.7096 46.2018H41.938C42.1559 46.2018 42.3764 46.1926 42.5935 46.1742L43.9569 46.0602C45.339 45.9451 46.6709 45.4632 47.8095 44.668C48.3683 44.2773 48.8752 43.8153 49.3161 43.2941L58.9038 31.9642C59.9285 30.7537 60.2599 29.1257 59.7915 27.6084V27.6084ZM57.1131 30.4351L47.5249 41.765C47.2155 42.1307 46.8595 42.4551 46.467 42.7295C45.6675 43.2882 44.7318 43.6263 43.7621 43.7076L42.398 43.8216C42.246 43.8345 42.0907 43.8411 41.938 43.8411H27.7096C26.6388 43.8411 25.5567 43.904 24.4936 44.0279L21.0952 44.4252L13.5768 37.1436C14.0888 36.3815 15.0296 35.1529 16.3941 34.0388C19.2366 31.7174 22.467 31.0376 25.9961 32.0186C27.8298 32.5285 29.7615 32.7867 31.7376 32.7867H41.0888C41.7102 32.7867 42.3141 33.0449 42.7455 33.4944C43.0608 33.8232 43.2608 34.2264 43.3432 34.649C43.3417 34.7557 43.3549 34.862 43.3824 34.9653C43.4135 35.5189 43.2483 36.0832 42.8814 36.5419L42.8451 36.5875C42.4068 37.1363 41.7531 37.4515 41.0522 37.4515H32.9113C32.262 37.4515 31.7361 37.9797 31.7361 38.6315C31.7361 39.2837 32.262 39.8122 32.9113 39.8122H41.0522C42.4698 39.8122 43.7914 39.1752 44.6787 38.0639L44.715 38.0187C45.3947 37.1683 45.7316 36.1391 45.7349 35.1121L53.2671 27.6256C53.7395 27.1515 54.3665 26.8753 55.0334 26.8481L55.4625 26.8308C56.4103 26.7903 57.2661 27.3991 57.5467 28.308C57.7755 29.0488 57.6133 29.844 57.1131 30.4351V30.4351Z" fill="white"/>
<path d="M9.345 39.6782C7.59015 39.6782 6.16269 41.1124 6.16269 42.8747C6.16269 44.6377 7.59015 46.0719 9.345 46.0719C11.0998 46.0719 12.5277 44.6377 12.5277 42.8747C12.5277 41.1124 11.0998 39.6782 9.345 39.6782ZM9.345 43.7107C8.88615 43.7107 8.51262 43.3359 8.51262 42.8747C8.51262 42.4141 8.88615 42.0393 9.345 42.0393C9.80349 42.0393 10.177 42.4141 10.177 42.8747C10.177 43.3359 9.80349 43.7107 9.345 43.7107Z" fill="white"/>
<path d="M27.9176 37.6255L27.8572 37.6399C27.2255 37.7888 26.833 38.4244 26.982 39.0589C27.1087 39.6026 27.5917 39.9697 28.1249 39.9697C28.2135 39.9697 28.3043 39.959 28.3944 39.9377L28.4552 39.9237C29.0869 39.7747 29.4787 39.1391 29.3304 38.5046C29.1821 37.8701 28.5497 37.4773 27.9176 37.6255Z" fill="white"/>
<path d="M9.19374 50.1183L9.13295 50.1326C8.50122 50.282 8.10937 50.9169 8.25769 51.5514C8.38477 52.0954 8.86744 52.4621 9.40066 52.4621C9.49001 52.4621 9.5801 52.4522 9.67092 52.4308L9.73135 52.4169C10.3631 52.2679 10.7553 51.6323 10.6066 50.9978C10.4583 50.3629 9.82547 49.9697 9.19374 50.1183Z" fill="white"/>
<path d="M34.3959 27.377C41.2543 27.377 46.8338 21.7727 46.8338 14.884C46.8338 7.99525 41.2543 2.39062 34.3959 2.39062C31.5827 2.39062 28.9291 3.31094 26.722 5.05151C26.2177 5.44876 25.7406 5.88869 25.3033 6.35951C24.6492 7.06317 24.0761 7.8426 23.6004 8.675C22.5256 10.5565 21.958 12.7038 21.958 14.884C21.958 21.7727 27.5375 27.377 34.3959 27.377ZM25.6391 9.84985C26.0251 9.17415 26.4898 8.54185 27.0212 7.97061C27.376 7.58806 27.7639 7.23127 28.1729 6.90868C29.9629 5.49769 32.1148 4.75173 34.3959 4.75173C39.9579 4.75173 44.4835 9.29664 44.4835 14.884C44.4835 20.4709 39.9579 25.0162 34.3959 25.0162C28.8336 25.0162 24.3079 20.4709 24.3079 14.884C24.3079 13.1151 24.7683 11.3745 25.6391 9.84985Z" fill="white"/>
<path d="M35.4381 18.9243C34.9643 19.2071 34.3487 19.3076 33.9312 19.3076C33.1387 19.3076 32.444 18.3696 32.444 17.3007C32.444 16.6489 31.9177 16.1203 31.2688 16.1203C30.6195 16.1203 30.0936 16.6489 30.0936 17.3007C30.0936 19.3451 31.3336 21.065 33.0028 21.5384C33.0409 22.156 33.5499 22.6456 34.1743 22.6456C34.8156 22.6456 35.336 22.1295 35.3484 21.4881C37.0458 21.0456 38.5107 19.7762 38.5107 17.5578C38.5107 14.898 35.8066 13.4469 34.4179 13.4469C34.4003 13.4469 32.6751 13.2928 32.6751 12.1845C32.6751 10.4826 34.4003 10.4347 34.4179 10.4347C34.7445 10.4347 35.1419 10.6297 35.455 10.9442C35.6055 11.0957 35.6216 11.1116 35.6216 11.7479C35.6216 12.3997 36.1482 12.9257 36.7968 12.9257C37.4457 12.9257 37.9723 12.3953 37.9723 11.7431C37.9723 10.9887 37.9723 10.1339 37.1172 9.2746C36.6031 8.75891 35.9871 8.39181 35.3462 8.20863C35.3103 7.58884 34.8006 7.09668 34.1743 7.09668C33.5254 7.09668 32.9992 7.62562 32.9992 8.27742V8.35466C31.7152 8.83394 30.3247 9.97937 30.3247 12.1845C30.3247 14.8892 33.1237 15.8036 34.4095 15.8073C34.7625 15.836 36.16 16.4576 36.16 17.5574C36.16 18.2048 35.9377 18.626 35.4381 18.9243V18.9243Z" fill="white"/>
</svg>
