<svg width="60" height="60" viewBox="0 0 60 60" fill="none" xmlns="http://www.w3.org/2000/svg">
<path d="M30.101 58.2289L16.3887 58.216C14.621 58.2512 12.8578 56.6572 12.8934 54.6988L12.9258 15.1248C12.9262 14.6396 12.5349 14.246 12.0519 14.2456C12.0517 14.2456 12.0514 14.2456 12.0512 14.2456C11.5685 14.2456 11.1769 14.6385 11.1766 15.1234L11.1442 54.6972C11.0798 57.43 13.5167 60.0301 16.387 59.973L30.0994 59.9859H30.1002C30.5829 59.9859 30.9744 59.593 30.9749 59.1082C30.9753 58.6231 30.5842 58.2294 30.101 58.2289Z" fill="white"/>
<path d="M47.3237 1.57401C46.3335 0.577558 45.0161 0.0280891 43.6144 0.0268006L16.4428 0.00126571C13.7226 -0.0637429 11.1334 2.38445 11.1902 5.26661L11.1805 11.023C11.1797 11.5083 11.5706 11.9022 12.0536 11.903H12.0551C12.5375 11.903 12.9289 11.5106 12.9298 11.026L12.9394 5.26907C12.9044 3.49358 14.4916 1.72241 16.4412 1.75837L43.6127 1.78391C45.3804 1.74865 47.1437 3.34271 47.108 5.30105L47.062 54.731C47.097 56.5065 45.5099 58.2777 43.5603 58.2418L34.185 58.233C34.1848 58.233 34.1846 58.233 34.1842 58.233C33.7015 58.233 33.3101 58.6258 33.3096 59.1106C33.3091 59.5958 33.7004 59.9895 34.1834 59.99L43.5585 59.9987C46.2792 60.0636 48.8681 57.6157 48.8111 54.7327L48.8571 5.30269C48.8586 3.89464 48.314 2.57045 47.3237 1.57401V1.57401Z" fill="white"/>
<path d="M31.5169 5.2848C32 5.2848 32.3916 4.89159 32.3916 4.40632C32.3916 3.92104 32 3.52783 31.5169 3.52783H25.686C25.2029 3.52783 24.8113 3.92104 24.8113 4.40632C24.8113 4.89159 25.2029 5.2848 25.686 5.2848H31.5169Z" fill="white"/>
<path d="M21.701 12.7551C19.8484 14.9819 18.97 17.8 19.2276 20.6903C19.4853 23.5807 20.8482 26.1972 23.065 28.0579C25.0286 29.706 27.4537 30.5864 29.9819 30.5864C30.308 30.5864 30.6364 30.5718 30.9653 30.5421C33.6171 30.3038 36.0786 29.098 37.8961 27.1471C38.2263 26.7928 38.2079 26.2368 37.8551 25.9053C37.5023 25.5738 36.9489 25.5921 36.6188 25.9467C35.7989 26.8268 34.8217 27.5239 33.7482 28.013C33.9092 27.7496 34.0633 27.4678 34.2092 27.1668C35.0744 25.3817 35.592 23.0873 35.6948 20.6293H39.0218C38.9512 21.348 38.7979 22.0554 38.5562 22.744C38.3956 23.2016 38.6347 23.7032 39.0903 23.8645C39.5458 24.0261 40.0454 23.7857 40.2059 23.3281C40.7221 21.857 40.9131 20.3177 40.7737 18.7526C40.5161 15.8623 39.1532 13.2457 36.9363 11.3851C34.7193 9.5242 31.9132 8.64161 29.0359 8.90082C26.1587 9.15945 23.5535 10.5283 21.701 12.7551V12.7551ZM20.9809 20.6292H24.3067C24.4094 23.0872 24.9271 25.3816 25.7922 27.1667C25.9387 27.4689 26.0935 27.7518 26.2552 28.0162C25.5197 27.6799 24.8236 27.2443 24.1867 26.7096C22.3529 25.1704 21.2181 23.0139 20.9809 20.6292V20.6292ZM33.9469 18.8722H30.9338V10.9108C32.4061 11.8283 33.7767 14.8181 33.9469 18.8722ZM29.1845 10.843V18.8722H26.0547C26.2294 14.7112 27.6686 11.6719 29.1845 10.843ZM29.1845 20.6292V28.5998C27.6757 27.7749 26.2425 24.7604 26.0568 20.6292H29.1845ZM30.9338 28.5321V20.6293H33.9448C33.7638 24.6538 32.3991 27.619 30.9338 28.5321ZM39.0273 18.8722H35.697C35.6001 16.392 35.0814 14.0754 34.2093 12.2761C34.0643 11.9771 33.9113 11.6969 33.7513 11.4348C36.6107 12.7462 38.7143 15.5134 39.0273 18.8722ZM26.2573 11.4233C26.0947 11.6886 25.9394 11.9726 25.7922 12.2761C24.9202 14.0754 24.4015 16.3922 24.3046 18.8722H20.9732C21.1395 17.0475 21.8485 15.3177 23.0432 13.8817C23.9327 12.8126 25.0297 11.9808 26.2573 11.4233V11.4233Z" fill="white"/>
<path d="M15.8319 39.0777C15.8319 39.6632 15.9139 40.2427 16.0757 40.8004C16.2107 41.2662 16.6961 41.5333 17.1599 41.3982C17.6237 41.2624 17.8902 40.7748 17.755 40.309C17.6396 39.9112 17.5812 39.4968 17.5812 39.0777C17.5812 36.6556 19.5429 34.6852 21.9542 34.6852C24.3656 34.6852 26.3273 36.6556 26.3273 39.0777C26.3273 41.4998 24.3656 43.4702 21.9542 43.4702C21.2467 43.4702 20.572 43.3061 19.9489 42.9823C19.5196 42.7594 18.9921 42.9282 18.7703 43.3591C18.5484 43.7901 18.7163 44.3201 19.1453 44.543C20.007 44.9906 20.9783 45.2272 21.9541 45.2272C25.33 45.2272 28.0764 42.4684 28.0764 39.0777C28.0764 35.6869 25.33 32.9282 21.9541 32.9282C18.5782 32.9282 15.8319 35.6869 15.8319 39.0777V39.0777Z" fill="white"/>
<path d="M38.0645 45.2387C41.2689 45.3159 44.2613 42.4376 44.1926 39.0949C44.2692 35.8739 41.4004 32.8676 38.0701 32.9397C34.6971 32.9397 31.951 35.6947 31.9479 39.0835C31.9447 42.4742 34.6887 45.2355 38.0645 45.2387ZM38.0702 34.6967C40.3163 34.6466 42.4929 36.6724 42.4434 39.0933C42.4909 41.3479 40.4746 43.5315 38.0662 43.4817C35.6549 43.4793 33.6949 41.5072 33.6971 39.0851C33.6995 36.6644 35.6607 34.6967 38.0702 34.6967V34.6967Z" fill="white"/>
<path d="M20.6976 40.4374C20.797 40.4374 20.898 40.4203 20.9968 40.3842L22.3118 39.9035C22.3607 39.8802 22.7056 39.751 22.8344 39.3785L23.6321 37.1771C23.7974 36.7211 23.5633 36.2171 23.1093 36.0511C22.6553 35.8855 22.1535 36.1204 21.9883 36.5761L21.3301 38.3926L20.3983 38.7332C19.9444 38.8992 19.7104 39.4033 19.8756 39.8592C20.0049 40.2159 20.3403 40.4374 20.6976 40.4374Z" fill="white"/>
<path d="M35.7568 38.2447L37.2995 39.5449L37.4873 40.6144C37.5621 41.0406 37.9311 41.3403 38.3475 41.3403C38.3979 41.3403 38.4491 41.336 38.5005 41.3269C38.9762 41.2427 39.2939 40.787 39.2099 40.3092L38.9669 38.9251C38.869 38.6715 38.9959 38.7566 38.6678 38.4048L36.8811 36.899C36.5109 36.587 35.9594 36.6355 35.6489 37.0073C35.3385 37.379 35.3868 37.9328 35.7568 38.2447V38.2447Z" fill="white"/>
<path d="M27.7269 47.8624C27.7269 47.3771 27.3353 46.9839 26.8522 46.9839H17.0564C16.5734 46.9839 16.1818 47.3771 16.1818 47.8624C16.1818 48.3477 16.5734 48.7409 17.0564 48.7409H26.8522C27.3353 48.7409 27.7269 48.3477 27.7269 47.8624Z" fill="white"/>
<path d="M19.0388 50.498C18.5558 50.498 18.1642 50.8913 18.1642 51.3765C18.1642 51.8618 18.5558 52.255 19.0388 52.255H24.8697C25.3527 52.255 25.7443 51.8618 25.7443 51.3765C25.7443 50.8913 25.3527 50.498 24.8697 50.498H19.0388Z" fill="white"/>
<path d="M43.8428 47.8624C43.8428 47.3771 43.4512 46.9839 42.9682 46.9839H33.1724C32.6893 46.9839 32.2977 47.3771 32.2977 47.8624C32.2977 48.3477 32.6893 48.7409 33.1724 48.7409H42.9682C43.4512 48.7409 43.8428 48.3477 43.8428 47.8624Z" fill="white"/>
<path d="M35.1548 50.498C34.6718 50.498 34.2802 50.8913 34.2802 51.3765C34.2802 51.8618 34.6718 52.255 35.1548 52.255H40.9856C41.4686 52.255 41.8602 51.8618 41.8602 51.3765C41.8602 50.8913 41.4686 50.498 40.9856 50.498H35.1548Z" fill="white"/>
<path d="M34.4322 5.2848C34.9152 5.2848 35.3068 4.89149 35.3068 4.40632C35.3068 3.92114 34.9152 3.52783 34.4322 3.52783C33.9491 3.52783 33.5576 3.92114 33.5576 4.40632C33.5576 4.89149 33.9491 5.2848 34.4322 5.2848Z" fill="white"/>
</svg>
