<svg width="42" height="42" viewBox="0 0 42 42" fill="none" xmlns="http://www.w3.org/2000/svg">
<path d="M21.0346 40.9306C32.0612 40.9306 40.9999 31.9918 40.9999 20.9653C40.9999 9.93877 32.0612 1 21.0346 1C10.0081 1 1.06934 9.93877 1.06934 20.9653C1.06934 31.9918 10.0081 40.9306 21.0346 40.9306Z" stroke="#346751" stroke-width="1.77" stroke-miterlimit="10"/>
<path d="M23.4836 33.5331C21.4688 34.1642 19.6471 34.8018 18.0444 35.4047C12.0804 34.0883 7.589 33.4529 5.26846 33.2512C5.14701 33.0582 4.98436 32.8478 4.87159 32.6483C4.30555 31.642 3.53782 30.6964 3.29492 29.6121C10.1347 30.2684 16.8954 31.5815 23.4836 33.5331Z" fill="#346751"/>
<path d="M6.28516 34.2444C8.46906 34.5025 11.4901 34.9362 15.0511 35.6454C12.7349 36.6495 11.1843 37.4324 10.5489 37.7642C8.96631 36.8013 7.53039 35.6159 6.28516 34.2444Z" fill="#346751"/>
<path d="M20.8911 40.7614C19.4075 40.8641 17.9169 40.7752 16.4561 40.4968C20.6265 38.3823 28.1672 34.8798 36.5883 33.4854C31.2836 40.3125 21.7174 40.9306 20.8911 40.7614Z" fill="#346751"/>
<path d="M38.2175 31.4922C38.083 31.8197 37.5538 32.2274 37.4042 32.5376C26.1897 34.1966 19.7768 37.7186 15.5586 40.243C14.3593 39.8093 12.8369 39.2801 11.6094 38.5211C14.7779 36.4608 24.6825 30.7657 39.1522 29.677C38.9852 30.3558 38.4842 30.8459 38.2175 31.4922Z" fill="#346751"/>
<path d="M21.8913 26.5693H20.178L19.6943 33.5266H22.3749L21.8913 26.5693Z" fill="#346751"/>
<path d="M22.3754 33.5266H21.0352V26.5693H21.9026L21.9547 27.2915L22.3754 33.5266Z" fill="#346751"/>
<path d="M21.0344 24.7476C13.6781 22.3403 9.77441 28.9267 9.77441 28.9267C9.77441 28.9267 16.157 32.0367 21.0344 26.6279C25.9119 32.0345 32.288 28.9245 32.288 28.9245C32.288 28.9245 28.3843 22.3381 21.0344 24.7476Z" fill="#346751"/>
<path d="M32.2883 28.9246C32.2883 28.9246 26.6605 31.6658 21.937 27.5214C21.616 27.2418 21.3125 26.9427 21.0283 26.6257V24.7476C21.7011 24.5229 22.3951 24.3674 23.0995 24.2835C29.122 23.57 32.2883 28.9246 32.2883 28.9246Z" fill="#346751"/>
<path d="M6.21387 21.1648C6.21387 21.1648 11.074 28.7857 21.0675 26.63L21.5489 25.4329C15.3724 18.0657 6.21387 21.1648 6.21387 21.1648Z" fill="#346751"/>
<path d="M35.8562 21.1648C35.8562 21.1648 31.007 28.7705 21.0352 26.6386V24.8516C27.1878 18.2413 35.8562 21.1648 35.8562 21.1648Z" fill="#346751"/>
<path d="M8.82249 12.6721C8.82249 12.6721 8.61863 23.3618 20.4035 26.0293L21.7177 24.9753C20.397 13.904 8.82249 12.6721 8.82249 12.6721Z" fill="#346751"/>
<path d="M33.2469 12.6721C33.2469 12.6721 33.4508 23.3618 21.6659 26.0293L20.3604 24.9753C21.6724 13.904 33.2469 12.6721 33.2469 12.6721Z" fill="#346751"/>
<path d="M21.0346 5.18774C21.0346 5.18774 12.3597 15.0858 20.0652 26.0314H22.0041C29.7074 15.0858 21.0346 5.18774 21.0346 5.18774Z" fill="#346751"/>
</svg>
