<?xml version="1.0" encoding="utf-8"?>
<!-- Generator: Adobe Illustrator 24.2.3, SVG Export Plug-In . SVG Version: 6.00 Build 0)  -->
<svg version="1.1" id="Layer_1" xmlns="http://www.w3.org/2000/svg" xmlns:xlink="http://www.w3.org/1999/xlink" x="0px" y="0px"
	 viewBox="0 0 124.6 124.6" style="enable-background:new 0 0 124.6 124.6;" xml:space="preserve">
<style type="text/css">
	.st0{fill:#231F20;}
	.st1{fill:#FFFFFF;}
</style>
<g>
	<circle class="st0" cx="62.3" cy="62.3" r="62.3"/>
	<g>
		<path class="st1" d="M62.3,93.7c-17.4,0-31.5-14.1-31.5-31.5c0-17.3,14.2-31.4,31.5-31.4c8.4,0,16.3,3.3,22.2,9.2c1,1,1,2.5,0,3.5
			c-1,1-2.5,1-3.5,0c-5-5-11.6-7.7-18.7-7.7c-14.6,0-26.5,11.9-26.5,26.5s11.9,26.5,26.5,26.5c7,0,13.8-2.8,18.7-7.7
			c1-1,2.5-1,3.5,0c1,1,1,2.5,0,3.5C78.6,90.4,70.7,93.7,62.3,93.7z"/>
		<path class="st1" d="M62.3,78.7c-9.1,0-16.5-7.4-16.5-16.5s7.4-16.5,16.5-16.5c4.4,0,8.5,1.7,11.7,4.8c1,1,1,2.5,0,3.5
			c-1,1-2.5,1-3.5,0c-2.2-2.2-5.1-3.4-8.2-3.4c-6.4,0-11.6,5.2-11.6,11.6c0,6.4,5.2,11.6,11.6,11.6c3.1,0,6-1.2,8.2-3.4
			c1-1,2.5-1,3.5,0c1,1,1,2.5,0,3.5C70.9,77,66.7,78.7,62.3,78.7z"/>
		<path class="st1" d="M62.3,93.7c-17.4,0-31.5-14.1-31.5-31.5c0-17.3,14.2-31.4,31.5-31.4c8.4,0,16.3,3.3,22.2,9.2c1,1,1,2.5,0,3.5
			c-1,1-2.5,1-3.5,0c-5-5-11.6-7.7-18.7-7.7c-14.6,0-26.5,11.9-26.5,26.5s11.9,26.5,26.5,26.5c7,0,13.8-2.8,18.7-7.7
			c1-1,2.5-1,3.5,0c1,1,1,2.5,0,3.5C78.6,90.4,70.7,93.7,62.3,93.7z"/>
		<path class="st1" d="M62.3,108.6c-25.6,0-46.4-20.8-46.4-46.4c0-12.4,4.8-24,13.6-32.8s20.4-13.6,32.8-13.6l0,0
			c12.4,0,24,4.8,32.8,13.6c1,1,1,2.5,0,3.5c-1,1-2.5,1-3.5,0c-7.8-7.8-18.2-12.1-29.3-12.1S40.9,25.1,33,32.9
			c-7.8,7.9-12.1,18.2-12.1,29.3c0,22.8,18.6,41.4,41.4,41.4c8.4,0,16.5-2.5,23.4-7.3c0.6-0.4,1.3-0.5,2.1-0.3l11.7,3.2l-2.4-13.3
			c-0.1-0.6,0-1.2,0.3-1.8c4.1-6.6,6.2-14.2,6.2-21.9s-2.2-15.4-6.2-21.9c-0.7-1.1-0.3-2.7,0.8-3.4c1.1-0.7,2.7-0.3,3.4,0.8
			c4.6,7.3,7,15.8,7,24.5c0,8.4-2.2,16.6-6.5,23.7l2.9,16.2c0.2,0.9-0.1,1.7-0.7,2.2c-0.6,0.6-1.5,0.8-2.3,0.6L87.7,101
			C80.1,106,71.4,108.6,62.3,108.6z"/>
		<path class="st1" d="M88.5,76.9c-0.3,0-0.7-0.1-1-0.2c-1.3-0.6-1.8-2.1-1.2-3.3c1.7-3.5,2.5-7.3,2.5-11.2s-0.8-7.7-2.5-11.2
			c-0.6-1.3-0.1-2.7,1.2-3.3c1.3-0.6,2.7-0.1,3.3,1.2c1.9,4.2,2.9,8.7,2.9,13.3s-1,9.1-2.9,13.3C90.4,76.3,89.5,76.9,88.5,76.9z"/>
		<path class="st1" d="M62.3,78.7c-9.1,0-16.5-7.4-16.5-16.5s7.4-16.5,16.5-16.5c4.4,0,8.5,1.7,11.7,4.8c1,1,1,2.5,0,3.5
			c-1,1-2.5,1-3.5,0c-2.2-2.2-5.1-3.4-8.2-3.4c-6.4,0-11.6,5.2-11.6,11.6c0,6.4,5.2,11.6,11.6,11.6c3.1,0,6-1.2,8.2-3.4
			c1-1,2.5-1,3.5,0c1,1,1,2.5,0,3.5C70.9,77,66.7,78.7,62.3,78.7z"/>
	</g>
</g>
</svg>
