<?xml version="1.0" encoding="utf-8"?>
<!-- Generator: Adobe Illustrator 24.2.3, SVG Export Plug-In . SVG Version: 6.00 Build 0)  -->
<svg version="1.1" id="Layer_1" xmlns="http://www.w3.org/2000/svg" xmlns:xlink="http://www.w3.org/1999/xlink" x="0px" y="0px"
	 viewBox="0 0 1368.2 200" style="enable-background:new 0 0 1368.2 200;" xml:space="preserve">
<style type="text/css">
	.st0{fill:#2C3635;}
	.st1{fill:none;stroke:#5DB5A5;stroke-width:7.77;stroke-miterlimit:10;}
	.st2{fill:#5DB5A5;}
</style>
<circle class="st0" cx="99.8" cy="99.6" r="92.1"/>
<circle class="st1" cx="100.1" cy="99.6" r="92.1"/>
<path class="st2" d="M111.4,157.5c-9.3,2.9-17.7,5.9-25.1,8.6c-27.5-6.1-48.2-9-58.9-9.9c-0.6-0.9-1.3-1.9-1.8-2.8
	c-2.6-4.6-6.1-9-7.3-14C49.8,142.5,81,148.5,111.4,157.5z"/>
<path class="st2" d="M32.1,160.8c10.1,1.2,24,3.2,40.4,6.5c-10.7,4.6-17.8,8.2-20.8,9.8C44.5,172.6,37.8,167.1,32.1,160.8z"/>
<path class="st2" d="M99.4,190.8L99.4,190.8c-6.8,0.5-13.7,0.1-20.4-1.2c19.2-9.8,54-25.9,92.8-32.3
	C147.4,188.8,103.3,191.6,99.4,190.8z"/>
<path class="st2" d="M179.3,148.1c-0.6,1.5-3.1,3.4-3.8,4.8c-51.7,7.6-81.3,23.9-100.7,35.5c-5.5-2-12.5-4.4-18.2-7.9
	c14.6-9.5,60.3-35.8,127-40.8C182.9,142.9,180.6,145.1,179.3,148.1z"/>
<path class="st2" d="M104.1,125.4h-7.9L94,157.5h12.4L104.1,125.4z"/>
<path class="st2" d="M106.3,157.5h-6.2v-32.1h4l0.2,3.3L106.3,157.5z"/>
<path class="st2" d="M100.1,117c-33.9-11.1-51.9,19.3-51.9,19.3s29.4,14.3,51.9-10.6c22.5,24.9,51.9,10.6,51.9,10.6
	S134,105.9,100.1,117z"/>
<path class="st2" d="M152,136.3c0,0-25.9,12.6-47.7-6.5c-1.5-1.3-2.9-2.7-4.2-4.1V117c3.1-1,6.3-1.8,9.6-2.1
	C137.4,111.6,152,136.3,152,136.3z"/>
<path class="st2" d="M31.8,100.5c0,0,22.4,35.1,68.5,25.2l2.2-5.5C74,86.2,31.8,100.5,31.8,100.5z"/>
<path class="st2" d="M168.4,100.5c0,0-22.4,35.1-68.3,25.2v-8.2C128.5,87,168.4,100.5,168.4,100.5z"/>
<path class="st2" d="M43.8,61.3c0,0-0.9,49.3,53.4,61.6l6.1-4.9C97.2,67,43.8,61.3,43.8,61.3z"/>
<path class="st2" d="M156.4,61.3c0,0,0.9,49.3-53.4,61.6l-6-4.9C103.1,67,156.4,61.3,156.4,61.3z"/>
<path class="st2" d="M100.1,26.8c0,0-40,45.6-4.5,96.1h8.9C140.1,72.4,100.1,26.8,100.1,26.8z"/>
<g>
	<path class="st0" d="M241.3,127.4c25,1.4,42,2.1,50.8,2.1c2.1,0,3.8-0.6,5-1.8c1.2-1.2,1.8-2.9,1.8-5v-12.3h-31.5
		c-9.6,0-16.6-2.2-20.9-6.5c-4.3-4.3-6.5-11.3-6.5-20.9v-4.1c0-9.6,2.2-16.6,6.5-20.9c4.3-4.3,11.3-6.5,20.9-6.5h48.1v19.2H273
		c-5.5,0-8.2,2.7-8.2,8.2v2.7c0,5.5,2.7,8.2,8.2,8.2h24.7c8.9,0,15.5,2.1,19.7,6.3c4.2,4.2,6.3,10.8,6.3,19.7v6.8
		c0,9-2.1,15.5-6.3,19.7c-4.2,4.2-10.8,6.3-19.7,6.3c-4.7,0-9.6-0.1-14.8-0.3l-12.6-0.5c-9.3-0.5-19-1.1-28.9-1.9V127.4z"/>
	<path class="st0" d="M381.2,147.3h-49.3v-19.2h12.3V70.5h-12.3V51.4h49.3v19.2h-12.3v57.5h12.3V147.3z"/>
	<path class="st0" d="M410.7,147.3h-26.7l36.3-95.9h27.4l36.3,95.9h-26.7l-6.2-17.1h-34.2L410.7,147.3z M423,112.3h21.9l-11-32.2
		L423,112.3z"/>
	<path class="st0" d="M573,93.8l-19.2,34.2h-19.2l-19.2-34.2v53.4h-24.7V51.4h26l27.4,50.7l27.4-50.7h26v95.9H573V93.8z"/>
	<path class="st0" d="M729.1,145.9c-20.4,1.8-37.3,2.7-50.7,2.7c-9,0-15.5-2.1-19.7-6.3c-4.2-4.2-6.3-10.8-6.3-19.7V78.8
		c0-9.6,2.2-16.6,6.5-20.9c4.3-4.3,11.3-6.5,20.9-6.5h49.3v19.2h-43.8c-5.5,0-8.2,2.7-8.2,8.2v43.8c0,2.1,0.6,3.8,1.8,5
		c1.2,1.2,2.8,1.8,4.7,1.8c1.9,0,4,0,6.3-0.1c2.3,0,4.7-0.1,7.1-0.2c2.5-0.1,5-0.2,7.5-0.3c2.5-0.1,5.8-0.3,9.7-0.5
		c4-0.3,8.9-0.6,14.9-1V145.9z"/>
	<path class="st0" d="M757.2,147.3h-26.7l36.3-95.9h27.4l36.3,95.9h-26.7l-6.2-17.1h-34.2L757.2,147.3z M769.6,112.3h21.9l-11-32.2
		L769.6,112.3z"/>
	<path class="st0" d="M920.9,147.3h-26L862,89.7v57.5h-24.7V51.4h26l32.9,57.5V51.4h24.7V147.3z"/>
	<path class="st0" d="M1020.9,147.3h-26L962,89.7v57.5h-24.7V51.4h26l32.9,57.5V51.4h24.7V147.3z"/>
	<path class="st0" d="M1054.5,147.3h-26.7l36.3-95.9h27.4l36.3,95.9h-26.7l-6.2-17.1h-34.2L1054.5,147.3z M1066.8,112.3h21.9
		l-11-32.2L1066.8,112.3z"/>
	<path class="st0" d="M1134.6,51.4h54.8c8.9,0,15.5,2,19.7,6.1c4.2,4.1,6.3,10.3,6.3,18.6c0,5.5-1.2,9.9-3.6,13.4
		c-2.4,3.4-5.3,5.8-8.8,7.2c7.4,2,12.4,6.9,15.1,14.8c0.9,2.8,1.4,6.1,1.4,9.9c0,9-2.1,15.5-6.3,19.7c-4.2,4.2-10.8,6.3-19.7,6.3
		h-58.9V51.4z M1190.8,78.8c0-5.5-2.7-8.2-8.2-8.2h-23.3v19.2h23.3c5.5,0,8.2-2.7,8.2-8.2V78.8z M1194.9,117.1
		c0-5.5-2.7-8.2-8.2-8.2h-27.4v19.2h27.4c5.5,0,8.2-2.7,8.2-8.2V117.1z"/>
	<path class="st0" d="M1277.1,147.3h-49.3v-19.2h12.3V70.5h-12.3V51.4h49.3v19.2h-12.3v57.5h12.3V147.3z"/>
	<path class="st0" d="M1286.5,127.4c25,1.4,42,2.1,50.8,2.1c2.1,0,3.8-0.6,5-1.8c1.2-1.2,1.8-2.9,1.8-5v-12.3h-31.5
		c-9.6,0-16.6-2.2-20.9-6.5c-4.3-4.3-6.5-11.3-6.5-20.9v-4.1c0-9.6,2.2-16.6,6.5-20.9c4.3-4.3,11.3-6.5,20.9-6.5h48.1v19.2h-42.6
		c-5.5,0-8.2,2.7-8.2,8.2v2.7c0,5.5,2.7,8.2,8.2,8.2h24.7c8.9,0,15.5,2.1,19.7,6.3c4.2,4.2,6.3,10.8,6.3,19.7v6.8
		c0,9-2.1,15.5-6.3,19.7c-4.2,4.2-10.8,6.3-19.7,6.3c-4.7,0-9.6-0.1-14.8-0.3l-12.6-0.5c-9.3-0.5-19-1.1-28.9-1.9V127.4z"/>
</g>
</svg>
