<svg id="Layer_1" data-name="Layer 1" xmlns="http://www.w3.org/2000/svg" viewBox="0 0 200 200"><defs><style>.cls-1{fill:#2c3635;}.cls-2{fill:none;stroke:#5db5a5;stroke-miterlimit:10;stroke-width:7.77px;}.cls-3{fill:#5db5a5;}</style></defs><circle class="cls-1" cx="99.79" cy="99.56" r="92.06"/><circle class="cls-2" cx="100.11" cy="99.56" r="92.06"/><path class="cls-3" d="M111.4,157.51c-9.29,2.91-17.69,5.85-25.08,8.63-27.5-6.07-48.21-9-58.91-9.93-.56-.89-1.31-1.86-1.83-2.78-2.61-4.64-6.15-9-7.27-14A493.81,493.81,0,0,1,111.4,157.51Z"/><path class="cls-3" d="M32.1,160.79c10.07,1.19,24,3.19,40.42,6.46-10.68,4.63-17.83,8.24-20.76,9.77A89.13,89.13,0,0,1,32.1,160.79Z"/><path class="cls-3" d="M99.45,190.84h0A79.81,79.81,0,0,1,79,189.62c19.23-9.75,54-25.9,92.83-32.33C147.37,188.77,103.26,191.62,99.45,190.84Z"/><path class="cls-3" d="M179.34,148.1c-.62,1.51-3.06,3.39-3.75,4.82-51.71,7.65-81.28,23.89-100.73,35.53-5.53-2-12.55-4.44-18.21-7.94,14.61-9.5,60.28-35.76,127-40.78C182.88,142.86,180.57,145.12,179.34,148.1Z"/><path class="cls-3" d="M104.06,125.4h-7.9l-2.23,32.08h12.36Z"/><path class="cls-3" d="M106.29,157.48h-6.18V125.4h4l.24,3.33Z"/><path class="cls-3" d="M100.11,117c-33.92-11.1-51.92,19.27-51.92,19.27s29.43,14.34,51.92-10.6C122.6,150.6,152,136.26,152,136.26S134,105.89,100.11,117Z"/><path class="cls-3" d="M152,136.26s-25.95,12.64-47.73-6.47a47.77,47.77,0,0,1-4.19-4.13V117a48.14,48.14,0,0,1,9.55-2.14C137.4,111.57,152,136.26,152,136.26Z"/><path class="cls-3" d="M31.77,100.48s22.41,35.14,68.49,25.2l2.22-5.52C74,86.19,31.77,100.48,31.77,100.48Z"/><path class="cls-3" d="M168.45,100.48s-22.36,35.07-68.34,25.24v-8.24C128.48,87,168.45,100.48,168.45,100.48Z"/><path class="cls-3" d="M43.8,61.32s-.94,49.29,53.4,61.59l6.06-4.86C97.17,67,43.8,61.32,43.8,61.32Z"/><path class="cls-3" d="M156.42,61.32s.94,49.29-53.4,61.59L97,118.05C103.05,67,156.42,61.32,156.42,61.32Z"/><path class="cls-3" d="M100.11,26.81s-40,45.64-4.47,96.11h8.94C140.1,72.45,100.11,26.81,100.11,26.81Z"/></svg>