<?xml version="1.0" encoding="utf-8"?>
<!-- Generator: Adobe Illustrator 24.2.3, SVG Export Plug-In . SVG Version: 6.00 Build 0)  -->
<svg version="1.1" id="Layer_1" xmlns="http://www.w3.org/2000/svg" xmlns:xlink="http://www.w3.org/1999/xlink" x="0px" y="0px"
	 viewBox="0 0 422.4 665.6" style="enable-background:new 0 0 422.4 665.6;" xml:space="preserve">
<style type="text/css">
	.st0{fill:#2C3635;}
	.st1{fill:#5DB5A5;}
</style>
<g>
	<circle class="st0" cx="210.6" cy="189.5" r="181.8"/>
	<path class="st1" d="M211.2,379c-104.5,0-189.5-85-189.5-189.5S106.7,0,211.2,0s189.5,85,189.5,189.5S315.7,379,211.2,379z
		 M211.2,15.3C115.1,15.3,37,93.5,37,189.5s78.1,174.2,174.2,174.2s174.2-78.1,174.2-174.2S307.2,15.3,211.2,15.3z"/>
	<path class="st1" d="M233.5,303.8c-18.4,5.7-34.9,11.6-49.6,17c-54.3-12-95.2-17.8-116.3-19.5c-1.2-1.8-2.6-3.8-3.6-5.5
		c-5.1-9.1-12-17.8-14.4-27.6C111.9,274.2,173.5,286,233.5,303.8z"/>
	<path class="st1" d="M76.9,310.3c19.9,2.4,47.4,6.3,79.8,12.8c-21.1,9.1-35.1,16.2-41.1,19.3C101.4,333.6,88.2,322.8,76.9,310.3z"
		/>
	<path class="st1" d="M209.8,369.6L209.8,369.6c-13.4,1-27,0.2-40.3-2.4c37.9-19.3,106.6-51.1,183.2-63.8
		C304.6,365.6,217.5,371.1,209.8,369.6z"/>
	<path class="st1" d="M367.5,285.3c-1.2,3-6.1,6.7-7.5,9.5c-102.1,15-160.5,47.2-198.8,70.1c-10.9-3.9-24.7-8.7-35.9-15.6
		c28.8-18.8,119-70.7,250.7-80.6C374.6,275,370.1,279.3,367.5,285.3z"/>
	<path class="st1" d="M219.1,240.4h-15.6l-4.3,63.4h24.5L219.1,240.4z"/>
	<path class="st1" d="M223.4,303.8h-12.2v-63.4h7.9l0.4,6.5L223.4,303.8z"/>
	<path class="st1" d="M211.2,223.9C144.3,201.9,108.7,262,108.7,262s58,28.2,102.5-20.9c44.4,49.2,102.5,20.9,102.5,20.9
		S278.1,201.9,211.2,223.9z"/>
	<path class="st1" d="M313.6,262c0,0-51.1,24.9-94.2-12.8c-3-2.6-5.7-5.3-8.3-8.1v-17.2c6.1-2,12.4-3.6,19-4.1
		C284.8,213.2,313.6,262,313.6,262z"/>
	<path class="st1" d="M76.3,191.3c0,0,44.2,69.3,135.2,49.8l4.3-10.9C159.7,163,76.3,191.3,76.3,191.3z"/>
	<path class="st1" d="M346,191.3c0,0-44.2,69.3-134.8,49.8v-16.2C267.2,164.6,346,191.3,346,191.3z"/>
	<path class="st1" d="M100,113.9c0,0-1.8,97.3,105.4,121.6l12-9.7C205.5,125.1,100,113.9,100,113.9z"/>
	<path class="st1" d="M322.3,113.9c0,0,1.8,97.3-105.4,121.6l-11.8-9.7C217.1,125.1,322.3,113.9,322.3,113.9z"/>
	<path class="st1" d="M211.2,45.8c0,0-79,90-8.9,189.7h17.6C290.2,135.8,211.2,45.8,211.2,45.8z"/>
</g>
<g>
	<path class="st0" d="M6.1,515.9c28.6,1.6,47.9,2.3,58,2.3c2.4,0,4.3-0.7,5.7-2.1c1.4-1.4,2.1-3.3,2.1-5.7v-14.1H36
		c-11,0-18.9-2.5-23.9-7.4c-5-5-7.4-12.9-7.4-23.9v-4.7c0-11,2.5-18.9,7.4-23.9c5-5,12.9-7.4,23.9-7.4h54.9V451H42.2
		c-6.3,0-9.4,3.1-9.4,9.4v3.1c0,6.3,3.1,9.4,9.4,9.4h28.2c10.2,0,17.7,2.4,22.5,7.2c4.8,4.8,7.2,12.3,7.2,22.5v7.8
		c0,10.2-2.4,17.7-7.2,22.5c-4.8,4.8-12.3,7.2-22.5,7.2c-5.3,0-11-0.1-16.9-0.3l-14.4-0.6c-10.6-0.5-21.6-1.3-33-2.2V515.9z"/>
	<path class="st0" d="M165.8,538.6h-56.3v-21.9h14.1V451h-14.1v-21.9h56.3V451h-14.1v65.7h14.1V538.6z"/>
	<path class="st0" d="M199.4,538.6h-30.5l41.5-109.5h31.3l41.5,109.5h-30.5l-7-19.6h-39.1L199.4,538.6z M213.5,498.7h25L226,462
		L213.5,498.7z"/>
	<path class="st0" d="M384.8,477.6l-21.9,39.1H341l-21.9-39.1v61H291V429.1h29.7L352,487l31.3-57.9H413v109.5h-28.2V477.6z"/>
</g>
<g>
	<path class="st0" d="M52,643.2c-11.5,1-21.1,1.6-28.7,1.6c-5.1,0-8.8-1.2-11.2-3.6c-2.4-2.4-3.6-6.1-3.6-11.2v-24.8
		c0-5.4,1.2-9.4,3.7-11.8c2.5-2.5,6.4-3.7,11.8-3.7H52v10.9H27.2c-3.1,0-4.7,1.6-4.7,4.7V630c0,1.2,0.3,2.1,1,2.8
		c0.7,0.7,1.6,1,2.7,1s2.3,0,3.6,0c1.3,0,2.6-0.1,4-0.1c1.4-0.1,2.8-0.1,4.2-0.2c1.4-0.1,3.3-0.2,5.5-0.3c2.3-0.2,5.1-0.3,8.4-0.5
		V643.2z"/>
	<path class="st0" d="M67.9,644H52.8l20.6-54.3h15.5l20.6,54.3H94.3l-3.5-9.7H71.4L67.9,644z M74.9,624.2h12.4l-6.2-18.2L74.9,624.2
		z"/>
	<path class="st0" d="M160.7,644H146l-18.6-32.6V644h-14v-54.3h14.8l18.6,32.6v-32.6h14V644z"/>
	<path class="st0" d="M217.4,644h-14.8L184,611.4V644h-14v-54.3h14.8l18.6,32.6v-32.6h14V644z"/>
	<path class="st0" d="M236.4,644h-15.1l20.6-54.3h15.5l20.6,54.3h-15.1l-3.5-9.7h-19.4L236.4,644z M243.4,624.2h12.4l-6.2-18.2
		L243.4,624.2z"/>
	<path class="st0" d="M281.8,589.6h31.1c5.1,0,8.8,1.2,11.2,3.5c2.4,2.3,3.6,5.8,3.6,10.5c0,3.1-0.7,5.6-2,7.6c-1.3,1.9-3,3.3-5,4.1
		c4.2,1.1,7,3.9,8.5,8.4c0.5,1.6,0.8,3.5,0.8,5.6c0,5.1-1.2,8.8-3.6,11.2c-2.4,2.4-6.1,3.6-11.2,3.6h-33.4V589.6z M313.7,605.2
		c0-3.1-1.6-4.7-4.7-4.7h-13.2v10.9H309c3.1,0,4.7-1.6,4.7-4.7V605.2z M316,626.9c0-3.1-1.6-4.7-4.7-4.7h-15.5v10.9h15.5
		c3.1,0,4.7-1.6,4.7-4.7V626.9z"/>
	<path class="st0" d="M362.6,644h-27.9v-10.9h7v-32.6h-7v-10.9h27.9v10.9h-7v32.6h7V644z"/>
	<path class="st0" d="M367.9,632.7c14.2,0.8,23.8,1.2,28.8,1.2c1.2,0,2.1-0.3,2.8-1c0.7-0.7,1-1.6,1-2.8v-7h-17.9
		c-5.4,0-9.4-1.2-11.8-3.7c-2.5-2.5-3.7-6.4-3.7-11.8v-2.3c0-5.4,1.2-9.4,3.7-11.8c2.5-2.5,6.4-3.7,11.8-3.7H410v10.9h-24.1
		c-3.1,0-4.7,1.6-4.7,4.7v1.6c0,3.1,1.6,4.7,4.7,4.7h14c5.1,0,8.8,1.2,11.2,3.6c2.4,2.4,3.6,6.1,3.6,11.2v3.9
		c0,5.1-1.2,8.8-3.6,11.2c-2.4,2.4-6.1,3.6-11.2,3.6c-2.6,0-5.4-0.1-8.4-0.2l-7.1-0.3c-5.3-0.3-10.7-0.6-16.4-1.1V632.7z"/>
</g>
<g>
	<rect x="7.5" y="562.2" class="st0" width="407.3" height="7.3"/>
</g>
</svg>
