<svg width="24" height="24" viewBox="0 0 24 24" fill="none" xmlns="http://www.w3.org/2000/svg">
<path d="M20 5H15C15 3.346 13.654 2 12 2C10.346 2 9 3.346 9 5H4C3.448 5 3 5.447 3 6C3 6.553 3.448 7 4 7H5V19C5 20.654 6.346 22 8 22H16C17.654 22 19 20.654 19 19V7H20C20.553 7 21 6.553 21 6C21 5.447 20.553 5 20 5ZM11 17C11 17.553 10.552 18 10 18C9.448 18 9 17.553 9 17V10C9 9.447 9.448 9 10 9C10.552 9 11 9.447 11 10V17ZM12 4C12.551 4 13 4.448 13 5H11C11 4.448 11.449 4 12 4ZM15 17C15 17.553 14.553 18 14 18C13.447 18 13 17.553 13 17V10C13 9.447 13.447 9 14 9C14.553 9 15 9.447 15 10V17Z" fill="#FF453A"/>
</svg>
