<svg width="24" height="25" viewBox="0 0 24 25" fill="none" xmlns="http://www.w3.org/2000/svg">
<path d="M1.56525 21.932C1.33046 21.932 1.09568 21.8798 0.886984 21.7494C0.260897 21.3841 0.0782887 20.5754 0.443506 19.9494L3.62611 14.6276C3.8609 14.2624 4.2522 14.0015 4.69568 14.0015C5.13916 13.9754 5.55655 14.1841 5.81742 14.5494L7.17394 16.4276L10.0435 11.5233C10.2522 11.1581 10.6696 10.8972 11.087 10.8711C11.5305 10.845 11.9479 11.0537 12.2087 11.3928L14.7131 14.7581L21.3131 3.80153C21.6783 3.17545 22.487 2.99284 23.1131 3.35806C23.7392 3.72327 23.9218 4.53197 23.5565 5.15806L15.9652 17.7581C15.7305 18.1233 15.3392 18.3581 14.9218 18.3841C14.4783 18.4102 14.0609 18.2015 13.8 17.8624L11.2957 14.5233L8.40003 19.4276C8.16524 19.8189 7.77394 20.0537 7.33046 20.0798C6.88698 20.1059 6.46959 19.8972 6.20872 19.532L4.8522 17.6537L2.68698 21.2798C2.4522 21.6972 2.00872 21.932 1.56525 21.932Z" fill="black"/>
</svg>
