<svg width="16" height="16" viewBox="0 0 16 16" fill="none" xmlns="http://www.w3.org/2000/svg">
<path d="M7.99968 1.33334C4.32368 1.33334 1.33301 4.32401 1.33301 8.00001C1.33301 11.676 4.32368 14.6667 7.99968 14.6667C11.6757 14.6667 14.6663 11.676 14.6663 8.00001C14.6663 4.32401 11.6757 1.33334 7.99968 1.33334ZM10.471 7.80468L8.47101 9.80468C8.34101 9.93468 8.17034 10 7.99968 10C7.82901 10 7.65834 9.93468 7.52834 9.80468L5.52834 7.80468C5.26768 7.54401 5.26768 7.12268 5.52834 6.86201C5.78901 6.60134 6.21034 6.60134 6.47101 6.86201L7.99968 8.39068L9.52834 6.86201C9.78901 6.60134 10.2103 6.60134 10.471 6.86201C10.7317 7.12268 10.7317 7.54401 10.471 7.80468V7.80468Z" fill="black"/>
</svg>
