<svg width="20" height="21" viewBox="0 0 20 21" fill="none" xmlns="http://www.w3.org/2000/svg">
<path d="M-4.37114e-07 10.5C-1.96089e-07 16.014 4.486 20.5 10 20.5C15.514 20.5 20 16.014 20 10.5C20 4.986 15.514 0.499996 10 0.499996C4.486 0.499996 -6.78139e-07 4.986 -4.37114e-07 10.5ZM9.707 6.793L12.707 9.793C12.902 9.988 13 10.244 13 10.5C13 10.756 12.902 11.012 12.707 11.207L9.707 14.207C9.316 14.598 8.684 14.598 8.293 14.207C7.902 13.816 7.902 13.184 8.293 12.793L10.586 10.5L8.293 8.207C7.902 7.816 7.902 7.184 8.293 6.793C8.684 6.402 9.316 6.402 9.707 6.793Z" fill="white"/>
</svg>
