<svg width="20" height="21" viewBox="0 0 20 21" fill="none" xmlns="http://www.w3.org/2000/svg">
<path d="M20 10.5C20 4.986 15.514 0.5 10 0.5C4.486 0.499999 -4.01079e-06 4.986 -4.25181e-06 10.5C-4.49284e-06 16.014 4.486 20.5 10 20.5C15.514 20.5 20 16.014 20 10.5ZM10.293 14.207L7.293 11.207C7.098 11.012 7 10.756 7 10.5C7 10.244 7.098 9.988 7.293 9.793L10.293 6.793C10.684 6.402 11.316 6.402 11.707 6.793C12.098 7.184 12.098 7.816 11.707 8.207L9.414 10.5L11.707 12.793C12.098 13.184 12.098 13.816 11.707 14.207C11.316 14.598 10.684 14.598 10.293 14.207Z" fill="white"/>
</svg>
