<svg width="24" height="24" viewBox="0 0 24 24" fill="none" xmlns="http://www.w3.org/2000/svg">
<path d="M19.2 11.998C18.9878 11.998 18.7843 12.0823 18.6343 12.2324C18.4843 12.3825 18.4 12.586 18.4 12.7982V17.5994C18.4 17.8116 18.3157 18.0152 18.1657 18.1652C18.0157 18.3153 17.8122 18.3996 17.6 18.3996H6.4C6.18783 18.3996 5.98434 18.3153 5.83431 18.1652C5.68429 18.0152 5.6 17.8116 5.6 17.5994V12.7982C5.6 12.586 5.51571 12.3825 5.36569 12.2324C5.21566 12.0823 5.01217 11.998 4.8 11.998C4.58783 11.998 4.38434 12.0823 4.23431 12.2324C4.08429 12.3825 4 12.586 4 12.7982V17.5994C4 18.2361 4.25286 18.8467 4.70294 19.2969C5.15303 19.7471 5.76348 20 6.4 20H17.6C18.2365 20 18.847 19.7471 19.2971 19.2969C19.7471 18.8467 20 18.2361 20 17.5994V12.7982C20 12.586 19.9157 12.3825 19.7657 12.2324C19.6157 12.0823 19.4122 11.998 19.2 11.998Z" fill="black"/>
<path d="M11.1999 12.4741L9.36786 10.6337C9.29326 10.559 9.20471 10.4999 9.10725 10.4595C9.0098 10.4191 8.90534 10.3983 8.79986 10.3983C8.69437 10.3983 8.58991 10.4191 8.49246 10.4595C8.395 10.4999 8.30645 10.559 8.23186 10.6337C8.15726 10.7083 8.0981 10.7968 8.05773 10.8943C8.01736 10.9918 7.99658 11.0963 7.99658 11.2018C7.99658 11.3073 8.01736 11.4118 8.05773 11.5093C8.0981 11.6068 8.15726 11.6953 8.23186 11.7699L11.4319 14.9707C11.5079 15.0436 11.5977 15.1007 11.6959 15.1388C11.8906 15.2188 12.1091 15.2188 12.3039 15.1388C12.4021 15.1007 12.4918 15.0436 12.5679 14.9707L15.7679 11.7699C15.8428 11.6955 15.9024 11.607 15.943 11.5095C15.9836 11.412 16.0045 11.3074 16.0045 11.2018C16.0045 11.0962 15.9836 10.9916 15.943 10.8941C15.9024 10.7965 15.8428 10.708 15.7679 10.6337C15.6935 10.5587 15.605 10.4991 15.5075 10.4585C15.41 10.4179 15.3055 10.397 15.1999 10.397C15.0942 10.397 14.9897 10.4179 14.8922 10.4585C14.7947 10.4991 14.7062 10.5587 14.6319 10.6337L12.7999 12.4741V4.8002C12.7999 4.58797 12.7156 4.38444 12.5655 4.23437C12.4155 4.08431 12.212 4 11.9999 4C11.7877 4 11.5842 4.08431 11.4342 4.23437C11.2841 4.38444 11.1999 4.58797 11.1999 4.8002V12.4741Z" fill="black"/>
</svg>
