<svg width="18" height="18" viewBox="0 0 18 18" fill="none" xmlns="http://www.w3.org/2000/svg">
<path d="M18 3.714C17.8723 4.27035 17.5917 4.77999 17.19 5.1855L8.6895 13.6823C8.27255 14.1014 7.7766 14.4337 7.23037 14.6599C6.68413 14.8861 6.09846 15.0017 5.50725 15H4.5C4.10218 15 3.72064 14.842 3.43934 14.5607C3.15804 14.2794 3 13.8978 3 13.5V12.4928C2.99836 11.9016 3.11405 11.316 3.34038 10.7699C3.56671 10.2237 3.89917 9.72795 4.3185 9.31125L12.8145 0.8145C13.217 0.412154 13.7237 0.130079 14.2778 0C14.268 0 14.2598 0 14.25 0H3.75C2.7558 0.00119089 1.80267 0.396661 1.09966 1.09966C0.396661 1.80267 0.00119089 2.7558 0 3.75L0 14.25C0.00119089 15.2442 0.396661 16.1973 1.09966 16.9003C1.80267 17.6033 2.7558 17.9988 3.75 18H12V14.25C12 13.6533 12.2371 13.081 12.659 12.659C13.081 12.2371 13.6533 12 14.25 12H18V3.75C18 3.738 18 3.72675 18 3.714Z" fill="#EDBC0D"/>
</svg>
