<svg width="24" height="24" viewBox="0 0 24 24" fill="none" xmlns="http://www.w3.org/2000/svg">
<path d="M16.4915 17.3384V21C17.0498 20.8115 17.5578 20.5015 17.9777 20.0932L20.0785 18.0225C20.4936 17.6093 20.8086 17.1092 21 16.5594H17.2825C17.0727 16.5594 16.8715 16.6415 16.7232 16.7876C16.5749 16.9337 16.4915 17.1318 16.4915 17.3384ZM7.92701 13.3092C7.6331 13.5986 7.39996 13.9422 7.2409 14.3203C7.08184 14.6985 6.99998 15.1038 7 15.5131V16.5594H8.06226C8.47784 16.5594 8.88935 16.4788 9.27329 16.3221C9.65723 16.1654 10.0061 15.9358 10.2999 15.6463L19.2599 6.82121C19.5745 6.51128 19.7513 6.09093 19.7513 5.65262C19.7513 5.21432 19.5745 4.79397 19.2599 4.48404C18.9452 4.17412 18.5184 4 18.0734 4C17.6284 4 17.2017 4.17412 16.887 4.48404L7.92701 13.3092Z" fill="#EDBC0D"/>
<path d="M21 6.714C20.8723 7.27035 20.5917 7.77999 20.19 8.1855L11.6895 16.6823C11.2725 17.1014 10.7766 17.4337 10.2304 17.6599C9.68413 17.8861 9.09846 18.0017 8.50725 18H7.5C7.10218 18 6.72064 17.842 6.43934 17.5607C6.15804 17.2794 6 16.8978 6 16.5V15.4927C5.99836 14.9016 6.11405 14.316 6.34038 13.7699C6.56671 13.2237 6.89917 12.728 7.3185 12.3112L15.8145 3.8145C16.217 3.41215 16.7237 3.13008 17.2778 3C17.268 3 17.2598 3 17.25 3H6.75C5.7558 3.00119 4.80267 3.39666 4.09966 4.09966C3.39666 4.80267 3.00119 5.7558 3 6.75L3 17.25C3.00119 18.2442 3.39666 19.1973 4.09966 19.9003C4.80267 20.6033 5.7558 20.9988 6.75 21H15V17.25C15 16.6533 15.2371 16.081 15.659 15.659C16.081 15.2371 16.6533 15 17.25 15H21V6.75C21 6.738 21 6.72675 21 6.714Z" fill="#EDBC0D"/>
</svg>
