<svg width="24" height="24" viewBox="0 0 24 24" fill="none" xmlns="http://www.w3.org/2000/svg">
<path d="M21.6652 10.253L12.6652 2.25301C12.2862 1.91501 11.7152 1.91501 11.3362 2.25301L2.33622 10.253C1.92322 10.619 1.88622 11.252 2.25322 11.664C2.62022 12.077 3.25122 12.116 3.66522 11.747L4.00022 11.449V19C4.00022 20.654 5.34622 22 7.00022 22H9.00022C9.55222 22 10.0002 21.553 10.0002 21V16H14.0002V21C14.0002 21.553 14.4482 22 15.0002 22H17.0002C18.6542 22 20.0002 20.654 20.0002 19V11.449L20.3352 11.747C20.5262 11.917 20.7632 12 21.0002 12C21.2762 12 21.5502 11.887 21.7482 11.664C22.1142 11.252 22.0772 10.619 21.6652 10.253V10.253Z" fill="black"/>
</svg>
