<svg width="24" height="25" viewBox="0 0 24 25" fill="none" xmlns="http://www.w3.org/2000/svg">
<path d="M21 20.7705H19V4.77051C19 3.66751 18.103 2.77051 17 2.77051H7C5.897 2.77051 5 3.66751 5 4.77051V20.7705H3C2.448 20.7705 2 21.2175 2 21.7705C2 22.3235 2.448 22.7705 3 22.7705H10V16.7705C10 16.2185 10.449 15.7705 11 15.7705H13C13.551 15.7705 14 16.2185 14 16.7705V22.7705H21C21.552 22.7705 22 22.3235 22 21.7705C22 21.2175 21.552 20.7705 21 20.7705ZM10 12.7705C9.447 12.7705 9 12.3235 9 11.7705C9 11.2175 9.447 10.7705 10 10.7705C10.553 10.7705 11 11.2175 11 11.7705C11 12.3235 10.553 12.7705 10 12.7705ZM10 8.77051C9.447 8.77051 9 8.32351 9 7.77051C9 7.21751 9.447 6.77051 10 6.77051C10.553 6.77051 11 7.21751 11 7.77051C11 8.32351 10.553 8.77051 10 8.77051ZM14 12.7705C13.447 12.7705 13 12.3235 13 11.7705C13 11.2175 13.447 10.7705 14 10.7705C14.553 10.7705 15 11.2175 15 11.7705C15 12.3235 14.553 12.7705 14 12.7705ZM14 8.77051C13.447 8.77051 13 8.32351 13 7.77051C13 7.21751 13.447 6.77051 14 6.77051C14.553 6.77051 15 7.21751 15 7.77051C15 8.32351 14.553 8.77051 14 8.77051Z" fill="black"/>
</svg>
