<svg width="24" height="25" viewBox="0 0 24 25" fill="none" xmlns="http://www.w3.org/2000/svg">
<path d="M2 12.1778C2 17.7735 6.486 22.3259 12 22.3259C17.514 22.3259 22 17.7735 22 12.1778C22 6.58209 17.514 2.02963 12 2.02963C6.486 2.02963 2 6.58209 2 12.1778ZM11.707 8.41586L14.707 11.4603C14.902 11.6582 15 11.918 15 12.1778C15 12.4376 14.902 12.6974 14.707 12.8953L11.707 15.9397C11.316 16.3365 10.684 16.3365 10.293 15.9397C9.902 15.5429 9.902 14.9015 10.293 14.5047L12.586 12.1778L10.293 9.85081C9.902 9.45401 9.902 8.81265 10.293 8.41586C10.684 8.01906 11.316 8.01906 11.707 8.41586V8.41586Z" fill="black"/>
</svg>
