<svg width="28" height="28" viewBox="0 0 28 28" fill="none" xmlns="http://www.w3.org/2000/svg">
<path d="M13.9998 12.8955C15.2284 12.8955 16.2243 11.8996 16.2243 10.6711C16.2243 9.44257 15.2284 8.44666 13.9998 8.44666C12.7713 8.44666 11.7754 9.44257 11.7754 10.6711C11.7754 11.8996 12.7713 12.8955 13.9998 12.8955Z" fill="#0F1412"/>
<path fill-rule="evenodd" clip-rule="evenodd" d="M21.6771 4.75221C20.4898 4.75278 19.3213 4.45597 18.2782 3.88888L14.0004 1.55554L9.72265 3.88888C8.67956 4.45597 7.51104 4.75278 6.32376 4.75221H3.1582V14.6222C3.15885 16.6637 3.74551 18.6621 4.8485 20.38C5.95148 22.0979 7.52441 23.4631 9.38043 24.3133L14.0004 26.4444L18.6282 24.3211C20.4842 23.4709 22.0572 22.1057 23.1601 20.3878C24.2631 18.6699 24.8498 16.6715 24.8504 14.63V4.75221H21.6771ZM14.0004 6.66554C14.7911 6.66554 15.564 6.90001 16.2215 7.33929C16.8789 7.77857 17.3913 8.40294 17.6939 9.13344C17.9965 9.86394 18.0756 10.6678 17.9214 11.4433C17.7671 12.2187 17.3864 12.9311 16.8273 13.4902C16.2682 14.0493 15.5558 14.43 14.7804 14.5843C14.0049 14.7385 13.201 14.6594 12.4705 14.3568C11.74 14.0542 11.1157 13.5418 10.6764 12.8844C10.2371 12.2269 10.0026 11.454 10.0026 10.6633C10.0047 9.60368 10.4266 8.58802 11.1758 7.83874C11.9251 7.08945 12.9408 6.6676 14.0004 6.66554V6.66554ZM17.5549 19.5533C17.5549 19.0809 17.3672 18.6279 17.0332 18.2939C16.6992 17.9599 16.2461 17.7722 15.7738 17.7722H12.2193C11.9864 17.7722 11.7558 17.8181 11.5407 17.9072C11.3255 17.9963 11.13 18.1269 10.9654 18.2916C10.8007 18.4563 10.6701 18.6518 10.581 18.8669C10.4919 19.0821 10.446 19.3127 10.446 19.5456H8.66487C8.66487 18.6029 9.03936 17.6988 9.70594 17.0322C10.3725 16.3656 11.2766 15.9911 12.2193 15.9911H15.7738C16.7158 15.9932 17.6187 16.3683 18.2849 17.0344C18.951 17.7006 19.3262 18.6035 19.3282 19.5456L17.5549 19.5533Z" fill="#0F1412"/>
</svg>
