<svg width="42" height="43" viewBox="0 0 42 43" fill="none" xmlns="http://www.w3.org/2000/svg">
<path d="M21 16.5779H24.3333C24.7754 16.5779 25.1993 16.4023 25.5118 16.0897C25.8244 15.7772 26 15.3532 26 14.9112C26 14.4692 25.8244 14.0453 25.5118 13.7327C25.1993 13.4201 24.7754 13.2445 24.3333 13.2445H22.6667C22.6667 12.8025 22.4911 12.3786 22.1785 12.066C21.8659 11.7535 21.442 11.5779 21 11.5779C20.558 11.5779 20.134 11.7535 19.8215 12.066C19.5089 12.3786 19.3333 12.8025 19.3333 13.2445V13.5517C18.2218 13.9426 17.2845 14.7145 16.6876 15.7304C16.0907 16.7464 15.8728 17.9408 16.0725 19.1021C16.2722 20.2634 16.8766 21.3165 17.7785 22.0747C18.6804 22.8329 19.8217 23.2474 21 23.2445C21.442 23.2445 21.8659 23.4201 22.1785 23.7327C22.4911 24.0453 22.6667 24.4692 22.6667 24.9112C22.6667 25.3532 22.4911 25.7772 22.1785 26.0897C21.8659 26.4023 21.442 26.5779 21 26.5779H17.6667C17.2246 26.5779 16.8007 26.7535 16.4882 27.066C16.1756 27.3786 16 27.8025 16 28.2445C16 28.6866 16.1756 29.1105 16.4882 29.4231C16.8007 29.7356 17.2246 29.9112 17.6667 29.9112H19.3333C19.3333 30.3532 19.5089 30.7772 19.8215 31.0897C20.134 31.4023 20.558 31.5779 21 31.5779C21.442 31.5779 21.8659 31.4023 22.1785 31.0897C22.4911 30.7772 22.6667 30.3532 22.6667 29.9112V29.604C23.7782 29.2131 24.7155 28.4413 25.3124 27.4253C25.9093 26.4094 26.1272 25.2149 25.9275 24.0536C25.7278 22.8924 25.1234 21.8393 24.2215 21.0811C23.3196 20.3228 22.1783 19.9084 21 19.9112C20.558 19.9112 20.134 19.7356 19.8215 19.4231C19.5089 19.1105 19.3333 18.6866 19.3333 18.2445C19.3333 17.8025 19.5089 17.3786 19.8215 17.066C20.134 16.7535 20.558 16.5779 21 16.5779Z" fill="#2C3635"/>
<path d="M21 6.57788C18.0333 6.57788 15.1332 7.45762 12.6665 9.10584C10.1997 10.7541 8.27713 13.0967 7.14181 15.8376C6.0065 18.5785 5.70945 21.5945 6.28823 24.5042C6.86701 27.4139 8.29562 30.0867 10.3934 32.1845C12.4912 34.2823 15.1639 35.7109 18.0736 36.2897C20.9834 36.8684 23.9994 36.5714 26.7403 35.4361C29.4811 34.3008 31.8238 32.3782 33.472 29.9114C35.1203 27.4447 36 24.5446 36 21.5779C35.9956 17.601 34.4138 13.7882 31.6017 10.9762C28.7896 8.16406 24.9769 6.58229 21 6.57788ZM21 33.2445C18.6926 33.2445 16.4369 32.5603 14.5184 31.2784C12.5998 29.9964 11.1044 28.1743 10.2214 26.0425C9.33839 23.9107 9.10735 21.5649 9.55751 19.3018C10.0077 17.0387 11.1188 14.9599 12.7504 13.3283C14.382 11.6967 16.4608 10.5855 18.724 10.1354C20.9871 9.68522 23.3328 9.91626 25.4646 10.7993C27.5964 11.6823 29.4185 13.1777 30.7005 15.0962C31.9824 17.0148 32.6667 19.2704 32.6667 21.5779C32.6632 24.671 31.433 27.6365 29.2458 29.8237C27.0586 32.0108 24.0931 33.2411 21 33.2445Z" fill="#5DB5A5"/>
<path d="M21 1.57788C17.0444 1.57788 13.1776 2.75086 9.8886 4.94849C6.59962 7.14612 4.03617 10.2697 2.52242 13.9242C1.00867 17.5787 0.612599 21.6001 1.3843 25.4797C2.15601 29.3593 4.06082 32.923 6.85787 35.72C9.65492 38.5171 13.2186 40.4219 17.0982 41.1936C20.9778 41.9653 24.9992 41.5692 28.6537 40.0555C32.3082 38.5417 35.4318 35.9783 37.6294 32.6893C39.827 29.4003 41 25.5335 41 21.5779C40.994 16.2754 38.8849 11.1918 35.1355 7.44242C31.386 3.693 26.3025 1.58392 21 1.57788V1.57788ZM21 38.2445C17.7036 38.2445 14.4813 37.2671 11.7405 35.4357C8.99968 33.6043 6.86348 31.0014 5.60202 27.9559C4.34056 24.9105 4.0105 21.5594 4.65359 18.3264C5.29667 15.0934 6.88402 12.1236 9.21489 9.79277C11.5458 7.46189 14.5155 5.87455 17.7485 5.23146C20.9815 4.58837 24.3326 4.91843 27.3781 6.17989C30.4235 7.44135 33.0265 9.57756 34.8578 12.3184C36.6892 15.0592 37.6667 18.2815 37.6667 21.5779C37.6618 25.9966 35.9043 30.233 32.7797 33.3576C29.6552 36.4821 25.4188 38.2396 21 38.2445Z" fill="#5DB5A5"/>
</svg>
