<svg width="24" height="25" viewBox="0 0 24 25" fill="none" xmlns="http://www.w3.org/2000/svg">
<g clip-path="url(#clip0_2137_5637)">
<path d="M18 0.155762H12C10.6744 0.157323 9.40353 0.684609 8.46619 1.62195C7.52885 2.5593 7.00156 3.83016 7 5.15576V11.1558H6C4.6744 11.1573 3.40353 11.6846 2.46619 12.622C1.52885 13.5593 1.00156 14.8302 1 16.1558V19.1558C1.00156 20.4814 1.52885 21.7522 2.46619 22.6896C3.40353 23.6269 4.6744 24.1542 6 24.1558H18C19.3256 24.1542 20.5965 23.6269 21.5338 22.6896C22.4712 21.7522 22.9984 20.4814 23 19.1558V5.15576C22.9984 3.83016 22.4712 2.5593 21.5338 1.62195C20.5965 0.684609 19.3256 0.157323 18 0.155762V0.155762ZM7 21.1558C6.99976 21.4209 6.89433 21.6751 6.70684 21.8626C6.51936 22.0501 6.26514 22.1555 6 22.1558C5.20462 22.1549 4.44206 21.8385 3.87964 21.2761C3.31722 20.7137 3.00087 19.9511 3 19.1558V16.1558C3.00087 15.3604 3.31722 14.5978 3.87964 14.0354C4.44206 13.473 5.20462 13.1566 6 13.1558H7V21.1558ZM21 19.1558C20.9991 19.9511 20.6828 20.7137 20.1204 21.2761C19.5579 21.8385 18.7954 22.1549 18 22.1558H8.8291C8.94242 21.8345 9.00022 21.4964 9 21.1558V5.15576C9.00087 4.36038 9.31722 3.59783 9.87964 3.03541C10.4421 2.47299 11.2046 2.15664 12 2.15576H18C18.7954 2.15664 19.5579 2.47299 20.1204 3.03541C20.6828 3.59783 20.9991 4.36038 21 5.15576V19.1558Z" fill="white"/>
<path d="M17.5 4.15576H12.5C11.837 4.15576 11.2011 4.41915 10.7322 4.88799C10.2634 5.35684 10 5.99272 10 6.65576C10 7.3188 10.2634 7.95469 10.7322 8.42353C11.2011 8.89237 11.837 9.15576 12.5 9.15576H17.5C18.163 9.15576 18.7989 8.89237 19.2678 8.42353C19.7366 7.95469 20 7.3188 20 6.65576C20 5.99272 19.7366 5.35684 19.2678 4.88799C18.7989 4.41915 18.163 4.15576 17.5 4.15576ZM17.5 7.15576H12.5C12.3674 7.15576 12.2402 7.10308 12.1464 7.00932C12.0527 6.91555 12 6.78837 12 6.65576C12 6.52315 12.0527 6.39598 12.1464 6.30221C12.2402 6.20844 12.3674 6.15576 12.5 6.15576H17.5C17.6326 6.15576 17.7598 6.20844 17.8536 6.30221C17.9473 6.39598 18 6.52315 18 6.65576C18 6.78837 17.9473 6.91555 17.8536 7.00932C17.7598 7.10308 17.6326 7.15576 17.5 7.15576Z" fill="white"/>
<path d="M19 11.1558H11C10.7348 11.1558 10.4804 11.2611 10.2929 11.4487C10.1054 11.6362 10 11.8905 10 12.1558C10 12.421 10.1054 12.6753 10.2929 12.8629C10.4804 13.0504 10.7348 13.1558 11 13.1558H19C19.2652 13.1558 19.5196 13.0504 19.7071 12.8629C19.8946 12.6753 20 12.421 20 12.1558C20 11.8905 19.8946 11.6362 19.7071 11.4487C19.5196 11.2611 19.2652 11.1558 19 11.1558ZM19 15.1558H11C10.7348 15.1558 10.4804 15.2611 10.2929 15.4487C10.1054 15.6362 10 15.8905 10 16.1558C10 16.421 10.1054 16.6753 10.2929 16.8629C10.4804 17.0504 10.7348 17.1558 11 17.1558H19C19.2652 17.1558 19.5196 17.0504 19.7071 16.8629C19.8946 16.6753 20 16.421 20 16.1558C20 15.8905 19.8946 15.6362 19.7071 15.4487C19.5196 15.2611 19.2652 15.1558 19 15.1558Z" fill="white"/>
</g>
<defs>
<clipPath id="clip0_2137_5637">
<rect width="24" height="24" fill="white" transform="translate(0 0.155762)"/>
</clipPath>
</defs>
</svg>
