<svg width="42" height="43" viewBox="0 0 42 43" fill="none" xmlns="http://www.w3.org/2000/svg">
<path d="M31.1693 40.774C30.5921 40.7733 30.0236 40.632 29.5133 40.3622L21.0004 35.8869L12.4876 40.3629C11.9011 40.6715 11.2399 40.8098 10.5788 40.7622C9.91777 40.7145 9.28324 40.4829 8.74702 40.0933C8.2108 39.7038 7.79429 39.172 7.5446 38.558C7.29492 37.9441 7.22203 37.2725 7.33419 36.6193L8.9599 27.1397L2.0728 20.4261C1.5982 19.9636 1.26247 19.3775 1.10359 18.7342C0.9447 18.0909 0.968994 17.4159 1.17372 16.7856C1.37845 16.1554 1.75544 15.595 2.26206 15.1678C2.76868 14.7407 3.38471 14.4638 4.04049 14.3685L13.5592 12.9848L17.8152 4.361C18.1087 3.76693 18.5624 3.26676 19.1251 2.91701C19.6879 2.56726 20.3372 2.38186 20.9998 2.38177C21.6624 2.38167 22.3118 2.56689 22.8746 2.91649C23.4375 3.26608 23.8914 3.76612 24.1849 4.36011V4.361L28.441 12.9857L37.9597 14.3685C38.6153 14.4638 39.2313 14.7406 39.7378 15.1677C40.2444 15.5948 40.6213 16.155 40.8261 16.7851C41.0309 17.4152 41.0553 18.0901 40.8966 18.7333C40.7379 19.3766 40.4024 19.9626 39.9281 20.4252L33.0399 27.139L34.6663 36.6186C34.7529 37.1282 34.7273 37.6505 34.5916 38.1492C34.4558 38.648 34.213 39.1111 33.8801 39.5065C33.5473 39.902 33.1322 40.2201 32.6639 40.4389C32.1957 40.6577 31.6853 40.7719 31.1685 40.7735L31.1693 40.774ZM21.0004 32.3357C21.5762 32.3354 22.1434 32.4753 22.653 32.7432L31.1658 37.2186L29.541 27.7386C29.4437 27.1712 29.4859 26.5887 29.6638 26.0412C29.8417 25.4937 30.1501 24.9977 30.5623 24.5958L37.4505 17.8818L27.9302 16.4992C27.361 16.4162 26.8205 16.1963 26.3551 15.8583C25.8897 15.5204 25.5132 15.0745 25.2581 14.559L20.9944 5.92138L16.7444 14.5565C16.4893 15.0726 16.1127 15.519 15.647 15.8574C15.1812 16.1957 14.6403 16.416 14.0707 16.4992L4.55203 17.8829L11.4384 24.5958C11.851 24.9978 12.1596 25.4941 12.3375 26.0419C12.5155 26.5898 12.5574 27.1727 12.4597 27.7404L10.8351 37.2191L19.3479 32.7438C19.8575 32.4756 20.4246 32.3356 21.0004 32.3357Z" fill="#5DB5A5"/>
<path d="M25.1749 29.7772C24.8871 29.7771 24.6035 29.7072 24.3486 29.5734L21.0004 27.8126L17.6522 29.5734C17.3589 29.7277 17.0283 29.7968 16.6978 29.773C16.3672 29.7492 16.05 29.6334 15.7819 29.4386C15.5138 29.2438 15.3055 28.9779 15.1807 28.6709C15.0558 28.364 15.0194 28.0282 15.0755 27.7016L15.7147 23.9729L13.006 21.3319C12.7689 21.1006 12.6011 20.8075 12.5218 20.4859C12.4425 20.1642 12.4548 19.8268 12.5572 19.5117C12.6597 19.1967 12.8482 18.9166 13.1016 18.7031C13.3549 18.4896 13.6629 18.3512 13.9908 18.3036L17.7333 17.7598L19.4077 14.3684C19.5712 14.0915 19.8041 13.862 20.0834 13.7025C20.3627 13.5431 20.6788 13.4592 21.0004 13.4592C21.322 13.4592 21.638 13.5431 21.9173 13.7025C22.1966 13.862 22.4296 14.0915 22.5931 14.3684L24.2674 17.7598L28.0104 18.3035C28.3382 18.351 28.6462 18.4894 28.8995 18.7029C29.1529 18.9164 29.3414 19.1965 29.4439 19.5115C29.5463 19.8266 29.5586 20.164 29.4793 20.4857C29.4 20.8073 29.2323 21.1004 28.9951 21.3317L26.2859 23.9725L26.9251 27.7012C26.9688 27.9561 26.9563 28.2175 26.8885 28.467C26.8207 28.7165 26.6992 28.9483 26.5325 29.1459C26.3657 29.3436 26.1579 29.5025 25.9234 29.6115C25.6888 29.7205 25.4334 29.7769 25.1748 29.7769L25.1749 29.7772ZM21.0004 24.0308C21.2882 24.0306 21.5718 24.1005 21.8266 24.2346L22.8166 24.7555L22.6277 23.6527C22.5794 23.3691 22.6006 23.078 22.6895 22.8044C22.7785 22.5308 22.9325 22.2829 23.1384 22.0819L23.9395 21.3006L22.8331 21.1408C22.5481 21.0993 22.2774 20.9892 22.0444 20.8199C21.8113 20.6506 21.6229 20.4272 21.4954 20.1689L21.0004 19.1644L20.5053 20.1683C20.3778 20.4266 20.1894 20.65 19.9564 20.8193C19.7234 20.9887 19.4527 21.0988 19.1676 21.1403L18.0613 21.3001L18.8624 22.0814C19.0683 22.2823 19.2223 22.5302 19.3113 22.8039C19.4002 23.0775 19.4214 23.3686 19.3731 23.6522L19.1841 24.755L20.1742 24.2341C20.429 24.1002 20.7126 24.0304 21.0004 24.0308Z" fill="#2C3635"/>
</svg>
