<svg width="42" height="43" viewBox="0 0 42 43" fill="none" xmlns="http://www.w3.org/2000/svg">
<path d="M36 21.1007C37.4274 20.7333 38.6926 19.9027 39.5974 18.7391C40.5022 17.5756 40.9955 16.1447 41 14.6708V14.0986C41.003 13.0039 40.7888 11.9195 40.3699 10.9082C39.9509 9.89684 39.3355 8.97865 38.5593 8.20677L37.464 7.11144C36.6921 6.33522 35.7739 5.71982 34.7626 5.30088C33.7512 4.88194 32.6668 4.66777 31.5721 4.67078H10.4278C9.33318 4.66777 8.24878 4.88194 7.23744 5.30088C6.2261 5.71982 5.30791 6.33522 4.53603 7.11144L3.44069 8.20677C2.66447 8.97865 2.04908 9.89684 1.63013 10.9082C1.21119 11.9195 0.997024 13.0039 1.00003 14.0986V14.6708C1.0045 16.1447 1.49778 17.5756 2.40258 18.7391C3.30738 19.9027 4.5726 20.7333 6.00002 21.1007V29.6707C6.00638 31.4797 6.60696 33.2365 7.70935 34.6707H2.6667C2.22467 34.6707 1.80075 34.8463 1.48819 35.1589C1.17563 35.4714 1.00003 35.8954 1.00003 36.3374C1.00003 36.7794 1.17563 37.2033 1.48819 37.5159C1.80075 37.8285 2.22467 38.0041 2.6667 38.0041H39.3333C39.7753 38.0041 40.1993 37.8285 40.5118 37.5159C40.8244 37.2033 41 36.7794 41 36.3374C41 35.8954 40.8244 35.4714 40.5118 35.1589C40.1993 34.8463 39.7753 34.6707 39.3333 34.6707H34.2906C35.393 33.2365 35.9936 31.4797 36 29.6707V21.1007ZM24.3333 34.6707H17.6667V31.3374C17.6672 30.8955 17.843 30.472 18.1555 30.1595C18.4679 29.8471 18.8915 29.6713 19.3333 29.6707H22.6667C23.1085 29.6713 23.5321 29.8471 23.8445 30.1595C24.157 30.472 24.3328 30.8955 24.3333 31.3374V34.6707ZM32.6666 29.6707C32.6652 30.9964 32.1379 32.2673 31.2006 33.2047C30.2632 34.142 28.9923 34.6693 27.6667 34.6707V31.3374C27.6652 30.0118 27.1379 28.7408 26.2006 27.8035C25.2632 26.8661 23.9923 26.3389 22.6667 26.3374H19.3333C18.0077 26.3389 16.7368 26.8661 15.7994 27.8035C14.8621 28.7408 14.3348 30.0118 14.3333 31.3374V34.6707C13.0077 34.6693 11.7368 34.142 10.7994 33.2047C9.86206 32.2673 9.33481 30.9964 9.33335 29.6707V21.1058C10.2066 20.8879 11.0261 20.4937 11.7413 19.9474C12.0104 19.7519 12.3345 19.6466 12.6671 19.6466C12.9997 19.6466 13.3238 19.7519 13.5928 19.9474C14.7575 20.8526 16.1916 21.3419 17.6667 21.3374H24.3333C25.8087 21.3421 27.2431 20.8528 28.408 19.9474C28.677 19.7519 29.0011 19.6466 29.3337 19.6466C29.6664 19.6466 29.9904 19.7519 30.2595 19.9474C30.9744 20.4938 31.7936 20.888 32.6666 21.1059V29.6707ZM32.298 17.3108C31.4448 16.6647 30.4039 16.315 29.3337 16.315C28.2635 16.315 27.2226 16.6647 26.3695 17.3108C25.7873 17.7628 25.0704 18.0069 24.3333 18.0041H17.6667C16.9299 18.0067 16.2134 17.7626 15.6313 17.3108C14.7781 16.6648 13.7372 16.3153 12.6671 16.3153C11.5969 16.3153 10.5561 16.6648 9.70285 17.3108C9.12061 17.7628 8.40379 18.0069 7.66669 18.0041C6.7829 18.0032 5.93557 17.6517 5.31064 17.0268C4.68571 16.4019 4.33424 15.5545 4.33336 14.6708V14.0986C4.33734 12.7735 4.86334 11.5034 5.79736 10.5634L6.89269 9.4681C7.83262 8.53409 9.10276 8.00809 10.4278 8.00411H31.5721C32.8972 8.00809 34.1674 8.53409 35.1073 9.4681L36.2026 10.5634C37.1367 11.5034 37.6627 12.7735 37.6666 14.0986V14.6708C37.6658 15.5545 37.3143 16.4019 36.6894 17.0268C36.0644 17.6517 35.2171 18.0032 34.3333 18.0041C33.5965 18.0067 32.88 17.7626 32.298 17.3108Z" fill="#5DB5A5"/>
<path d="M12.6667 8.8374C12.2246 8.8374 11.8007 9.013 11.4882 9.32556C11.1756 9.63812 11 10.062 11 10.5041V13.8374C11 14.2794 11.1756 14.7033 11.4882 15.0159C11.8007 15.3285 12.2246 15.5041 12.6667 15.5041C13.1087 15.5041 13.5326 15.3285 13.8452 15.0159C14.1577 14.7033 14.3333 14.2794 14.3333 13.8374V10.5041C14.3333 10.062 14.1577 9.63812 13.8452 9.32556C13.5326 9.013 13.1087 8.8374 12.6667 8.8374ZM29.3333 8.8374C28.8913 8.8374 28.4674 9.013 28.1548 9.32556C27.8422 9.63812 27.6666 10.062 27.6666 10.5041V13.8374C27.6666 14.2794 27.8422 14.7033 28.1548 15.0159C28.4674 15.3285 28.8913 15.5041 29.3333 15.5041C29.7753 15.5041 30.1993 15.3285 30.5118 15.0159C30.8244 14.7033 31 14.2794 31 13.8374V10.5041C31 10.062 30.8244 9.63812 30.5118 9.32556C30.1993 9.013 29.7753 8.8374 29.3333 8.8374ZM21 9.67073C20.558 9.67073 20.134 9.84633 19.8215 10.1589C19.5089 10.4714 19.3333 10.8954 19.3333 11.3374V14.6707C19.3333 15.1128 19.5089 15.5367 19.8215 15.8492C20.134 16.1618 20.558 16.3374 21 16.3374C21.442 16.3374 21.8659 16.1618 22.1785 15.8492C22.4911 15.5367 22.6666 15.1128 22.6666 14.6707V11.3374C22.6666 10.8954 22.4911 10.4714 22.1785 10.1589C21.8659 9.84633 21.442 9.67073 21 9.67073Z" fill="#2C3635"/>
</svg>
