<svg width="42" height="43" viewBox="0 0 42 43" fill="none" xmlns="http://www.w3.org/2000/svg">
<path d="M33.8062 21.5779L37.6621 17.7219C38.4033 16.9808 38.9913 16.1008 39.3924 15.1324C39.7935 14.164 40 13.1261 40 12.0779C40 11.0297 39.7935 9.99177 39.3924 9.02336C38.9913 8.05496 38.4033 7.17505 37.6621 6.43387L36.144 4.91577C35.4028 4.17457 34.5229 3.58662 33.5545 3.18548C32.5861 2.78434 31.5482 2.57788 30.5 2.57788C29.4518 2.57788 28.4139 2.78434 27.4454 3.18548C26.477 3.58662 25.5971 4.17457 24.856 4.91577L21 8.77173L17.144 4.91577C16.4029 4.17457 15.523 3.58662 14.5546 3.18548C13.5861 2.78434 12.5482 2.57788 11.5 2.57788C10.4518 2.57788 9.41388 2.78434 8.44548 3.18548C7.47707 3.58662 6.59716 4.17457 5.85599 4.91577L4.33789 6.43387C3.59669 7.17505 3.00874 8.05496 2.6076 9.02336C2.20646 9.99177 2 11.0297 2 12.0779C2 13.1261 2.20646 14.164 2.6076 15.1324C3.00874 16.1008 3.59669 16.9808 4.33789 17.7219L8.19385 21.5779L4.33789 25.4338C3.59669 26.175 3.00874 27.0549 2.6076 28.0233C2.20646 28.9917 2 30.0297 2 31.0779C2 32.1261 2.20646 33.164 2.6076 34.1324C3.00874 35.1008 3.59669 35.9807 4.33789 36.7219L5.85599 38.24C6.59716 38.9812 7.47707 39.5691 8.44548 39.9703C9.41388 40.3714 10.4518 40.5779 11.5 40.5779C12.5482 40.5779 13.5861 40.3714 14.5546 39.9703C15.523 39.5691 16.4029 38.9812 17.144 38.24L21 34.384L24.856 38.24C25.5971 38.9812 26.477 39.5691 27.4454 39.9703C28.4139 40.3714 29.4518 40.5779 30.5 40.5779C31.5482 40.5779 32.5861 40.3714 33.5545 39.9703C34.5229 39.5691 35.4028 38.9812 36.144 38.24L37.6621 36.7219C38.4033 35.9807 38.9913 35.1008 39.3924 34.1324C39.7935 33.164 40 32.1261 40 31.0779C40 30.0297 39.7935 28.9917 39.3924 28.0233C38.9913 27.0549 38.4033 26.175 37.6621 25.4338L33.8062 21.5779ZM27.2985 7.35831C28.161 6.53487 29.3075 6.07542 30.5 6.07542C31.6924 6.07542 32.839 6.53487 33.7015 7.35831L35.2196 8.8764C36.0685 9.72557 36.5454 10.8772 36.5454 12.0779C36.5454 13.2786 36.0685 14.4302 35.2196 15.2794L31.3636 19.1353L23.4425 11.2143L27.2985 7.35831ZM14.7015 35.7975C13.839 36.6209 12.6925 37.0803 11.5 37.0803C10.3076 37.0803 9.161 36.6209 8.29852 35.7975L6.78043 34.2794C5.93149 33.4302 5.45458 32.2786 5.45458 31.0779C5.45458 29.8771 5.93149 28.7255 6.78043 27.8764L10.6364 24.0204L18.5575 31.9415L14.7015 35.7975ZM35.2196 34.2794L33.7015 35.7975C32.839 36.6209 31.6924 37.0803 30.5 37.0803C29.3075 37.0803 28.161 36.6209 27.2985 35.7975L6.78043 15.2794C5.93149 14.4302 5.45458 13.2786 5.45458 12.0779C5.45458 10.8772 5.93149 9.72557 6.78043 8.8764L8.29852 7.35831C9.14769 6.50937 10.2993 6.03246 11.5 6.03246C12.7008 6.03246 13.8523 6.50937 14.7015 7.35831L35.2196 27.8764C36.0685 28.7255 36.5454 29.8771 36.5454 31.0779C36.5454 32.2786 36.0685 33.4302 35.2196 34.2794Z" fill="#5DB5A5"/>
<path d="M23.2333 26.2539L16.3242 19.3448C16.0026 19.0205 15.8226 18.5819 15.8235 18.1251C15.8244 17.6683 16.0063 17.2305 16.3292 16.9074C16.6522 16.5844 17.0899 16.4024 17.5467 16.4014C18.0035 16.4003 18.4421 16.5802 18.7666 16.9018L25.6757 23.8108C25.9972 24.1353 26.1772 24.5738 26.1762 25.0306C26.1752 25.4874 25.9933 25.9252 25.6703 26.2482C25.3473 26.5712 24.9095 26.7531 24.4527 26.7541C23.996 26.7551 23.5574 26.5751 23.233 26.2535L23.2333 26.2539Z" fill="#2C3635"/>
</svg>
