<svg width="40" height="31" viewBox="0 0 40 31" fill="none" xmlns="http://www.w3.org/2000/svg">
<path d="M31.6667 30.5779H8.33333C6.12399 30.5753 4.00589 29.6965 2.44365 28.1342C0.881412 26.572 0.00260242 24.4539 0 22.2445L0 8.91121C0.00260242 6.70188 0.881412 4.58377 2.44365 3.02153C4.00589 1.45929 6.12399 0.580483 8.33333 0.577881H31.6667C33.876 0.580483 35.9941 1.45929 37.5563 3.02153C39.1186 4.58377 39.9974 6.70188 40 8.91121V22.2445C39.9974 24.4539 39.1186 26.572 37.5563 28.1342C35.9941 29.6965 33.876 30.5753 31.6667 30.5779ZM8.33333 3.91121C7.0077 3.91267 5.73677 4.43992 4.79941 5.37729C3.86204 6.31465 3.33479 7.58558 3.33333 8.91121V22.2445C3.33479 23.5702 3.86204 24.8411 4.79941 25.7785C5.73677 26.7158 7.0077 27.2431 8.33333 27.2445H31.6667C32.9923 27.2431 34.2632 26.7158 35.2006 25.7785C36.138 24.8411 36.6652 23.5702 36.6667 22.2445V8.91121C36.6652 7.58558 36.138 6.31465 35.2006 5.37729C34.2632 4.43992 32.9923 3.91267 31.6667 3.91121H8.33333Z" fill="#5DB5A5"/>
<path d="M11.6667 18.9112C10.3481 18.9112 9.0592 18.5202 7.96287 17.7877C6.86654 17.0551 6.01206 16.0139 5.50747 14.7958C5.00289 13.5776 4.87087 12.2372 5.1281 10.9439C5.38534 9.65074 6.02027 8.46285 6.95262 7.5305C7.88497 6.59815 9.07286 5.96322 10.3661 5.70598C11.6593 5.44875 12.9997 5.58077 14.2179 6.08535C15.4361 6.58994 16.4773 7.44442 17.2098 8.54075C17.9423 9.63708 18.3333 10.926 18.3333 12.2446C18.3314 14.0121 17.6283 15.7066 16.3785 16.9564C15.1287 18.2062 13.4342 18.9092 11.6667 18.9112ZM11.6667 8.91122C11.0074 8.91122 10.3629 9.10671 9.81477 9.47299C9.26661 9.83926 8.83936 10.3599 8.58707 10.9689C8.33478 11.578 8.26877 12.2482 8.39739 12.8949C8.526 13.5415 8.84347 14.1354 9.30965 14.6016C9.77582 15.0677 10.3698 15.3852 11.0164 15.5138C11.663 15.6425 12.3332 15.5764 12.9423 15.3242C13.5514 15.0719 14.072 14.6446 14.4382 14.0965C14.8045 13.5483 15 12.9038 15 12.2446C14.9991 11.3608 14.6476 10.5134 14.0227 9.8885C13.3978 9.26357 12.5505 8.9121 11.6667 8.91122Z" fill="#2C3635"/>
<path d="M30.0001 10.5779H23.3334C22.8914 10.5779 22.4675 10.4023 22.1549 10.0897C21.8423 9.77716 21.6667 9.35324 21.6667 8.91121C21.6667 8.46918 21.8423 8.04526 22.1549 7.7327C22.4675 7.42014 22.8914 7.24454 23.3334 7.24454H30.0001C30.4421 7.24454 30.866 7.42014 31.1786 7.7327C31.4912 8.04526 31.6667 8.46918 31.6667 8.91121C31.6667 9.35324 31.4912 9.77716 31.1786 10.0897C30.866 10.4023 30.4421 10.5779 30.0001 10.5779ZM33.3334 17.2445H23.3334C22.8914 17.2445 22.4675 17.0689 22.1549 16.7564C21.8423 16.4438 21.6667 16.0199 21.6667 15.5779C21.6667 15.1359 21.8423 14.7119 22.1549 14.3994C22.4675 14.0868 22.8914 13.9112 23.3334 13.9112H33.3334C33.7754 13.9112 34.1994 14.0868 34.5119 14.3994C34.8245 14.7119 35.0001 15.1359 35.0001 15.5779C35.0001 16.0199 34.8245 16.4438 34.5119 16.7564C34.1994 17.0689 33.7754 17.2445 33.3334 17.2445Z" fill="#5DB5A5"/>
<path d="M16.6667 25.5779C16.2246 25.5779 15.8007 25.4023 15.4882 25.0897C15.1756 24.7772 15 24.3532 15 23.9112V23.9087L6.66667 23.9112C6.22464 23.9112 5.80072 23.7356 5.48816 23.4231C5.17559 23.1105 5 22.6866 5 22.2445C5 21.8025 5.17559 21.3786 5.48816 21.066C5.80072 20.7535 6.22464 20.5779 6.66667 20.5779H15C15.8838 20.5788 16.7311 20.9302 17.356 21.5552C17.981 22.1801 18.3325 23.0274 18.3333 23.9112C18.3333 24.3532 18.1577 24.7772 17.8452 25.0897C17.5326 25.4023 17.1087 25.5779 16.6667 25.5779Z" fill="#2C3635"/>
</svg>
