<svg width="494" height="748" viewBox="0 0 494 748" fill="none" xmlns="http://www.w3.org/2000/svg">
<g filter="url(#filter0_d_2370_5639)">
<rect width="80.7981" height="80.2768" rx="11" transform="matrix(0.866044 -0.499967 0.866044 0.499967 335 266.781)" fill="#2C3635"/>
</g>
<g filter="url(#filter1_d_2370_5639)">
<rect width="80.7981" height="80.2768" rx="11" transform="matrix(0.866044 -0.499967 0.866044 0.499967 335 260.396)" fill="#5DB5A5" shape-rendering="crispEdges"/>
<path d="M407.788 265.414C406.361 266.238 405.065 266.65 403.901 266.65C402.751 266.658 401.594 266.334 400.43 265.678C398.463 266.574 396.481 266.974 394.486 266.878C392.477 266.774 390.405 266.106 388.271 264.874C386.608 263.914 385.534 262.99 385.049 262.102C384.551 261.206 384.578 260.334 385.133 259.486C385.687 258.622 386.698 257.766 388.167 256.918C389.636 256.07 391.112 255.49 392.594 255.178C394.077 254.85 395.594 254.83 397.146 255.118C398.684 255.398 400.285 256.018 401.948 256.978C404.04 258.186 405.183 259.366 405.377 260.518C405.557 261.662 404.92 262.79 403.465 263.902C403.895 264.15 404.262 264.266 404.567 264.25C404.885 264.226 405.211 264.118 405.543 263.926C405.751 263.806 405.945 263.67 406.125 263.518C406.319 263.358 406.493 263.202 406.645 263.05L409.056 264.442C408.904 264.594 408.71 264.762 408.474 264.946C408.252 265.122 408.024 265.278 407.788 265.414ZM398.643 262.966C399.641 262.39 400.084 261.814 399.973 261.238C399.862 260.646 399.19 259.994 397.957 259.282C396.641 258.522 395.483 258.118 394.486 258.07C393.488 258.006 392.49 258.262 391.493 258.838C390.495 259.414 390.045 259.994 390.142 260.578C390.239 261.146 390.945 261.81 392.262 262.57C393.495 263.282 394.617 263.674 395.629 263.746C396.641 263.802 397.645 263.542 398.643 262.966ZM413.901 257.757L412.113 256.725C411.767 256.077 411.58 255.425 411.552 254.769C411.524 254.113 411.545 253.413 411.614 252.67C411.67 252.046 411.705 251.538 411.718 251.146C411.746 250.746 411.698 250.414 411.573 250.15C411.448 249.87 411.192 249.618 410.804 249.394C409.82 248.826 408.684 248.914 407.395 249.658C406.799 250.002 406.287 250.378 405.857 250.786C405.441 251.186 405.088 251.59 404.797 251.998L401.471 250.078C401.818 249.622 402.31 249.138 402.947 248.626C403.571 248.106 404.27 247.622 405.046 247.174C406.709 246.214 408.344 245.726 409.952 245.71C411.545 245.686 413 246.054 414.317 246.814C414.94 247.174 415.404 247.53 415.709 247.882C416.014 248.218 416.201 248.582 416.27 248.974C416.34 249.366 416.347 249.826 416.291 250.354C416.236 250.818 416.187 251.278 416.146 251.734C416.104 252.19 416.139 252.594 416.25 252.946L420.718 250.366L423.711 252.094L413.901 257.757Z" fill="white"/>
</g>
<g filter="url(#filter2_d_2370_5639)">
<rect width="80.7981" height="80.2768" rx="11" transform="matrix(0.866044 -0.499967 0.866044 0.499967 335 681.781)" fill="#2C3635"/>
</g>
<g filter="url(#filter3_d_2370_5639)">
<rect width="80.7981" height="80.2768" rx="11" transform="matrix(0.866044 -0.499967 0.866044 0.499967 335 675.396)" fill="#5DB5A5" shape-rendering="crispEdges"/>
<path d="M407.514 680.572C406.087 681.396 404.791 681.808 403.627 681.808C402.477 681.816 401.32 681.492 400.156 680.836C398.189 681.732 396.207 682.132 394.212 682.036C392.203 681.932 390.131 681.264 387.997 680.032C386.334 679.072 385.26 678.148 384.775 677.26C384.277 676.364 384.304 675.492 384.859 674.644C385.413 673.78 386.424 672.924 387.893 672.076C389.362 671.229 390.838 670.649 392.32 670.337C393.803 670.009 395.32 669.989 396.872 670.277C398.41 670.557 400.011 671.177 401.674 672.136C403.766 673.344 404.909 674.524 405.103 675.676C405.283 676.82 404.646 677.948 403.191 679.06C403.62 679.308 403.988 679.424 404.293 679.408C404.611 679.384 404.937 679.276 405.269 679.084C405.477 678.964 405.671 678.828 405.851 678.676C406.045 678.516 406.219 678.36 406.371 678.208L408.782 679.6C408.63 679.752 408.436 679.92 408.2 680.104C407.978 680.28 407.75 680.436 407.514 680.572ZM398.369 678.124C399.366 677.548 399.81 676.972 399.699 676.396C399.588 675.804 398.916 675.152 397.683 674.44C396.367 673.68 395.209 673.276 394.212 673.228C393.214 673.164 392.216 673.42 391.219 673.996C390.221 674.572 389.771 675.152 389.868 675.736C389.965 676.304 390.671 676.968 391.988 677.728C393.221 678.44 394.343 678.832 395.355 678.904C396.367 678.96 397.371 678.7 398.369 678.124ZM419.301 669.64L416.786 668.188L410.696 671.703L408.14 670.228L406.435 661.612L409.823 659.656L417.534 664.108L418.74 663.412L421.899 665.236L420.694 665.932L423.209 667.384L419.301 669.64ZM411.465 667.804L414.479 666.064L410.842 663.964L411.465 667.804Z" fill="white"/>
</g>
<g filter="url(#filter4_d_2370_5639)">
<rect width="80.7981" height="80.2768" rx="11" transform="matrix(0.866044 -0.499967 0.866044 0.499967 24.0001 481.781)" fill="#2C3635"/>
</g>
<g filter="url(#filter5_d_2370_5639)">
<rect width="80.7981" height="80.2768" rx="11" transform="matrix(0.866044 -0.499967 0.866044 0.499967 24.0001 475.396)" fill="#5DB5A5" shape-rendering="crispEdges"/>
<path d="M96.6664 480.484C95.2392 481.308 93.9436 481.72 92.7796 481.72C91.6295 481.728 90.4725 481.404 89.3085 480.748C87.3409 481.644 85.3594 482.044 83.364 481.948C81.3548 481.844 79.2832 481.176 77.1493 479.944C75.4865 478.984 74.4126 478.06 73.9276 477.172C73.4287 476.276 73.4564 475.404 74.0107 474.556C74.565 473.692 75.5765 472.837 77.0453 471.989C78.5141 471.141 79.9899 470.561 81.4726 470.249C82.9552 469.921 84.4725 469.901 86.0245 470.189C87.5626 470.469 89.163 471.089 90.8258 472.049C92.9182 473.257 94.0614 474.436 94.2554 475.588C94.4355 476.732 93.7981 477.86 92.3431 478.972C92.7727 479.22 93.1399 479.336 93.4447 479.32C93.7635 479.296 94.0891 479.188 94.4216 478.996C94.6295 478.876 94.8235 478.74 95.0036 478.588C95.1976 478.428 95.3708 478.272 95.5233 478.12L97.9343 479.512C97.7819 479.664 97.5879 479.832 97.3523 480.016C97.1306 480.192 96.902 480.348 96.6664 480.484ZM87.521 478.036C88.5187 477.46 88.9621 476.884 88.8512 476.308C88.7404 475.716 88.0683 475.064 86.8351 474.352C85.5187 473.593 84.3617 473.189 83.364 473.141C82.3663 473.077 81.3686 473.333 80.3709 473.908C79.3733 474.484 78.9229 475.064 79.0199 475.648C79.1169 476.216 79.8236 476.88 81.14 477.64C82.3732 478.352 83.4956 478.744 84.5072 478.816C85.5187 478.872 86.5233 478.612 87.521 478.036ZM107.373 470.416C106.985 470.64 106.479 470.892 105.855 471.172C105.246 471.46 104.615 471.728 103.964 471.976C103.326 472.216 102.758 472.4 102.259 472.528L99.1416 470.728C100.001 470.536 100.832 470.28 101.636 469.96C102.426 469.632 103.098 469.308 103.652 468.988C104.428 468.54 104.906 468.152 105.086 467.824C105.28 467.488 105.114 467.168 104.587 466.864C103.811 466.416 102.814 466.544 101.594 467.248L99.3287 468.556L96.9592 466.9L98.8506 465.808C99.4603 465.456 99.7998 465.148 99.8691 464.884C99.9384 464.62 99.7583 464.364 99.3287 464.116C98.9269 463.884 98.4488 463.808 97.8945 463.888C97.3541 463.96 96.7029 464.216 95.9407 464.656C95.331 465.008 94.7837 465.404 94.2987 465.844C93.8137 466.284 93.4604 466.696 93.2387 467.08L90.1417 465.292C90.4466 464.876 90.9108 464.408 91.5343 463.888C92.144 463.36 92.8299 462.876 93.592 462.436C94.756 461.764 95.9061 461.292 97.0423 461.02C98.1786 460.748 99.2456 460.66 100.243 460.756C101.241 460.852 102.114 461.116 102.862 461.548C103.5 461.916 103.957 462.324 104.234 462.772C104.525 463.212 104.587 463.656 104.421 464.104C106.015 463.728 107.511 463.944 108.911 464.752C109.867 465.304 110.4 465.9 110.511 466.54C110.636 467.172 110.414 467.82 109.846 468.484C109.292 469.14 108.467 469.784 107.373 470.416Z" fill="white"/>
</g>
<g filter="url(#filter6_d_2370_5639)">
<rect width="80.7981" height="80.2768" rx="11" transform="matrix(0.866044 -0.499967 0.866044 0.499967 22.2503 60.4109)" fill="#833D2B"/>
</g>
<rect x="0.866044" width="86.9215" height="86.3543" rx="10.5" transform="matrix(0.866044 -0.499967 0.866044 0.499967 16.217 60.8554)" stroke="#B56F5D"/>
<g opacity="0.3">
<rect x="0.866044" width="96.6694" height="96.0393" rx="14.5" transform="matrix(0.866044 -0.499967 0.866044 0.499967 7.80217 63.4248)" stroke="#B56F5D"/>
</g>
<g opacity="0.1">
<rect x="0.866044" width="105.573" height="104.886" rx="17.5" transform="matrix(0.866044 -0.499967 0.866044 0.499967 0.116012 64.7162)" stroke="#B56F5D"/>
</g>
<g filter="url(#filter7_d_2370_5639)">
<rect width="80.7981" height="80.2768" rx="11" transform="matrix(0.866044 -0.499967 0.866044 0.499967 22.2503 54.0264)" fill="#B56F5D" shape-rendering="crispEdges"/>
<path d="M96.6725 58.1005C95.2453 58.9244 93.9497 59.3364 92.7857 59.3364C91.6356 59.3444 90.4786 59.0204 89.3146 58.3644C87.3469 59.2604 85.3654 59.6604 83.3701 59.5644C81.3608 59.4604 79.2893 58.7924 77.1553 57.5605C75.4925 56.6006 74.4186 55.6766 73.9336 54.7887C73.4348 53.8927 73.4625 53.0208 74.0168 52.1728C74.5711 51.3089 75.5826 50.453 77.0514 49.605C78.5202 48.7571 79.996 48.1771 81.4786 47.8651C82.9613 47.5371 84.4786 47.5171 86.0306 47.8051C87.5686 48.0851 89.1691 48.7051 90.8319 49.665C92.9243 50.8729 94.0674 52.0528 94.2614 53.2048C94.4416 54.3487 93.8042 55.4766 92.3492 56.5886C92.7788 56.8365 93.146 56.9525 93.4508 56.9365C93.7695 56.9125 94.0952 56.8045 94.4277 56.6126C94.6356 56.4926 94.8296 56.3566 95.0097 56.2046C95.2037 56.0446 95.3769 55.8886 95.5293 55.7366L97.9404 57.1285C97.788 57.2805 97.594 57.4485 97.3584 57.6325C97.1367 57.8085 96.9081 57.9645 96.6725 58.1005ZM87.5271 55.6526C88.5248 55.0767 88.9682 54.5007 88.8573 53.9247C88.7465 53.3328 88.0744 52.6808 86.8412 51.9689C85.5248 51.2089 84.3677 50.8049 83.3701 50.7569C82.3724 50.6929 81.3747 50.9489 80.377 51.5249C79.3793 52.1008 78.929 52.6808 79.026 53.2648C79.123 53.8327 79.8297 54.4967 81.1461 55.2566C82.3793 55.9686 83.5017 56.3606 84.5132 56.4326C85.5248 56.4886 86.5294 56.2286 87.5271 55.6526ZM105.009 49.16L95.2401 43.5204L93.3487 44.9963L90.0854 43.1124L95.3233 39.0567L108.917 46.9042L105.009 49.16Z" fill="white"/>
</g>
<g opacity="0.3" filter="url(#filter8_d_2370_5639)">
<path d="M159.165 100.75C157.969 100.06 156.031 100.06 154.835 100.75C153.639 101.44 153.639 102.56 154.835 103.25L159.165 100.75ZM355.5 216.594V202.161H330.5V216.594H355.5ZM154.835 103.25L340.835 210.628L345.165 208.128L159.165 100.75L154.835 103.25Z" fill="url(#paint0_linear_2370_5639)"/>
</g>
<g opacity="0.3" filter="url(#filter9_d_2370_5639)">
<path d="M354.547 310.334C360.925 314.015 360.925 319.985 354.547 323.666C348.17 327.348 337.83 327.348 331.453 323.666C325.075 319.985 325.075 314.015 331.453 310.334C337.83 306.652 348.17 306.652 354.547 310.334ZM168.547 417.712C174.925 421.393 174.925 427.362 168.547 431.044C162.17 434.726 151.83 434.726 145.453 431.044C139.075 427.362 139.075 421.393 145.453 417.712C151.83 414.03 162.17 414.03 168.547 417.712ZM345.165 318.25L159.165 425.628L154.835 423.128L340.835 315.75L345.165 318.25Z" fill="url(#paint1_linear_2370_5639)"/>
</g>
<g opacity="0.3" filter="url(#filter10_d_2370_5639)">
<path d="M145.453 525.334C139.075 529.015 139.075 534.985 145.453 538.666C151.83 542.348 162.17 542.348 168.547 538.666C174.925 534.985 174.925 529.015 168.547 525.334C162.17 521.652 151.83 521.652 145.453 525.334ZM331.453 632.712C325.075 636.393 325.075 642.362 331.453 646.044C337.83 649.726 348.17 649.726 354.547 646.044C360.925 642.362 360.925 636.393 354.547 632.712C348.17 629.03 337.83 629.03 331.453 632.712ZM154.835 533.25L340.835 640.628L345.165 638.128L159.165 530.75L154.835 533.25Z" fill="url(#paint2_linear_2370_5639)"/>
</g>
<defs>
<filter id="filter0_d_2370_5639" x="310" y="205.384" width="189.498" height="130.532" filterUnits="userSpaceOnUse" color-interpolation-filters="sRGB">
<feFlood flood-opacity="0" result="BackgroundImageFix"/>
<feColorMatrix in="SourceAlpha" type="matrix" values="0 0 0 0 0 0 0 0 0 0 0 0 0 0 0 0 0 0 127 0" result="hardAlpha"/>
<feOffset dy="4"/>
<feGaussianBlur stdDeviation="12.5"/>
<feComposite in2="hardAlpha" operator="out"/>
<feColorMatrix type="matrix" values="0 0 0 0 0.364706 0 0 0 0 0.709804 0 0 0 0 0.647059 0 0 0 1 0"/>
<feBlend mode="normal" in2="BackgroundImageFix" result="effect1_dropShadow_2370_5639"/>
<feBlend mode="normal" in="SourceGraphic" in2="effect1_dropShadow_2370_5639" result="shape"/>
</filter>
<filter id="filter1_d_2370_5639" x="319" y="204" width="179.498" height="120.532" filterUnits="userSpaceOnUse" color-interpolation-filters="sRGB">
<feFlood flood-opacity="0" result="BackgroundImageFix"/>
<feColorMatrix in="SourceAlpha" type="matrix" values="0 0 0 0 0 0 0 0 0 0 0 0 0 0 0 0 0 0 127 0" result="hardAlpha"/>
<feOffset dx="4" dy="4"/>
<feGaussianBlur stdDeviation="10"/>
<feComposite in2="hardAlpha" operator="out"/>
<feColorMatrix type="matrix" values="0 0 0 0 0 0 0 0 0 0 0 0 0 0 0 0 0 0 0.05 0"/>
<feBlend mode="normal" in2="BackgroundImageFix" result="effect1_dropShadow_2370_5639"/>
<feBlend mode="normal" in="SourceGraphic" in2="effect1_dropShadow_2370_5639" result="shape"/>
</filter>
<filter id="filter2_d_2370_5639" x="310" y="620.384" width="189.498" height="130.532" filterUnits="userSpaceOnUse" color-interpolation-filters="sRGB">
<feFlood flood-opacity="0" result="BackgroundImageFix"/>
<feColorMatrix in="SourceAlpha" type="matrix" values="0 0 0 0 0 0 0 0 0 0 0 0 0 0 0 0 0 0 127 0" result="hardAlpha"/>
<feOffset dy="4"/>
<feGaussianBlur stdDeviation="12.5"/>
<feComposite in2="hardAlpha" operator="out"/>
<feColorMatrix type="matrix" values="0 0 0 0 0.364706 0 0 0 0 0.709804 0 0 0 0 0.647059 0 0 0 1 0"/>
<feBlend mode="normal" in2="BackgroundImageFix" result="effect1_dropShadow_2370_5639"/>
<feBlend mode="normal" in="SourceGraphic" in2="effect1_dropShadow_2370_5639" result="shape"/>
</filter>
<filter id="filter3_d_2370_5639" x="319" y="619" width="179.498" height="120.532" filterUnits="userSpaceOnUse" color-interpolation-filters="sRGB">
<feFlood flood-opacity="0" result="BackgroundImageFix"/>
<feColorMatrix in="SourceAlpha" type="matrix" values="0 0 0 0 0 0 0 0 0 0 0 0 0 0 0 0 0 0 127 0" result="hardAlpha"/>
<feOffset dx="4" dy="4"/>
<feGaussianBlur stdDeviation="10"/>
<feComposite in2="hardAlpha" operator="out"/>
<feColorMatrix type="matrix" values="0 0 0 0 0 0 0 0 0 0 0 0 0 0 0 0 0 0 0.05 0"/>
<feBlend mode="normal" in2="BackgroundImageFix" result="effect1_dropShadow_2370_5639"/>
<feBlend mode="normal" in="SourceGraphic" in2="effect1_dropShadow_2370_5639" result="shape"/>
</filter>
<filter id="filter4_d_2370_5639" x="-0.999908" y="420.384" width="189.498" height="130.532" filterUnits="userSpaceOnUse" color-interpolation-filters="sRGB">
<feFlood flood-opacity="0" result="BackgroundImageFix"/>
<feColorMatrix in="SourceAlpha" type="matrix" values="0 0 0 0 0 0 0 0 0 0 0 0 0 0 0 0 0 0 127 0" result="hardAlpha"/>
<feOffset dy="4"/>
<feGaussianBlur stdDeviation="12.5"/>
<feComposite in2="hardAlpha" operator="out"/>
<feColorMatrix type="matrix" values="0 0 0 0 0.364706 0 0 0 0 0.709804 0 0 0 0 0.647059 0 0 0 1 0"/>
<feBlend mode="normal" in2="BackgroundImageFix" result="effect1_dropShadow_2370_5639"/>
<feBlend mode="normal" in="SourceGraphic" in2="effect1_dropShadow_2370_5639" result="shape"/>
</filter>
<filter id="filter5_d_2370_5639" x="8.00006" y="419" width="179.498" height="120.532" filterUnits="userSpaceOnUse" color-interpolation-filters="sRGB">
<feFlood flood-opacity="0" result="BackgroundImageFix"/>
<feColorMatrix in="SourceAlpha" type="matrix" values="0 0 0 0 0 0 0 0 0 0 0 0 0 0 0 0 0 0 127 0" result="hardAlpha"/>
<feOffset dx="4" dy="4"/>
<feGaussianBlur stdDeviation="10"/>
<feComposite in2="hardAlpha" operator="out"/>
<feColorMatrix type="matrix" values="0 0 0 0 0 0 0 0 0 0 0 0 0 0 0 0 0 0 0.05 0"/>
<feBlend mode="normal" in2="BackgroundImageFix" result="effect1_dropShadow_2370_5639"/>
<feBlend mode="normal" in="SourceGraphic" in2="effect1_dropShadow_2370_5639" result="shape"/>
</filter>
<filter id="filter6_d_2370_5639" x="-2.74966" y="-0.985474" width="189.498" height="130.532" filterUnits="userSpaceOnUse" color-interpolation-filters="sRGB">
<feFlood flood-opacity="0" result="BackgroundImageFix"/>
<feColorMatrix in="SourceAlpha" type="matrix" values="0 0 0 0 0 0 0 0 0 0 0 0 0 0 0 0 0 0 127 0" result="hardAlpha"/>
<feOffset dy="4"/>
<feGaussianBlur stdDeviation="12.5"/>
<feComposite in2="hardAlpha" operator="out"/>
<feColorMatrix type="matrix" values="0 0 0 0 0.709804 0 0 0 0 0.435294 0 0 0 0 0.364706 0 0 0 1 0"/>
<feBlend mode="normal" in2="BackgroundImageFix" result="effect1_dropShadow_2370_5639"/>
<feBlend mode="normal" in="SourceGraphic" in2="effect1_dropShadow_2370_5639" result="shape"/>
</filter>
<filter id="filter7_d_2370_5639" x="6.25034" y="-2.37" width="179.498" height="120.532" filterUnits="userSpaceOnUse" color-interpolation-filters="sRGB">
<feFlood flood-opacity="0" result="BackgroundImageFix"/>
<feColorMatrix in="SourceAlpha" type="matrix" values="0 0 0 0 0 0 0 0 0 0 0 0 0 0 0 0 0 0 127 0" result="hardAlpha"/>
<feOffset dx="4" dy="4"/>
<feGaussianBlur stdDeviation="10"/>
<feComposite in2="hardAlpha" operator="out"/>
<feColorMatrix type="matrix" values="0 0 0 0 0 0 0 0 0 0 0 0 0 0 0 0 0 0 0.05 0"/>
<feBlend mode="normal" in2="BackgroundImageFix" result="effect1_dropShadow_2370_5639"/>
<feBlend mode="normal" in="SourceGraphic" in2="effect1_dropShadow_2370_5639" result="shape"/>
</filter>
<filter id="filter8_d_2370_5639" x="137.938" y="84.2323" width="241.562" height="156.362" filterUnits="userSpaceOnUse" color-interpolation-filters="sRGB">
<feFlood flood-opacity="0" result="BackgroundImageFix"/>
<feColorMatrix in="SourceAlpha" type="matrix" values="0 0 0 0 0 0 0 0 0 0 0 0 0 0 0 0 0 0 127 0" result="hardAlpha"/>
<feOffset dx="4" dy="4"/>
<feGaussianBlur stdDeviation="10"/>
<feComposite in2="hardAlpha" operator="out"/>
<feColorMatrix type="matrix" values="0 0 0 0 0 0 0 0 0 0 0 0 0 0 0 0 0 0 0.05 0"/>
<feBlend mode="normal" in2="BackgroundImageFix" result="effect1_dropShadow_2370_5639"/>
<feBlend mode="normal" in="SourceGraphic" in2="effect1_dropShadow_2370_5639" result="shape"/>
</filter>
<filter id="filter9_d_2370_5639" x="124.67" y="291.573" width="258.661" height="166.233" filterUnits="userSpaceOnUse" color-interpolation-filters="sRGB">
<feFlood flood-opacity="0" result="BackgroundImageFix"/>
<feColorMatrix in="SourceAlpha" type="matrix" values="0 0 0 0 0 0 0 0 0 0 0 0 0 0 0 0 0 0 127 0" result="hardAlpha"/>
<feOffset dx="4" dy="4"/>
<feGaussianBlur stdDeviation="10"/>
<feComposite in2="hardAlpha" operator="out"/>
<feColorMatrix type="matrix" values="0 0 0 0 0 0 0 0 0 0 0 0 0 0 0 0 0 0 0.05 0"/>
<feBlend mode="normal" in2="BackgroundImageFix" result="effect1_dropShadow_2370_5639"/>
<feBlend mode="normal" in="SourceGraphic" in2="effect1_dropShadow_2370_5639" result="shape"/>
</filter>
<filter id="filter10_d_2370_5639" x="124.67" y="506.573" width="258.661" height="166.233" filterUnits="userSpaceOnUse" color-interpolation-filters="sRGB">
<feFlood flood-opacity="0" result="BackgroundImageFix"/>
<feColorMatrix in="SourceAlpha" type="matrix" values="0 0 0 0 0 0 0 0 0 0 0 0 0 0 0 0 0 0 127 0" result="hardAlpha"/>
<feOffset dx="4" dy="4"/>
<feGaussianBlur stdDeviation="10"/>
<feComposite in2="hardAlpha" operator="out"/>
<feColorMatrix type="matrix" values="0 0 0 0 0 0 0 0 0 0 0 0 0 0 0 0 0 0 0.05 0"/>
<feBlend mode="normal" in2="BackgroundImageFix" result="effect1_dropShadow_2370_5639"/>
<feBlend mode="normal" in="SourceGraphic" in2="effect1_dropShadow_2370_5639" result="shape"/>
</filter>
<linearGradient id="paint0_linear_2370_5639" x1="351.689" y1="209.192" x2="146.741" y2="183.346" gradientUnits="userSpaceOnUse">
<stop stop-color="#5DB5A5"/>
<stop offset="1" stop-color="#B56F5D"/>
</linearGradient>
<linearGradient id="paint1_linear_2370_5639" x1="148.311" y1="424.192" x2="353.259" y2="398.346" gradientUnits="userSpaceOnUse">
<stop stop-color="#5DB5A5"/>
<stop offset="1" stop-color="#5DB5A5"/>
</linearGradient>
<linearGradient id="paint2_linear_2370_5639" x1="351.689" y1="639.192" x2="146.741" y2="613.346" gradientUnits="userSpaceOnUse">
<stop stop-color="#5DB5A5"/>
<stop offset="1" stop-color="#5DB5A5"/>
</linearGradient>
</defs>
</svg>
