<?xml version="1.0"?>
<svg xmlns="http://www.w3.org/2000/svg" xmlns:xlink="http://www.w3.org/1999/xlink" xmlns:svgjs="http://svgjs.com/svgjs" version="1.1" width="512" height="512" x="0" y="0" viewBox="0 0 300 300" style="enable-background:new 0 0 512 512" xml:space="preserve" class=""><g><linearGradient xmlns="http://www.w3.org/2000/svg" id="SVGID_1_" gradientUnits="userSpaceOnUse" x1="57.91" x2="238.09" y1="263.567" y2="83.387"><stop stop-opacity="1" stop-color="#01ceda" offset="0"/><stop stop-opacity="1" stop-color="#00fdb7" offset="1"/></linearGradient><g xmlns="http://www.w3.org/2000/svg"><path d="m66 174c0-6.617-5.383-12-12-12s-12 5.383-12 12 5.383 12 12 12 12-5.383 12-12zm-12 4c-2.207 0-4-1.795-4-4s1.793-4 4-4 4 1.795 4 4-1.793 4-4 4zm204 16c0 2.209-1.791 4-4 4s-4-1.791-4-4 1.791-4 4-4 4 1.791 4 4zm-11.84-38.727-3.172 3.172 3.172 3.172c1.562 1.562 1.562 4.094 0 5.656-.781.781-1.805 1.172-2.828 1.172s-2.047-.391-2.828-1.172l-3.172-3.172-3.172 3.172c-.781.781-1.805 1.172-2.828 1.172s-2.047-.391-2.828-1.172c-1.562-1.562-1.562-4.094 0-5.656l3.172-3.172-3.172-3.172c-1.562-1.562-1.562-4.094 0-5.656s4.094-1.562 5.656 0l3.172 3.172 3.172-3.172c1.562-1.562 4.094-1.562 5.656 0s1.563 4.094 0 5.656zm-39.625 47.235-32.535-11.534v-10.767c14.307-11.326 22.473-29.271 23.91-35.975.059-.275.09-.557.09-.838v-1.394h9.461c8.016 0 14.539-6.521 14.539-14.539v-26.922c0-8.018-6.523-14.539-14.539-14.539h-1.461v-22.506c0-16.264-13.23-29.494-29.492-29.494h-16.4c-1.767-2.413-4.598-4-7.811-4h-8.594c-3.213 0-6.044 1.587-7.811 4h-16.4c-16.262 0-29.492 13.23-29.492 29.494v22.506h-1.461c-8.016 0-14.539 6.521-14.539 14.539v26.922c0 8.018 6.523 14.539 14.539 14.539h9.461v1.438c0 .266.027.531.078.791 1.469 7.278 10.685 23.902 23.922 34.985v11.761l-32.695 11.591c-16.586 6.684-27.305 21.717-27.305 38.301v25.133c0 2.209 1.789 4 4 4s4-1.791 4-4v-25.133c0-13.303 8.75-25.424 22.137-30.82l30.196-10.704c1.914 10.546 12.677 18.657 25.667 18.657s23.754-8.112 25.667-18.658l30.036 10.646c13.547 5.455 22.297 17.576 22.297 30.879v25.133c0 2.209 1.789 4 4 4s4-1.791 4-4v-25.133c0-16.584-10.719-31.617-27.465-38.359zm-108.535-82.508v-16c0-7.719 6.281-14 14-14h72c7.719 0 14 6.281 14 14v16c0 7.719-6.281 14-14 14h-72c-7.719 0-14-6.281-14-14zm116-19.461v26.922c0 3.605-2.934 6.539-6.539 6.539h-6.504c3.148-3.806 5.043-8.686 5.043-14v-26h1.461c3.605 0 6.539 2.934 6.539 6.539zm-16-37.045v11.549c-3.807-3.148-8.686-5.043-14-5.043h-22v-28h14.508c11.851 0 21.492 9.643 21.492 21.494zm-54.297-25.494h8.594c.938 0 1.703.766 1.703 1.705v30.295h-12v-30.295c0-.939.766-1.705 1.703-1.705zm-24.211 4h14.508v28h-22c-5.314 0-10.193 1.895-14 5.043v-11.549c0-11.851 9.641-21.494 21.492-21.494zm-37.492 85.461v-26.922c0-3.605 2.934-6.539 6.539-6.539h1.461v26c0 5.314 1.895 10.194 5.043 14h-6.504c-3.605 0-6.539-2.934-6.539-6.539zm24 15.541v-1.855c1.91.543 3.918.853 6 .853h72c2.082 0 4.09-.31 6-.853v1.794c-2.113 8.598-17.621 39.059-42.344 39.059-20.808 0-39.558-30.342-41.656-38.998zm42 66.998c-9.926 0-18-6.281-18-14v-11.154c5.486 3.15 11.427 5.154 17.656 5.154 6.788 0 12.882-1.802 18.344-4.619v10.619c0 7.719-8.074 14-18 14zm54 40v16c0 2.209-1.789 4-4 4s-4-1.791-4-4v-16c0-2.209 1.789-4 4-4s4 1.791 4 4zm-104-4v16c0 2.209-1.789 4-4 4s-4-1.791-4-4v-16c0-2.209 1.789-4 4-4s4 1.791 4 4zm37.457-80.912c-1.707-1.404-1.949-3.926-.543-5.631 1.398-1.705 3.918-1.951 5.629-.545 4.602 3.789 10.324 3.811 14.934.062 1.719-1.395 4.234-1.135 5.629.582 1.391 1.713 1.133 4.232-.582 5.625-3.738 3.037-8.105 4.553-12.477 4.553-4.414 0-8.828-1.548-12.59-4.646zm-15.781-35.832c-1.797-1.285-2.215-3.783-.93-5.58l20-28c1.012-1.416 2.824-2.01 4.477-1.484 1.652.529 2.777 2.07 2.777 3.808v28c0 2.209-1.789 4-4 4s-4-1.791-4-4v-15.518l-12.746 17.842c-.781 1.094-2.008 1.676-3.258 1.676-.805 0-1.617-.242-2.32-.744zm34.324.744c2.211 0 4-1.791 4-4v-15.988c.004.846.273 1.686.801 2.389l12 16c.785 1.047 1.984 1.6 3.203 1.6.836 0 1.676-.26 2.395-.801 1.77-1.324 2.129-3.832.801-5.6l-7.332-9.775c4.625-.877 8.133-4.949 8.133-9.824 0-5.514-4.484-10-10-10h-14c-2.211 0-4 1.791-4 4v28c-.001 2.208 1.788 3.999 3.999 3.999zm4-28h10c1.102 0 2 .896 2 2s-.898 2-2 2h-6c-1.516 0-2.898.855-3.578 2.211-.281.562-.422 1.17-.422 1.775z" fill="url(#SVGID_1_)" data-original="url(#SVGID_1_)"/></g></g></svg>
