<?xml version="1.0"?>
<svg xmlns="http://www.w3.org/2000/svg" xmlns:xlink="http://www.w3.org/1999/xlink" xmlns:svgjs="http://svgjs.com/svgjs" version="1.1" width="512" height="512" x="0" y="0" viewBox="0 0 64 64" style="enable-background:new 0 0 512 512" xml:space="preserve" class=""><g><linearGradient xmlns="http://www.w3.org/2000/svg" id="SVGID_1_" gradientUnits="userSpaceOnUse" x1="32" x2="32" y1="63" y2="1"><stop stop-opacity="1" stop-color="#01ceda" offset="0"/><stop stop-opacity="1" stop-color="#00fdb7" offset="1"/></linearGradient><path xmlns="http://www.w3.org/2000/svg" d="m48 5.824v-1.824c0-1.654-1.346-3-3-3h-26c-1.654 0-3 1.346-3 3v1.824c-8.146 5.398-13 14.387-13 24.176 0 14.414 10.521 26.549 24.646 28.671l-.866 4.329h18.44l-1.314-6.57c10.406-4.687 17.094-14.962 17.094-26.43 0-9.789-4.854-18.778-13-24.176zm10.969 23.176h-3.995c-.258-5.847-2.763-11.429-6.974-15.512v-5.236c6.652 4.89 10.667 12.471 10.969 20.748zm-10.011 16.544c.571-.62 1.103-1.27 1.599-1.943l3.321 2.219c-.644.891-1.338 1.746-2.089 2.554zm-7.439 5.456h-11.038l-2.385-2.981c-.707-.883-1.096-1.993-1.096-3.123v-4.479c0-1.081-.255-2.163-.739-3.13l-1.196-2.392c-.043-.085-.065-.181-.065-.277 0-.341.277-.618.618-.618 1.865 0 3.382 1.518 3.382 3.382v1.618 3h2v-3-1.618-15.382c0-.552.449-1 1-1s1 .448 1 1v6.719 13.281h2v-10.719l2 .5v10.219h2v-9.719l2 .5v9.219h2v-8.72l1.242.311c.446.112.758.511.758.971v10.334c0 1.131-.389 2.24-1.096 3.123zm-30.352-30.712-3.72-1.541c.458-1.002.979-1.973 1.557-2.911l3.346 2.235c-.435.719-.829 1.458-1.183 2.217zm-.768 1.847c-.287.786-.529 1.589-.729 2.404l-3.935-.783c.254-1.076.572-2.129.953-3.158zm-1.127 4.363c-.129.826-.209 1.662-.246 2.502h-3.995c.04-1.108.147-2.203.319-3.282zm-.225 4.502c.036.846.115 1.679.238 2.499l-3.941.784c-.171-1.076-.28-2.171-.321-3.283zm.622 4.461c.198.821.434 1.625.717 2.409l-3.7 1.532c-.38-1.026-.705-2.078-.96-3.157zm1.477 4.259c.354.765.739 1.512 1.172 2.228l-3.318 2.218c-.575-.935-1.091-1.909-1.551-2.914zm-.146-9.72c0-4.985 1.801-9.817 5-13.59v3.59c0 1.654 1.346 3 3 3h10v10.23c-.927-.757-2.094-1.23-3.382-1.23-1.444 0-2.618 1.175-2.618 2.618 0 .404.096.81.276 1.171l1.196 2.392c.345.69.528 1.464.528 2.235v4.479c0 1.584.545 3.137 1.534 4.373l.992 1.24c-9.575-2.052-16.526-10.458-16.526-20.508zm24-7h10c1.654 0 3-1.346 3-3v-3.59c3.199 3.774 5 8.605 5 13.59 0 5.573-2.161 10.786-6 14.691v-10.129c0-1.379-.935-2.576-2.272-2.91l-1.728-.432v-.001l-4-1-2-.5-2-.5zm16.666 18.938c.437-.718.833-1.457 1.188-2.218l3.694 1.53c-.459 1.003-.983 1.971-1.559 2.907zm1.956-4.064c.285-.787.526-1.591.724-2.409l3.92.78c-.254 1.077-.576 2.129-.957 3.157zm1.106-4.372c.125-.824.207-1.658.243-2.502h3.991c-.041 1.109-.137 2.206-.309 3.283zm-36.728-29.502c0-.552.449-1 1-1h26c.551 0 1 .448 1 1v16c0 .552-.449 1-1 1h-10.184c-.302-.847-.969-1.514-1.816-1.816v-2.184c1.654 0 3-1.346 3-3s-1.346-3-3-3h-2c-.551 0-1-.448-1-1s.449-1 1-1h2c.551 0 1 .448 1 1h2c0-1.654-1.346-3-3-3h-2c-1.654 0-3 1.346-3 3s1.346 3 3 3h2c.551 0 1 .448 1 1s-.449 1-1 1h-2c-.551 0-1-.448-1-1h-2c0 1.654 1.346 3 3 3v2.184c-.847.302-1.514.969-1.816 1.816h-10.184c-.551 0-1-.448-1-1zm-2 4.252v5.236c-.933.905-1.782 1.882-2.541 2.921l-3.349-2.238c1.622-2.238 3.601-4.237 5.89-5.919zm-5.886 37.574 3.314-2.214c3.564 4.876 9.022 8.272 15.4 9.147l-.789 3.947c-7.422-1.088-13.78-5.144-17.925-10.88zm19.106 15.174 1.6-8h10.36l1.6 8zm13.852-8.739 2.394-2.992c.296-.37.538-.775.752-1.194.456-.359.894-.736 1.318-1.124l2.838 2.837c-2.005 1.859-4.313 3.424-6.87 4.628z" fill="url(#SVGID_1_)" data-original="url(#SVGID_1_)"/></g></svg>
