<?xml version="1.0"?>
<svg xmlns="http://www.w3.org/2000/svg" xmlns:xlink="http://www.w3.org/1999/xlink" xmlns:svgjs="http://svgjs.com/svgjs" version="1.1" width="512" height="512" x="0" y="0" viewBox="0 0 512 512" style="enable-background:new 0 0 512 512" xml:space="preserve" class=""><g><linearGradient xmlns="http://www.w3.org/2000/svg" id="linear-gradient" gradientUnits="userSpaceOnUse" x1="16" x2="496" y1="256" y2="256"><stop stop-opacity="1" stop-color="#00fdb7" offset="0"/><stop stop-opacity="1" stop-color="#01ceda" offset="1"/></linearGradient><g xmlns="http://www.w3.org/2000/svg" id="gradient"><path d="m488 192v-24a8 8 0 0 0 8-8v-40a8 8 0 0 0 -8-8h-8v-32a8 8 0 0 0 -5.992-7.744l-216-56a7.988 7.988 0 0 0 -4.016 0l-216 56a8 8 0 0 0 -5.992 7.744v32h-8a8 8 0 0 0 -8 8v40a8 8 0 0 0 8 8v24a8 8 0 0 0 8 8v216a8 8 0 0 0 -8 8v24a8 8 0 0 0 -8 8v32a8 8 0 0 0 8 8h464a8 8 0 0 0 8-8v-32a8 8 0 0 0 -8-8v-24a8 8 0 0 0 -8-8v-216a8 8 0 0 0 8-8zm-440-105.81 208-53.925 208 53.925v25.81h-16v-8a8 8 0 0 0 -5.98-7.741l-184-48a7.992 7.992 0 0 0 -4.04 0l-184 48a8 8 0 0 0 -5.98 7.741v8h-16zm384 23.991v1.819h-352v-1.819l176-45.913zm48 369.819h-448v-16h448zm-408-192a8 8 0 0 0 -8 8v120h-16v-216h16v64a8 8 0 0 0 16 0v-64h16v216h-16v-120a8 8 0 0 0 -8-8zm-32-104v-16h64v16zm64 248v16h-64v-16zm296-232v216a8 8 0 0 0 -8 8v24h-24v-104a8 8 0 0 0 -8-8h-48a8 8 0 0 0 -8 8v104h-16v-64a8 8 0 0 0 -8-8h-48a8 8 0 0 0 -8 8v64h-16v-24a8 8 0 0 0 -8-8h-48a8 8 0 0 0 -8 8v24h-24v-24a8 8 0 0 0 -8-8v-216a8 8 0 0 0 8-8v-24h272v24a8 8 0 0 0 8 8zm-48 152v96h-32v-96zm-80 40v56h-32v-56zm-80 40v16h-32v-16zm248-144a8 8 0 0 0 -8 8v120h-16v-216h16v64a8 8 0 0 0 16 0v-64h16v216h-16v-120a8 8 0 0 0 -8-8zm-32-104v-16h64v16zm64 248v16h-64v-16zm-440-280v-24h448v24zm223.425 144.824a56.25 56.25 0 1 0 -56.249-56.25 56.313 56.313 0 0 0 56.249 56.25zm0-96.5a40.25 40.25 0 1 1 -40.249 40.25 40.3 40.3 0 0 1 40.249-40.25zm-19.325 56.644 15.951 9.209a8.005 8.005 0 0 0 8 0l15.949-9.209a8 8 0 0 0 4-6.929v-18.42a8 8 0 0 0 -4-6.929l-15.952-9.209a8.01 8.01 0 0 0 -8 0l-15.948 9.209a8 8 0 0 0 -4 6.929v18.42a8 8 0 0 0 4 6.929zm12-20.73 7.951-4.591 7.949 4.591v9.182l-7.952 4.591-7.948-4.591zm118.209 37.839a8 8 0 0 1 1.455 6.863l-8 32a8 8 0 0 1 -15.522-3.88l2.744-10.977-78.426 51.337a8 8 0 0 1 -9.909-.91l-19.969-19.084-82.335 53.29a8 8 0 1 1 -8.694-13.432l87.641-56.724a8 8 0 0 1 9.874.932l19.944 19.062 69.588-45.554h-6.7a8 8 0 0 1 0-16h32a8 8 0 0 1 6.306 3.077z" fill="url(#linear-gradient)" data-original="url(#linear-gradient)" class=""/></g></g></svg>
