<?xml version="1.0"?>
<svg xmlns="http://www.w3.org/2000/svg" xmlns:xlink="http://www.w3.org/1999/xlink" xmlns:svgjs="http://svgjs.com/svgjs" version="1.1" width="512" height="512" x="0" y="0" viewBox="0 0 512 512" style="enable-background:new 0 0 512 512" xml:space="preserve" class=""><g><linearGradient xmlns="http://www.w3.org/2000/svg" id="linear-gradient" gradientUnits="userSpaceOnUse" x1="116" x2="116" y1="-6.7" y2="496.958"><stop stop-opacity="1" stop-color="#00fdb7" offset="0"/><stop stop-opacity="1" stop-color="#01ceda" offset="1"/></linearGradient><linearGradient xmlns="http://www.w3.org/2000/svg" xmlns:xlink="http://www.w3.org/1999/xlink" id="linear-gradient-2" x1="396" x2="396" xlink:href="#linear-gradient" y1="-6.7" y2="496.958"/><linearGradient xmlns="http://www.w3.org/2000/svg" xmlns:xlink="http://www.w3.org/1999/xlink" id="linear-gradient-3" x1="256" x2="256" xlink:href="#linear-gradient" y1="-6.7" y2="496.958"/><linearGradient xmlns="http://www.w3.org/2000/svg" xmlns:xlink="http://www.w3.org/1999/xlink" id="linear-gradient-5" x1="260" x2="260" xlink:href="#linear-gradient" y1="-6.7" y2="496.958"/><linearGradient xmlns="http://www.w3.org/2000/svg" xmlns:xlink="http://www.w3.org/1999/xlink" id="linear-gradient-6" x1="308" x2="308" xlink:href="#linear-gradient" y1="-6.7" y2="496.958"/><g xmlns="http://www.w3.org/2000/svg" id="_GRADIENT" data-name="/ GRADIENT"><path d="m153.65674 278.34277a36.26854 36.26854 0 0 0 -61.26319 18.73633l-.67773-.67773a39.73587 39.73587 0 0 1 -11.71582-28.28321v-172.11816a32 32 0 0 0 -64 0v214.86328a87.42412 87.42412 0 0 0 25.7749 62.22559l47.19531 47.19433a23.84779 23.84779 0 0 1 7.02979 16.97168v58.74512h16v-58.74512a39.74371 39.74371 0 0 0 -11.71582-28.28515l-47.1958-47.19532a71.52709 71.52709 0 0 1 -21.08838-50.91113v-214.86328a16 16 0 0 1 32 0v172.11816a55.63289 55.63289 0 0 0 16.40234 39.59766l73.94092 73.94141 11.31348-11.31446-52.00074-52.00077a20.28409 20.28409 0 0 1 28.68725-28.68481l36.56836 36.56836a71.52709 71.52709 0 0 1 21.08839 50.91117v118.86328h16v-118.86328a87.42412 87.42412 0 0 0 -25.7749-62.22559z" fill="url(#linear-gradient)" data-original="url(#linear-gradient)" class=""/><path d="m464 64a32.03635 32.03635 0 0 0 -32 32v172.11816a39.73587 39.73587 0 0 1 -11.71582 28.28321l-.67773.67773a36.27516 36.27516 0 0 0 -61.26319-18.73633l-36.56836 36.56836a87.42412 87.42412 0 0 0 -25.7749 62.22559v118.86328h16v-118.86328a71.52709 71.52709 0 0 1 21.08838-50.91113l36.56836-36.56836a20.28409 20.28409 0 0 1 28.68726 28.68477l-52.00073 52.00073 11.31348 11.31446 73.94092-73.94141a55.63289 55.63289 0 0 0 16.40233-39.59762v-172.11816a16 16 0 0 1 32 0v214.86328a71.52709 71.52709 0 0 1 -21.08838 50.91113l-47.19629 47.19629a39.74137 39.74137 0 0 0 -11.71533 28.28418v58.74512h16v-58.74512a23.84541 23.84541 0 0 1 7.0293-16.9707l47.1958-47.19531a87.42412 87.42412 0 0 0 25.7749-62.22559v-214.86328a32.03635 32.03635 0 0 0 -32-32z" fill="url(#linear-gradient-2)" data-original="url(#linear-gradient-2)"/><path d="m320 256v-8h64a24.02718 24.02718 0 0 0 24-24v-30.94141a24.12126 24.12126 0 0 0 -11.65234-20.58007l-26.729-16.03711 4.73926-14.2168a31.94028 31.94028 0 0 0 1.64208-10.11914v-12.10547a32 32 0 0 0 -64 0v12.10547a31.94028 31.94028 0 0 0 1.64209 10.11914l4.73926 14.2168-18.38111 11.0288-18.38159-11.0288 4.73926-14.2168a31.94028 31.94028 0 0 0 1.64209-10.11914v-12.10547a32 32 0 0 0 -64 0v12.10547a31.94028 31.94028 0 0 0 1.64209 10.11914l4.73926 14.2168-18.38184 11.02859-18.38086-11.02856 4.73926-14.2168a31.94028 31.94028 0 0 0 1.64209-10.11917v-12.10547a32 32 0 0 0 -64 0v12.10547a31.94028 31.94028 0 0 0 1.64209 10.11914l4.73926 14.2168-26.72949 16.03711a24.12187 24.12187 0 0 0 -11.65186 20.58007v30.94141a24.02718 24.02718 0 0 0 24 24h64v8a24.0275 24.0275 0 0 0 24 24h80a24.0275 24.0275 0 0 0 24-24zm17.61865-92.44141-8.79785-26.39453a15.97329 15.97329 0 0 1 -.8208-5.05859v-12.10547a16 16 0 0 1 32 0v12.10547a15.97329 15.97329 0 0 1 -.8208 5.05859l-8.79785 26.39453 37.73437 22.64063a8.03913 8.03913 0 0 1 3.88428 6.85937v30.94141a8.00917 8.00917 0 0 1 -8 8h-64v-38.94141a24.1078 24.1078 0 0 0 -5.70312-15.50659zm-209.61865 68.44141a8.00917 8.00917 0 0 1 -8-8v-30.94141a8.03975 8.03975 0 0 1 3.88379-6.85937l37.73486-22.64063-8.79785-26.39453a15.97329 15.97329 0 0 1 -.8208-5.05859v-12.10547a16 16 0 0 1 32 0v12.10547a15.97329 15.97329 0 0 1 -.8208 5.05859l-8.79785 26.39453 23.32153 13.99317a24.11 24.11 0 0 0 -5.70288 15.50683v38.94141zm80 24v-62.94141a8.03975 8.03975 0 0 1 3.88379-6.85937l37.73486-22.64063-8.79785-26.39453a15.97329 15.97329 0 0 1 -.8208-5.05859v-12.10547a16 16 0 0 1 32 0v12.10547a15.97329 15.97329 0 0 1 -.8208 5.05859l-8.79785 26.39453 37.73437 22.64063a8.03913 8.03913 0 0 1 3.88428 6.85937v62.94141a8.00917 8.00917 0 0 1 -8 8h-80a8.00917 8.00917 0 0 1 -8-8z" fill="url(#linear-gradient-3)" data-original="url(#linear-gradient-3)"/><path d="m120 64h96v16h16v-48h104v40h56v80h16v-96h-56v-40h-136v32h-112v104h16z" fill="url(#linear-gradient-3)" data-original="url(#linear-gradient-3)"/><path d="m248 48h24v16h-24z" fill="url(#linear-gradient-5)" data-original="url(#linear-gradient-5)"/><path d="m296 48h24v16h-24z" fill="url(#linear-gradient-6)" data-original="url(#linear-gradient-6)"/></g></g></svg>
