<?xml version="1.0"?>
<svg xmlns="http://www.w3.org/2000/svg" xmlns:xlink="http://www.w3.org/1999/xlink" xmlns:svgjs="http://svgjs.com/svgjs" version="1.1" width="512" height="512" x="0" y="0" viewBox="0 0 492.867 496" style="enable-background:new 0 0 512 512" xml:space="preserve" class=""><g><linearGradient xmlns="http://www.w3.org/2000/svg" id="SVGID_1_" gradientUnits="userSpaceOnUse" x1="246.434" x2="246.434" y1="496" y2="0"><stop stop-opacity="1" stop-color="#01ceda" offset="0"/><stop stop-opacity="1" stop-color="#00fdb7" offset="1"/></linearGradient><path xmlns="http://www.w3.org/2000/svg" d="m346.817 392.43c-.455-.847-.937-1.682-1.475-2.489l-8.629-12.945c-1.803-2.703-3.021-5.693-3.619-8.889l-12.026-64.138c16.305-.664 29.366-14.13 29.366-30.595 0-8.182-3.186-15.872-8.97-21.657l-7.281-7.28-5.804-75.455c-1.449-18.837-15.523-33.858-34.225-36.53l-23.721-3.389v-21.748l13.317-13.316c12.048-12.048 18.683-28.067 18.683-45.105 0-12.637-3.705-24.872-10.714-35.384l-9.004-13.51h-26.393c-12.467 0-23.821 6.133-30.632 16.279-19.829 2.354-35.257 19.27-35.257 39.721 0 12.455 4.85 24.164 13.656 32.971l18.344 18.343v21.748l-23.721 3.389c-18.701 2.672-32.775 17.693-34.225 36.53l-5.804 75.455-7.281 7.28c-5.784 5.785-8.97 13.476-8.97 21.657 0 16.465 13.061 29.931 29.366 30.595l-12.026 64.139c-.599 3.194-1.816 6.185-3.619 8.889l-8.629 12.943c-.538.807-1.02 1.643-1.475 2.49-33.076 6.154-83.617 20.062-83.617 47.571 0 36.765 92.563 56 184 56s184-19.235 184-56c.002-27.508-50.538-41.417-83.615-47.57zm-172.383 39.57h16c8.822 0 16 7.178 16.01 16 0 0-.003 0-.01 0h-48c0-8.822 7.177-16 16-16zm72-138.009c.444.487.909.955 1.383 1.412l18.719 88.914c-13.311-.405-26.894-.405-40.205 0l18.719-88.914c.475-.457.939-.925 1.384-1.412zm56 138.009h16c8.822 0 16 7.178 16 16h-48c0-8.822 7.177-16 16-16zm27.715-168.97c2.763 2.762 4.284 6.436 4.284 10.343 0 8.065-6.562 14.627-14.627 14.627-.591 0-1.175-.047-1.755-.117l-3.585-19.118c-.821-4.376-1.999-8.638-3.495-12.766h12.148zm-114.745-185.374c-5.785-5.784-8.971-13.476-8.971-21.656 0-13.233 10.767-24 24-24h4.944l2.211-4.422c3.572-7.141 10.75-11.578 18.734-11.578h17.83l4.255 6.384c5.251 7.875 8.026 17.041 8.026 26.508 0 12.765-4.971 24.766-13.997 33.791l-13.316 13.317h-25.373zm39.03 34.344v16h-16v-16zm-73.993 58.207c.869-11.302 9.313-20.314 20.535-21.917l30.028-4.29h30.857l30.028 4.29c11.222 1.603 19.666 10.615 20.535 21.917l5.371 69.793h-14.721c-2.411-3.765-5.143-7.337-8.175-10.687l7.454-52.181-15.84-2.264-7.018 49.132h-66.122l-7.019-49.132-15.84 2.264 7.454 52.181c-3.032 3.35-5.764 6.923-8.175 10.687h-14.721zm-7.38 117.793c-8.065 0-14.627-6.562-14.627-14.627 0-3.907 1.521-7.581 4.284-10.343l7.03-7.03h12.148c-1.496 4.128-2.675 8.39-3.495 12.766l-3.585 19.118c-.58.069-1.165.116-1.755.116zm-12.223 110.815 8.629-12.943c3.005-4.507 5.035-9.492 6.033-14.816l18.627-99.341c2.23-11.896 7.647-22.796 15.732-31.715h73.148c8.085 8.919 13.502 19.819 15.732 31.715l18.627 99.34c.998 5.325 3.028 10.311 6.033 14.816l8.629 12.945c1.573 2.358 2.404 5.104 2.404 7.94 0 3.823-1.489 7.419-4.193 10.122l-1.003 1.003c-3.377-1.215-7.014-1.881-10.804-1.881h-16c-4.377 0-8.551.885-12.354 2.483l-24.135-114.641c1.025.104 2.065.158 3.117.158 8.182 0 15.872-3.186 21.657-8.97l1.373-1.373-11.314-11.314-1.373 1.373c-2.762 2.763-6.436 4.284-10.343 4.284-8.065 0-14.627-6.562-14.627-14.627v-1.373h-16v1.373c0 8.065-6.562 14.627-14.627 14.627-3.907 0-7.581-1.521-10.343-4.284l-1.373-1.373-11.314 11.314 1.373 1.373c5.785 5.784 13.476 8.97 21.657 8.97 1.052 0 2.092-.054 3.117-.158l-24.135 114.641c-3.803-1.598-7.977-2.483-12.354-2.483h-16c-3.79 0-7.427.666-10.804 1.881l-1.003-1.003c-2.704-2.703-4.193-6.299-4.193-10.122 0-2.835.831-5.581 2.404-7.941zm207.941 67.408c-32.575 8.884-76.025 13.777-122.345 13.777s-89.771-4.893-122.346-13.777c-31.538-8.601-45.654-19.368-45.654-26.223 0-7.332 17.316-21.023 64.121-30.587.568 6.588 3.239 12.74 7.698 17.665-4.865 5.615-7.818 12.928-7.818 20.922 0 8.822 7.178 16 16 16h48c8.822 0 16-7.178 16-16 0-6.747-2.104-13.008-5.683-18.175l6.187-29.39c15.504-.569 31.488-.569 46.991 0l6.187 29.39c-3.579 5.166-5.683 11.428-5.683 18.175 0 8.822 7.178 16 16 16h48c8.822 0 16-7.178 16-16 0-7.994-2.954-15.307-7.818-20.922 4.458-4.925 7.129-11.077 7.698-17.665 46.804 9.564 64.121 23.255 64.121 30.587-.001 6.855-14.118 17.622-45.656 26.223zm-306.345-402.223v16.805c18.235 3.717 32 19.878 32 39.195v8h-16v-8c0-13.233-10.767-24-24-24h-24v24c0 13.233 10.767 24 24 24 22.056 0 40 17.944 40 40v40h-32v16h-16v-16.805c-18.235-3.717-32-19.878-32-39.195v-8h16v8c0 13.233 10.767 24 24 24h24v-24c0-13.233-10.767-24-24-24-22.056 0-40-17.944-40-40v-40h32v-16zm352 48v8c0 13.233 10.767 24 24 24h24v-24c0-13.233-10.767-24-24-24-22.056 0-40-17.944-40-40v-40h32v-16h16v16.805c18.235 3.717 32 19.878 32 39.195v8h-16v-8c0-13.233-10.767-24-24-24h-24v24c0 13.233 10.767 24 24 24 22.056 0 40 17.944 40 40v40h-32v16h-16v-16.805c-18.235-3.717-32-19.878-32-39.195v-8zm-336 240h-16v-32h17.566l-25.566-40.905-25.567 40.905h17.566v112h-16v-96h-30.433l54.434-87.095 54.433 87.095h-30.433zm-16 16h16v32h-16zm376-152.905-25.567 40.905h17.566v80h-16v-64h-30.433l54.434-87.095 54.433 87.095h-30.434v160h-16v-176h17.567zm-24 136.905h16v32h-16z" fill="url(#SVGID_1_)" data-original="url(#SVGID_1_)"/></g></svg>
