<svg width="35" height="35" viewBox="0 0 35 35" fill="none" xmlns="http://www.w3.org/2000/svg">
<path d="M26.726 26.5501C24.5355 26.5479 22.758 28.4021 22.7559 30.6915C22.7537 32.981 24.5278 34.8388 26.7183 34.8411C28.9088 34.8432 30.6863 32.9891 30.6885 30.6996C30.6885 30.6983 30.6885 30.6969 30.6885 30.6956C30.6864 28.4085 28.9141 26.5545 26.726 26.5501Z" fill="white"/>
<path d="M33.761 6.69936C33.6661 6.68015 33.5697 6.67039 33.473 6.67024H9.32339L8.94091 3.99584C8.70261 2.21972 7.24904 0.898252 5.53304 0.897705H2.42347C1.5785 0.897705 0.893555 1.6136 0.893555 2.49674C0.893555 3.37988 1.5785 4.09577 2.42347 4.09577H5.53685C5.73138 4.09429 5.89603 4.24568 5.91933 4.44759L8.27538 21.3254C8.5984 23.47 10.3634 25.0522 12.4406 25.0591H28.3555C30.3554 25.0619 32.0806 23.5928 32.4824 21.5452L34.9724 8.57307C35.1329 7.70602 34.5906 6.86715 33.761 6.69936Z" fill="white"/>
<path d="M17.01 30.5178C16.9169 28.2954 15.1621 26.546 13.0337 26.5537C10.845 26.6462 9.14239 28.5756 9.23083 30.8632C9.3157 33.0582 11.0241 34.8029 13.1255 34.8408H13.2212C15.4096 34.7405 17.1059 32.805 17.01 30.5178Z" fill="white"/>
</svg>
