<svg width="20" height="26" viewBox="0 0 20 26" fill="none" xmlns="http://www.w3.org/2000/svg">
<path d="M0.205505 21.9073C0.205505 22.1394 0.297693 22.362 0.461788 22.5261C0.625883 22.6902 0.848442 22.7823 1.08051 22.7823L3.80176 22.7823C3.9918 23.4911 4.41036 24.1173 4.99254 24.564C5.57472 25.0106 6.28799 25.2527 7.02176 25.2527C7.75553 25.2527 8.4688 25.0106 9.05098 24.564C9.63316 24.1173 10.0517 23.4911 10.2418 22.7823L18.8955 22.7823C19.1276 22.7823 19.3501 22.6902 19.5142 22.5261C19.6783 22.362 19.7705 22.1394 19.7705 21.9073C19.7705 21.6753 19.6783 21.4527 19.5142 21.2886C19.3501 21.1245 19.1276 21.0323 18.8955 21.0323L10.233 21.0323C10.043 20.3236 9.62441 19.6974 9.04223 19.2507C8.46005 18.8041 7.74678 18.562 7.01301 18.562C6.27924 18.562 5.56597 18.8041 4.98379 19.2507C4.40161 19.6974 3.98305 20.3236 3.79301 21.0323L1.07176 21.0323C0.841211 21.0347 0.620893 21.1279 0.458687 21.2917C0.29648 21.4555 0.205494 21.6768 0.205505 21.9073ZM7.02176 20.3061C7.33845 20.3061 7.64804 20.4 7.91136 20.576C8.17469 20.7519 8.37992 21.002 8.50112 21.2946C8.62231 21.5872 8.65402 21.9091 8.59224 22.2197C8.53045 22.5303 8.37795 22.8157 8.15401 23.0396C7.93007 23.2635 7.64476 23.416 7.33415 23.4778C7.02353 23.5396 6.70157 23.5079 6.40898 23.3867C6.11639 23.2655 5.86631 23.0603 5.69037 22.797C5.51442 22.5336 5.42051 22.224 5.42051 21.9073C5.42051 21.4827 5.58921 21.0754 5.8895 20.7751C6.18979 20.4748 6.59708 20.3061 7.02176 20.3061Z" fill="white"/>
<path d="M0.205681 12.9997C0.205681 13.2318 0.297869 13.4543 0.461963 13.6184C0.626056 13.7825 0.848615 13.8747 1.08068 13.8747L13.2082 13.8747C13.4203 14.6589 13.91 15.3393 14.5863 15.7894C15.2625 16.2396 16.0792 16.4287 16.8845 16.3218C17.6898 16.2148 18.4288 15.8189 18.9641 15.2078C19.4994 14.5968 19.7944 13.8121 19.7944 12.9997C19.7944 12.1873 19.4994 11.4026 18.9641 10.7915C18.4288 10.1805 17.6898 9.78462 16.8845 9.67763C16.0792 9.57065 15.2625 9.75982 14.5863 10.2099C13.91 10.6601 13.4203 11.3405 13.2082 12.1247L1.08068 12.1247C0.848616 12.1247 0.626057 12.2169 0.461964 12.381C0.297869 12.5451 0.205681 12.7676 0.205681 12.9997ZM16.4194 11.3984C16.7365 11.3967 17.0469 11.4891 17.3114 11.664C17.5759 11.8389 17.7825 12.0884 17.905 12.3808C18.0276 12.6733 18.0605 12.9955 17.9997 13.3067C17.9389 13.6179 17.7871 13.904 17.5635 14.1288C17.3399 14.3536 17.0546 14.507 16.7438 14.5695C16.433 14.632 16.1105 14.6008 15.8174 14.4799C15.5243 14.3589 15.2737 14.1537 15.0974 13.8902C14.9211 13.6267 14.8269 13.3168 14.8269 12.9997C14.8269 12.5765 14.9944 12.1706 15.2928 11.8705C15.5912 11.5705 15.9963 11.4008 16.4194 11.3984Z" fill="white"/>
<path d="M6.76801 3.2174L1.08051 3.2174C0.848442 3.2174 0.625883 3.30959 0.461788 3.47368C0.297693 3.63778 0.205505 3.86034 0.205505 4.0924C0.205505 4.32447 0.297693 4.54703 0.461788 4.71112C0.625883 4.87522 0.848442 4.9674 1.08051 4.9674L6.76801 4.9674C6.95805 5.67614 7.37661 6.30237 7.95879 6.74901C8.54096 7.19565 9.25424 7.43774 9.98801 7.43774C10.7218 7.43774 11.435 7.19565 12.0172 6.74901C12.5994 6.30237 13.018 5.67614 13.208 4.9674L18.8955 4.9674C19.1276 4.9674 19.3501 4.87522 19.5142 4.71112C19.6783 4.54703 19.7705 4.32447 19.7705 4.0924C19.7705 3.86034 19.6783 3.63778 19.5142 3.47369C19.3501 3.30959 19.1276 3.2174 18.8955 3.2174L13.208 3.2174C13.018 2.50867 12.5994 1.88243 12.0172 1.4358C11.435 0.989157 10.7218 0.74707 9.98801 0.74707C9.25424 0.74707 8.54097 0.989157 7.95879 1.4358C7.37661 1.88243 6.95805 2.50867 6.76801 3.2174ZM11.5893 4.0924C11.591 4.40947 11.4986 4.71991 11.3237 4.98438C11.1488 5.24885 10.8993 5.45545 10.6069 5.57799C10.3144 5.70053 9.9922 5.73349 9.68102 5.6727C9.36983 5.6119 9.0837 5.46009 8.85888 5.23651C8.63407 5.01292 8.48069 4.72762 8.41819 4.41677C8.3557 4.10593 8.38689 3.78352 8.50783 3.49042C8.62876 3.19732 8.83399 2.94672 9.0975 2.77038C9.36101 2.59404 9.67094 2.49991 9.98801 2.4999C10.4112 2.4999 10.8171 2.6674 11.1172 2.9658C11.4172 3.2642 11.5869 3.66924 11.5893 4.0924Z" fill="white"/>
</svg>
