<svg width="20" height="20" viewBox="0 0 20 20" fill="none" xmlns="http://www.w3.org/2000/svg">
<path d="M19.4685 10C19.4685 15.2678 15.3881 19.5 10.4007 19.5C5.41336 19.5 1.33301 15.2678 1.33301 10C1.33301 4.73224 5.41336 0.5 10.4007 0.5C15.3881 0.5 19.4685 4.73224 19.4685 10Z" fill="#FFC700" stroke="#EE892D"/>
<path d="M3.85334 7.96668C3.80969 7.9538 3.76273 7.96787 3.73265 8.00285C3.70257 8.03784 3.69475 8.08749 3.71254 8.13045C4.54349 10.0268 6.00919 12.0632 7.85575 13.2025C6.68064 13.1852 5.51891 13.4605 4.46963 14.0047C4.42227 14.0379 4.39392 14.093 4.39392 14.1519C4.39392 14.2108 4.42227 14.2659 4.46963 14.299C5.66758 14.9043 7.11251 15.2484 8.45588 15.0348C8.15955 15.5201 7.95587 16.0589 7.85575 16.6226C7.84986 16.6673 7.8677 16.7119 7.90251 16.7393C7.93733 16.7668 7.98378 16.773 8.02425 16.7555C8.8852 16.4778 9.76232 15.8987 10.1616 15.0348V16.7627C10.1616 16.8937 10.265 17 10.3925 17C10.5199 17 10.6233 16.8937 10.6233 16.7627V15.0348C11.0226 15.8963 11.8997 16.4778 12.7607 16.7555C12.8011 16.773 12.8476 16.7668 12.8824 16.7393C12.9172 16.7119 12.935 16.6673 12.9292 16.6226C12.8297 16.0591 12.6269 15.5202 12.3313 15.0348C13.6724 15.2508 15.1173 14.9043 16.3176 14.299C16.3649 14.2659 16.3933 14.2108 16.3933 14.1519C16.3933 14.093 16.3649 14.0379 16.3176 14.0047C15.269 13.4608 14.1081 13.1856 12.9338 13.2025C14.7619 12.0704 16.2414 10.0363 17.0885 8.13045C17.1063 8.08749 17.0985 8.03784 17.0684 8.00285C17.0383 7.96787 16.9914 7.9538 16.9477 7.96668C14.9419 8.64074 12.7676 9.97461 11.475 11.7903H11.4635C12.1905 8.98964 11.6227 5.65733 10.5102 3.07028C10.4923 3.02763 10.4515 3 10.4063 3C10.3611 3 10.3203 3.02763 10.3024 3.07028C9.18758 5.68106 8.62438 9.00388 9.34915 11.7903H9.33761C8.04502 9.99123 5.87762 8.64549 3.85334 7.96668Z" fill="#CF6300"/>
</svg>
