<svg width="24" height="24" viewBox="0 0 24 24" fill="none" xmlns="http://www.w3.org/2000/svg">
<path d="M10.8014 0.75C9.06183 0.75 7.62986 2.17767 7.62986 3.91726V5.74239H6.1424C4.34123 5.74239 2.97303 7.24521 2.86259 8.95524L2.1559 19.8975C2.03452 21.7769 3.63453 23.25 5.43572 23.25C9.96756 23.2501 14.1905 23.25 18.5635 23.25C20.3647 23.25 21.9647 21.7768 21.8434 19.8975L21.1367 8.95524C21.0262 7.24521 19.658 5.74239 17.8569 5.74239H16.3694V3.91726C16.3694 2.17767 14.9374 0.75 13.1979 0.75H10.8014ZM10.8014 2.71048H13.1979C13.8831 2.71048 14.4046 3.23201 14.4046 3.91726V5.74239H9.59604V3.91726C9.59604 3.23201 10.1162 2.71048 10.8014 2.71048ZM6.1424 7.93084H7.62986V9.86425C7.32732 10.1402 7.15464 10.5305 7.15399 10.9399C7.15399 11.7457 7.80719 12.3989 8.61295 12.3989C9.41872 12.3989 10.0719 11.7457 10.0719 10.9399C10.0713 10.5305 9.89859 10.1402 9.59604 9.86425V7.93084H14.4046V9.8614C14.1008 10.1377 13.9276 10.5293 13.9273 10.9399C13.9273 11.7457 14.5805 12.3989 15.3863 12.3989C16.1921 12.3989 16.8453 11.7457 16.8453 10.9399C16.8446 10.5305 16.6719 10.1402 16.3694 9.86425V7.93084H17.8569C18.4805 7.93084 18.9067 8.38511 18.9525 9.09487L19.6592 20.0371C19.6941 20.5774 19.1871 21.0615 18.5635 21.0615C14.1904 21.0615 9.9675 21.0616 5.43572 21.0615C4.81212 21.0615 4.30517 20.5774 4.34007 20.0371L5.04676 9.09487C5.0926 8.38511 5.51878 7.93084 6.1424 7.93084Z" fill="#293737"/>
</svg>
