<svg width="32" height="32" viewBox="0 0 32 32" fill="none" xmlns="http://www.w3.org/2000/svg">
<path d="M14.4023 1C12.0829 1 10.1736 2.90356 10.1736 5.22301V7.65652H8.19032C5.78875 7.65652 3.96448 9.66028 3.81723 11.9403L2.87498 26.53C2.71315 29.0358 4.84648 30.9999 7.24807 30.9999C13.2905 31.0001 18.9211 30.9999 24.7518 30.9999C27.1534 30.9999 29.2868 29.0358 29.1249 26.53L28.1827 11.9403C28.0354 9.66028 26.2112 7.65652 23.8096 7.65652H21.8263V5.22301C21.8263 2.90356 19.917 1 17.5976 1H14.4023ZM14.4023 3.61398H17.5976C18.5112 3.61398 19.2066 4.30935 19.2066 5.22301V7.65652H12.7952V5.22301C12.7952 4.30935 13.4887 3.61398 14.4023 3.61398ZM8.19032 10.5744H10.1736V13.1523C9.77021 13.5202 9.53997 14.0407 9.5391 14.5866C9.5391 15.6609 10.41 16.5319 11.4844 16.5319C12.5587 16.5319 13.4297 15.6609 13.4297 14.5866C13.4288 14.0407 13.1986 13.5202 12.7952 13.1523V10.5744H19.2066V13.1485C18.8016 13.517 18.5705 14.039 18.5702 14.5866C18.5702 15.6609 19.4412 16.5319 20.5155 16.5319C21.5899 16.5319 22.4608 15.6609 22.4608 14.5866C22.4599 14.0407 22.2297 13.5202 21.8263 13.1523V10.5744H23.8096C24.6411 10.5744 25.2093 11.1801 25.2704 12.1265L26.2127 26.7161C26.2592 27.4366 25.5833 28.082 24.7518 28.082C18.921 28.082 13.2904 28.0822 7.24807 28.082C6.4166 28.082 5.74068 27.4366 5.78721 26.7161L6.72946 12.1265C6.79058 11.1801 7.35883 10.5744 8.19032 10.5744Z" fill="white"/>
</svg>
