<svg width="32" height="32" viewBox="0 0 32 32" fill="none" xmlns="http://www.w3.org/2000/svg">
<path d="M11.657 31C10.6788 31 9.70649 30.8112 8.79058 30.4387L5.02125 28.9058C2.58167 27.9137 1.00534 25.571 1.00534 22.9374V5.87032C0.95836 2.473 4.56971 0.0437798 7.69836 1.3669C7.70111 1.36801 7.70392 1.36918 7.70667 1.37029L11.0784 2.77167L18.9598 1.13172C18.9701 1.12956 18.9804 1.12757 18.9907 1.12569C20.4126 0.869491 21.8715 1.02166 23.2098 1.56593L26.9791 3.09874C29.4186 4.09086 30.995 6.43362 30.995 9.06715V26.1293C30.995 27.7501 30.1921 29.258 28.8474 30.1628C27.5026 31.0676 25.8034 31.2433 24.302 30.6327C24.2992 30.6316 24.2964 30.6304 24.2936 30.6293L20.9222 29.2281C20.9222 29.2281 13.0201 30.8769 13.0096 30.8789C12.5608 30.9598 12.1083 31 11.657 31ZM5.85897 3.34721C5.37012 3.34721 4.88794 3.49335 4.46094 3.78071C3.75384 4.2565 3.34834 5.01814 3.34834 5.87038V22.9375C3.34834 24.6134 4.35147 26.1042 5.9039 26.7356L9.67322 28.2684C10.595 28.6434 11.5995 28.7495 12.5792 28.5759L20.7982 26.8607C21.029 26.8126 21.2693 26.8351 21.4871 26.9257L25.1885 28.4641C25.9769 28.7833 26.8335 28.6941 27.5394 28.219C28.2465 27.7433 28.652 26.9816 28.652 26.1294V9.06721C28.652 7.3913 27.6489 5.90049 26.0965 5.26912L22.3271 3.73631C21.4053 3.36144 20.4008 3.25513 19.421 3.42886L11.2015 5.13915C10.9708 5.18724 10.7309 5.16451 10.5133 5.07401L6.81185 3.53564C6.50041 3.40959 6.1782 3.34721 5.85897 3.34721Z" fill="white"/>
<path d="M20.8029 24.6688C20.1559 24.6688 19.6314 24.1443 19.6314 23.4973V6.86739C19.6314 6.22039 20.1559 5.69592 20.8029 5.69592C21.4499 5.69592 21.9744 6.22039 21.9744 6.86739V23.4973C21.9744 24.1443 21.4499 24.6688 20.8029 24.6688ZM12.3683 25.1374V8.56105C12.3683 7.91404 11.8439 7.38958 11.1969 7.38958C10.5499 7.38958 10.0254 7.91404 10.0254 8.56105V25.1374C10.0254 25.7844 10.5499 26.3088 11.1969 26.3088C11.8439 26.3088 12.3683 25.7844 12.3683 25.1374Z" fill="white"/>
</svg>
