<svg width="32" height="32" viewBox="0 0 32 32" fill="none" xmlns="http://www.w3.org/2000/svg">
<path d="M5.68349 1C3.11622 1 1 3.1162 1 5.68349V26.3165C1 28.8838 3.11622 31 5.68349 31H26.3165C28.8838 31 31 28.8838 31 26.3165V5.68349C31 3.1162 28.8838 1 26.3165 1H5.68349ZM5.68349 4.17336H9.4278V8.17625C9.4278 10.8864 11.6597 13.1183 14.3699 13.1183H17.6218C20.332 13.1183 22.5639 10.8864 22.5639 8.17625V4.17336H26.3165C27.1785 4.17336 27.8266 4.82158 27.8266 5.68349V26.3165C27.8266 27.1785 27.1785 27.8246 26.3165 27.8246C19.4388 27.8246 12.5612 27.8246 5.68349 27.8246C4.82154 27.8246 4.17542 27.1785 4.17542 26.3165V5.68349C4.17542 4.82158 4.82154 4.17336 5.68349 4.17336ZM12.6115 4.17336H19.3906V8.17625C19.3906 9.181 18.6267 9.94497 17.6218 9.94497H14.3699C13.3651 9.94497 12.6115 9.181 12.6115 8.17625V4.17336Z" fill="white"/>
</svg>
