<svg width="32" height="32" viewBox="0 0 32 32" fill="none" xmlns="http://www.w3.org/2000/svg">
<path d="M15.9984 1.0022C14.6965 1.0022 13.4689 1.66386 13.1499 1.88246C9.13351 4.52119 5.34795 7.43391 1.57033 10.3697C0.272439 11.3792 1.38719 13.4287 2.93983 12.8877V25.5987C2.93983 28.523 5.2324 30.9975 8.12321 30.9975C13.3777 30.998 18.6319 30.9975 23.8812 30.9975C26.772 30.9975 29.0646 28.523 29.0646 25.5987V12.8859C30.6135 13.42 31.7236 11.3805 30.4341 10.3697C26.7206 7.34176 22.7547 4.66134 18.8546 1.88246C17.9981 1.37779 17.3255 1.00081 15.9984 1.0022ZM17.2263 4.28714L25.2092 9.9787C25.728 10.3615 26.1575 11.0289 26.1575 11.692V25.5987C26.1575 27.055 25.1224 28.0979 23.8812 28.0979H21.8884V20.9424C21.8884 18.6631 20.0062 16.7809 17.7269 16.7809H14.2852C12.0058 16.7809 10.1294 18.6631 10.1294 20.9424V23.7419C10.0516 25.7514 13.1069 25.7514 13.029 23.7419V20.9424C13.029 20.2203 13.5631 19.6786 14.2852 19.6786H17.7269C18.449 19.6786 18.9831 20.2203 18.9831 20.9424V28.0979H8.12321C6.88202 28.0979 5.847 27.055 5.847 25.5987V11.692C5.847 10.7633 6.42506 10.2877 6.81418 9.96547L14.8216 4.25128C15.6688 3.67793 16.429 3.72476 17.2263 4.28784V4.28714Z" fill="white"/>
</svg>
