<svg width="32" height="32" viewBox="0 0 32 32" fill="none" xmlns="http://www.w3.org/2000/svg">
<g clip-path="url(#clip0_2018_4216)">
<path d="M24 0H16C14.2326 0.00208193 12.5381 0.70513 11.2883 1.95492C10.0385 3.20471 9.33546 4.8992 9.33337 6.66667V14.6667H8.00004C6.23257 14.6687 4.53809 15.3718 3.28829 16.6216C2.0385 17.8714 1.33546 19.5659 1.33337 21.3333V25.3333C1.33546 27.1008 2.0385 28.7953 3.28829 30.0451C4.53809 31.2949 6.23257 31.9979 8.00004 32H24C25.7675 31.9979 27.462 31.2949 28.7118 30.0451C29.9616 28.7953 30.6646 27.1008 30.6667 25.3333V6.66667C30.6646 4.8992 29.9616 3.20471 28.7118 1.95492C27.462 0.70513 25.7675 0.00208193 24 0V0ZM9.33337 28C9.33306 28.3535 9.19248 28.6925 8.9425 28.9425C8.69252 29.1924 8.35357 29.333 8.00004 29.3333C6.93953 29.3322 5.92279 28.9104 5.1729 28.1605C4.42301 27.4106 4.00121 26.3938 4.00004 25.3333V21.3333C4.00121 20.2728 4.42301 19.2561 5.1729 18.5062C5.92279 17.7563 6.93953 17.3345 8.00004 17.3333H9.33337V28ZM28 25.3333C27.9989 26.3938 27.5771 27.4106 26.8272 28.1605C26.0773 28.9104 25.0606 29.3322 24 29.3333H11.7722C11.9233 28.905 12.0003 28.4542 12 28V6.66667C12.0012 5.60616 12.423 4.58942 13.1729 3.83953C13.9228 3.08963 14.9395 2.66783 16 2.66667H24C25.0606 2.66783 26.0773 3.08963 26.8272 3.83953C27.5771 4.58942 27.9989 5.60616 28 6.66667V25.3333Z" fill="white"/>
<path d="M23.3334 5.33337H16.6667C15.7827 5.33337 14.9348 5.68456 14.3097 6.30968C13.6846 6.93481 13.3334 7.78265 13.3334 8.66671C13.3334 9.55076 13.6846 10.3986 14.3097 11.0237C14.9348 11.6489 15.7827 12 16.6667 12H23.3334C24.2174 12 25.0653 11.6489 25.6904 11.0237C26.3155 10.3986 26.6667 9.55076 26.6667 8.66671C26.6667 7.78265 26.3155 6.93481 25.6904 6.30968C25.0653 5.68456 24.2174 5.33337 23.3334 5.33337ZM23.3334 9.33337H16.6667C16.4899 9.33337 16.3203 9.26314 16.1953 9.13811C16.0703 9.01309 16 8.84352 16 8.66671C16 8.4899 16.0703 8.32033 16.1953 8.1953C16.3203 8.07028 16.4899 8.00004 16.6667 8.00004H23.3334C23.5102 8.00004 23.6798 8.07028 23.8048 8.1953C23.9298 8.32033 24 8.4899 24 8.66671C24 8.84352 23.9298 9.01309 23.8048 9.13811C23.6798 9.26314 23.5102 9.33337 23.3334 9.33337Z" fill="white"/>
<path d="M25.3334 14.6666H14.6667C14.3131 14.6666 13.9739 14.8071 13.7239 15.0572C13.4739 15.3072 13.3334 15.6463 13.3334 16C13.3334 16.3536 13.4739 16.6927 13.7239 16.9428C13.9739 17.1928 14.3131 17.3333 14.6667 17.3333H25.3334C25.687 17.3333 26.0261 17.1928 26.2762 16.9428C26.5262 16.6927 26.6667 16.3536 26.6667 16C26.6667 15.6463 26.5262 15.3072 26.2762 15.0572C26.0261 14.8071 25.687 14.6666 25.3334 14.6666ZM25.3334 20H14.6667C14.3131 20 13.9739 20.1404 13.7239 20.3905C13.4739 20.6405 13.3334 20.9797 13.3334 21.3333C13.3334 21.6869 13.4739 22.0261 13.7239 22.2761C13.9739 22.5262 14.3131 22.6666 14.6667 22.6666H25.3334C25.687 22.6666 26.0261 22.5262 26.2762 22.2761C26.5262 22.0261 26.6667 21.6869 26.6667 21.3333C26.6667 20.9797 26.5262 20.6405 26.2762 20.3905C26.0261 20.1404 25.687 20 25.3334 20Z" fill="white"/>
</g>
<defs>
<clipPath id="clip0_2018_4216">
<rect width="32" height="32" fill="white"/>
</clipPath>
</defs>
</svg>
