<svg width="99" height="99" viewBox="0 0 99 99" fill="none" xmlns="http://www.w3.org/2000/svg">
<path d="M28.7471 28.7472C29.0345 28.4591 29.3759 28.2305 29.7518 28.0745C30.1276 27.9185 30.5306 27.8383 30.9375 27.8383C31.3444 27.8383 31.7474 27.9185 32.1232 28.0745C32.4991 28.2305 32.8405 28.4591 33.1279 28.7472L49.5 45.1255L65.8721 28.7472C66.1598 28.4595 66.5013 28.2313 66.8771 28.0757C67.2529 27.92 67.6557 27.8399 68.0625 27.8399C68.4693 27.8399 68.8721 27.92 69.2479 28.0757C69.6237 28.2313 69.9652 28.4595 70.2529 28.7472C70.5405 29.0348 70.7687 29.3763 70.9244 29.7521C71.08 30.1279 71.1602 30.5307 71.1602 30.9375C71.1602 31.3443 71.08 31.7471 70.9244 32.123C70.7687 32.4988 70.5405 32.8403 70.2529 33.1279L53.8746 49.5L70.2529 65.8722C70.5405 66.1598 70.7687 66.5013 70.9244 66.8771C71.08 67.2529 71.1602 67.6557 71.1602 68.0625C71.1602 68.4693 71.08 68.8721 70.9244 69.248C70.7687 69.6238 70.5405 69.9653 70.2529 70.2529C69.9652 70.5406 69.6237 70.7687 69.2479 70.9244C68.8721 71.0801 68.4693 71.1602 68.0625 71.1602C67.6557 71.1602 67.2529 71.0801 66.8771 70.9244C66.5013 70.7687 66.1598 70.5406 65.8721 70.2529L49.5 53.8746L33.1279 70.2529C32.8402 70.5406 32.4988 70.7687 32.1229 70.9244C31.7471 71.0801 31.3443 71.1602 30.9375 71.1602C30.5307 71.1602 30.1279 71.0801 29.7521 70.9244C29.3763 70.7687 29.0348 70.5406 28.7471 70.2529C28.4595 69.9653 28.2313 69.6238 28.0756 69.248C27.92 68.8721 27.8398 68.4693 27.8398 68.0625C27.8398 67.6557 27.92 67.2529 28.0756 66.8771C28.2313 66.5013 28.4595 66.1598 28.7471 65.8722L45.1254 49.5L28.7471 33.1279C28.459 32.8405 28.2304 32.4991 28.0745 32.1233C27.9185 31.7474 27.8382 31.3445 27.8382 30.9375C27.8382 30.5306 27.9185 30.1277 28.0745 29.7518C28.2304 29.3759 28.459 29.0345 28.7471 28.7472Z" fill="white"/>
</svg>
