<svg width="32" height="32" viewBox="0 0 32 32" fill="none" xmlns="http://www.w3.org/2000/svg">
<path d="M15.9984 1.00245C14.6965 1.00245 13.4689 1.66411 13.1499 1.8827C9.13351 4.52144 5.34795 7.43415 1.57033 10.37C0.272439 11.3794 1.38719 13.4289 2.93983 12.888V25.599C2.93983 28.5233 5.2324 30.9977 8.12321 30.9977C13.3777 30.9982 18.6319 30.9977 23.8812 30.9977C26.772 30.9977 29.0646 28.5233 29.0646 25.599V12.8861C30.6135 13.4202 31.7236 11.3808 30.4341 10.37C26.7206 7.342 22.7547 4.66159 18.8546 1.8827C17.9981 1.37803 17.3255 1.00106 15.9984 1.00245ZM17.2263 4.28739L25.2092 9.97895C25.728 10.3617 26.1575 11.0291 26.1575 11.6922V25.599C26.1575 27.0553 25.1224 28.0981 23.8812 28.0981H21.8884V20.9426C21.8884 18.6633 20.0062 16.7812 17.7269 16.7812H14.2852C12.0058 16.7812 10.1294 18.6633 10.1294 20.9426V23.7421C10.0516 25.7516 13.1069 25.7516 13.029 23.7421V20.9426C13.029 20.2206 13.5631 19.6789 14.2852 19.6789H17.7269C18.449 19.6789 18.9831 20.2206 18.9831 20.9426V28.0981H8.12321C6.88202 28.0981 5.847 27.0553 5.847 25.599V11.6922C5.847 10.7635 6.42506 10.2879 6.81418 9.96571L14.8216 4.25153C15.6688 3.67817 16.429 3.725 17.2263 4.28808V4.28739Z" fill="white"/>
</svg>
