<svg width="32" height="32" viewBox="0 0 32 32" fill="none" xmlns="http://www.w3.org/2000/svg">
<path d="M13.9887 3.05784L5.91694 8.81154C4.39095 9.96713 4.3916 11.0164 4.3916 11.6818V25.5886C4.3916 27.7788 6.05382 29.5408 8.11987 29.5408H23.8806C25.9467 29.5408 27.6089 27.7788 27.6089 25.5886V11.6818C27.6089 11.0164 27.6095 9.96713 26.0836 8.81154L18.0118 3.05784C16.8276 2.29718 15.1647 2.23518 13.9887 3.05784Z" fill="#5DB5A5"/>
<path d="M27.6079 14.1416C19.0053 14.1416 14.4658 22.251 16.4401 29.5406H23.8809C25.9469 29.5406 27.6079 27.7791 27.6079 25.5889V14.1416Z" fill="#B56F5D"/>
<path d="M14.2841 18.2251C12.7834 18.2251 11.5752 19.4333 11.5752 20.9339V29.5407H20.432V20.9339C20.432 19.4333 19.2238 18.2251 17.7231 18.2251H14.2841Z" fill="#5DB5A5"/>
<path d="M15.9984 1.00245C14.6965 1.00245 13.4689 1.66411 13.1499 1.8827C9.13351 4.52144 5.34795 7.43415 1.57033 10.37C0.272439 11.3794 1.38719 13.4289 2.93983 12.888V25.599C2.93983 28.5233 5.2324 30.9977 8.12321 30.9977C13.3777 30.9982 18.6319 30.9977 23.8812 30.9977C26.772 30.9977 29.0646 28.5233 29.0646 25.599V12.8861C30.6135 13.4202 31.7236 11.3808 30.4341 10.37C26.7206 7.342 22.7547 4.66159 18.8546 1.8827C17.9981 1.37803 17.3255 1.00106 15.9984 1.00245ZM17.2263 4.28739L25.2092 9.97895C25.728 10.3617 26.1575 11.0291 26.1575 11.6922V25.599C26.1575 27.0553 25.1224 28.0981 23.8812 28.0981H21.8884V20.9426C21.8884 18.6633 20.0062 16.7812 17.7269 16.7812H14.2852C12.0058 16.7812 10.1294 18.6633 10.1294 20.9426V23.7421C10.0516 25.7516 13.1069 25.7516 13.029 23.7421V20.9426C13.029 20.2206 13.5631 19.6789 14.2852 19.6789H17.7269C18.449 19.6789 18.9831 20.2206 18.9831 20.9426V28.0981H8.12321C6.88202 28.0981 5.847 27.0553 5.847 25.599V11.6922C5.847 10.7635 6.42506 10.2879 6.81418 9.96571L14.8216 4.25153C15.6688 3.67817 16.429 3.725 17.2263 4.28808V4.28739Z" fill="white"/>
</svg>
