<svg width="32" height="32" viewBox="0 0 32 32" fill="none" xmlns="http://www.w3.org/2000/svg">
<path d="M11.7931 20.933C16.8425 20.933 20.9359 16.8397 20.9359 11.7903C20.9359 6.74088 16.8425 2.64746 11.7931 2.64746C6.74374 2.64746 2.65039 6.74088 2.65039 11.7903C2.65039 16.8397 6.74374 20.933 11.7931 20.933Z" fill="#E9EAFF"/>
<path d="M20.9372 11.7884C20.9372 12.9891 20.7007 14.178 20.2412 15.2873C19.7818 16.3966 19.1083 17.4045 18.2593 18.2535C17.4103 19.1025 16.4024 19.7759 15.2931 20.2354C14.1839 20.6948 12.9949 20.9314 11.7943 20.9314C10.5936 20.9314 9.40471 20.6948 8.29544 20.2354C7.18617 19.7759 6.17826 19.1025 5.32926 18.2535C4.48026 17.4045 3.8068 16.3966 3.34733 15.2873C2.88785 14.178 2.65137 12.9891 2.65137 11.7884C2.65137 10.5878 2.88785 9.39884 3.34733 8.28957C3.8068 7.1803 4.48026 6.17238 5.32926 5.32338C6.17826 4.47438 7.18617 3.80097 8.29544 3.34149C9.40471 2.88202 10.5936 2.64551 11.7943 2.64551C12.9949 2.64551 14.1839 2.88202 15.2931 3.34149C16.4024 3.80097 17.4103 4.47438 18.2593 5.32338C19.1083 6.17238 19.7818 7.1803 20.2412 8.28957C20.7007 9.39884 20.9372 10.5878 20.9372 11.7884Z" fill="#5DB5A5"/>
<path d="M21.1037 21.9614L21.9644 21.1007C23.2772 19.788 25.3908 19.7881 26.7036 21.1008L28.54 22.9372C29.8528 24.2499 29.8528 26.3636 28.54 27.6763L27.6793 28.5371C26.3665 29.8498 24.2529 29.8498 22.9401 28.5371L21.1037 26.7006C19.791 25.3878 19.7909 23.2742 21.1037 21.9614Z" fill="#B56F5D"/>
<path d="M18.2678 5.31396C11.2513 7.19404 8.35475 14.3963 10.2983 20.8322C10.7994 20.92 11.3032 20.9583 11.8119 20.9618C16.8684 20.9612 20.9675 16.8621 20.9681 11.8056C20.9657 9.36751 19.9986 7.03109 18.2678 5.31396Z" fill="#5DB5A5"/>
<path d="M10.169 1.12077C4.28795 2.02711 0.221057 7.56938 1.12734 13.4505C2.03363 19.3315 7.57786 23.3984 13.4589 22.4921C15.6397 22.1566 15.1364 18.8855 12.9557 19.221C8.8399 19.8552 5.02523 17.063 4.39098 12.9472C3.75672 8.83142 6.55646 5.01869 10.6723 4.38441C14.7881 3.7502 18.5952 6.54988 19.2294 10.6657C19.6004 13.0732 18.7889 15.361 17.2333 16.9902C16.4559 17.7676 16.707 18.766 17.331 19.39L19.5599 21.6453C18.2795 23.5103 18.4614 26.105 20.1139 27.7575L21.9523 29.6034C23.8144 31.4655 26.8822 31.4655 28.7443 29.6034L29.6025 28.7377C31.4646 26.8756 31.4646 23.8135 29.6025 21.9513L27.7641 20.113C26.1114 18.4603 23.476 18.3006 21.5955 19.6003L20.3881 18.3816C22.1181 16.1236 22.9573 13.1872 22.4912 10.1624C21.7087 4.86326 16.6211 0.181665 10.169 1.12077ZM24.3728 21.5758C24.8587 21.5758 25.3429 21.7666 25.7267 22.1504L27.565 23.9888C28.3326 24.7563 28.3325 25.9329 27.565 26.7003L26.6994 27.5585C25.9319 28.326 24.7629 28.326 23.9953 27.5585L22.157 25.7201C21.3894 24.9526 21.3895 23.7835 22.157 23.0161L23.017 22.1504C23.4007 21.7667 23.8869 21.5758 24.3728 21.5758Z" fill="white"/>
</svg>
