<svg width="32" height="32" viewBox="0 0 32 32" fill="none" xmlns="http://www.w3.org/2000/svg">
<path d="M14.4022 1C12.0828 1 10.1735 2.90356 10.1735 5.22301V7.65652H8.1902C5.78863 7.65652 3.96436 9.66028 3.81711 11.9403L2.87486 26.53C2.71302 29.0358 4.84636 30.9999 7.24795 30.9999C13.2904 31.0001 18.9209 30.9999 24.7517 30.9999C27.1533 30.9999 29.2866 29.0358 29.1248 26.53L28.1826 11.9403C28.0353 9.66028 26.211 7.65652 23.8095 7.65652H21.8262V5.22301C21.8262 2.90356 19.9169 1 17.5975 1H14.4022ZM14.4022 3.61398H17.5975C18.5111 3.61398 19.2065 4.30935 19.2065 5.22301V7.65652H12.7951V5.22301C12.7951 4.30935 13.4886 3.61398 14.4022 3.61398ZM8.1902 10.5744H10.1735V13.1523C9.77008 13.5202 9.53984 14.0407 9.53898 14.5866C9.53898 15.6609 10.4099 16.5319 11.4843 16.5319C12.5586 16.5319 13.4295 15.6609 13.4295 14.5866C13.4287 14.0407 13.1984 13.5202 12.7951 13.1523V10.5744H19.2065V13.1485C18.8014 13.517 18.5704 14.039 18.5701 14.5866C18.5701 15.6609 19.441 16.5319 20.5154 16.5319C21.5897 16.5319 22.4607 15.6609 22.4607 14.5866C22.4598 14.0407 22.2296 13.5202 21.8262 13.1523V10.5744H23.8095C24.641 10.5744 25.2092 11.1801 25.2703 12.1265L26.2126 26.7161C26.2591 27.4366 25.5832 28.082 24.7517 28.082C18.9209 28.082 13.2903 28.0822 7.24795 28.082C6.41648 28.082 5.74056 27.4366 5.78709 26.7161L6.72934 12.1265C6.79045 11.1801 7.3587 10.5744 8.1902 10.5744Z" fill="white"/>
</svg>
