<svg width="32" height="32" viewBox="0 0 32 32" fill="none" xmlns="http://www.w3.org/2000/svg">
<path d="M5.71449 2.54297H26.2325C27.9901 2.54297 29.405 3.95794 29.405 5.71551V26.2345C29.405 27.9921 27.9901 29.407 26.2325 29.407H5.71449C3.95693 29.407 2.54199 27.9921 2.54199 26.2345V5.71551C2.54199 3.95794 3.95693 2.54297 5.71449 2.54297Z" fill="#5DB5A5"/>
<path d="M2.54785 12.6362V26.275C2.54785 28.0354 3.96501 29.4525 5.72534 29.4525H26.2756C28.0359 29.4525 29.4531 28.0354 29.4531 26.275V22.0115C21.1807 25.4216 5.87341 21.2304 2.54785 12.6362Z" fill="#5DB5A5"/>
<path d="M7.30957 2.54785V9.36829C7.30957 12.0785 8.714 13.7973 11.4242 13.7973C12.218 13.7973 14.13 13.1209 14.13 10.5723C12.0895 10.5723 11.8793 8.87476 11.8793 7.39477V2.54785H7.30957ZM20.2533 2.54785V6.29216H24.1983C25.0602 6.29216 25.7084 6.94038 25.7084 7.8023V29.4531H26.2752C28.0356 29.4531 29.4527 28.036 29.4527 26.2756V5.72534C29.4527 3.88066 27.9495 2.54785 26.2752 2.54785H20.2533Z" fill="#B56F5D"/>
<path d="M9.70903 19.9519C9.49472 19.9419 9.28061 19.9756 9.07966 20.0507C8.8787 20.1258 8.69507 20.2409 8.53988 20.3891C8.38468 20.5372 8.26115 20.7152 8.17675 20.9125C8.09234 21.1097 8.04883 21.3221 8.04883 21.5366C8.04883 21.7511 8.09234 21.9635 8.17675 22.1607C8.26115 22.358 8.38468 22.536 8.53988 22.6841C8.69507 22.8323 8.8787 22.9474 9.07966 23.0225C9.28061 23.0976 9.49472 23.1313 9.70903 23.1213H12.9331C13.1474 23.1313 13.3615 23.0976 13.5624 23.0225C13.7634 22.9474 13.947 22.8323 14.1022 22.6841C14.2574 22.536 14.3809 22.358 14.4653 22.1607C14.5497 21.9635 14.5933 21.7511 14.5933 21.5366C14.5933 21.3221 14.5497 21.1097 14.4653 20.9125C14.3809 20.7152 14.2574 20.5372 14.1022 20.3891C13.947 20.2409 13.7634 20.1258 13.5624 20.0507C13.3615 19.9756 13.1474 19.9419 12.9331 19.9519H9.70903Z" fill="white"/>
<path d="M10.9521 2.54736V8.35415C10.9521 10.1145 12.3693 11.5316 14.1296 11.5316H17.8698C19.6301 11.5316 21.0473 10.1145 21.0473 8.35415V2.54736H10.9521Z" fill="#D1DCFF"/>
<path d="M5.68349 1C3.11622 1 1 3.1162 1 5.68349V26.3165C1 28.8838 3.11622 31 5.68349 31H26.3165C28.8838 31 31 28.8838 31 26.3165V5.68349C31 3.1162 28.8838 1 26.3165 1H5.68349ZM5.68349 4.17336H9.4278V8.17625C9.4278 10.8864 11.6597 13.1183 14.3699 13.1183H17.6218C20.332 13.1183 22.5639 10.8864 22.5639 8.17625V4.17336H26.3165C27.1785 4.17336 27.8266 4.82158 27.8266 5.68349V26.3165C27.8266 27.1785 27.1785 27.8246 26.3165 27.8246C19.4388 27.8246 12.5612 27.8246 5.68349 27.8246C4.82154 27.8246 4.17542 27.1785 4.17542 26.3165V5.68349C4.17542 4.82158 4.82154 4.17336 5.68349 4.17336ZM12.6115 4.17336H19.3906V8.17625C19.3906 9.181 18.6267 9.94497 17.6218 9.94497H14.3699C13.3651 9.94497 12.6115 9.181 12.6115 8.17625V4.17336Z" fill="white"/>
</svg>
