<svg width="32" height="32" viewBox="0 0 32 32" fill="none" xmlns="http://www.w3.org/2000/svg">
<path d="M8.13701 9.10254H23.8145C25.4285 9.10254 26.6282 10.405 26.7278 12.0159L27.6291 26.5826C27.7288 28.1935 26.3298 29.4959 24.7158 29.4959H7.23574C5.62175 29.4959 4.22273 28.1935 4.3224 26.5826L5.22367 12.0159C5.32334 10.405 6.52302 9.10254 8.13701 9.10254Z" fill="#5DB5A5"/>
<path d="M5.01406 15.5234L4.32827 26.6233C4.22844 28.2368 5.62966 29.5413 7.2462 29.5413H24.7538C26.3703 29.5413 27.7715 28.2368 27.6717 26.6233L27.5501 24.6591C18.7094 28.0185 8.314 22.3979 5.01406 15.5234Z" fill="#5DB5A5"/>
<path d="M8.14852 9.11572C6.53199 9.11572 5.33042 10.4202 5.23059 12.0336L5.2002 12.52H8.2283V15.0979C7.82491 15.4657 7.59467 15.9862 7.59381 16.5321C7.59381 17.6065 8.46474 18.4774 9.53909 18.4774C10.6134 18.4774 11.4844 17.6065 11.4844 16.5321C11.4835 15.9862 11.2533 15.4657 10.8499 15.0979V9.11572H8.14852ZM14.5201 9.11572C13.4025 10.911 15.0134 12.5339 15.9999 12.52H17.2613V15.0941C16.8563 15.4625 16.6252 15.9846 16.6249 16.5321C16.6249 17.6065 17.4959 18.4774 18.5702 18.4774C19.6446 18.4774 20.5155 17.6065 20.5155 16.5321C20.5146 15.9862 20.2844 15.4657 19.881 15.0979V12.52H21.8643C22.6958 12.52 23.2712 13.1252 23.3252 14.072L24.2066 29.5412H24.7537C26.4551 29.5412 27.7718 28.167 27.6717 26.6233L26.7693 12.0336C26.6455 10.2575 25.3024 9.11572 23.8514 9.11572H14.5201Z" fill="#B56F5D"/>
<path d="M14.4022 1C12.0828 1 10.1735 2.90356 10.1735 5.22301V7.65652H8.1902C5.78863 7.65652 3.96436 9.66028 3.81711 11.9403L2.87486 26.53C2.71302 29.0358 4.84636 30.9999 7.24795 30.9999C13.2904 31.0001 18.9209 30.9999 24.7517 30.9999C27.1533 30.9999 29.2866 29.0358 29.1248 26.53L28.1826 11.9403C28.0353 9.66028 26.211 7.65652 23.8095 7.65652H21.8262V5.22301C21.8262 2.90356 19.9169 1 17.5975 1H14.4022ZM14.4022 3.61398H17.5975C18.5111 3.61398 19.2065 4.30935 19.2065 5.22301V7.65652H12.7951V5.22301C12.7951 4.30935 13.4886 3.61398 14.4022 3.61398ZM8.1902 10.5744H10.1735V13.1523C9.77008 13.5202 9.53984 14.0407 9.53898 14.5866C9.53898 15.6609 10.4099 16.5319 11.4843 16.5319C12.5586 16.5319 13.4295 15.6609 13.4295 14.5866C13.4287 14.0407 13.1984 13.5202 12.7951 13.1523V10.5744H19.2065V13.1485C18.8014 13.517 18.5704 14.039 18.5701 14.5866C18.5701 15.6609 19.441 16.5319 20.5154 16.5319C21.5897 16.5319 22.4607 15.6609 22.4607 14.5866C22.4598 14.0407 22.2296 13.5202 21.8262 13.1523V10.5744H23.8095C24.641 10.5744 25.2092 11.1801 25.2703 12.1265L26.2126 26.7161C26.2591 27.4366 25.5832 28.082 24.7517 28.082C18.9209 28.082 13.2903 28.0822 7.24795 28.082C6.41648 28.082 5.74056 27.4366 5.78709 26.7161L6.72934 12.1265C6.79045 11.1801 7.3587 10.5744 8.1902 10.5744Z" fill="white"/>
</svg>
