<svg width="32" height="32" viewBox="0 0 32 32" fill="none" xmlns="http://www.w3.org/2000/svg">
<path d="M10.169 1.12077C4.28795 2.02711 0.221057 7.56938 1.12734 13.4505C2.03363 19.3315 7.57786 23.3984 13.4589 22.4921C15.6397 22.1566 15.1364 18.8855 12.9557 19.221C8.8399 19.8552 5.02523 17.063 4.39098 12.9472C3.75672 8.83142 6.55646 5.01869 10.6723 4.38441C14.7881 3.7502 18.5952 6.54988 19.2294 10.6657C19.6004 13.0732 18.7889 15.361 17.2333 16.9902C16.4559 17.7676 16.707 18.766 17.331 19.39L19.5599 21.6453C18.2795 23.5103 18.4614 26.105 20.1139 27.7575L21.9523 29.6034C23.8144 31.4655 26.8822 31.4655 28.7443 29.6034L29.6025 28.7377C31.4646 26.8756 31.4646 23.8135 29.6025 21.9513L27.7641 20.113C26.1114 18.4603 23.476 18.3006 21.5955 19.6003L20.3881 18.3816C22.1181 16.1236 22.9573 13.1872 22.4912 10.1624C21.7087 4.86326 16.6211 0.181665 10.169 1.12077ZM24.3728 21.5758C24.8587 21.5758 25.3429 21.7666 25.7267 22.1504L27.565 23.9888C28.3326 24.7563 28.3325 25.9329 27.565 26.7003L26.6994 27.5585C25.9319 28.326 24.7629 28.326 23.9953 27.5585L22.157 25.7201C21.3894 24.9526 21.3895 23.7835 22.157 23.0161L23.017 22.1504C23.4007 21.7667 23.8869 21.5758 24.3728 21.5758Z" fill="white"/>
</svg>
