<svg width="32" height="32" viewBox="0 0 32 32" fill="none" xmlns="http://www.w3.org/2000/svg">
<path d="M23.9668 27.3739L25.4554 30.4084C25.6856 30.8779 26.1577 31.15 26.6479 31.15C26.8435 31.15 27.0421 31.1067 27.2292 31.0157L27.2292 31.0156C27.8873 30.6953 28.1607 29.9037 27.8388 29.2473L26.3445 26.2013L27.9084 25.7837C29.2131 25.47 29.5936 23.8103 28.5469 22.9715L28.4531 23.0886L28.5469 22.9715L22.7564 18.3315C22.4368 18.0754 22.0693 17.9592 21.7096 17.9592C20.848 17.9592 20.0265 18.6307 20.0265 19.6209V27.3125C20.0265 28.2808 20.8291 28.9232 21.6602 28.9232C22.043 28.9232 22.4335 28.7879 22.7577 28.4889L22.656 28.3787L22.7577 28.4889L23.9668 27.3739ZM25.0625 23.829L25.0624 23.8286L25.0526 23.8334L22.9961 24.8231C22.9958 24.8232 22.9956 24.8233 22.9954 24.8234C22.8857 24.8752 22.7801 24.9348 22.6794 25.0018V21.6623L25.2774 23.7441L25.0625 23.829ZM18.7323 15.0038C18.7323 15.7344 19.3268 16.3256 20.0588 16.3256C20.7909 16.3256 21.3853 15.7344 21.3853 15.0038V12.9547C21.8492 12.6069 22.15 12.0535 22.15 11.4296C22.15 10.3754 21.2923 9.52179 20.2353 9.52179C19.4174 9.52179 18.7192 10.0329 18.445 10.7522H11.5642C11.2617 10.0955 10.5964 9.63898 9.82352 9.63898C8.76658 9.63898 7.90882 10.4926 7.90882 11.5468C7.90882 12.3175 8.3675 12.9803 9.02646 13.2813V19.4543C8.33601 19.742 7.84999 20.4212 7.84999 21.2146C7.84999 22.2689 8.70776 23.1224 9.7647 23.1224C10.5603 23.1224 11.2422 22.6388 11.5313 21.9506H16.647C17.3791 21.9506 17.9735 21.3593 17.9735 20.6287C17.9735 19.8981 17.3791 19.3069 16.647 19.3069H11.6794V13.396H18.7323V15.0038ZM17.2353 28.506H7.70588C6.49075 28.506 5.50294 27.5212 5.50294 26.3123V5.68745C5.50294 4.47852 6.49075 3.49373 7.70588 3.49373H22.1699C23.385 3.49373 24.3729 4.47852 24.3729 5.68745V16.3221C24.3729 17.0527 24.9673 17.644 25.6993 17.644C26.4314 17.644 27.0258 17.0527 27.0258 16.3221V5.68745C27.0258 3.0194 24.847 0.85 22.1699 0.85H7.70588C5.02877 0.85 2.85 3.0194 2.85 5.68745V26.3123C2.85 28.9803 5.02877 31.1497 7.70588 31.1497H17.2353C17.9673 31.1497 18.5617 30.5585 18.5617 29.8278C18.5617 29.0972 17.9673 28.506 17.2353 28.506Z" fill="white" stroke="white" stroke-width="0.3"/>
</svg>
