<svg width="32" height="32" viewBox="0 0 32 32" fill="none" xmlns="http://www.w3.org/2000/svg">
<g clip-path="url(#clip0_2000_5752)">
<path d="M23.9997 0H15.9997C14.2322 0.00208193 12.5377 0.70513 11.2879 1.95492C10.0381 3.20471 9.33509 4.8992 9.33301 6.66667V14.6667H7.99967C6.2322 14.6687 4.53772 15.3718 3.28793 16.6216C2.03814 17.8714 1.33509 19.5659 1.33301 21.3333V25.3333C1.33509 27.1008 2.03814 28.7953 3.28793 30.0451C4.53772 31.2949 6.2322 31.9979 7.99967 32H23.9997C25.7671 31.9979 27.4616 31.2949 28.7114 30.0451C29.9612 28.7953 30.6643 27.1008 30.6663 25.3333V6.66667C30.6643 4.8992 29.9612 3.20471 28.7114 1.95492C27.4616 0.70513 25.7671 0.00208193 23.9997 0V0ZM9.33301 28C9.33269 28.3535 9.19211 28.6925 8.94213 28.9425C8.69215 29.1924 8.3532 29.333 7.99967 29.3333C6.93917 29.3322 5.92243 28.9104 5.17253 28.1605C4.42264 27.4106 4.00084 26.3938 3.99967 25.3333V21.3333C4.00084 20.2728 4.42264 19.2561 5.17253 18.5062C5.92243 17.7563 6.93917 17.3345 7.99967 17.3333H9.33301V28ZM27.9997 25.3333C27.9985 26.3938 27.5767 27.4106 26.8268 28.1605C26.0769 28.9104 25.0602 29.3322 23.9997 29.3333H11.7718C11.9229 28.905 12 28.4542 11.9997 28V6.66667C12.0008 5.60616 12.4226 4.58942 13.1725 3.83953C13.9224 3.08963 14.9392 2.66783 15.9997 2.66667H23.9997C25.0602 2.66783 26.0769 3.08963 26.8268 3.83953C27.5767 4.58942 27.9985 5.60616 27.9997 6.66667V25.3333Z" fill="white"/>
<path d="M23.333 5.3335H16.6663C15.7823 5.3335 14.9344 5.68469 14.3093 6.30981C13.6842 6.93493 13.333 7.78277 13.333 8.66683C13.333 9.55088 13.6842 10.3987 14.3093 11.0239C14.9344 11.649 15.7823 12.0002 16.6663 12.0002H23.333C24.2171 12.0002 25.0649 11.649 25.69 11.0239C26.3152 10.3987 26.6663 9.55088 26.6663 8.66683C26.6663 7.78277 26.3152 6.93493 25.69 6.30981C25.0649 5.68469 24.2171 5.3335 23.333 5.3335ZM23.333 9.3335H16.6663C16.4895 9.3335 16.32 9.26326 16.1949 9.13823C16.0699 9.01321 15.9997 8.84364 15.9997 8.66683C15.9997 8.49002 16.0699 8.32045 16.1949 8.19542C16.32 8.0704 16.4895 8.00016 16.6663 8.00016H23.333C23.5098 8.00016 23.6794 8.0704 23.8044 8.19542C23.9294 8.32045 23.9997 8.49002 23.9997 8.66683C23.9997 8.84364 23.9294 9.01321 23.8044 9.13823C23.6794 9.26326 23.5098 9.3335 23.333 9.3335Z" fill="white"/>
<path d="M25.333 14.6665H14.6663C14.3127 14.6665 13.9736 14.807 13.7235 15.057C13.4735 15.3071 13.333 15.6462 13.333 15.9998C13.333 16.3535 13.4735 16.6926 13.7235 16.9426C13.9736 17.1927 14.3127 17.3332 14.6663 17.3332H25.333C25.6866 17.3332 26.0258 17.1927 26.2758 16.9426C26.5259 16.6926 26.6663 16.3535 26.6663 15.9998C26.6663 15.6462 26.5259 15.3071 26.2758 15.057C26.0258 14.807 25.6866 14.6665 25.333 14.6665ZM25.333 19.9998H14.6663C14.3127 19.9998 13.9736 20.1403 13.7235 20.3904C13.4735 20.6404 13.333 20.9795 13.333 21.3332C13.333 21.6868 13.4735 22.0259 13.7235 22.276C13.9736 22.526 14.3127 22.6665 14.6663 22.6665H25.333C25.6866 22.6665 26.0258 22.526 26.2758 22.276C26.5259 22.0259 26.6663 21.6868 26.6663 21.3332C26.6663 20.9795 26.5259 20.6404 26.2758 20.3904C26.0258 20.1403 25.6866 19.9998 25.333 19.9998Z" fill="white"/>
</g>
<defs>
<clipPath id="clip0_2000_5752">
<rect width="32" height="32" fill="white"/>
</clipPath>
</defs>
</svg>
