<svg width="32" height="32" viewBox="0 0 32 32" fill="none" xmlns="http://www.w3.org/2000/svg">
<path d="M6.99984 3.9458C4.78393 3.9458 3 5.33129 3 7.54721V24.0551C3 26.271 4.78393 28.055 6.99984 28.055H24.9991C27.215 28.055 28.999 26.271 28.999 24.0551V11.1389C28.999 8.92301 27.215 7.13903 24.9991 7.13903H14.7378C13.9335 5.29938 12.9794 3.9458 10.9157 3.9458H6.99984Z" fill="#5DB5A5"/>
<path d="M6.99984 13.916H24.9991C27.215 13.916 28.999 15.6999 28.999 17.9158V24.0554C28.999 26.2714 27.215 28.0554 24.9991 28.0554H6.99984C4.78393 28.0554 3 26.2714 3 24.0554V17.9158C3 15.6999 4.78393 13.916 6.99984 13.916Z" fill="#5DB5A5"/>
<path d="M14.4951 13.9199C15.7777 20.2077 21.0343 23.1607 28.9985 19.7341V17.9197C28.9985 15.7038 27.2145 13.9199 24.9986 13.9199H14.4951Z" fill="#B56F5D"/>
<path d="M7.00844 2.44727C3.72758 2.44727 1.5 4.73382 1.5 7.5547V8.36845C1.5 10.3754 4.51047 10.3754 4.51047 8.36845V7.5547C4.51047 5.95638 5.9011 5.45578 7.00844 5.45578H10.9344C12.3847 5.45578 12.8895 6.62655 13.3815 7.74836C13.6212 8.298 14.1648 8.65246 14.7645 8.65013H25.04C26.4531 8.65013 27.5399 9.74279 27.5399 11.1559V13.0436C26.788 12.6566 25.9385 12.4352 25.04 12.4352H7.00844C3.98275 12.4352 1.5 14.9179 1.5 17.9437V24.0937C1.5 27.1194 3.98275 29.6022 7.00844 29.6022H25.04C28.0657 29.6022 30.5484 27.1194 30.5484 24.0937C30.5254 19.7219 30.5484 15.5158 30.5484 11.1559C30.5484 8.13024 28.0657 5.64748 25.04 5.64748H15.5626C14.6578 3.56903 13.1102 2.44727 10.9344 2.44727H7.00844ZM7.00844 15.4438H25.04C26.4531 15.4438 27.5399 16.5305 27.5399 17.9437V24.0937C27.5399 25.5068 26.4531 26.5937 25.04 26.5937H7.00844C5.59534 26.5937 4.51047 25.5068 4.51047 24.0937V17.9437C4.51047 16.5305 5.59534 15.4438 7.00844 15.4438Z" fill="white"/>
</svg>
