<svg width="162" height="42" viewBox="0 0 162 42" fill="none" xmlns="http://www.w3.org/2000/svg">
<path d="M21.0346 40.9306C32.0612 40.9306 40.9999 31.9918 40.9999 20.9653C40.9999 9.93877 32.0612 1 21.0346 1C10.0081 1 1.06934 9.93877 1.06934 20.9653C1.06934 31.9918 10.0081 40.9306 21.0346 40.9306Z" stroke="#346751" stroke-width="1.77" stroke-miterlimit="10"/>
<path d="M23.4831 33.5331C21.4684 34.1642 19.6466 34.8018 18.0439 35.4047C12.0799 34.0883 7.58851 33.4529 5.26797 33.2512C5.14653 33.0582 4.98387 32.8478 4.8711 32.6483C4.30506 31.642 3.53733 30.6964 3.29443 29.6121C10.1342 30.2684 16.8949 31.5815 23.4831 33.5331V33.5331Z" fill="#346751"/>
<path d="M6.28516 34.2444C8.46906 34.5025 11.4901 34.9362 15.0511 35.6454C12.7349 36.6495 11.1843 37.4324 10.5489 37.7642C8.96631 36.8013 7.53039 35.6159 6.28516 34.2444V34.2444Z" fill="#346751"/>
<path d="M20.8916 40.7614C19.408 40.8641 17.9174 40.7752 16.4565 40.4968C20.627 38.3823 28.1677 34.8798 36.5888 33.4854C31.2841 40.3125 21.7179 40.9306 20.8916 40.7614Z" fill="#346751"/>
<path d="M38.2175 31.4922C38.083 31.8197 37.5538 32.2274 37.4042 32.5376C26.1897 34.1966 19.7768 37.7186 15.5586 40.243C14.3593 39.8093 12.8369 39.2801 11.6094 38.5211C14.7779 36.4608 24.6825 30.7657 39.1522 29.677C38.9852 30.3558 38.4842 30.8459 38.2175 31.4922Z" fill="#346751"/>
<path d="M21.8913 26.5693H20.178L19.6943 33.5266H22.3749L21.8913 26.5693Z" fill="#346751"/>
<path d="M22.3749 33.5266H21.0347V26.5693H21.9022L21.9542 27.2915L22.3749 33.5266Z" fill="#346751"/>
<path d="M21.0344 24.7476C13.6781 22.3403 9.77441 28.9267 9.77441 28.9267C9.77441 28.9267 16.157 32.0367 21.0344 26.6279C25.9119 32.0345 32.288 28.9245 32.288 28.9245C32.288 28.9245 28.3843 22.3381 21.0344 24.7476Z" fill="#346751"/>
<path d="M32.2883 28.9246C32.2883 28.9246 26.6605 31.6658 21.937 27.5214C21.616 27.2418 21.3125 26.9427 21.0283 26.6257V24.7476C21.7011 24.5229 22.3951 24.3674 23.0995 24.2835C29.122 23.57 32.2883 28.9246 32.2883 28.9246Z" fill="#346751"/>
<path d="M6.21387 21.1648C6.21387 21.1648 11.074 28.7857 21.0675 26.63L21.5489 25.4329C15.3724 18.0657 6.21387 21.1648 6.21387 21.1648Z" fill="#346751"/>
<path d="M35.8557 21.1648C35.8557 21.1648 31.0065 28.7705 21.0347 26.6386V24.8516C27.1873 18.2413 35.8557 21.1648 35.8557 21.1648Z" fill="#346751"/>
<path d="M8.82249 12.6721C8.82249 12.6721 8.61863 23.3618 20.4035 26.0293L21.7177 24.9753C20.397 13.904 8.82249 12.6721 8.82249 12.6721Z" fill="#346751"/>
<path d="M33.2469 12.6721C33.2469 12.6721 33.4508 23.3618 21.6659 26.0293L20.3604 24.9753C21.6724 13.904 33.2469 12.6721 33.2469 12.6721Z" fill="#346751"/>
<path d="M21.0346 5.18774C21.0346 5.18774 12.3597 15.0858 20.0652 26.0314H22.0041C29.7074 15.0858 21.0346 5.18774 21.0346 5.18774Z" fill="#346751"/>
<path d="M60.584 25.14C59.9773 25.14 59.4033 25.0933 58.862 25C58.3207 24.8973 57.8587 24.7573 57.476 24.58V22.41C57.896 22.606 58.3627 22.7647 58.876 22.886C59.3893 23.0073 59.87 23.068 60.318 23.068C60.7847 23.068 61.1347 23.0307 61.368 22.956C61.6107 22.872 61.732 22.69 61.732 22.41C61.732 22.214 61.662 22.06 61.522 21.948C61.3913 21.836 61.1813 21.7333 60.892 21.64C60.612 21.5467 60.2433 21.43 59.786 21.29C59.1793 21.094 58.6987 20.8793 58.344 20.646C57.9893 20.4127 57.7327 20.128 57.574 19.792C57.4247 19.456 57.35 19.0453 57.35 18.56C57.35 17.6733 57.6627 17.0013 58.288 16.544C58.9227 16.0773 59.8607 15.844 61.102 15.844C61.5967 15.844 62.1053 15.886 62.628 15.97C63.16 16.054 63.5893 16.1473 63.916 16.25V18.434C63.4773 18.2567 63.0573 18.1307 62.656 18.056C62.2547 17.9813 61.8767 17.944 61.522 17.944C61.1113 17.944 60.7613 17.9767 60.472 18.042C60.1827 18.1073 60.038 18.2753 60.038 18.546C60.038 18.7793 60.1593 18.952 60.402 19.064C60.654 19.1667 61.0973 19.302 61.732 19.47C62.4693 19.666 63.0293 19.904 63.412 20.184C63.804 20.464 64.07 20.7907 64.21 21.164C64.35 21.528 64.42 21.9433 64.42 22.41C64.42 23.2313 64.1027 23.894 63.468 24.398C62.8333 24.8927 61.872 25.14 60.584 25.14ZM65.3956 25V15.984H68.0276V25H65.3956ZM69.0121 25L72.4701 15.984H75.2561L78.7141 25H75.9701L75.2141 23.082H72.4981L71.7561 25H69.0121ZM72.8481 21.192H74.8641L73.8561 18.546L72.8481 21.192ZM79.6964 25V15.984H82.2584L84.4984 20.562L86.7244 15.984H89.2724V25H86.6404V20.492L85.1984 23.46H83.7844L82.3284 20.492V25H79.6964ZM98.1553 25.14C96.522 25.14 95.276 24.7387 94.4173 23.936C93.5586 23.1333 93.1293 21.9993 93.1293 20.534C93.1293 19.022 93.5493 17.8647 94.3893 17.062C95.2293 16.25 96.48 15.844 98.1413 15.844C98.7013 15.844 99.2006 15.886 99.6393 15.97C100.078 16.054 100.498 16.1707 100.899 16.32V18.616C100.097 18.2613 99.238 18.084 98.3233 18.084C97.474 18.084 96.844 18.28 96.4333 18.672C96.0226 19.0547 95.8173 19.6753 95.8173 20.534C95.8173 21.374 96.032 21.9807 96.4613 22.354C96.9 22.718 97.53 22.9 98.3513 22.9C98.7993 22.9 99.2333 22.858 99.6533 22.774C100.083 22.69 100.507 22.5593 100.927 22.382V24.692C100.526 24.832 100.101 24.9393 99.6533 25.014C99.2146 25.098 98.7153 25.14 98.1553 25.14ZM101.36 25L104.818 15.984H107.604L111.062 25H108.318L107.562 23.082H104.846L104.104 25H101.36ZM105.196 21.192H107.212L106.204 18.546L105.196 21.192ZM112.044 25V15.984H114.284L117.686 20.758V15.984H120.318V25H118.064L114.676 20.24V25H112.044ZM121.573 25V15.984H123.813L127.215 20.758V15.984H129.847V25H127.593L124.205 20.24V25H121.573ZM130.823 25L134.281 15.984H137.067L140.525 25H137.781L137.025 23.082H134.309L133.567 25H130.823ZM134.659 21.192H136.675L135.667 18.546L134.659 21.192ZM141.507 25V15.984H146.463C147.378 15.984 148.073 16.1987 148.549 16.628C149.025 17.0573 149.263 17.6733 149.263 18.476C149.263 18.9427 149.174 19.3347 148.997 19.652C148.829 19.9693 148.605 20.2213 148.325 20.408C148.708 20.5573 149.011 20.7767 149.235 21.066C149.468 21.346 149.585 21.766 149.585 22.326C149.585 23.1753 149.324 23.8333 148.801 24.3C148.278 24.7667 147.536 25 146.575 25H141.507ZM144.041 19.582H145.749C146.393 19.582 146.715 19.2927 146.715 18.714C146.715 18.4247 146.636 18.2053 146.477 18.056C146.328 17.9067 146.062 17.832 145.679 17.832H144.041V19.582ZM144.041 23.166H145.861C146.216 23.166 146.477 23.0913 146.645 22.942C146.813 22.7927 146.897 22.5453 146.897 22.2C146.897 21.9107 146.813 21.6913 146.645 21.542C146.477 21.3927 146.197 21.318 145.805 21.318H144.041V23.166ZM150.571 25V15.984H153.203V25H150.571ZM157.422 25.14C156.815 25.14 156.241 25.0933 155.7 25C155.159 24.8973 154.697 24.7573 154.314 24.58V22.41C154.734 22.606 155.201 22.7647 155.714 22.886C156.227 23.0073 156.708 23.068 157.156 23.068C157.623 23.068 157.973 23.0307 158.206 22.956C158.449 22.872 158.57 22.69 158.57 22.41C158.57 22.214 158.5 22.06 158.36 21.948C158.229 21.836 158.019 21.7333 157.73 21.64C157.45 21.5467 157.081 21.43 156.624 21.29C156.017 21.094 155.537 20.8793 155.182 20.646C154.827 20.4127 154.571 20.128 154.412 19.792C154.263 19.456 154.188 19.0453 154.188 18.56C154.188 17.6733 154.501 17.0013 155.126 16.544C155.761 16.0773 156.699 15.844 157.94 15.844C158.435 15.844 158.943 15.886 159.466 15.97C159.998 16.054 160.427 16.1473 160.754 16.25V18.434C160.315 18.2567 159.895 18.1307 159.494 18.056C159.093 17.9813 158.715 17.944 158.36 17.944C157.949 17.944 157.599 17.9767 157.31 18.042C157.021 18.1073 156.876 18.2753 156.876 18.546C156.876 18.7793 156.997 18.952 157.24 19.064C157.492 19.1667 157.935 19.302 158.57 19.47C159.307 19.666 159.867 19.904 160.25 20.184C160.642 20.464 160.908 20.7907 161.048 21.164C161.188 21.528 161.258 21.9433 161.258 22.41C161.258 23.2313 160.941 23.894 160.306 24.398C159.671 24.8927 158.71 25.14 157.422 25.14Z" fill="#010002"/>
</svg>
