<svg width="59" height="59" viewBox="0 0 59 59" fill="none" xmlns="http://www.w3.org/2000/svg">
<path d="M58.2845 29.1423C58.2845 45.2373 45.2373 58.2845 29.1423 58.2845C13.0472 58.2845 0 45.2373 0 29.1423C0 13.0472 13.0472 0 29.1423 0C45.2373 0 58.2845 13.0472 58.2845 29.1423Z" fill="#57545C"/>
<path d="M58.2845 29.1423C58.2845 27.6842 58.176 26.2519 57.9693 24.8512L48.9663 15.8482C48.9663 15.8482 46.7759 16.8332 43.2963 18.1757L29.1423 3.69971C29.1423 3.69971 28.9591 9.39245 26.9669 15.1674C26.1345 17.5803 22.481 18.3398 22.401 21.3716C16.429 16.6051 9.19189 22.5108 13.6466 28.61C8.73965 28.4001 5.92841 30.9592 7.6333 32.6183L14.1914 39.1306C12.2544 40.9111 10.863 42.2313 10.863 42.2313L26.8246 58.1929C27.589 58.253 28.3619 58.2845 29.1423 58.2845C45.2373 58.2845 58.2845 45.2373 58.2845 29.1423Z" fill="#3A383F"/>
<path d="M30.5331 38.4072H27.7512L26.9668 53.3136H31.3175L30.5331 38.4072Z" fill="#00CA76"/>
<path d="M31.3176 53.3141H29.1422V38.4072H30.5332L30.6154 39.9543L31.3176 53.3141Z" fill="#00CA76"/>
<path d="M29.1422 35.4453C17.2013 31.5397 10.8629 42.2315 10.8629 42.2315C10.8629 42.2315 21.2247 47.2773 29.1422 38.4994C37.0596 47.2773 47.4215 42.2315 47.4215 42.2315C47.4215 42.2315 41.0831 31.5397 29.1422 35.4453Z" fill="#00CA76"/>
<path d="M47.4211 42.2307C47.4211 42.2307 38.2843 46.6805 30.6154 39.9539C30.1165 39.5181 29.6247 39.0343 29.1422 38.4989V35.4449C30.317 35.0603 31.4372 34.8175 32.5026 34.6925C42.2686 33.5395 47.4211 42.2307 47.4211 42.2307Z" fill="#00A863"/>
<path d="M5.08313 29.6357C5.08313 29.6357 12.9739 42.007 29.1961 38.5074L29.9761 36.5641C19.9602 24.605 5.08313 29.6357 5.08313 29.6357Z" fill="#00EC88"/>
<path d="M53.2018 29.6359C53.2018 29.6359 45.3275 41.9792 29.1422 38.5187V35.6194C39.1278 24.8765 53.2018 29.6359 53.2018 29.6359Z" fill="#00CA76"/>
<path d="M9.31812 15.8481C9.31812 15.8481 8.98817 33.2007 28.1168 37.5323L30.2517 35.8181C28.107 17.8474 9.31812 15.8481 9.31812 15.8481Z" fill="#00CA76"/>
<path d="M48.9664 15.8481C48.9664 15.8481 49.2963 33.2007 30.1677 37.5323L28.0328 35.8181C30.1771 17.8474 48.9664 15.8481 48.9664 15.8481Z" fill="#00A863"/>
<path d="M29.1422 3.69971C29.1422 3.69971 15.0629 19.7658 27.5698 37.5329H30.7141C43.2215 19.7658 29.1422 3.69971 29.1422 3.69971Z" fill="#00EC88"/>
<path d="M32.5026 34.6927C31.9792 35.6327 31.3847 36.5812 30.7141 37.5328H29.1422V3.69922C29.1422 3.69922 41.7532 18.0894 32.5026 34.6927Z" fill="#00CA76"/>
</svg>
