<svg width="209" height="35" viewBox="0 0 209 35" fill="none" xmlns="http://www.w3.org/2000/svg">
<path d="M25.9248 25.9016L9.54667 4.17318H22.6575L19.593 0.0961914H6.47256H0L25.9248 34.5999L35.7517 21.5985L32.4832 17.2559L25.9248 25.9016Z" fill="#00FCB2"/>
<path d="M24.3926 0.0961914L38.139 18.3374L41.4051 13.9912L30.9248 0.0961914H24.3926Z" fill="#00FCB2"/>
<path d="M42.14 0.0961914H36.1099L43.999 10.5387L47.0004 6.54545L42.14 0.0961914Z" fill="#00FCB2"/>
<path d="M182.778 0.133789C185.731 0.133789 188.571 0.133789 191.55 0.133789C197.338 7.68565 203.145 15.2513 209 22.8907C206.025 22.8907 203.203 22.8907 200.242 22.8907C195.946 17.3004 191.622 11.6688 187.178 5.88517C184.874 8.81382 182.765 11.6273 180.605 14.4317C178.437 17.2498 176.282 20.0679 174.109 22.9045C171.22 22.9045 168.384 22.9045 165.549 22.9045C165.531 22.8907 165.508 22.8722 165.495 22.8584C165.477 22.84 165.45 22.817 165.459 22.8032C165.495 22.7249 165.531 22.642 165.59 22.5637C171.31 15.0948 177.031 7.63499 182.778 0.133789Z" fill="white"/>
<path d="M80.8683 0.142952C83.821 0.142952 86.6204 0.142952 89.6181 0.142952C83.7894 7.78229 77.9698 15.3433 72.1727 22.9044C69.2065 22.9044 66.3305 22.9044 63.3913 22.9044C57.5897 15.3387 51.7971 7.7869 46 0.225838C46.8745 0.0922995 53.0187 0.0554599 54.7453 0.17058C59.0413 5.7746 63.3598 11.4063 67.782 17.1761C72.2132 11.4063 76.5363 5.77921 80.8683 0.142952Z" fill="white"/>
<path d="M141.792 18.35C147.062 18.35 152.146 18.35 157.303 18.35C157.303 19.8926 157.303 21.3661 157.303 22.9363C149.491 22.9363 141.706 22.9363 133.948 22.9363C133.687 22.4344 133.642 0.856388 133.885 0.151855C136.477 0.151855 139.083 0.151855 141.792 0.151855C141.792 6.19794 141.792 12.2164 141.792 18.35Z" fill="white"/>
<path d="M123.206 0.165896C123.206 1.67166 123.206 3.1498 123.206 4.66477C114.443 4.66477 105.738 4.66477 96.957 4.66477C96.957 3.15901 96.957 1.68548 96.957 0.216549C97.791 0.0922201 121.182 0.0461719 123.206 0.165896Z" fill="white"/>
<path d="M96.9521 22.8906C96.9521 21.3665 96.9521 19.8929 96.9521 18.3826C105.724 18.3826 114.429 18.3826 123.197 18.3826C123.197 19.8883 123.197 21.3665 123.197 22.8906C114.474 22.8906 105.774 22.8906 96.9521 22.8906Z" fill="white"/>
<path d="M123.193 13.7822C114.402 13.7822 105.72 13.7822 96.957 13.7822C96.957 12.2856 96.957 10.8121 96.957 9.29248C105.702 9.29248 114.407 9.29248 123.193 9.29248C123.193 10.7798 123.193 12.2534 123.193 13.7822Z" fill="white"/>
</svg>
