<?xml version="1.0" encoding="utf-8"?>
<!-- Generator: Adobe Illustrator 25.4.1, SVG Export Plug-In . SVG Version: 6.00 Build 0)  -->
<svg version="1.1" id="Layer_1" xmlns="http://www.w3.org/2000/svg" xmlns:xlink="http://www.w3.org/1999/xlink" x="0px" y="0px"
	 viewBox="0 0 256 256" style="enable-background:new 0 0 256 256;" xml:space="preserve">
<style type="text/css">
	.st0{fill:#97AF3B;}
	.st1{fill:#8AA13C;}
	.st2{fill:#718336;}
	.st3{fill:#778B38;}
	.st4{fill:#4A642E;}
	.st5{fill:#C1D962;}
</style>
<g>
	<rect class="st0" width="256" height="256"/>
	<path class="st1" d="M13.85,104.03l6.55,21.6c1.08,3.57,4.37,6,8.09,6h34.43c3.29,0,6.28-1.91,7.67-4.89l7.64-16.44
		c1.33-2.87,4.16-4.75,7.32-4.88l7.7-0.32c5.63-0.23,9.46-5.81,7.66-11.15l-1.76-5.23c-1.16-3.44-4.38-5.76-8.01-5.76H34.25
		c-1.96,0-3.87,0.68-5.38,1.93L16.56,95.05C13.93,97.22,12.86,100.76,13.85,104.03z"/>
	<path class="st1" d="M87.67,235l19.35-0.61c14.15-0.44,14.77-11.06,10.25-21.23l-4.42-9.95c-2.91-6.55-6.01-10.96-15.13-10.96H0
		V256h71.12l7.17-11.7C81.64,238.84,79.73,235.25,87.67,235z"/>
	<path class="st1" d="M256,192.43h-32.35c-4.93,0-9.71,2.3-13.51,4.68l-30.92,19.33c-6.61,4.13-9.3,10.88-6.82,17.1l8.98,22.46H256
		V192.43z"/>
	<path class="st1" d="M256,0h-74.54l7.46,18.68c2.71,6.79,10.97,11.43,20.33,11.43l46.75-1V0z"/>
	<path class="st1" d="M58.99,19.61L71.01,0H0v28.92h39.73C47.99,28.92,55.51,25.29,58.99,19.61z"/>
	<g>
		<g>
			<path class="st2" d="M142.76,178.24c0,0.25,0.03,0.48,0.07,0.72c0.23,0.04,0.47,0.07,0.72,0.07c2.31,0,4.19-1.88,4.19-4.19
				c0-0.24-0.03-0.48-0.07-0.72c-0.23-0.04-0.47-0.07-0.72-0.07C144.64,174.05,142.76,175.92,142.76,178.24z"/>
			<path class="st2" d="M149.6,178.24c0,0.25,0.03,0.48,0.07,0.72c0.23,0.04,0.47,0.07,0.72,0.07c2.31,0,4.19-1.88,4.19-4.19
				c0-0.24-0.03-0.48-0.07-0.72c-0.23-0.04-0.47-0.07-0.72-0.07C151.48,174.05,149.6,175.92,149.6,178.24z"/>
			<path class="st2" d="M156.44,178.24c0,0.25,0.03,0.48,0.07,0.72c0.23,0.04,0.47,0.07,0.72,0.07c2.31,0,4.19-1.88,4.19-4.19
				c0-0.24-0.03-0.48-0.07-0.72c-0.23-0.04-0.47-0.07-0.72-0.07C158.32,174.05,156.44,175.92,156.44,178.24z"/>
			<path class="st2" d="M163.28,178.24c0,0.25,0.03,0.48,0.07,0.72c0.23,0.04,0.47,0.07,0.72,0.07c2.31,0,4.19-1.88,4.19-4.19
				c0-0.24-0.03-0.48-0.07-0.72c-0.23-0.04-0.47-0.07-0.72-0.07C165.16,174.05,163.28,175.92,163.28,178.24z"/>
		</g>
	</g>
	<path class="st3" d="M159.25,63.03h21.53c5.09,0,9.52,3.48,10.72,8.42l1.43,5.85c0.64,2.63,0.3,5.41-0.97,7.8l-5.27,9.94
		c-1.92,3.61-5.67,5.86-9.75,5.86h-23.98c-6.1,0-11.04-4.94-11.04-11.04v-9.94c0-3.07,1.28-5.99,3.52-8.08l6.29-5.85
		C153.77,64.09,156.46,63.03,159.25,63.03z"/>
	<g>
		<g>
			<path class="st0" d="M156.78,82.37c0,0.14,0.01,0.28,0.04,0.41c0.13,0.02,0.27,0.04,0.41,0.04c1.33,0,2.41-1.08,2.41-2.41
				c0-0.14-0.01-0.28-0.04-0.41c-0.13-0.02-0.27-0.04-0.41-0.04C157.86,79.96,156.78,81.04,156.78,82.37z"/>
			<path class="st0" d="M160.72,82.37c0,0.14,0.01,0.28,0.04,0.41c0.13,0.02,0.27,0.04,0.41,0.04c1.33,0,2.41-1.08,2.41-2.41
				c0-0.14-0.01-0.28-0.04-0.41c-0.13-0.02-0.27-0.04-0.41-0.04C161.8,79.96,160.72,81.04,160.72,82.37z"/>
			<path class="st0" d="M164.65,82.37c0,0.14,0.01,0.28,0.04,0.41c0.13,0.02,0.27,0.04,0.41,0.04c1.33,0,2.41-1.08,2.41-2.41
				c0-0.14-0.01-0.28-0.04-0.41c-0.13-0.02-0.27-0.04-0.41-0.04C165.73,79.96,164.65,81.04,164.65,82.37z"/>
			<path class="st0" d="M168.59,82.37c0,0.14,0.01,0.28,0.04,0.41c0.13,0.02,0.27,0.04,0.41,0.04c1.33,0,2.41-1.08,2.41-2.41
				c0-0.14-0.01-0.28-0.04-0.41c-0.13-0.02-0.27-0.04-0.41-0.04C169.67,79.96,168.59,81.04,168.59,82.37z"/>
		</g>
	</g>
	<g>
		<g>
			<path class="st4" d="M74.23,72.16c0,0-11.33-18.3-1.54-22.84c9.8-4.54,8.23,21,8.23,21s-0.38,0.98-2.47,1.55
				C76.36,72.45,74.23,72.16,74.23,72.16z"/>
			<path class="st4" d="M69.82,61.08c0,0-4.37-0.31-5.06-3.39c-0.69-3.08-4.73-0.07-1.43,3.36c3.3,3.42,6.69,0.82,6.69,0.82
				L69.82,61.08z"/>
			<path class="st4" d="M79.86,62.11c0,0,3.59-2.5,2.62-5.5c-0.98-3,4.03-2.48,2.95,2.15c-1.08,4.63-5.33,4.13-5.33,4.13
				L79.86,62.11z"/>
		</g>
	</g>
	<g>
		<g>
			<path class="st4" d="M50.87,219.93c0,0-4.28-15.31,3.6-16.52c7.88-1.21,1.52,16.59,1.52,16.59s-0.47,0.61-2.07,0.59
				C52.32,220.57,50.87,219.93,50.87,219.93z"/>
			<path class="st4" d="M50.01,211.16c0,0-3.04-1.12-2.9-3.44c0.14-2.33-3.34-1.02-1.71,2.09c1.64,3.11,4.58,1.96,4.58,1.96
				L50.01,211.16z"/>
			<path class="st4" d="M56.92,213.95c0,0,3.06-1.04,2.99-3.37c-0.08-2.33,3.37-0.93,1.65,2.13c-1.72,3.06-4.63,1.83-4.63,1.83
				L56.92,213.95z"/>
		</g>
	</g>
	<g>
		<g>
			<path class="st4" d="M185.64,140.99c0,0-0.84-21.62,9.98-20.74c10.82,0.88-3.22,22.45-3.22,22.45s-0.82,0.66-2.93,0.13
				C187.36,142.3,185.64,140.99,185.64,140.99z"/>
			<g>
				<path class="st4" d="M187.28,129.11c0,0-3.67-2.44-2.75-5.48c0.92-3.04-4.1-2.4-2.92,2.23c1.19,4.63,5.45,4.04,5.45,4.04
					L187.28,129.11z"/>
			</g>
			<path class="st4" d="M195.55,134.99c0,0,4.39-0.41,5.02-3.51c0.63-3.11,4.75-0.17,1.51,3.35c-3.24,3.51-6.71,0.96-6.71,0.96
				L195.55,134.99z"/>
		</g>
	</g>
	<g>
		<g>
			<path class="st5" d="M101.95,73.31c0,0,0.9,1.41,0.11,2.06c-0.79,0.65-1.47-1.17-1.47-1.17s-1.23,1.05-1.93,0.4
				c-0.7-0.65,0.75-1.57,0.75-1.57s-1.25-0.13-1.31-1.25c-0.06-1.12,1.71-0.36,1.71-0.36s-0.5-1.51,0.71-1.63
				c1.22-0.12,0.64,1.93,0.64,1.93s1.49-0.65,1.8,0.28C103.29,72.92,101.95,73.31,101.95,73.31z"/>
		</g>
		<g>
			<path class="st5" d="M95.19,75.75c0,0,1.42,1.47,0.61,2.25c-0.81,0.78-1.9-1.08-1.9-1.08s-0.52,2.04-1.7,1.6
				c-1.18-0.44,0.31-2.69,0.31-2.69s-2.26-0.24-1.78-1.4c0.48-1.15,2.31-0.3,2.31-0.3s-0.08-1.57,0.87-1.6
				c0.95-0.03,0.92,1.48,0.92,1.48s1.55-0.88,2.13,0.28S95.19,75.75,95.19,75.75z"/>
		</g>
		<g>
			<path class="st5" d="M97.94,67.63c0,0,1.22,0.01,1.15,0.97c-0.07,0.96-1.84,0.53-1.84,0.53s0.1,1.55-0.84,1.55
				c-0.95,0-0.68-1.69-0.68-1.69s-1.4,0.62-1.84-0.17c-0.44-0.79,1.31-1.26,1.31-1.26s-0.95-1.37-0.25-1.65
				c0.71-0.28,1.52,1.29,1.52,1.29s0.88-1.58,1.71-1.1C99.02,66.6,97.94,67.63,97.94,67.63z"/>
		</g>
	</g>
	<g>
		<g>
			<path class="st5" d="M180.35,164.04c0,0,0.9,1.41,0.11,2.06c-0.79,0.65-1.47-1.17-1.47-1.17s-1.23,1.05-1.93,0.4
				c-0.7-0.65,0.75-1.57,0.75-1.57s-1.25-0.13-1.31-1.25c-0.06-1.12,1.71-0.36,1.71-0.36s-0.5-1.51,0.71-1.63
				c1.22-0.12,0.64,1.93,0.64,1.93s1.49-0.65,1.8,0.28C181.68,163.64,180.35,164.04,180.35,164.04z"/>
		</g>
		<g>
			<path class="st5" d="M173.58,166.48c0,0,1.42,1.47,0.61,2.25c-0.81,0.78-1.9-1.08-1.9-1.08s-0.52,2.04-1.7,1.6
				c-1.18-0.44,0.31-2.69,0.31-2.69s-2.26-0.24-1.78-1.4s2.31-0.3,2.31-0.3s-0.08-1.57,0.87-1.6c0.95-0.03,0.92,1.48,0.92,1.48
				s1.55-0.88,2.13,0.28C175.93,166.18,173.58,166.48,173.58,166.48z"/>
		</g>
		<g>
			<path class="st5" d="M176.34,158.36c0,0,1.22,0.01,1.15,0.97c-0.07,0.96-1.84,0.53-1.84,0.53s0.1,1.55-0.84,1.55
				c-0.95,0-0.68-1.69-0.68-1.69s-1.4,0.62-1.84-0.17c-0.44-0.79,1.31-1.26,1.31-1.26s-0.95-1.37-0.25-1.65s1.52,1.29,1.52,1.29
				s0.88-1.58,1.71-1.1C177.41,157.32,176.34,158.36,176.34,158.36z"/>
		</g>
	</g>
	<g>
		<g>
			<path class="st5" d="M166.74,163.27c0,0,0.89,1.41,0.11,2.06c-0.78,0.65-1.46-1.17-1.46-1.17s-1.22,1.05-1.92,0.4
				c-0.69-0.65,0.75-1.57,0.75-1.57s-1.24-0.13-1.3-1.25c-0.06-1.12,1.7-0.36,1.7-0.36s-0.5-1.51,0.71-1.63
				c1.21-0.12,0.64,1.93,0.64,1.93s1.48-0.65,1.79,0.28C168.07,162.88,166.74,163.27,166.74,163.27z"/>
		</g>
		<g>
			<path class="st5" d="M160.01,165.71c0,0,1.42,1.47,0.61,2.25c-0.81,0.78-1.89-1.08-1.89-1.08s-0.52,2.04-1.69,1.6
				c-1.17-0.44,0.31-2.69,0.31-2.69s-2.25-0.24-1.77-1.4c0.48-1.16,2.3-0.3,2.3-0.3s-0.08-1.57,0.87-1.6
				c0.95-0.03,0.91,1.48,0.91,1.48s1.55-0.88,2.12,0.28S160.01,165.71,160.01,165.71z"/>
		</g>
		<g>
			<path class="st5" d="M162.75,157.59c0,0,1.21,0.01,1.15,0.97c-0.07,0.96-1.83,0.53-1.83,0.53s0.1,1.55-0.84,1.55
				c-0.94,0-0.67-1.69-0.67-1.69s-1.39,0.62-1.83-0.17c-0.44-0.79,1.3-1.26,1.3-1.26s-0.95-1.37-0.24-1.65
				c0.71-0.28,1.52,1.29,1.52,1.29s0.88-1.58,1.7-1.1C163.82,156.56,162.75,157.59,162.75,157.59z"/>
		</g>
	</g>
</g>
</svg>
