<?xml version="1.0" encoding="UTF-8" standalone="no"?><!DOCTYPE svg PUBLIC "-//W3C//DTD SVG 1.1//EN" "http://www.w3.org/Graphics/SVG/1.1/DTD/svg11.dtd"><svg width="100%" height="100%" viewBox="0 0 334 2084" version="1.1" xmlns="http://www.w3.org/2000/svg" xmlns:xlink="http://www.w3.org/1999/xlink" xml:space="preserve" xmlns:serif="http://www.serif.com/" style="fill-rule:evenodd;clip-rule:evenodd;stroke-linejoin:round;stroke-miterlimit:2;"><rect id="Artboard1" x="0.288" y="0" width="333.333" height="2083.33" style="fill:none;"/><clipPath id="_clip1"><rect x="0.288" y="0" width="333.333" height="2083.33"/></clipPath><g clip-path="url(#_clip1)"><rect x="0.288" y="-0" width="333.333" height="2083.33" style="fill:#00aada;"/><g><g><path d="M141.371,732.943c-0,-0 -13.441,7.776 -13.187,24.816c0.254,17.039 2.13,32.784 2.13,32.784c0,0 -2.386,2.572 -3.394,10.844c-1.009,8.271 1.743,24.678 7.693,33.021c-0,-0 -1.598,19.927 10.386,19.44l7.592,-6.004c0,-0 3.169,12.093 9.717,16.383c-0,0 5.072,29.517 -0,42.291c-5.073,12.774 -23.711,26.288 -37.253,30.52c-13.543,4.232 -56.318,9.122 -66.317,41.664c-10,32.541 -13.467,99.977 -5.797,189.913c-0,0 0.769,8.143 -2.032,14.363c-2.801,6.219 -13.309,28.134 -15.712,42.811c-2.403,14.677 -4.252,47.275 -9.794,61.37c-5.543,14.095 -11.849,35.666 -14.897,47.893c-3.047,12.228 -12.7,45.094 -14.865,54.878c-2.165,9.784 -8.202,25.938 -5.017,36.421c3.185,10.483 12.314,25.254 12.314,25.254c-0,0 4.383,8.225 7.157,13.997c-0,0 -1.69,3.937 0.875,8.35c2.565,4.413 5.09,6.486 5.09,6.486l-1.718,133.245c0,0 2.722,234.003 13.045,275.021l7.705,1.942c0,-0 -7.923,-177.597 -6.768,-265.359c1.156,-87.761 5.822,-142.789 5.822,-142.789c0,-0 8.919,-3.083 4.297,-14.277c-0,-0 -4.145,-8.029 -3.65,-21.976c-0,-0 3.039,-3.43 3.548,-12.199c0.508,-8.769 0.125,-24.283 2.622,-31.824c2.497,-7.542 5.125,-27.51 2.239,-35.968c-2.886,-8.458 -8.714,-11.401 -5.8,-19.674c2.914,-8.273 23.507,-28.832 28.858,-41.32c-0,-0 10.689,72.503 9.697,90.258c-0.993,17.756 2.324,151.663 2.431,198.227c0.107,46.563 4.14,243.729 6.074,267.322c0,0 -3.934,10.155 34.902,11.735l9.434,9.575c-0,-0 201.908,-10.559 200.176,-10.821c-1.731,-0.262 -1.902,-17.34 0,-21.366c1.903,-4.026 8.158,-12.992 5.764,-21.381c-2.394,-8.389 2.604,-932.583 2.604,-932.583c-0,0 -40.74,-10.229 -59.536,-9.666c-18.795,0.563 -36.246,2.462 -36.246,2.462l-2.298,-17.316c-0,-0 8.075,-8.921 9.216,-13.029c-0,0 12.793,-3.817 13,-10.928c0.207,-7.111 0.723,-10.905 3.761,-18.58c3.038,-7.675 1.638,-21.253 -1.157,-26.993c0,-0 -1.957,-8.639 -0.69,-12.83c1.267,-4.191 8.659,-34.786 -10.843,-52.396c-0,0 3.429,-3.463 2.308,-9.959c-1.122,-6.496 -21.42,-28.488 -52.674,-27.365c-31.254,1.124 -61.728,17.694 -63.078,26.33c-0,-0 -0.418,5.83 2.266,6.987Z" style="fill:#4d545c;"/><path d="M131.098,791.035c-7.021,0.939 -9.93,18.185 -5.795,27.639c4.134,9.453 8.326,13.139 8.822,16.275c0.496,3.136 -0.221,17.348 8.663,16.459c8.884,-0.889 9.102,-2.168 9.646,-6.084c0.544,-3.916 -5.517,-11.056 -6.524,-18.838c-1.007,-7.781 -0.081,-25.138 -1.272,-28.489c-1.191,-3.35 -7.648,-7.749 -13.54,-6.962Z" style="fill:#3c4a51;"/><path d="M141.756,733.165c-0,0 10.995,-1.201 10.712,3.845c-0.282,5.047 1.456,7.603 0,12.853c-1.455,5.249 -0.51,20.913 -2.258,26.865c-1.749,5.952 -1.985,9.893 -3.575,14.215c-1.59,4.321 -0.658,6.928 -1.63,7.025c-0.973,0.097 -13.366,-5.505 -14.039,-7.025c-0.674,-1.52 -2.803,-19.156 -2.557,-28.966c0.246,-9.809 -1.892,-19.067 13.347,-28.812Z" style="fill:#3c4250;"/><path d="M159.268,740.213c-0,-0 6.787,-4.455 11.735,-4.25c4.948,0.205 9.358,6.177 7.032,11.403c-2.325,5.227 5.063,13.19 -4.462,18.139c-9.524,4.948 -13.509,10.783 -15.221,16.164c-1.712,5.381 3.329,6.966 3.956,14.038c0.627,7.072 5.521,6.005 -0,14.828c-5.521,8.823 -5.882,1.679 -5.158,13.306c0.725,11.626 2.661,13.294 5.158,23.79c2.496,10.496 2.076,9.143 8.888,15.135c6.812,5.992 15.505,8.124 6.949,9.775c-8.556,1.652 -13.313,-5.767 -9.862,5.286c3.451,11.053 14.467,32.61 15.431,33.036c0.963,0.425 1.067,1.013 -2.155,4.624c-3.221,3.612 -13.44,11.346 -26.096,20.185c-12.656,8.839 -27.285,24.028 -32.063,21.665c-4.778,-2.364 -16.811,-14.751 -7.874,-17.188c8.936,-2.436 29.62,-9.239 42.26,-25.946c12.639,-16.706 5.4,-40.434 5.742,-44.777l-1.22,-5.312c-0,0 -6.925,-7.027 -9.251,-16.685c-2.326,-9.659 -8.123,-17.515 -7.339,-36.998c0.785,-19.483 2.787,-21.513 4.137,-34.119c1.349,-12.605 -5.052,-25.196 -2.24,-31.029c2.812,-5.832 7.411,-7.132 11.653,-5.07Z" style="fill:#495b63;"/><path d="M254.896,841.737c-2.595,4.885 -7.874,15.24 -6.184,16.4c1.69,1.161 12.509,0.414 13.146,-8.337c0.636,-8.751 1.727,-11.784 4.659,-20.974c2.931,-9.191 5.37,-26.275 -0,-26.658c-5.371,-0.384 -7.761,11.31 -8.145,14.205c-0.385,2.894 0.105,18.621 -3.476,25.364Z" style="fill:#2c3137;"/><path d="M260.531,783.095c-0.266,-2.193 -1.844,-3.732 -3.188,2.433c-1.344,6.164 1.05,16.801 -0.333,25.35c-1.383,8.549 -4.793,16.793 -8.626,24.258c-3.832,7.465 -4.809,5.643 -5.344,13.208c-0.535,7.565 0.369,10.34 -5.156,14.723c-5.524,4.383 -12.865,4.749 -14.034,7.544c-1.169,2.795 11.372,1.343 10.918,5.838c-0.453,4.496 -13.334,7.751 -7.313,10.125c6.022,2.375 12.407,2.934 13.596,1.301c0,0 -1.705,-13.863 -1.723,-15.831c0,0 8.203,-9.375 9.056,-13.483c0.854,-4.108 8.7,-15.175 10.655,-25.388c1.956,-10.214 1.778,-47.726 1.492,-50.078Z" style="fill:#556973;"/><path d="M240.212,729.473c-4.998,-2.147 -8.909,3.243 -2.455,9.504c6.455,6.262 12.628,9.181 11.926,15.107c-0.702,5.925 -7.868,11.3 -9.939,12.612c-2.071,1.313 3.428,1.529 8.64,5.691c5.213,4.161 6.63,6.092 8.114,8.781c1.484,2.689 6.289,1.991 5.617,-4.507c-0.671,-6.498 -7.337,-30.37 -7.337,-30.37c0,-0 -10.258,-14.968 -14.566,-16.818Z" style="fill:#495b63;"/><path d="M252.449,735.956c0,-0 -8.721,-4.713 -9.359,-2.916c-0.638,1.798 4.951,4.41 8.935,14.035c3.983,9.626 7.015,19.444 6.764,25.385c-0.251,5.941 0.299,11.562 -0.418,16.734c-0.716,5.173 0.167,7.841 0.967,13.162c0.8,5.321 0.296,11.298 0.021,15.447c-0.623,9.39 4.673,-3.778 4.642,-9.382c-0.03,-5.604 -0.273,-4.919 -0.474,-10.452c-0.2,-5.533 1.205,-12.99 2.568,-23.363c1.362,-10.373 0.069,-23.815 -13.646,-38.65Z" style="fill:#2c3137;"/><path d="M252.845,736.791c-0,0 -12.495,-6.086 -23.242,-7.152c-10.747,-1.066 -32.085,-2.847 -46.052,1.662c-13.967,4.509 -19.138,5.7 -24.01,8.338c-4.872,2.637 -16.816,-4.613 -17.619,-5.507c-0.803,-0.894 -5.849,-5.764 -2.341,-10.961c3.508,-5.196 16.474,-16.444 52.832,-23.586c0,-0 29.859,-7.38 53.321,16.174c-0,0 14.377,9.04 7.111,21.032Z" style="fill:#4d545c;"/><path d="M133.116,746.565c1.278,-0.741 1.318,-4.358 7.783,-8.041c6.466,-3.683 7.842,-6.149 8.947,-2.341c1.105,3.808 3.454,3.824 1.176,9.931c-2.278,6.108 3.785,4.985 -3.201,13.041c-6.985,8.056 -2.89,4.732 -8.662,11.498c-5.772,6.765 -6.109,13.691 -7.642,8.573c-1.532,-5.118 -2.441,-30.318 1.599,-32.661Z" style="fill:#3c4a51;"/><path d="M142.895,723.31c5.577,-2.632 7.52,0.727 21.589,-1.321c14.069,-2.048 35.113,-1.226 45.068,-2.638c9.956,-1.412 35.12,4.092 38.727,3.514c3.608,-0.578 6.529,1.627 6.499,3.793c-0.03,2.166 1.409,6.491 0,7.615c-1.409,1.124 -11.695,-2.529 -18.498,-5.28c-6.802,-2.752 -25.395,-4.282 -39.252,-3.055c-13.858,1.227 -29.313,4.554 -37.149,4.797c-7.835,0.244 -18.373,1.42 -18.779,-0.171c-0.405,-1.592 -4.112,-4.466 1.795,-7.254Z" style="fill:#2c3137;"/><path d="M139.581,794.997c-6.42,-4.049 -9.13,-1.485 -9.362,3.528c-0.233,5.013 -0.412,5.403 1.863,9.347c2.275,3.944 5.018,0.244 1.799,5.509c-3.22,5.265 -5.494,3.054 -1.705,8.157c3.789,5.104 3.841,5.154 7.405,7.352c3.563,2.197 6.167,2.306 4.308,-1.854c-1.859,-4.16 -3.529,-6.023 -2.789,-10.523c0.74,-4.5 2.171,-3.735 2.2,-7.582c0.03,-3.847 -2.164,-12.953 -3.719,-13.934Z" style="fill:#2c3137;"/><path d="M166.926,774.572c1.853,-1.468 5.902,-6.784 16.326,-6.259c10.424,0.526 15.011,3.012 23.667,1.352c8.657,-1.66 13.692,1.473 22.211,-0.193c8.518,-1.667 13.105,-1.656 18.628,2.164c5.522,3.82 8.031,9.84 7.64,13.41c-0.391,3.569 0.916,6.916 -3.735,9.784c-4.651,2.867 -11.899,5.026 -16.09,1.166c-4.191,-3.86 -3.823,-6.467 -8.55,-4.647c-4.728,1.819 -3.478,5.61 -5.9,5.963c-2.421,0.352 -1.245,-12.784 -6.917,-13.47c-5.672,-0.686 -6.398,-0.767 -10.936,2.019c-4.537,2.786 -6.1,3.726 -9.497,7.136c-3.398,3.409 -3.626,7.559 -10.877,6.301c-7.251,-1.257 -18.8,-4.405 -20.588,-8.563c-1.789,-4.159 -3.947,-9.376 4.618,-16.163Z" style="fill:#2c3137;"/><path d="M204.126,780.999c1.582,-0.682 4.773,4.039 3.931,9.64c-0.842,5.602 1.574,3.028 0,8.889c-1.574,5.862 0.842,5.886 0,9.762c-0.842,3.876 -0.039,3.494 -3.643,2.404c-3.603,-1.09 -5.58,-2.661 -6.925,0c-1.344,2.661 -0.705,2.886 -4.181,7.394c-3.476,4.508 -7.553,15.337 -6.887,8.505c0.666,-6.833 -3.436,-4.525 3.281,-11.717c6.717,-7.193 4.466,-7.701 7.787,-7.95c3.322,-0.249 4.908,0.558 5.213,-1.858c0.305,-2.417 1.591,-1.788 -1.156,-6.54c-2.748,-4.751 -4.725,-6.842 -4.057,-10.325c0.669,-3.484 4.005,-7.07 6.637,-8.204Z" style="fill:#2c3137;"/><path d="M221.96,808.778c0,-0 2.933,-1.934 5.992,1.222c3.06,3.156 8.819,11.204 12.642,12.631c3.824,1.427 7.53,3.17 9.286,1.304c1.756,-1.866 3.786,-1.304 3.786,-1.304c-0,-0 -3.734,11.667 -5.865,12.771c-2.131,1.104 -8.725,-3.035 -10.658,-5.606c-1.933,-2.571 -7.662,-8.703 -9.475,-12.193c-1.812,-3.489 -4.079,-8.268 -5.708,-8.825Z" style="fill:#2c3137;"/><path d="M163.534,805.365c0.55,-0.76 7.972,9.218 13.496,9.464c5.525,0.247 10.291,-0.845 12.789,0c2.498,0.846 -0.02,8.947 -4.036,9.076c-4.016,0.129 -8.989,0.017 -8.451,5.891c0.538,5.874 4.036,9.081 6.688,11.078c2.652,1.997 3.378,2.583 3.322,5.929c-0.055,3.346 0.752,2.699 0.16,5.148c-0.591,2.448 -2.718,6.867 -1.719,10.127c0.998,3.26 3.275,5.959 1.684,7.229c-1.592,1.269 -4.86,1.803 -4.86,1.803c0,-0 -14.893,-6.341 -20.299,-18.293c-5.407,-11.952 -4.937,-18.14 -5.348,-24.278c-0.411,-6.137 -2.441,-9.927 0.414,-13.71c2.855,-3.783 5.903,-9.11 6.16,-9.464Z" style="fill:#2c3137;"/><path d="M243.886,842.363c-0,0 -8.169,-10.224 -11.211,-9.391c-3.042,0.833 -3.087,5.063 -5.22,5.244c-2.132,0.182 -2.936,1.426 -2.205,3.782c0.73,2.356 1.264,5.884 -0,7.789c-1.264,1.905 -2.772,2.579 -1.406,5.524c1.366,2.945 2.362,2.914 3.611,6.639c1.25,3.725 -0.194,4.123 1.865,4.687c2.059,0.564 9.459,-3.096 11.146,-6.026c1.687,-2.929 2.336,-8.506 2.336,-8.506l1.084,-9.742Z" style="fill:#2c3137;"/><path d="M237.813,843.505c-1.262,-3.642 -3.874,-3.116 -6.831,0.029c-2.958,3.146 -2.264,-0.119 -3.527,4.759c-1.262,4.878 -3.679,6.469 0,8.828c3.679,2.359 6.14,-0.661 6.14,-0.661c-0,0 4.017,-5.704 4.218,-6.651c0.201,-0.946 0.339,-5.324 -0,-6.304Z" style="fill:#556973;"/><path d="M212.291,835.596c2.776,-0.161 2.528,0.767 5.493,0c2.966,-0.767 3.716,2.145 5.983,2.875c2.266,0.731 3.578,4.024 -0,3.01c-3.579,-1.015 -7.321,-3.057 -10.218,-3.01c-2.897,0.048 -8.854,-0.736 -10.807,0c-1.954,0.737 -5.783,3.198 -7.351,3.01c-1.568,-0.189 -5.818,-1.702 -4.564,-3.01c1.255,-1.307 2.326,1.778 5.142,0c2.817,-1.777 4.37,-2.974 6.819,-2.875c2.448,0.1 6.726,0.161 9.503,0Z" style="fill:#2c3137;"/><path d="M225.502,849.496c0,-0 -3.788,-5.607 -6.316,-6.016c-2.528,-0.409 -8.751,4.392 -12.127,4.069c-3.375,-0.323 -5.396,3.661 -3.293,4.57c2.103,0.909 8.012,2.727 11.747,2.391c3.736,-0.335 7.101,2.63 8.545,1.456c1.445,-1.174 1.444,-6.47 1.444,-6.47Z" style="fill:#23272c;"/><path d="M185.488,866.695c-0,-0 12.517,3.512 15.561,1.913c3.044,-1.598 8.9,-6.652 13.157,-6.169c4.256,0.482 7.953,6.118 11.296,7.384c3.343,1.267 -4.998,3.729 -1.444,4.814c3.554,1.084 9.53,0.926 9.537,4.656c0.007,3.729 -5.722,8.522 -10.291,9.985c-4.568,1.462 -29.03,16.924 -32.705,20.243c-3.675,3.318 -3.791,6.842 -6.439,4.066c-2.648,-2.775 -8.018,-6.073 -5.179,-11.039c2.84,-4.965 11.11,-14.056 7.272,-14.781c-3.838,-0.726 -6.468,8.498 -10.462,7.301c-3.993,-1.197 -10.786,-14.597 -8.466,-18.439c2.32,-3.843 8.131,-5.19 10.051,-5.89c1.921,-0.7 3.315,-4.271 8.112,-4.044Z" style="fill:#2c3137;"/><path d="M197.944,710.146c-0,-0 24.892,2.447 25.36,6.55c0.468,4.102 -32.062,5.884 -35.755,2.193c-3.693,-3.691 5.211,-8.758 10.395,-8.743Z" style="fill:#c4d0d2;"/><path d="M186.676,728.005c0,0 20.92,-0.836 27.53,3.158c6.609,3.994 0.344,10.934 -4.698,13.811c-5.041,2.877 -12.422,9.873 -4.515,12.138c7.907,2.265 10.185,11.194 2.335,11.871c-7.849,0.678 -19.953,-0.547 -26.749,-0.674c-6.795,-0.127 -8.447,-4.245 -4.236,-9.61c4.211,-5.366 2.938,-8.813 3.46,-13.759c0.522,-4.946 -20.134,-12.453 6.873,-16.935Z" style="fill:#d5ebee;"/><path d="M178.583,771.077c0,0 -12.636,4.426 -14.39,9.781c-1.754,5.354 1.076,11.423 6.711,11.179c5.635,-0.244 8.327,-0.205 12.696,1.016c4.37,1.221 9.459,1.365 11.3,-2.183c1.842,-3.549 9.738,-7.021 10.093,-11.928c0.354,-4.907 -6.645,-5.831 -10.093,-6.172c-3.448,-0.34 -8.146,-2.52 -16.317,-1.693Z" style="fill:#23272c;"/><path d="M217.061,782.177c-0,0 3.185,-8.802 13.766,-9.323c10.581,-0.521 14.078,0.874 16.593,2.149c2.515,1.274 5.834,5.01 5.881,7.36c0.047,2.351 1.725,7.131 -2.229,9.775c-3.955,2.643 -5.346,9.282 -10.377,5.399c-5.031,-3.882 -4.447,-7.198 -8.984,-7.881c-4.538,-0.684 -8.209,4.066 -9.935,2.425c-1.727,-1.642 -4.531,-7.076 -4.715,-9.904Z" style="fill:#23272c;"/><path d="M229.437,776.307c0,-0 4.554,-1.866 10.1,-0.332c5.547,1.534 7.344,3.225 7.398,4.36c0.055,1.134 -1.035,2.762 -3.422,1.664c-2.387,-1.099 -7.589,-1.009 -10.967,-1.051c-3.379,-0.042 -9.784,-1.619 -3.109,-4.641Z" style="fill:#c4d0d2;"/><path d="M181.754,772.742c-0,0 8.421,0.554 10.744,2.759c2.323,2.204 0.087,4.042 -2.284,3.782c-2.37,-0.26 -2.161,-0.868 -5.74,-0.976c-3.579,-0.108 -5.778,0.7 -8.39,0.976c-2.612,0.276 -5.456,0.76 -5.182,-0.674c0.275,-1.434 5.594,-3.997 6.813,-4.544c1.22,-0.547 2.44,-1.032 4.039,-1.323Z" style="fill:#c4d0d2;"/><path d="M209.029,781.376c1.257,-4 5.161,-3.686 6.04,-1.369c0.878,2.317 1.277,14.771 1.652,21.157c0.375,6.386 2.909,13.13 -3.598,13.518c-6.508,0.389 -5.852,-6.632 -5.766,-12.075c0.086,-5.443 -0.213,-15.234 1.672,-21.231Z" style="fill:#c4d0d2;"/><path d="M226.607,791.887c4.341,-0.829 15.546,4.465 13.219,6.84c-2.327,2.375 -9.05,7.052 -12.371,4.667c-3.32,-2.385 -12.132,-9.35 -0.848,-11.507Z" style="fill:#c4d0d2;"/><path d="M193.477,791.897c4.344,-2.539 6.861,-2.241 7.713,2.036c0.851,4.278 4.464,10.52 -0.047,13.275c-4.512,2.754 -11.323,9.009 -18.881,7.489c-7.559,-1.52 -17.953,-7.333 -17.341,-13.213c0.612,-5.88 2.938,-4.825 9.427,-4.798c6.488,0.027 8.028,2.328 11.545,0.262c3.517,-2.066 3.24,-2.513 7.584,-5.051Z" style="fill:#c4d0d2;"/><path d="M191.21,854.784c0,0 5.131,-2.54 12.155,-1.541c7.024,0.999 9.653,3.425 14.352,4.472c4.699,1.046 8.892,4.116 4.74,4.619c-4.152,0.503 -10.012,-0.98 -14.12,-0.147c-4.107,0.832 -6.669,3.18 -10.571,1.666c-3.902,-1.515 -9.038,-2.843 -6.556,-9.069Z" style="fill:#c4d0d2;"/><path d="M205.929,839.525c2.764,0.158 7.247,-1.173 5.894,1.453c-1.353,2.626 -6.051,5.582 -8.458,3.657c-2.407,-1.925 -3.516,-5.458 2.564,-5.11Z" style="fill:#c4d0d2;"/><path d="M205.278,825.704c-0,0 5.993,1.232 6.794,4.669c0.801,3.436 -4.919,3.288 -6.958,2.716c-2.04,-0.571 -6.092,-5.675 0.164,-7.385Z" style="fill:#c4d0d2;"/><path d="M121.696,950.686c0,-0 -21.573,-3.54 -33.077,8.075c-11.504,11.616 -15.568,21.204 -17.04,34.028c-1.472,12.823 -0.8,22.386 -6.879,27.143c-6.079,4.757 -7.728,34.189 -7.39,47.213c0.338,13.025 3.257,44.913 1.798,62.257c-1.46,17.344 -7.342,31.043 -1.286,41.227c6.055,10.184 23.143,24.32 24.53,15.308c1.386,-9.013 3.49,-45.759 0.002,-63.888c-3.487,-18.13 2.935,-23.343 5.953,-39.327c3.018,-15.984 21.212,-72.072 26.715,-84.227c5.504,-12.155 25.17,-43.167 6.674,-47.809Z" style="fill:#3c4250;"/><path d="M80.836,1078.91c-0,-0 -5.891,39.266 -4.963,52.563c0.928,13.297 1.744,47.083 4.693,51.132c-0,-0 -15.605,4.397 -16.909,-8.911c-1.304,-13.309 -8.728,-19.883 -8.519,-14.626c0.21,5.258 -3.42,14.487 0,20.964c3.421,6.476 14.823,9.384 20.505,9.827c5.682,0.443 9.176,5.63 12.099,12.45c2.923,6.819 9.902,4.762 10.061,2.58c0.158,-2.182 1.694,-68.502 1.694,-68.502l-4.886,-48.735l-13.775,-8.742Z" style="fill:#2c3137;"/><path d="M76.581,1187.32c-0,-0 5.779,10.049 -0,19.659c-5.78,9.61 -8.728,26.715 -8.236,36.376c0.491,9.66 -2.232,16.585 -4.725,21.058c-2.493,4.473 -16.441,20.588 -20.878,26.36c-4.438,5.773 -9.627,26.732 -11.718,31.972c-2.091,5.239 -7.573,3.147 -6.494,10.995c1.078,7.848 6.436,14.467 9.123,15.087c2.686,0.62 5.938,-5.764 5.938,-5.764c0,0 14.302,-18.802 27.895,-38.857c13.593,-20.054 24.811,-70.747 24.811,-70.747l-0,-42.09l-15.716,-4.049Z" style="fill:#2c3137;"/><path d="M92.297,955.213c-0,0 24.695,-5.642 20.173,0.76c-4.522,6.402 -8.056,9.178 -12.973,14.825c-4.916,5.647 -11.806,9.648 -15.888,3.567c-4.083,-6.08 2.182,-14.777 8.688,-19.152Z" style="fill:#c4d0d2;"/><path d="M63.042,1196.45c0,-0 -4.206,-6.556 0.37,-9.127c4.577,-2.572 19.851,-1.584 18.897,3.128c-0.954,4.712 -0.936,19.165 -5.728,23.687c-4.793,4.522 -9.664,12.299 -10.535,21.847c-0.871,9.548 -4.764,25.552 -10.908,32.113c-6.144,6.56 -14.378,18.566 -18.562,25.719c-4.184,7.152 0.971,-12.437 4.654,-21.848c3.684,-9.411 -0.32,-26.957 7.31,-42.525c7.63,-15.568 15.606,-23.828 14.502,-32.994Z" style="fill:#c4d0d2;"/><path d="M29.758,1301.33c-0,0 -8.628,19.934 -10.665,24.244c-2.037,4.311 -4.323,18.231 -3.673,23.301c0.651,5.069 10.959,-1.159 8.971,-6.135c-1.989,-4.976 -5.469,-13.009 -0,-19.263c5.468,-6.255 16.802,-29.456 5.367,-22.147Z" style="fill:#c4d0d2;"/><path d="M24.391,1350.76c-0,-0 9.126,3.666 10.291,10.101c1.164,6.435 1.656,23.406 0.334,26.006c-1.322,2.601 -1.939,7.984 -5.129,3.14c-3.189,-4.845 -4.423,-13.598 -10.102,-9.759c-5.679,3.838 -8.206,12.009 -14.315,15.673c-6.109,3.663 -10.061,0.389 -8.031,-4.108c2.029,-4.498 5.008,1.36 8.201,-4.744c3.192,-6.104 9.255,-11.667 9.668,-18.034c0.412,-6.367 -3.449,-15.762 9.083,-18.275Z" style="fill:#c4d0d2;"/><path d="M194.515,819.24c2.071,-2.843 2.745,-1.137 2.39,2.232c-0.355,3.369 4.349,5.292 1.382,5.925c-2.967,0.634 -8.474,3.853 -8.125,0.715c0.276,-2.487 1.9,-5.507 4.353,-8.872Z" style="fill:#c4d0d2;"/><path d="M203.246,823.03c0,0 -7.582,-0.282 -5.043,-4.843c2.54,-4.561 4.265,2.722 7.726,-1.96c1.51,-2.042 4.663,3.052 8.064,1.598c3.401,-1.454 4.242,-3.415 6.763,-1.346c2.521,2.07 7.071,2.153 4.416,4.545c-2.655,2.391 -4.522,4.619 -7.019,5.472c-2.497,0.853 -2.405,3.667 -3.595,3.999c-1.19,0.331 -2.571,-1.436 -3.207,-3.297c-0.636,-1.861 -7.157,-3.913 -8.105,-4.168Z" style="fill:#23272c;"/><path d="M31.191,1402.85c-0,-0 -5.362,13.347 -0.622,13.487c4.739,0.14 7.052,-8.71 0.622,-13.487Z" style="fill:#c4d0d2;"/><path d="M-4.359,1409.6c0,0 10.094,-3.177 9.759,3.844c-0.335,7.021 -0.47,12.117 -4.385,16.995c-3.914,4.879 -6.55,3.919 -7.223,2.515c-0.674,-1.403 1.849,-23.354 1.849,-23.354Z" style="fill:#c4d0d2;"/><path d="M10.733,1397.5c-0,0 4.589,-9.41 10.116,-6.353c5.526,3.057 7.761,7.445 5.944,11.709c-1.817,4.263 0.696,8.129 -1.798,11.255c-2.494,3.125 -0.121,3.167 -0.507,8.065c-0.386,4.898 1.758,6.541 1.96,9.978c0.341,5.81 0.553,10.182 4.302,11.85c4.062,1.809 4.514,1.812 3.661,2.644c-4.362,4.256 -7.861,-5.027 -10.463,-8.048c-2.601,-3.021 -0.912,-18.89 -4.731,-17.113c-3.82,1.776 -1.631,10.945 -3.909,12.603c-2.279,1.658 -5.847,0.583 -2.986,4.887c2.86,4.305 4.032,9.635 4.032,9.635l-1.046,4.05c-0,0 -9.772,-3.985 -9.9,-11.041c-0.128,-7.057 -0.195,-8.282 0,-12.674c0.195,-4.392 4.457,-14.283 4.317,-19.347c-0.14,-5.064 -0.536,-9.126 1.008,-12.1Z" style="fill:#2c3137;"/><path d="M20.636,1450.6c0,0 3.451,8.634 0,10.104c-3.45,1.471 -8.155,2.799 -8.155,2.799c-0,-0 -4.566,-3.793 -2.836,-5.628c1.729,-1.835 3.892,-1.865 5.663,-3.411c1.77,-1.545 5.328,-3.864 5.328,-3.864Z" style="fill:#2c3137;"/><path d="M28.612,1467.15c0,0 7.535,-2.961 9.194,1.248c1.659,4.209 4.523,8.52 -2.667,13.414c0,0 1.525,-5.947 -3.263,-7.899c-4.788,-1.951 -7.336,-7.054 -3.264,-6.763Z" style="fill:#2c3137;"/><path d="M20.636,1466.14c0,-0 -7.938,3.584 -8.438,5.941c-0.501,2.357 4.822,9.732 4.822,9.732c0,0 -3.671,-5.707 -1.79,-2.665c1.881,3.041 2.278,-0.648 4.514,-3.735c2.235,-3.086 2.066,-5.824 3.526,-6.275c1.461,-0.452 0.553,-3.133 -2.634,-2.998Z" style="fill:#2c3137;"/><path d="M22.17,1447.96c-0,0 6.557,-0.719 6.699,4.701c0.142,5.421 0.707,8.235 -2.287,9.05c-2.995,0.816 -4.602,-0.073 -5.946,-2.943c-1.343,-2.871 -0.561,-9.856 1.534,-10.808Z" style="fill:#c4d0d2;"/><path d="M22.17,1472.02c-0.507,-3.381 7.136,-1.751 8.286,0.358c1.151,2.109 -1.451,45.495 -1.451,45.495l-2.423,124.099l2.423,240.192c-0,0 -6.04,-404.84 -6.835,-410.144Z" style="fill:#c4d0d2;"/><path d="M105.975,1205.72c-0,0 28.433,-62.556 91.762,-123.942c63.328,-61.386 71.369,-68.677 102.013,-84.706c30.643,-16.028 41.174,-6.428 45.628,-7.481c4.455,-1.053 -4.812,32.067 -4.812,32.067c0,0 -3.209,-5.364 -9.262,-2.643c-6.054,2.721 -16.918,9.506 -31.087,12.304c-14.17,2.797 -14.657,5.302 -24.912,13.335c-10.255,8.032 -39.499,42.368 -52.477,53.656c-12.978,11.289 -34.292,33.606 -38.078,36.041c-3.786,2.435 -40.877,47.057 -52.102,58.078c-11.224,11.02 -27.221,27.325 -31.55,28.901c-4.33,1.576 4.877,-15.61 4.877,-15.61Z" style="fill:#2c3137;"/><path d="M336.617,1011.55c-0,-0 -15.017,10.566 -22.749,12.423c-7.733,1.856 -19.787,2.236 -31.233,9.514c-11.447,7.278 -41.695,38.304 -49.338,46.355c-7.643,8.052 -39.939,36.3 -46.703,43.348c-6.763,7.047 -65.056,76.182 -74.048,82.797c-8.991,6.616 -11.139,17.009 -16.518,20.658c-5.379,3.65 27.201,-80.167 27.201,-80.167l66.411,-87.765l109.874,-82.729l47.076,-8.731l-9.973,44.297Z" style="fill:#556973;"/><path d="M323.505,1055.07c-1.922,-1.797 -7.051,42.507 -7.434,68.676c-0.382,26.17 0.612,55.453 -1.118,59.3c-1.73,3.847 1.363,1.939 5.363,5.821c4.001,3.881 3.455,-6.638 2.803,-15.014c-0.651,-8.376 -0.918,-45.53 1.219,-58.307c2.136,-12.776 4.672,-55.329 -0.833,-60.476Z" style="fill:#2c3137;"/><path d="M328.974,1194.37c0,0 -9.805,-13.03 -21.891,-9.044c-12.086,3.986 -14.119,8.753 -20.436,8.27c-6.317,-0.484 -30.9,-1.117 -34.515,-3.898c-3.615,-2.78 -9.214,-19.144 -17.156,-19.291c-7.941,-0.147 -18.516,6.595 -21.642,9.635c-3.126,3.04 -4.018,19.635 -6.63,21c-2.612,1.366 -5.941,-2.829 -12.709,-3.926c-6.769,-1.098 -11.377,1.079 -19.044,2.144c-7.666,1.064 -9.433,1.024 -15.542,0.7c-6.108,-0.323 -7.06,6.624 -1.084,14.382c5.976,7.757 13.344,12.137 23.321,12.416c9.978,0.28 20.421,0.027 26.607,-5.325c6.185,-5.352 1.682,-5.29 12.756,-3.578c11.074,1.711 20.468,3.51 23.629,-0.083c3.161,-3.593 5.788,-10.864 16.767,-11.172c10.98,-0.309 15.219,1.996 17.981,6.252c2.761,4.256 10.38,12.66 12.434,17.27c2.054,4.61 3.872,15.514 15.23,15.505c11.358,-0.01 16.617,0.936 21.924,-4.363c5.308,-5.299 0,-46.894 0,-46.894Z" style="fill:#2c3137;"/><path d="M85.794,1863.06c0,0 5.658,-5.862 16.9,-4.318c11.241,1.544 16.465,-4.322 9.788,-8.959c-6.676,-4.637 -5.015,-10.652 9.055,-9.463c14.07,1.189 9.258,6.55 20.418,6.29c11.16,-0.259 23.051,2.892 29.747,-5.713c6.696,-8.606 4.918,-11.211 20.715,-10.469c15.798,0.742 29.236,4.467 37.672,2.72c8.436,-1.747 11.753,-1.277 24.643,-3.977c12.889,-2.699 12.175,2.755 20.957,-3.646c8.781,-6.4 11.455,-9.081 28.249,-9.89c16.794,-0.808 17.189,-0.593 22.883,8.077c5.694,8.67 9.956,17.424 4.512,20.045c-5.443,2.622 -13.505,1.998 -23.704,7.55c-10.2,5.552 -15.549,11.884 -25.92,16.147c-10.37,4.263 -14.493,7.678 -14.493,7.678l-137.542,7.694l-9.87,-10.302c0,-0 -32.923,0.503 -34.01,-9.464Z" style="fill:#2c3137;"/><path d="M132.851,1815.33c-0,0 -5.37,-79.098 -3.437,-124.184c1.933,-45.086 1.467,-100.473 -1.17,-135.697c-2.638,-35.223 5.9,-53.373 4.934,-83.296c-0.967,-29.924 -0.892,-94.211 1.68,-116.197c2.572,-21.987 7.337,-5.071 6.517,2.079c-0.821,7.151 0.257,50.02 1.202,59.775c0.946,9.756 7.159,16.365 6.763,28.652c-0.395,12.287 -3.356,86.675 -3.889,100.459c-0.533,13.785 2.839,38.202 2.676,55.189c-0.163,16.987 0.49,86.157 -0.687,100.718c-1.177,14.561 9.127,95.288 6.864,107.283c-2.263,11.995 -14.631,16.332 -21.453,5.219Z" style="fill:#2c3137;"/><path d="M221.009,1500.6c-0,-0 21.508,41.573 21.81,55.218c0.301,13.644 9.442,97.296 13.899,114.408c4.456,17.112 15.118,23.73 6.836,28.174c-8.283,4.444 -12.35,5.439 -15.004,0.379c-2.654,-5.059 -7.967,-67.869 -9.738,-83.8c-1.77,-15.932 -3.49,-29.046 -7.212,-36.774c-3.723,-7.728 -4.145,-12.27 -4.145,-12.27c0,0 -1.935,44.628 0,57.085c1.936,12.456 5.315,59.718 6.27,68.919c0.954,9.201 3.361,29.392 3.699,37.546c0.339,8.155 5.712,35.677 5.395,44.723c-0.318,9.046 1.424,31.932 4.217,41.116c2.792,9.185 0.927,11.329 -4.217,3.497c-5.145,-7.832 -7.397,-68.092 -9.409,-77.238c-2.012,-9.146 -4.582,-44.138 -5.955,-54.272c-1.372,-10.134 -3.51,-46.809 -5.083,-56.854c-1.573,-10.046 -0.52,-26.878 -1.366,-38.985c-0.846,-12.106 -0.115,-23.69 -0.492,-38.212c-0.376,-14.523 -2.507,-44.806 0.495,-52.66Z" style="fill:#2c3137;"/><path d="M191.255,1133.69c-0,0 -28.32,0.095 -33.879,4.022c-5.559,3.927 -7.889,8.229 -5.251,8.258c2.638,0.029 -2.429,3.85 -0.238,7.065c2.192,3.216 0.455,4.262 1.603,7.117c1.148,2.856 -6.38,6.565 -2.842,10.625c3.537,4.059 -0.509,9.113 3.279,11.059c3.788,1.945 -5.799,11.011 -1.417,13.32c4.381,2.308 -4.247,5.288 -1.352,5.789c2.894,0.501 37.08,-0.926 43.547,-3.872c6.468,-2.946 11.511,-0.213 8.15,-5.569c-3.361,-5.356 7.329,-13.382 4.005,-18.808c-3.324,-5.427 8.622,-11.62 2.641,-17.36c-5.981,-5.739 -8.259,-6.252 -5.782,-11.33c2.476,-5.078 -0.298,-10.009 -12.464,-10.316Z" style="fill:#424553;"/><path d="M154.63,1143.18c-0,-0 39.812,-7.877 41.519,-4.06c1.706,3.818 -41.605,3.769 -41.519,4.06Z" style="fill:#2c3137;"/><path d="M189.873,1147.68c0,0 -34.693,-3.018 -35.569,2.181c-0.877,5.198 35.569,-2.181 35.569,-2.181Z" style="fill:#2c3137;"/><path d="M158.341,1158.6c0,0 39.009,-9.896 40.35,-2.661c1.341,7.234 -40.35,2.661 -40.35,2.661Z" style="fill:#2c3137;"/><path d="M196.198,1166.04c-0,0 -41.165,-5.025 -41.91,3.611c-0.744,8.636 41.91,-3.611 41.91,-3.611Z" style="fill:#2c3137;"/><path d="M158.341,1180.04c0,0 37.834,-13.35 37.857,-2.75c0.022,10.6 -9.067,-1.714 -37.857,2.75Z" style="fill:#2c3137;"/><path d="M196.198,1189.83c-0,-0 -42.696,-5.344 -41.568,2.205c1.127,7.549 36.878,-3.005 41.568,-2.205Z" style="fill:#2c3137;"/><path d="M204.982,1113.12c0,0 9.683,8.831 7.367,16.323c-2.317,7.492 -6.286,8.532 -2.238,13.066c4.049,4.533 8.143,13.772 9.008,17.513c0.864,3.741 3.614,5.86 3.335,8.63c-0.279,2.77 -13.175,4.581 -15.597,13.069c-2.421,8.487 -6.154,9.662 -6.154,9.662c-0,-0 -5.607,-2.682 -1.98,-6.74c3.627,-4.057 10.458,-12.429 3.565,-15.991c0,0 9.756,-11.407 3.708,-15.363c-6.048,-3.956 -9.798,-6.486 -9.798,-6.486c-0,0 10.674,-5.314 6.854,-8.899c-3.82,-3.586 -13.179,-4.789 -13.179,-4.789l-3.46,-2.089l18.569,-17.906Z" style="fill:#2c3137;"/><path d="M222.473,1105.2c0,-0 11.348,-6.797 13.342,-10.358c1.993,-3.562 1.9,4.584 1.474,13.585c-0.426,9.001 6.535,29.397 10.694,36.684c4.16,7.287 7.979,13.074 8.511,19.474c0.532,6.401 0.013,9.309 -7.289,4.074c-7.301,-5.234 -11.926,-11.815 -17.253,-16.401c-5.328,-4.586 -12.527,-9.312 -9.479,-18.605c3.049,-9.294 2.151,-26.663 0,-28.453Z" style="fill:#556973;"/><path d="M306.288,1075.25c-2.495,1.549 -9.341,5.061 -10.32,18.737c-0.979,13.676 1.468,22.672 -3.694,34.635c-5.161,11.963 -4.897,12.471 -8.494,23.637c-3.598,11.167 6.573,13.603 -1.585,16.401c-8.157,2.799 -23.352,-5.775 -22.213,-13.145c1.139,-7.369 2.585,-16.925 3.201,-25.458c0.616,-8.532 2.13,-13.387 -1.226,-21.277c-3.356,-7.89 -2.483,-9.409 -9.614,-14.793c-7.131,-5.384 -5.064,-5.22 -9.721,-6.326c-4.656,-1.106 -3.425,-6.563 -3.425,-6.563c-0,0 34.016,-41.295 46.952,-46.588c12.935,-5.293 34.28,-15.359 42.825,-11.98c8.545,3.379 15.733,14.571 6.862,17.324c-8.871,2.753 -12.282,6.787 -18.688,12.252c-6.407,5.465 -7.748,5.837 -8.574,12.582c-0.826,6.745 0.192,9.023 -2.286,10.562Z" style="fill:#424553;"/><path d="M299.656,1028.88c-0,-0 11.584,-0.415 5.087,11.183c-6.496,11.599 -17.439,1.761 -24.162,28.043c-6.724,26.282 6.863,44.001 0.528,44.311c-6.335,0.309 -15.259,-24.242 -21.158,-33.605c-5.898,-9.363 -7.293,-9.181 -13.014,-6.888c-5.721,2.293 30.289,-41.437 52.719,-43.044Z" style="fill:#2c3137;"/><path d="M243.442,1210.64c0,0 26.63,89.893 35.66,117.474c9.03,27.58 20.268,74.057 25.682,74.318c5.413,0.261 -21.84,-88.83 -27.631,-103.861c-5.791,-15.031 -26.147,-84.285 -27.112,-90.259c-0.965,-5.974 -6.599,2.328 -6.599,2.328Z" style="fill:#2c3137;"/><path d="M262.432,1206.15c-0,0 1.999,29.966 48.492,74.971c-0,0 -10.176,-13.769 -21.449,-35.574c-11.273,-21.805 -21.325,-31.307 -20.909,-39.397c0.415,-8.089 -6.134,0 -6.134,0Z" style="fill:#2c3137;"/><path d="M334.755,1272.62c-1.467,0.035 -31.118,-13.707 -29.264,-20.228c1.854,-6.521 18.235,-2.793 25.865,-2.563c7.629,0.23 4.866,22.757 3.399,22.791Z" style="fill:#2c3137;"/><path d="M158.183,1209.64c-0,0 -21.223,74.085 -20.965,100.13c0.259,26.046 3.584,15.232 4.958,-0.503c1.375,-15.735 2.069,-36.757 6.629,-48.684c4.559,-11.927 5.315,15.558 3.907,20.535c-1.408,4.978 -6.012,41.362 -5.083,50.224c0.928,8.862 4.185,-1.519 4.452,-6.473c0.266,-4.955 5.308,-50.847 4.91,-64.286c-0.398,-13.44 -3.311,-17.744 2.081,-31.58c5.392,-13.837 2.551,-20.285 -0.889,-19.363Z" style="fill:#2c3137;"/><path d="M146.816,1202.56c-0,-0 -33.887,65.232 -31.348,101.737c2.539,36.504 1.217,88.611 2.18,105.215c0.964,16.604 10.897,7.569 10.771,-7.074c-0.126,-14.643 3.864,-54.925 3.483,-72.601c-0.382,-17.676 1.005,-50.485 9.488,-81.276c8.484,-30.791 7.612,-42.05 5.426,-46.001Z" style="fill:#424553;"/><path d="M107.398,1221.33c4.931,-2.835 6.645,21.324 2.524,32.46c-4.12,11.137 -17.389,39.011 -22.349,56.704c-4.96,17.694 -1.991,30.477 -3.025,48.85c-1.034,18.372 -2.218,20.462 -5.341,19.53c-3.122,-0.933 -10.997,-54.555 -8.073,-68.38c2.924,-13.824 24.617,-53.692 26.828,-68.653c2.211,-14.961 2.253,-16.381 9.436,-20.511Z" style="fill:#2c3137;"/><path d="M116.465,1451.57l6.705,-27.431c0,0 2.214,41.155 -0.186,57.148c-2.4,15.993 -1.643,58.847 -3.775,102.49c-2.132,43.644 -6.644,155.235 -6.644,155.235c-0,-0 -3.435,-54.635 -3.096,-79.077c0.34,-24.442 2.555,-80.994 3.096,-94.638c0.541,-13.644 -0.141,-63.471 -0,-78.105c0.141,-14.634 -0.33,-31.388 3.9,-35.622Z" style="fill:#c4d0d2;"/><path d="M102.556,1851.38c0,0 -0.725,-39.217 1.253,-56.823c1.978,-17.605 2.88,-32.667 4.902,-44.725c2.022,-12.057 4.888,-14.574 6.621,-4.807c1.733,9.766 -2.977,32.332 -3.095,45.485c-0.118,13.153 6.902,27.909 3.095,37.25c-3.807,9.342 -13.236,17.915 -12.776,23.62Z" style="fill:#2c3137;"/><path d="M184.951,1821.82c-4.967,4.619 -26.048,-29.936 -22.643,-54.766c3.405,-24.83 -3.405,-47.289 -0,-66.912c3.405,-19.622 -0.661,-81.642 -0,-151.736c0.66,-70.094 7.5,-143.147 9.329,-198.861c1.828,-55.714 -3.098,-105.461 8.241,-110.66c11.34,-5.199 25.323,-16.616 22.703,-6.536c-2.62,10.081 -5.782,126.939 -8.175,153.959c-2.394,27.019 -3.607,83.941 -6.18,114.963c-2.573,31.022 2.599,83.006 0.733,109.201c-1.866,26.195 -0.205,83.112 -1.69,106.569c-1.485,23.458 1.163,101.542 -2.318,104.779Z" style="fill:#c4d0d2;"/><path d="M200.593,1383.24c-0,-0 -3.797,51.924 -4.252,90.142c-0.454,38.217 -1.272,119.051 -1.272,119.051c0,-0 3.12,129.519 3.185,131.319c0.065,1.8 3.319,91.734 4.647,98.495c1.328,6.761 1.892,10.236 3.482,9.425c1.589,-0.81 -0.529,-21.489 -1.522,-36.473c-0.993,-14.984 -4.61,-94.855 -5.565,-143.936c-0.955,-49.08 0.406,-138.507 1.003,-181.454c0.598,-42.947 5.614,-147.367 6.1,-159.795c0.486,-12.428 8.83,-89.677 5.16,-92.346c-3.671,-2.669 -4.608,4.525 -4.58,13.757c0.028,9.233 -4.299,62.989 -4.078,68.654c0.221,5.665 -1.088,77.108 -2.308,83.161Z" style="fill:#2c3137;"/><path d="M219.91,1211.62c1.943,0.164 2.456,25.107 2.456,25.107c0,-0 -0.012,124.693 -0.51,130.563c-0.498,5.871 3.279,110.419 3.103,118.537c-0.176,8.117 2.496,29.265 2.496,29.265l-4.822,-0.599c-0,0 -1.529,-12.137 -1.53,-19.161c-0.001,-7.024 0.081,-68.001 -1.939,-90.31c-2.019,-22.31 0.058,-38.307 0.091,-56.108c0.032,-17.801 -1.719,-137.495 0.655,-137.294Z" style="fill:#2c3137;"/><path d="M229.703,1217.1c-0,0 6.521,21.199 5.919,31.021c-0.601,9.822 -0.351,29.057 -2.373,30.082c-2.021,1.025 -6.136,-2.081 -5.794,-12.014c0.343,-9.933 1.434,-17.737 0,-27.959c-1.434,-10.222 -2.844,-22.236 0,-23.901c2.845,-1.665 2.248,2.771 2.248,2.771Z" style="fill:#2c3137;"/><path d="M230.736,1289.84c2.287,0.308 4.397,65.666 2.513,73.515c-1.884,7.848 -0.685,20.804 -2.513,23.941c-1.829,3.137 -4.01,-13.25 -3.281,-31.515c0.729,-18.266 0.338,-66.338 3.281,-65.941Z" style="fill:#2c3137;"/><path d="M227.455,1451.29c-0.314,-9.598 13.343,-119.25 12.316,-143.223c-1.027,-23.973 7.133,-24.378 12.995,-18.228c5.862,6.15 18.209,53.439 20.735,69.208c2.526,15.77 -0.991,55.004 -4.47,83.056c-3.479,28.052 -14.278,40.556 -6.482,64.841c7.797,24.285 0.938,41.018 17.949,44.28c17.012,3.263 38.032,2.943 43.767,14.11c5.734,11.167 -3.584,19.884 -22.733,14.069c-19.149,-5.814 -25.843,-1.819 -29.038,21.682c-3.194,23.501 7.378,61.996 9.434,78.793c2.057,16.797 -7.808,22.896 -13.022,7.298c-5.213,-15.598 -11.964,-31.439 -11.793,-54.891c0.172,-23.452 0.552,-51.007 -5.913,-68.602c-6.464,-17.594 -22.869,-85.707 -23.745,-112.393Z" style="fill:#2c3137;"/><path d="M276.696,1831.78c-0,0 -24.696,-89.776 -22.027,-104.45c2.669,-14.675 26.505,85.014 37.29,92.3c10.784,7.285 -15.263,12.15 -15.263,12.15Z" style="fill:#2c3137;"/><path d="M298.826,1164.02c-0,0 -2.44,-9.573 -4.252,-13.661c-1.812,-4.087 0.899,-7.286 0,-12.839c-0.899,-5.552 5.904,-13.042 5.394,-24.895c-0.51,-11.852 2.643,-29.418 8.827,-30.374c6.184,-0.956 5.25,36.753 3.13,47.115c-2.119,10.362 2.133,29.58 -1.287,32.83c-3.419,3.249 -11.812,1.824 -11.812,1.824Z" style="fill:#c4d0d2;"/><path d="M218.268,1105.18c-0,0 4.269,5.129 3.204,8.133c-1.065,3.005 -0.734,16.23 -1.53,18.443c-0.796,2.212 0.362,10.876 1.494,13.614c1.132,2.737 -0.352,8.846 -2.042,7.322c-1.689,-1.523 -8.063,-8.554 -6.587,-12.378c1.476,-3.824 3.829,-10.275 2.743,-13.624c-1.087,-3.348 -5.398,-8.198 -4.773,-11.762c0.624,-3.563 4.181,-8.098 7.491,-9.748Z" style="fill:#c4d0d2;"/><path d="M254.467,1277.62c2.466,-3.973 12.875,21.504 13.866,25.913c0.992,4.409 16.035,54.029 17.927,59.778c1.893,5.749 7.692,26.373 8.314,30.906c0.623,4.534 -9.345,35.27 -5.877,56.002c3.468,20.732 -3.402,53.296 0.863,64.302c4.266,11.006 3.151,19.113 -1.994,17.972c-5.144,-1.141 -12.403,-18.963 -13.045,-33.461c-0.642,-14.498 -6.194,-28.616 -4.508,-39.12c1.685,-10.504 2.007,-28.771 4.508,-40.552c2.501,-11.78 7.306,-41.763 -0,-68.493c-7.307,-26.73 -21.31,-71.223 -20.054,-73.247Z" style="fill:#c4d0d2;"/><path d="M315.331,1323.74c-0,0 -8.13,-17.767 -4.949,-21.306c3.182,-3.539 10.043,-1.085 11.66,-3.073c1.617,-1.989 -7.323,-13.92 -8.512,-14.972c-1.189,-1.053 -15.993,-5.87 -18.927,-9.556c-2.934,-3.687 -1.913,7.25 -3.003,9.386c-1.09,2.137 12.032,18.141 12.133,21.775c0.101,3.634 8.198,22.233 11.598,17.746Z" style="fill:#c4d0d2;"/><path d="M291.535,1596.62c2.169,1.571 15.015,65.64 15.351,76.527c0.336,10.886 0.683,93.717 0,111.604c-0.683,17.886 -12.88,11.832 -12.283,-0.323c0.596,-12.155 7.504,-80.558 4.05,-102.806c-3.454,-22.247 -21.174,-95.179 -7.118,-85.002Z" style="fill:#424553;"/><path d="M70.74,1289.43c0,0 2.542,-33.945 32.658,-85.291c30.116,-51.347 92.149,-125.477 92.149,-125.477c0,-0 93.518,-85.515 121.829,-92.759c28.312,-7.244 42.084,2.426 42.084,2.426l-7.052,7.053c0,-0 -26.307,9.547 -49.919,17.711c-23.613,8.163 -17.398,5.33 -32.528,17.046c-15.13,11.716 -55.519,52.169 -71.2,65.879c-15.681,13.709 -58.185,61.365 -75.094,91.533c-16.909,30.169 -32.071,55.715 -39.085,67.657c-7.013,11.941 -7.627,28.475 -13.842,34.222Z" style="fill:#2c3137;"/><path d="M78.934,1077.35c-0,0 -18.711,-25.534 4.671,-64.864c23.381,-39.33 14.718,-35.889 39.039,-52.385c24.322,-16.495 52.899,-45.628 72.391,-56.034c19.492,-10.405 25.66,-13.844 47.729,-15.463c22.069,-1.619 34.828,-5.823 48.866,-4.109c14.039,1.714 40.807,3.961 52.71,8.322c11.904,4.361 9.102,98.047 9.102,98.047c-0,0 -25.23,7.217 -31.205,9.989c-5.976,2.772 -33.157,12.919 -42.251,16.933c-9.094,4.014 -22.87,18.638 -39.528,34.64c-16.657,16.002 -20.982,20.236 -34.432,32.344c-13.451,12.108 -42.073,42.465 -52.434,54.778c-10.361,12.313 -47.673,72.798 -52.453,78.784c-4.78,5.987 -18.314,33.178 -21.784,39.367c-3.47,6.188 -6.361,31.833 -9.431,41.553c-3.069,9.72 -7.181,9.208 -2.44,-17.532c4.741,-26.741 7.201,-39.747 8.952,-50.593c1.751,-10.846 11.304,-14.904 11.129,-26.273c-0.175,-11.369 0.934,-17.106 4.37,-23.827c3.436,-6.722 -4.458,-10.505 -0.951,-21.482c3.506,-10.976 -6.309,-22.336 -2.636,-36.269c3.673,-13.933 -7.314,-24.129 -6.431,-35.623c0.883,-11.493 -2.983,-10.303 -2.983,-10.303Z" style="fill:#ff642c;"/><path d="M81.378,1397.03c-0,0 8.718,-54.056 13.378,-74.956c4.66,-20.9 14.489,-22.717 14.69,-6.443c0.2,16.273 4.028,67.178 -0,98.342c-4.028,31.164 1.747,107.452 -0,139.985c-1.748,32.532 -5.416,172.087 -7.019,189.428c-1.603,17.34 -5.883,77.952 -9.553,71.945c-3.67,-6.006 -1.951,-68.769 -2.418,-119.508c-0.467,-50.739 -2.447,-129.036 -4.662,-161.394c-2.214,-32.358 -7.125,-126.598 -4.416,-137.399Z" style="fill:#3c4250;"/><path d="M154.608,1188c-0.845,-0.644 1.221,-5.147 12.403,-4.21c11.181,0.938 28.025,2.926 29.187,4.21c1.161,1.283 -25.798,-1.798 -30.354,-1.245c-4.556,0.553 -10.425,1.863 -11.236,1.245Z" style="fill:#c4d0d2;"/><path d="M155.693,1177.32c0,-0 34.504,-9.353 40.541,-8.509c6.037,0.843 6.869,3.225 6.1,5.351c-0.769,2.127 -2.059,-1.498 -10.337,-1.372c-8.278,0.127 -34.661,3.83 -36.304,4.53Z" style="fill:#c4d0d2;"/><path d="M153.814,1168.76c-0,-0 -0.556,-5.72 15.039,-5.338c15.595,0.381 33.722,2.966 33.722,2.966c-0,-0 -21.149,-4.628 -30.667,-4.97c-9.519,-0.342 -21.163,-0.381 -18.094,7.342Z" style="fill:#c4d0d2;"/><path d="M154.608,1158.72c-0,0 38.137,-10.517 47.967,-3.384c-0,-0 4.356,3.018 3.962,1.632c-0.393,-1.386 -5.382,-7.78 -10.339,-7.925c-4.957,-0.144 -34.102,4.271 -41.59,9.677Z" style="fill:#c4d0d2;"/><path d="M153.313,1149.04c-0,-0 2.437,-3.353 19.356,-2.588c16.919,0.765 22.398,0 22.398,0c-0,0 -15.118,-1.263 -21.992,-1.818c-6.874,-0.555 -17.591,-1.62 -19.762,4.406Z" style="fill:#c4d0d2;"/><path d="M153.313,1143.01c-0,0 38.467,-8.828 45.799,-4.303c0,-0 0.397,-3.313 -5.862,-4.25c-6.26,-0.937 -32.911,0.38 -39.937,8.553Z" style="fill:#c4d0d2;"/><path d="M199.117,1192.78c0,0 6.07,0.432 3.458,3.254c-2.612,2.822 -0.382,3.641 -16.776,5.255c-16.394,1.615 -28.171,3.999 -30.106,2.592c-1.935,-1.407 -10.484,-2.898 0,-6.265c10.484,-3.367 25.756,0.524 32.479,-2.168c6.723,-2.691 10.945,-2.668 10.945,-2.668Z" style="fill:#2c3137;"/><path d="M177.944,1810.04c-0,0 -7.211,-140.567 -1.729,-253.865c5.482,-113.298 13.93,-235.615 9.604,-269.258c-4.325,-33.643 0.328,-45.057 9.248,-52.164c8.919,-7.108 10.692,1.104 8.161,24.066c-2.532,22.963 -9.705,185.236 -8.161,224.377c1.543,39.141 -4.399,206.125 -0,250.79c4.398,44.664 5.98,77.673 4.05,89.576c-1.929,11.903 -37.456,2.215 -21.173,-13.522Z" style="fill:#3c4a51;"/><path d="M110.013,1297.58c-0,-0 17.907,-65.051 28.88,-86.121c10.973,-21.069 13.726,-30.137 7.185,-26.226c-6.542,3.911 -25.131,32.632 -28.463,47.036c-3.332,14.404 -7.962,49.613 -13.455,56.312c-5.493,6.7 -2.492,6.384 5.853,8.999Z" style="fill:#3c4a51;"/><path d="M172.981,785.439c-0,0 4.19,-1.599 4.183,-1.569c-0.006,0.03 2.225,1.692 5.95,1.483c3.724,-0.209 4.985,-2.537 4.985,-2.537c-0,0 4.375,1.405 4.621,1.55c0.246,0.146 -5.282,2.935 -8.563,3.14c-3.281,0.205 -7.919,-0.325 -11.176,-2.067Z" style="fill:#1d2024;"/><path d="M225.985,786.013l4.973,-1.442c-0,-0 1.59,2.236 4.72,2.18c2.456,-0.044 3.471,-1.621 3.471,-1.621c0,0 4.046,1.748 4.147,1.725c0.101,-0.022 -2.216,0.615 -5.892,1.185c-5.267,0.817 -8.914,-0.659 -11.419,-2.027Z" style="fill:#1d2024;"/><path d="M233.595,806.238c-0,-0 9.128,5.385 15.578,0.081c6.449,-5.304 7.032,-1.741 6.346,1.872c-0.686,3.613 -1.586,13.518 -3.636,13.697c-2.05,0.179 -12.818,-1.473 -15.592,-5.208c-2.774,-3.735 -6.917,-11.184 -2.696,-10.442Z" style="fill:#556973;"/></g><g><path d="M-7.994,1956.17l9.904,-23.763l5.612,-46.45l389.198,-25.538l86.672,79.962l-52.397,359.135l-462.718,31.518l23.729,-374.864Z" style="fill:#ffdfb4;"/><path d="M18.628,1934.54l-9.398,348.303l359.172,-0.362l-8.803,-366.671l-340.971,18.73Z" style="fill:#fff;"/><path d="M39.34,2061.21l-9.398,348.303l359.172,-0.362l-8.803,-366.671l-340.971,18.73Z" style="fill:#e5a570;"/><path d="M10.818,1891.08l-1.588,11.667l350.23,-27.256l-13.557,-8.202l-335.085,23.791Z" style="fill:#f1f0d8;"/></g></g><g><path d="M142.081,591.956c0,6.151 -0.576,11.941 -1.729,17.371c-1.154,5.429 -2.499,9.97 -4.037,13.622l-40.074,-0l0,-30.849l11.965,-0.72l-0,16.433l18.884,-0c0.768,-2.21 1.369,-4.733 1.802,-7.568c0.432,-2.835 0.648,-5.598 0.648,-8.289c0,-8.553 -2.042,-14.583 -6.126,-18.091c-4.085,-3.508 -11.22,-5.261 -21.407,-5.261c-7.111,-0 -12.709,0.865 -16.794,2.594c-4.084,1.73 -6.967,4.589 -8.649,8.577c-1.681,3.989 -2.522,9.394 -2.522,16.218c-0,4.132 0.288,8.456 0.865,12.973c0.576,4.517 1.537,8.793 2.883,12.83l-12.109,-0c-1.346,-4.037 -2.403,-8.673 -3.172,-13.911c-0.768,-5.237 -1.153,-10.499 -1.153,-15.785c0,-13.646 3.436,-23.496 10.307,-29.551c6.871,-6.054 16.986,-9.081 30.344,-9.081c13.07,-0 23.016,3.027 29.84,9.081c6.823,6.055 10.234,15.857 10.234,29.407Z" style="fill:#fff;fill-rule:nonzero;"/><path d="M142.081,511.664c0,8.36 -2.45,14.871 -7.351,19.532c-4.902,4.661 -11.869,6.992 -20.902,6.992l-51.03,-0l-0,-15.713l50.309,-0c5.862,-0 10.066,-1.297 12.613,-3.892c2.547,-2.595 3.82,-6.631 3.82,-12.109c0,-4.228 -0.889,-8.265 -2.667,-12.109c-1.777,-3.844 -4.012,-7.015 -6.703,-9.514l-57.372,0l-0,-15.568l77.842,-0l-0,14.271l-8.505,0.721c2.979,3.555 5.382,7.568 7.208,12.036c1.825,4.469 2.738,9.586 2.738,15.353Z" style="fill:#fff;fill-rule:nonzero;"/><path d="M176.966,482.689l-17.875,-0l0,9.082l-10.234,-0.721l-0,-21.767l28.109,-0l0,13.406Z" style="fill:#fff;fill-rule:nonzero;"/><path d="M142.081,426.902c0,4.901 -0.792,9.37 -2.378,13.406c-1.586,4.037 -4.132,7.232 -7.64,9.586c-3.508,2.355 -8.097,3.532 -13.767,3.532c-7.592,0 -13.502,-2.547 -17.73,-7.64c-4.229,-5.093 -6.343,-12.637 -6.343,-22.632l-0,-23.785l-4.901,0c-5.67,0 -9.634,1.442 -11.893,4.325c-2.258,2.883 -3.387,8.168 -3.387,15.856c-0,4.421 0.288,8.746 0.865,12.974c0.576,4.229 1.537,8.361 2.883,12.397l-12.109,0c-1.25,-3.748 -2.283,-8.12 -3.099,-13.118c-0.817,-4.997 -1.226,-9.994 -1.226,-14.992c0,-2.498 0.12,-4.877 0.361,-7.135c0.24,-2.258 0.6,-4.349 1.081,-6.271l-0,-26.091l12.253,0.865l-0,9.081c2.114,-1.345 4.492,-2.258 7.135,-2.739c2.643,-0.48 5.502,-0.72 8.577,-0.72l49.877,-0l-0,15.568l-34.308,0l-0,22.92c-0,5.286 0.889,9.298 2.667,12.037c1.777,2.739 4.877,4.108 9.297,4.108c4.229,0 7.16,-1.225 8.794,-3.676c1.633,-2.45 2.45,-6.462 2.45,-12.036c0,-1.73 -0.096,-3.484 -0.288,-5.262c-0.192,-1.778 -0.481,-3.291 -0.865,-4.541l11.965,0c0.48,1.73 0.889,3.796 1.225,6.199c0.336,2.402 0.504,4.997 0.504,7.784Z" style="fill:#fff;fill-rule:nonzero;"/><path d="M140.64,333.78l-49.012,-0c-3.94,-0 -7.207,0.432 -9.802,1.297c-2.595,0.865 -4.541,2.499 -5.838,4.901c-1.298,2.403 -1.946,5.959 -1.946,10.668c-0,3.075 0.336,6.414 1.009,10.018c0.672,3.604 1.585,6.847 2.739,9.731l-12.109,-0c-1.25,-2.884 -2.283,-6.367 -3.099,-10.452c-0.817,-4.084 -1.226,-8.192 -1.226,-12.325c0,-10.378 2.259,-17.898 6.775,-22.559c4.517,-4.661 11.677,-6.992 21.479,-6.992l51.03,0l-0,15.713Z" style="fill:#fff;fill-rule:nonzero;"/><path d="M142.081,280.444c0,8.937 -1.441,16.721 -4.324,23.352l-12.397,0c1.249,-2.883 2.258,-6.03 3.027,-9.442c0.769,-3.411 1.153,-6.799 1.153,-10.162c0,-6.535 -0.913,-11.725 -2.739,-15.569c-1.826,-3.844 -4.781,-6.607 -8.865,-8.289c-4.084,-1.681 -9.49,-2.522 -16.217,-2.522c-9.995,-0 -17.106,2.042 -21.335,6.126c-4.228,4.084 -6.342,10.884 -6.342,20.398c-0,3.459 0.36,6.823 1.081,10.09c0.721,3.268 1.754,6.391 3.099,9.37l-12.541,0c-1.346,-3.267 -2.403,-6.799 -3.172,-10.595c-0.768,-3.796 -1.153,-7.904 -1.153,-12.325c0,-12.878 3.436,-22.464 10.307,-28.758c6.871,-6.295 16.89,-9.442 30.056,-9.442c13.07,-0 23.064,3.003 29.983,9.009c6.92,6.007 10.379,15.593 10.379,28.759Z" style="fill:#fff;fill-rule:nonzero;"/><path d="M142.081,202.601c0,5.094 -0.336,10.019 -1.009,14.776c-0.672,4.757 -1.633,8.673 -2.883,11.748l-13.118,0c1.442,-3.651 2.547,-7.616 3.316,-11.892c0.769,-4.277 1.153,-8.193 1.153,-11.748c0,-6.631 -0.6,-11.533 -1.802,-14.704c-1.201,-3.171 -3.724,-4.757 -7.568,-4.757c-2.787,-0 -4.901,0.817 -6.342,2.451c-1.442,1.633 -2.715,4.036 -3.82,7.207c-1.106,3.172 -2.427,7.112 -3.965,11.821c-1.537,4.42 -3.219,8.409 -5.045,11.964c-1.826,3.556 -4.132,6.367 -6.919,8.433c-2.787,2.066 -6.295,3.099 -10.523,3.099c-6.824,0 -12.229,-2.594 -16.217,-7.784c-3.989,-5.189 -5.983,-13.022 -5.983,-23.497c0,-4.42 0.337,-8.793 1.009,-13.117c0.673,-4.325 1.49,-7.881 2.451,-10.668l12.974,0c-1.25,3.172 -2.187,6.703 -2.811,10.596c-0.625,3.892 -0.937,7.519 -0.937,10.883c-0,5.574 0.6,10.043 1.802,13.406c1.201,3.364 3.627,5.045 7.279,5.045c2.403,0 4.301,-0.864 5.694,-2.594c1.394,-1.73 2.643,-4.205 3.748,-7.424c1.105,-3.22 2.427,-7.088 3.964,-11.604c1.634,-5.094 3.436,-9.37 5.406,-12.83c1.97,-3.46 4.373,-6.078 7.208,-7.856c2.835,-1.778 6.511,-2.667 11.027,-2.667c7.592,0 13.142,2.859 16.65,8.577c3.508,5.718 5.261,13.43 5.261,23.136Z" style="fill:#fff;fill-rule:nonzero;"/><path d="M50.977,233.882l-10.955,-0.72l-0,-46.417l-11.965,-0l0,-12.974l22.92,0l0,60.111Z" style="fill:#fff;fill-rule:nonzero;"/><path d="M142.081,122.885c0,6.92 -0.816,13.07 -2.45,18.452c-1.634,5.382 -4.229,9.634 -7.784,12.757c-3.556,3.124 -8.265,4.685 -14.127,4.685c-3.94,0 -7.424,-0.913 -10.451,-2.739c-3.028,-1.826 -5.406,-4.516 -7.136,-8.072c-1.153,2.979 -3.123,5.454 -5.91,7.424c-2.787,1.97 -6.247,2.955 -10.379,2.955c-7.4,-0 -12.998,-2.283 -16.794,-6.847c-3.796,-4.565 -5.694,-10.403 -5.694,-17.515c0,-2.787 0.168,-5.189 0.505,-7.208c0.336,-2.018 0.793,-3.844 1.369,-5.477l11.965,-0c-0.769,2.787 -1.153,6.054 -1.153,9.802c-0,3.844 0.768,6.823 2.306,8.937c1.538,2.115 4.036,3.172 7.496,3.172c3.652,-0 6.271,-1.201 7.856,-3.604c1.586,-2.403 2.379,-5.718 2.379,-9.946l-0,-8.217l11.676,-0.721l0,9.226c0,9.129 3.988,13.694 11.965,13.694c3.94,0 6.895,-1.633 8.865,-4.901c1.97,-3.267 2.955,-8.313 2.955,-15.136c0,-13.55 -5.526,-20.325 -16.577,-20.325l-50.165,-0l-0,-15.569l48.291,0c10.475,0 18.259,2.931 23.352,8.794c5.094,5.862 7.64,14.655 7.64,26.379Z" style="fill:#fff;fill-rule:nonzero;"/><path d="M50.977,121.876l-21.046,0l0,-42.38l10.956,0.576l-0,28.831l10.09,-0l0,12.973Z" style="fill:#fff;fill-rule:nonzero;"/><path d="M284.792,648.248l-77.842,-0l-0,-14.271l8.505,-0.865c-3.075,-3.556 -5.502,-7.592 -7.28,-12.109c-1.778,-4.517 -2.667,-9.706 -2.667,-15.569c0,-8.264 2.451,-14.679 7.352,-19.244c4.901,-4.565 11.773,-6.847 20.614,-6.847l51.318,-0l-0,15.568l-50.597,0c-5.67,0 -9.755,1.346 -12.253,4.037c-2.499,2.69 -3.748,6.727 -3.748,12.108c-0,4.325 0.889,8.361 2.667,12.109c1.777,3.748 4.012,6.871 6.703,9.37l57.228,0l-0,15.713Z" style="fill:#fff;fill-rule:nonzero;"/><path d="M195.129,612.354l-13.262,-0l0,11.388l-10.811,-0l-0,-22.2l13.118,0l-0,-31.136l10.955,0.576l0,41.372Z" style="fill:#fff;fill-rule:nonzero;"/><path d="M284.792,531.629l-49.012,-0c-3.94,-0 -7.207,0.432 -9.802,1.297c-2.595,0.865 -4.541,2.499 -5.838,4.901c-1.298,2.403 -1.946,5.958 -1.946,10.667c-0,3.076 0.336,6.415 1.009,10.019c0.673,3.604 1.585,6.847 2.739,9.73l-12.109,0c-1.249,-2.883 -2.282,-6.366 -3.099,-10.451c-0.817,-4.084 -1.226,-8.192 -1.226,-12.325c0,-10.379 2.259,-17.899 6.775,-22.56c4.517,-4.661 11.677,-6.991 21.479,-6.991l51.03,0l-0,15.713Z" style="fill:#fff;fill-rule:nonzero;"/><path d="M286.234,478.292c-0,8.938 -1.442,16.722 -4.325,23.353l-12.397,-0c1.249,-2.883 2.258,-6.03 3.027,-9.442c0.769,-3.412 1.153,-6.799 1.153,-10.163c0,-6.535 -0.913,-11.724 -2.739,-15.568c-1.826,-3.844 -4.781,-6.607 -8.865,-8.289c-4.084,-1.682 -9.49,-2.523 -16.217,-2.523c-9.995,0 -17.106,2.043 -21.335,6.127c-4.228,4.084 -6.342,10.883 -6.342,20.397c-0,3.46 0.36,6.824 1.081,10.091c0.721,3.268 1.754,6.391 3.099,9.37l-12.541,-0c-1.346,-3.267 -2.403,-6.799 -3.171,-10.595c-0.769,-3.796 -1.154,-7.905 -1.154,-12.325c0,-12.878 3.436,-22.464 10.307,-28.759c6.871,-6.294 16.89,-9.442 30.056,-9.442c13.07,0 23.064,3.004 29.984,9.01c6.919,6.006 10.379,15.592 10.379,28.758Z" style="fill:#fff;fill-rule:nonzero;"/><path d="M286.234,401.892c-0,4.901 -0.793,9.37 -2.379,13.406c-1.586,4.036 -4.132,7.232 -7.64,9.586c-3.508,2.354 -8.097,3.532 -13.767,3.532c-7.592,-0 -13.502,-2.547 -17.73,-7.64c-4.229,-5.094 -6.343,-12.638 -6.343,-22.632l0,-23.785l-4.901,-0c-5.67,-0 -9.634,1.441 -11.893,4.324c-2.258,2.883 -3.387,8.169 -3.387,15.857c-0,4.421 0.288,8.745 0.865,12.974c0.576,4.228 1.537,8.36 2.883,12.397l-12.109,-0c-1.249,-3.748 -2.282,-8.121 -3.099,-13.118c-0.817,-4.997 -1.226,-9.995 -1.226,-14.992c0,-2.499 0.12,-4.877 0.361,-7.135c0.24,-2.259 0.6,-4.349 1.081,-6.271l-0,-26.092l12.253,0.865l-0,9.082c2.114,-1.346 4.493,-2.258 7.135,-2.739c2.643,-0.48 5.502,-0.721 8.577,-0.721l49.877,0l-0,15.569l-34.308,-0l-0,22.92c-0,5.285 0.889,9.298 2.667,12.037c1.777,2.738 4.877,4.108 9.297,4.108c4.229,-0 7.16,-1.225 8.794,-3.676c1.633,-2.451 2.45,-6.463 2.45,-12.037c0,-1.73 -0.096,-3.483 -0.288,-5.261c-0.192,-1.778 -0.481,-3.292 -0.865,-4.541l11.965,-0c0.48,1.73 0.889,3.796 1.225,6.199c0.336,2.402 0.505,4.997 0.505,7.784Z" style="fill:#fff;fill-rule:nonzero;"/><path d="M321.118,372.341l-17.875,-0l0,9.081l-10.234,-0.721l-0,-21.767l28.109,0l0,13.407Z" style="fill:#fff;fill-rule:nonzero;"/><path d="M286.234,312.662c-0,5.093 -0.337,10.018 -1.01,14.775c-0.672,4.757 -1.633,8.673 -2.883,11.749l-13.117,-0c1.441,-3.652 2.546,-7.616 3.315,-11.893c0.769,-4.276 1.153,-8.193 1.153,-11.748c0,-6.631 -0.6,-11.533 -1.802,-14.704c-1.201,-3.171 -3.724,-4.757 -7.568,-4.757c-2.787,0 -4.901,0.817 -6.342,2.451c-1.442,1.633 -2.715,4.036 -3.82,7.207c-1.105,3.172 -2.427,7.112 -3.965,11.821c-1.537,4.42 -3.219,8.409 -5.045,11.964c-1.826,3.556 -4.132,6.367 -6.919,8.433c-2.787,2.066 -6.295,3.1 -10.523,3.1c-6.823,-0 -12.229,-2.595 -16.217,-7.785c-3.989,-5.189 -5.983,-13.021 -5.983,-23.496c0,-4.421 0.337,-8.794 1.009,-13.118c0.673,-4.325 1.49,-7.881 2.451,-10.668l12.974,0c-1.25,3.172 -2.187,6.704 -2.811,10.596c-0.625,3.892 -0.937,7.52 -0.937,10.883c-0,5.574 0.6,10.043 1.802,13.406c1.201,3.364 3.627,5.046 7.279,5.046c2.403,-0 4.301,-0.865 5.694,-2.595c1.394,-1.73 2.643,-4.205 3.748,-7.424c1.105,-3.219 2.427,-7.087 3.964,-11.604c1.634,-5.094 3.436,-9.37 5.406,-12.83c1.97,-3.459 4.373,-6.078 7.208,-7.856c2.835,-1.778 6.511,-2.667 11.027,-2.667c7.592,0 13.142,2.859 16.65,8.577c3.508,5.718 5.262,13.43 5.262,23.137Z" style="fill:#fff;fill-rule:nonzero;"/><path d="M286.234,239c-0,8.361 -2.451,14.872 -7.352,19.532c-4.901,4.661 -11.869,6.992 -20.902,6.992l-51.03,-0l-0,-15.713l50.309,0c5.862,0 10.067,-1.297 12.613,-3.892c2.547,-2.595 3.82,-6.631 3.82,-12.109c0,-4.228 -0.889,-8.264 -2.667,-12.108c-1.777,-3.844 -4.012,-7.016 -6.703,-9.514l-57.372,-0l-0,-15.569l77.842,0l-0,14.271l-8.505,0.721c2.979,3.556 5.382,7.568 7.208,12.037c1.826,4.468 2.739,9.586 2.739,15.352Z" style="fill:#fff;fill-rule:nonzero;"/><path d="M284.792,148.905l-49.012,-0c-3.94,-0 -7.207,0.432 -9.802,1.297c-2.595,0.865 -4.541,2.499 -5.838,4.901c-1.298,2.403 -1.946,5.959 -1.946,10.668c-0,3.075 0.336,6.414 1.009,10.018c0.673,3.604 1.585,6.847 2.739,9.73l-12.109,0c-1.249,-2.883 -2.282,-6.366 -3.099,-10.451c-0.817,-4.084 -1.226,-8.192 -1.226,-12.325c0,-10.379 2.259,-17.898 6.775,-22.559c4.517,-4.661 11.677,-6.992 21.479,-6.992l51.03,0l-0,15.713Z" style="fill:#fff;fill-rule:nonzero;"/><path d="M286.234,89.37c-0,5.093 -0.337,10.019 -1.01,14.776c-0.672,4.757 -1.633,8.673 -2.883,11.748l-13.117,-0c1.441,-3.652 2.546,-7.616 3.315,-11.893c0.769,-4.276 1.153,-8.192 1.153,-11.748c0,-6.631 -0.6,-11.532 -1.802,-14.703c-1.201,-3.172 -3.724,-4.757 -7.568,-4.757c-2.787,-0 -4.901,0.816 -6.342,2.45c-1.442,1.634 -2.715,4.036 -3.82,7.208c-1.105,3.171 -2.427,7.111 -3.965,11.82c-1.537,4.421 -3.219,8.409 -5.045,11.965c-1.826,3.556 -4.132,6.367 -6.919,8.433c-2.787,2.066 -6.295,3.099 -10.523,3.099c-6.823,-0 -12.229,-2.595 -16.217,-7.784c-3.989,-5.19 -5.983,-13.022 -5.983,-23.497c0,-4.421 0.337,-8.793 1.009,-13.118c0.673,-4.324 1.49,-7.88 2.451,-10.667l12.974,-0c-1.25,3.171 -2.187,6.703 -2.811,10.595c-0.625,3.892 -0.937,7.52 -0.937,10.884c-0,5.573 0.6,10.042 1.802,13.406c1.201,3.363 3.627,5.045 7.279,5.045c2.403,-0 4.301,-0.865 5.694,-2.595c1.394,-1.73 2.643,-4.204 3.748,-7.424c1.105,-3.219 2.427,-7.087 3.964,-11.604c1.634,-5.093 3.436,-9.37 5.406,-12.829c1.97,-3.46 4.373,-6.079 7.208,-7.857c2.835,-1.778 6.511,-2.666 11.027,-2.666c7.592,-0 13.142,2.859 16.65,8.577c3.508,5.718 5.262,13.43 5.262,23.136Z" style="fill:#fff;fill-rule:nonzero;"/><path d="M195.129,120.651l-10.955,-0.721l-0,-46.417l-11.965,0l0,-12.973l22.92,-0l0,60.111Z" style="fill:#fff;fill-rule:nonzero;"/></g></g></svg>