<svg width="20" height="20" viewBox="0 0 20 20" fill="none" xmlns="http://www.w3.org/2000/svg">
<circle cx="10" cy="10" r="9.5" fill="#FFC700" stroke="#EE892D"/>
<path d="M3.157 7.96668C3.11138 7.9538 3.0623 7.96787 3.03086 8.00285C2.99942 8.03784 2.99124 8.08749 3.00984 8.13045C3.87833 10.0268 5.41026 12.0632 7.34024 13.2025C6.11204 13.1852 4.89782 13.4605 3.80113 14.0047C3.75163 14.0379 3.72201 14.093 3.72201 14.1519C3.72201 14.2108 3.75163 14.2659 3.80113 14.299C5.05321 14.9043 6.56342 15.2484 7.96749 15.0348C7.65777 15.5201 7.44489 16.0589 7.34024 16.6226C7.33408 16.6673 7.35273 16.7119 7.38912 16.7393C7.42551 16.7668 7.47405 16.773 7.51635 16.7555C8.41621 16.4778 9.33295 15.8987 9.75031 15.0348V16.7627C9.75031 16.8937 9.85832 17 9.99156 17C10.1248 17 10.2328 16.8937 10.2328 16.7627V15.0348C10.6502 15.8963 11.5669 16.4778 12.4668 16.7555C12.5091 16.773 12.5576 16.7668 12.594 16.7393C12.6304 16.7119 12.649 16.6673 12.6429 16.6226C12.539 16.0591 12.3269 15.5202 12.018 15.0348C13.4197 15.2508 14.9299 14.9043 16.1844 14.299C16.2339 14.2659 16.2635 14.2108 16.2635 14.1519C16.2635 14.093 16.2339 14.0379 16.1844 14.0047C15.0884 13.4608 13.8751 13.1856 12.6477 13.2025C14.5584 12.0704 16.1048 10.0363 16.9902 8.13045C17.0088 8.08749 17.0006 8.03784 16.9691 8.00285C16.9377 7.96787 16.8886 7.9538 16.843 7.96668C14.7466 8.64074 12.474 9.97461 11.123 11.7903H11.1109C11.8709 8.98964 11.2774 5.65733 10.1146 3.07028C10.0959 3.02763 10.0532 3 10.006 3C9.95883 3 9.91615 3.02763 9.89747 3.07028C8.73224 5.68106 8.1436 9.00388 8.90111 11.7903H8.88905C7.53806 9.99123 5.27274 8.64549 3.157 7.96668Z" fill="#CF6300"/>
</svg>
