<svg width="16" height="16" viewBox="0 0 16 16" fill="none" xmlns="http://www.w3.org/2000/svg">
<circle cx="8" cy="8" r="7.5" fill="#FFC700" stroke="#EE892D"/>
<path d="M2.52599 6.37337C2.4895 6.36306 2.45023 6.37432 2.42508 6.40231C2.39993 6.43029 2.39339 6.47002 2.40826 6.50439C3.10306 8.02149 4.3286 9.65062 5.87258 10.562C4.89003 10.5482 3.91865 10.7684 3.0413 11.2038C3.0017 11.2303 2.978 11.2744 2.978 11.3215C2.978 11.3686 3.0017 11.4127 3.0413 11.4392C4.04296 11.9234 5.25113 12.1987 6.37438 12.0279C6.1266 12.4161 5.9563 12.8472 5.87258 13.2981C5.86766 13.3339 5.88258 13.3695 5.91169 13.3915C5.9408 13.4135 5.97963 13.4184 6.01347 13.4045C6.73336 13.1823 7.46675 12.719 7.80064 12.0279V13.4101C7.80064 13.515 7.88705 13.6 7.99364 13.6C8.10023 13.6 8.18663 13.515 8.18663 13.4101V12.0279C8.52052 12.7171 9.25392 13.1823 9.9738 13.4045C10.0076 13.4184 10.0465 13.4135 10.0756 13.3915C10.1047 13.3695 10.1196 13.3339 10.1147 13.2981C10.0316 12.8473 9.86192 12.4162 9.61482 12.0279C10.7361 12.2006 11.9443 11.9234 12.9479 11.4392C12.9875 11.4127 13.0112 11.3686 13.0112 11.3215C13.0112 11.2744 12.9875 11.2303 12.9479 11.2038C12.0711 10.7687 11.1005 10.5485 10.1185 10.562C11.6471 9.65632 12.8842 8.02908 13.5925 6.50439C13.6074 6.47002 13.6009 6.43029 13.5757 6.40231C13.5506 6.37432 13.5113 6.36306 13.4748 6.37337C11.7976 6.91262 9.97959 7.97972 8.8988 9.43226H8.88915C9.49709 7.19173 9.02232 4.52589 8.09207 2.45625C8.07712 2.42213 8.04298 2.40002 8.00522 2.40002C7.96745 2.40002 7.93331 2.42213 7.91837 2.45625C6.98618 4.54487 6.51527 7.20313 7.12128 9.43226H7.11163C6.03084 7.99301 4.21859 6.91642 2.52599 6.37337V6.37337Z" fill="#CF6300"/>
</svg>
